<svg width="392" height="392" viewBox="0 0 392 392" fill="none" xmlns="http://www.w3.org/2000/svg">
<path d="M358.791 158.385C359.431 159.093 359.922 159.924 360.235 160.826C360.547 161.729 360.675 162.685 360.61 163.638C360.467 165.545 359.888 167.394 358.916 169.042C357.139 172.272 353.815 174.896 350.627 176.751C348.797 173.093 349.926 168.477 350.627 166.178C351.761 162.519 356.026 156.649 358.77 158.385" fill="#EBEBEB"/>
<path d="M351.646 183.703C351.85 182.655 352.327 181.679 353.029 180.875C353.731 180.071 354.634 179.467 355.645 179.124C356.66 178.797 357.729 178.674 358.792 178.764C359.854 178.854 360.888 179.154 361.833 179.647C362.711 180.086 363.579 180.755 363.793 181.738C363.862 182.193 363.81 182.659 363.641 183.087C363.472 183.516 363.193 183.893 362.832 184.178C362.099 184.744 361.23 185.104 360.312 185.224C357.176 185.746 354.098 185.705 351.646 183.719" fill="#EBEBEB"/>
<path d="M343.723 192.583C343.833 192.355 343.962 192.136 344.109 191.93L345.228 190.194C346.19 188.752 347.517 186.666 349.639 184.968C351.416 183.495 353.555 182.525 355.833 182.156C356.525 182.054 357.227 182.037 357.923 182.103C358.111 182.118 358.298 182.145 358.483 182.182C358.613 182.182 358.676 182.218 358.676 182.229C357.741 182.173 356.802 182.211 355.875 182.344C353.64 182.77 351.55 183.758 349.801 185.213C347.711 186.86 346.383 188.903 345.385 190.32C344.888 191.036 344.486 191.616 344.193 192.008C344.056 192.215 343.898 192.407 343.723 192.583Z" fill="#E0E0E0"/>
<path d="M355.938 163.157C355.915 163.265 355.883 163.372 355.844 163.476L355.54 164.369C355.269 165.148 354.861 166.261 354.349 167.636C353.303 170.385 351.845 174.164 350.126 178.298C348.406 182.433 346.765 186.138 345.536 188.814C344.925 190.147 344.418 191.219 344.063 191.95C343.89 192.295 343.749 192.578 343.644 192.797C343.6 192.898 343.545 192.994 343.482 193.085C343.507 192.978 343.544 192.875 343.592 192.776C343.692 192.552 343.812 192.254 343.968 191.903L345.364 188.726C346.545 186.039 348.16 182.323 349.88 178.189C351.599 174.054 353.099 170.291 354.171 167.558L355.441 164.322C355.587 163.967 355.702 163.674 355.796 163.449C355.832 163.347 355.88 163.249 355.938 163.157Z" fill="#E0E0E0"/>
<path d="M345.865 183.739C346.366 181.544 346.337 179.261 345.779 177.079C345.22 174.897 344.15 172.88 342.656 171.195C341.893 170.343 340.769 169.538 339.693 169.925C338.616 170.312 338.271 171.655 338.25 172.8C338.247 175.189 338.952 177.525 340.274 179.514C341.597 181.504 343.479 183.058 345.682 183.98" fill="#EBEBEB"/>
<path d="M341.826 174.608C342.01 174.763 342.177 174.939 342.322 175.131C342.511 175.333 342.686 175.548 342.845 175.774C343.038 176.041 343.279 176.323 343.493 176.678C343.741 177.053 343.97 177.44 344.178 177.838C344.426 178.29 344.647 178.756 344.841 179.234C345.287 180.334 345.607 181.48 345.793 182.652C345.96 183.826 345.992 185.015 345.887 186.196C345.839 186.711 345.76 187.222 345.651 187.727C345.565 188.169 345.452 188.606 345.312 189.034C345.207 189.389 345.083 189.738 344.941 190.079C344.843 190.341 344.728 190.596 344.596 190.842C344.504 191.062 344.39 191.272 344.256 191.47C344.198 191.47 344.685 190.544 345.134 188.976C345.257 188.552 345.356 188.121 345.432 187.686C345.529 187.186 345.599 186.682 345.641 186.175C345.733 185.012 345.696 183.843 345.531 182.689C345.345 181.54 345.039 180.413 344.617 179.328C344.408 178.832 344.214 178.361 343.984 177.938C343.786 177.54 343.568 177.153 343.331 176.777C342.453 175.387 341.752 174.645 341.826 174.608Z" fill="#E0E0E0"/>
<path d="M34.0054 125.807C34.0054 125.807 29.1968 127.375 33.859 137.671C38.5212 147.968 41.8506 153.132 41.8506 153.132C41.8506 153.132 42.6503 155.51 40.6642 155.782C38.678 156.054 34.3922 155.16 33.3886 157.528C32.3433 159.979 34.0681 162.42 37.6484 164.662C41.2286 166.904 48.8962 172.094 49.5861 172.565C50.276 173.035 50.9136 174.133 49.5861 174.551C48.2585 174.969 38.4689 175.513 39.0125 180.143C39.5561 184.774 50.5635 189.395 51.7447 189.917C52.9259 190.44 53.2029 190.963 53.0723 191.632C52.9416 192.301 49.6331 192.154 46.8525 192.447C44.0719 192.74 40.8993 193.524 41.4377 196.168C41.976 198.813 48.3474 204.62 64.3723 206.951L71.8674 207.547L76.2473 201.395C84.8295 187.665 84.5159 179.051 82.8486 176.929C81.1813 174.807 78.5104 176.709 76.5086 178.654C74.5068 180.598 72.4527 183.201 71.8674 182.872C71.282 182.542 71.0468 181.999 71.4126 180.75C71.7785 179.5 75.3901 168.132 72.2071 164.725C69.024 161.317 62.2764 168.425 61.1056 169.178C59.9349 169.93 59.5115 168.707 59.5951 167.887C59.6788 167.066 60.6718 157.852 61.2781 153.67C61.8844 149.489 61.1265 146.614 58.5916 145.83C56.1455 145.057 54.0444 148.914 52.5548 150.252C51.0652 151.59 49.769 149.442 49.769 149.442C49.769 149.442 47.9867 143.578 43.1364 133.354C38.286 123.131 33.9008 125.885 33.9008 125.885" fill="#EBEBEB"/>
<path d="M72.1819 209.318C68.6486 201.792 62.5961 188.318 57.3381 176.777C52.0801 165.237 47.3134 154.794 43.8167 147.257L39.672 138.33L38.5483 135.905L38.2608 135.267C38.2213 135.193 38.1864 135.116 38.1562 135.037C38.1562 135.037 38.1981 135.105 38.2712 135.246L38.5796 135.873C38.8462 136.433 39.2382 137.243 39.7452 138.283C40.7539 140.374 42.1912 143.41 43.9578 147.168C47.4911 154.689 52.2839 165.122 57.5472 176.662C62.8104 188.203 68.8368 201.708 72.3334 209.256" fill="#E0E0E0"/>
<path d="M39.3574 159.017C39.5367 159.058 39.7118 159.116 39.8801 159.19C40.2041 159.31 40.6745 159.503 41.2495 159.744C42.3993 160.23 43.9726 160.94 45.6974 161.756L50.0982 163.847L51.4362 164.474C51.6042 164.542 51.7653 164.626 51.9171 164.725C51.7366 164.691 51.561 164.635 51.3944 164.557C51.0652 164.437 50.6 164.244 50.025 163.998C48.8752 163.475 47.3124 162.77 45.5928 161.954L41.1763 159.864L39.8383 159.242C39.67 159.185 39.5087 159.11 39.3574 159.017Z" fill="#E0E0E0"/>
<path d="M52.4452 164.307C52.3877 164.307 53.71 160.972 55.3982 156.921C57.0864 152.871 58.5342 149.604 58.5656 149.604C58.597 149.604 57.306 152.939 55.6125 156.995C53.9191 161.05 52.5079 164.307 52.4452 164.307Z" fill="#E0E0E0"/>
<path d="M59.7207 182.365C59.8144 182.205 59.9248 182.056 60.05 181.92C60.3009 181.602 60.6197 181.21 60.996 180.744C61.7905 179.751 62.8881 178.372 64.0432 176.809C65.1982 175.246 66.1965 173.803 66.9126 172.748L67.7593 171.498C67.8552 171.341 67.9654 171.192 68.0886 171.054C68.0257 171.229 67.9396 171.394 67.8325 171.546C67.6548 171.859 67.3882 172.298 67.0485 172.836C66.369 173.918 65.3916 175.387 64.2261 176.95C63.0605 178.513 61.9525 179.882 61.1214 180.849C60.7033 181.33 60.3636 181.717 60.1179 181.978C60.0018 182.123 59.8684 182.252 59.7207 182.365Z" fill="#E0E0E0"/>
<path d="M46.832 180.216C47.0069 180.205 47.1825 180.215 47.3547 180.248L48.7398 180.42C49.9053 180.582 51.5151 180.817 53.2922 181.089C55.0693 181.361 56.6738 181.612 57.8342 181.821L59.2088 182.072C59.3786 182.092 59.5453 182.132 59.7053 182.192C59.5305 182.204 59.3549 182.193 59.1826 182.161L57.8028 181.988C56.632 181.826 55.0222 181.591 53.2452 181.319C51.4681 181.047 49.8635 180.797 48.7032 180.588L47.3338 180.337C47.1626 180.315 46.9943 180.275 46.832 180.216Z" fill="#E0E0E0"/>
<path d="M51.2227 196.999C51.4414 196.994 51.6602 197.01 51.876 197.046L53.6531 197.266C55.1479 197.459 57.2124 197.742 59.4912 198.071C61.7701 198.4 63.8346 198.708 65.3242 198.949L67.0908 199.236C67.3085 199.266 67.5235 199.313 67.7337 199.377C67.5132 199.383 67.2926 199.367 67.0751 199.33L65.3033 199.111C63.8085 198.918 61.7387 198.63 59.4599 198.301C57.1811 197.972 55.1165 197.663 53.6269 197.428L51.8655 197.135C51.6475 197.11 51.4322 197.065 51.2227 196.999Z" fill="#E0E0E0"/>
<path d="M67.3574 199.21C67.4742 199.005 67.6088 198.811 67.7599 198.63C68.0526 198.233 68.4393 197.721 68.9045 197.099C69.8715 195.802 71.199 194.01 72.6102 191.987C74.0214 189.964 75.2549 188.104 76.133 186.76L77.1783 185.156C77.2967 184.954 77.4313 184.761 77.5808 184.581C77.4894 184.797 77.3792 185.005 77.2515 185.203C77.0268 185.595 76.6923 186.159 76.2689 186.844C75.4222 188.224 74.2096 190.105 72.7932 192.128C71.3767 194.151 70.0335 195.938 69.03 197.208C68.5073 197.841 68.1153 198.353 67.8226 198.698C67.6844 198.883 67.5287 199.055 67.3574 199.21Z" fill="#E0E0E0"/>
<path d="M189.451 187.644C176.06 180.906 171.022 165.53 169.454 151.282C169.192 148.904 168.57 146.447 169.396 144.21C170.222 141.973 172.642 140.17 174.905 140.865C176.781 141.435 177.842 143.369 179.086 144.916C180.725 146.983 182.916 148.543 185.405 149.416C187.026 149.98 188.959 150.189 190.329 149.154C192.205 147.733 192.038 144.879 191.683 142.527C191.021 138.14 190.358 133.757 189.696 129.377C189.341 127.025 188.991 124.626 189.399 122.284C189.806 119.943 191.123 117.638 193.271 116.686C195.42 115.735 198.378 116.624 199.183 118.861C199.517 119.791 199.465 120.815 199.674 121.782C199.883 122.749 200.49 123.763 201.456 123.904C202.423 124.046 203.286 123.241 203.887 122.446C205.978 119.723 207.18 116.42 208.282 113.153C209.385 109.886 210.425 106.552 212.255 103.641C214.084 100.729 216.839 98.2363 220.178 97.5568C223.518 96.8773 227.417 98.4401 228.745 101.628C230.072 104.817 228.63 108.47 226.91 111.46C224.371 115.9 221.203 119.949 217.502 123.481C216.833 124.113 216.112 124.798 215.934 125.713C215.652 127.354 217.361 128.697 218.987 128.99C220.826 129.319 222.703 128.865 224.569 128.812C226.435 128.76 228.541 129.288 229.487 130.903C230.799 133.171 229.153 135.983 227.396 137.922C223.911 141.803 219.782 145.055 215.192 147.534C213.551 148.417 211.81 149.238 210.587 150.67C209.364 152.102 208.831 154.329 209.913 155.86C210.995 157.392 213.237 157.616 215.004 157.015C216.771 156.414 218.25 155.196 219.886 154.297C222.943 152.609 227.151 152.207 229.628 154.721C231.254 156.362 231.745 158.902 231.374 161.197C231.003 163.491 229.879 165.571 228.646 167.526C224.339 174.357 218.412 180.217 211.283 183.901C204.153 187.586 197.306 189.295 189.456 187.649" fill="#F5F5F5"/>
<path d="M191.82 178.225C193.06 170.162 194.76 162.177 196.911 154.308L198.573 148.104C199.122 146.071 199.666 144.053 200.319 142.114C201.58 138.391 203.048 134.74 204.715 131.18C206.283 127.772 207.887 124.594 209.419 121.631C210.95 118.667 212.44 115.939 213.893 113.509C216.172 109.662 218.753 106.002 221.612 102.564C222.621 101.346 223.436 100.426 223.996 99.8148L224.633 99.1196C224.703 99.0362 224.78 98.9592 224.863 98.8896C224.809 98.9819 224.744 99.0678 224.67 99.1458L224.058 99.8723C223.536 100.505 222.731 101.44 221.743 102.674C218.943 106.138 216.407 109.807 214.154 113.65C212.717 116.085 211.253 118.819 209.737 121.782C208.222 124.746 206.627 127.929 205.075 131.332C203.42 134.89 201.961 138.537 200.706 142.255C200.058 144.189 199.519 146.186 198.97 148.224C198.422 150.263 197.878 152.332 197.319 154.423C195.169 162.276 193.46 170.244 192.202 178.288" fill="#E0E0E0"/>
<path d="M200.437 142.083C200.277 141.773 200.15 141.447 200.061 141.11C199.847 140.478 199.538 139.542 199.225 138.408C198.556 136.109 197.735 132.91 196.847 129.377C195.958 125.843 195.09 122.66 194.39 120.382C194.04 119.242 193.747 118.322 193.538 117.69C193.409 117.366 193.314 117.03 193.256 116.686C193.438 116.982 193.585 117.298 193.695 117.627C193.956 118.244 194.291 119.153 194.683 120.287C195.462 122.545 196.376 125.728 197.27 129.267L199.523 138.325C199.798 139.412 200.033 140.325 200.228 141.063C200.337 141.394 200.407 141.736 200.437 142.083Z" fill="#E0E0E0"/>
<path d="M229.879 132.053C229.495 132.196 229.097 132.303 228.693 132.372C227.93 132.554 226.816 132.811 225.458 133.171C222.729 133.872 218.992 134.969 214.926 136.36C210.859 137.75 207.232 139.187 204.64 140.29C203.338 140.813 202.298 141.304 201.577 141.623C201.213 141.812 200.831 141.966 200.438 142.083C200.766 141.845 201.116 141.638 201.483 141.466C202.183 141.1 203.208 140.588 204.493 140.002C207.065 138.821 210.687 137.347 214.764 135.941C218.242 134.735 221.78 133.709 225.363 132.868C226.738 132.544 227.862 132.345 228.641 132.204C229.048 132.114 229.462 132.063 229.879 132.053Z" fill="#E0E0E0"/>
<path d="M192.118 177.614C192.016 177.514 191.928 177.402 191.857 177.279C191.674 177.002 191.454 176.662 191.182 176.234C190.597 175.345 189.787 174.039 188.809 172.413C186.849 169.157 184.283 164.573 181.518 159.477C178.753 154.381 176.229 149.802 174.337 146.536L172.089 142.647L171.483 141.602C171.404 141.482 171.341 141.352 171.295 141.215C171.398 141.315 171.486 141.43 171.556 141.555L172.23 142.6C172.816 143.489 173.626 144.795 174.603 146.426C176.563 149.682 179.135 154.266 181.921 159.362C184.707 164.458 187.205 169.052 189.097 172.345L191.344 176.239C191.59 176.662 191.789 177.018 191.951 177.284C192.019 177.387 192.075 177.498 192.118 177.614Z" fill="#E0E0E0"/>
<path d="M230.455 158.845C230.339 158.933 230.213 159.007 230.079 159.064L228.97 159.603L224.868 161.62C221.402 163.329 216.641 165.739 211.388 168.415C206.135 171.091 201.342 173.453 197.84 175.089C196.089 175.905 194.668 176.553 193.659 176.981L192.514 177.462C192.385 177.53 192.246 177.578 192.102 177.603C192.218 177.516 192.345 177.442 192.478 177.384L193.586 176.824L197.694 174.807C201.159 173.103 205.916 170.694 211.174 168.012C216.432 165.331 221.214 162.974 224.716 161.338C226.467 160.522 227.889 159.874 228.897 159.446L230.042 158.965C230.173 158.904 230.312 158.863 230.455 158.845Z" fill="#E0E0E0"/>
<path d="M296.991 123.356C296.991 114.826 288.033 109.427 278.896 113.697C276.832 114.665 275.142 116.285 274.088 118.307C271.793 122.76 272.807 127.84 274.893 132.063L282.001 150.08C282.225 150.654 282.617 151.148 283.126 151.496C283.636 151.844 284.238 152.03 284.855 152.03C285.472 152.03 286.074 151.844 286.583 151.496C287.092 151.148 287.485 150.654 287.709 150.08L294.681 131.964C297.09 126.429 296.991 123.356 296.991 123.356ZM288.409 130.777C282.268 134.347 276.043 127.746 279.409 121.234C279.848 120.365 280.526 119.639 281.363 119.143C287.505 115.573 293.724 122.174 290.358 128.687C289.921 129.555 289.245 130.281 288.409 130.777Z" fill="#FFA448"/>
<path d="M371.093 297.106C371.093 297.184 292.693 297.242 196.031 297.242C99.3689 297.242 20.9375 297.184 20.9375 297.106C20.9375 297.027 99.3061 296.97 196.031 296.97C292.756 296.97 371.093 297.033 371.093 297.106Z" fill="#263238"/>
<path d="M169.427 297.106L99.9539 296.787C95.943 296.762 92.1055 295.148 89.2821 292.3C86.4587 289.451 84.8795 285.599 84.8907 281.588L85.6276 107.42C85.6511 103.407 87.2649 99.5673 90.1151 96.7425C92.9653 93.9178 96.8192 92.3386 100.832 92.3511L170.305 92.67C174.314 92.6948 178.15 94.3071 180.973 97.1537C183.796 100 185.377 103.85 185.368 107.859L184.631 282.027C184.61 286.041 182.998 289.884 180.147 292.711C177.297 295.538 173.441 297.118 169.427 297.106Z" fill="#455A64"/>
<path d="M170.206 98.6805L156.737 98.6178C155.85 98.6343 155.006 99.0017 154.39 99.6396C153.773 100.277 153.435 101.134 153.449 102.02V104.466C153.456 104.905 153.376 105.342 153.214 105.75C153.053 106.158 152.812 106.53 152.506 106.845C152.2 107.16 151.835 107.412 151.432 107.586C151.029 107.76 150.595 107.852 150.156 107.859L123.897 107.738C123.011 107.712 122.171 107.337 121.561 106.693C120.951 106.05 120.62 105.191 120.641 104.304V101.858C120.657 100.978 120.325 100.126 119.717 99.4886C119.11 98.8508 118.276 98.4779 117.395 98.4506H112.66L100.874 98.3617C98.0636 98.3478 95.3628 99.4505 93.3654 101.427C91.3679 103.404 90.2372 106.094 90.222 108.904L89.506 278.906C89.4935 281.717 90.5975 284.417 92.5754 286.414C94.5533 288.41 97.2431 289.539 100.053 289.553L169.39 289.872C170.782 289.878 172.162 289.61 173.45 289.083C174.739 288.556 175.911 287.781 176.899 286.801C177.888 285.821 178.674 284.656 179.212 283.372C179.751 282.088 180.031 280.711 180.037 279.319L180.753 109.322C180.759 107.931 180.491 106.552 179.965 105.264C179.438 103.976 178.663 102.805 177.683 101.817C176.704 100.829 175.539 100.043 174.256 99.505C172.973 98.9668 171.597 98.6867 170.206 98.6805Z" fill="#FAFAFA"/>
<path d="M90.1387 129.314H101.501L111.641 139.459L101.099 150.001L90.2589 139.156L90.1387 129.314Z" fill="#EBEBEB"/>
<path d="M113.957 135.006L108.26 129.314H121.076L113.957 135.006Z" fill="#EBEBEB"/>
<path d="M118.938 139.658L128.915 129.68H163.777C163.777 129.68 169.114 153.514 148.097 168.817L118.938 139.658Z" fill="#EBEBEB"/>
<path d="M114.667 142.835L103.994 153.514L133.53 183.049L144.203 172.016L114.667 142.835Z" fill="#EBEBEB"/>
<path d="M90.0078 159.566L96.6979 152.625L90.1385 146.065L90.0078 159.566Z" fill="#EBEBEB"/>
<path d="M100.701 156.718L90.4258 166.993V181.272L111.641 202.979L129.615 186.253L100.701 156.718Z" fill="#EBEBEB"/>
<path d="M152.096 171.812C152.096 171.812 174.11 155.672 166.992 129.68H180.68L180.513 203.041L152.096 171.812Z" fill="#EBEBEB"/>
<path d="M147.956 176.046L137.314 187.158L169.95 219.798L179.933 209.219L147.956 176.046Z" fill="#EBEBEB"/>
<path d="M132.865 190.199L116.135 206.81L149.596 240.036L166.295 223.891L132.865 190.199Z" fill="#EBEBEB"/>
<path d="M124.096 273.424L149.675 246.914L174.005 271.715L124.096 273.424Z" fill="#EBEBEB"/>
<path d="M153.662 243.491L180.318 217.096C180.318 218.267 180.088 271.824 180.088 271.824L153.662 243.491Z" fill="#EBEBEB"/>
<path d="M130.86 228.668L145.97 243.778L116.136 274.563L102.354 258.031L130.86 228.668Z" fill="#EBEBEB"/>
<path d="M90.0332 260.174C91.4601 260.033 128 225.814 128 225.814L90.0332 186.473V260.174Z" fill="#EBEBEB"/>
<path d="M89.5059 267.972L98.3023 260.174L110.486 274.563H89.5059V269.059" fill="#EBEBEB"/>
<path d="M100.873 118.955C99.9434 118.269 99.0696 117.51 98.2598 116.686C98.2598 116.289 98.2598 116.577 98.2598 116.488L98.2964 116.456L98.3591 116.399L98.4897 116.279L98.7406 116.044L99.2162 115.605L100.037 114.873C100.285 114.619 100.567 114.399 100.873 114.219C100.687 114.504 100.461 114.761 100.204 114.983L99.4201 115.756L98.9549 116.206L98.704 116.446L98.5786 116.566L98.5106 116.624L98.4793 116.655V116.456C99.341 117.226 100.141 118.061 100.873 118.955Z" fill="#263238"/>
<path d="M173.132 114.967C173.133 115.08 173.1 115.191 173.038 115.285C172.976 115.38 172.887 115.454 172.782 115.497C172.678 115.541 172.563 115.553 172.452 115.531C172.341 115.509 172.239 115.455 172.159 115.375C172.079 115.295 172.025 115.193 172.003 115.082C171.981 114.971 171.993 114.856 172.037 114.752C172.08 114.647 172.154 114.558 172.249 114.496C172.343 114.434 172.454 114.401 172.567 114.402C172.717 114.402 172.86 114.462 172.966 114.568C173.072 114.674 173.132 114.817 173.132 114.967Z" fill="#263238"/>
<path d="M172.97 116.519C173.05 116.599 173.104 116.7 173.126 116.811C173.148 116.921 173.137 117.036 173.094 117.14C173.051 117.244 172.978 117.333 172.884 117.396C172.791 117.459 172.68 117.492 172.568 117.492C172.455 117.492 172.345 117.459 172.251 117.396C172.157 117.333 172.084 117.244 172.041 117.14C171.998 117.036 171.987 116.921 172.009 116.811C172.031 116.7 172.086 116.599 172.165 116.519C172.273 116.414 172.417 116.355 172.568 116.355C172.718 116.355 172.863 116.414 172.97 116.519Z" fill="#263238"/>
<path d="M173.133 118.871C173.119 119.012 173.054 119.143 172.949 119.238C172.844 119.334 172.707 119.386 172.566 119.386C172.424 119.386 172.288 119.334 172.183 119.238C172.078 119.143 172.012 119.012 171.999 118.871C171.991 118.792 172 118.712 172.025 118.637C172.05 118.562 172.091 118.492 172.144 118.434C172.198 118.375 172.263 118.328 172.335 118.296C172.408 118.264 172.486 118.247 172.566 118.247C172.645 118.247 172.724 118.264 172.796 118.296C172.869 118.328 172.934 118.375 172.987 118.434C173.041 118.492 173.081 118.562 173.106 118.637C173.131 118.712 173.14 118.792 173.133 118.871Z" fill="#263238"/>
<path d="M148.64 117.282H124.189V119.321H148.64V117.282Z" fill="#263238"/>
<path d="M145.981 153.853C145.981 144.33 135.977 138.299 125.774 143.071C123.466 144.149 121.577 145.959 120.401 148.219C117.835 153.19 118.969 158.866 121.295 163.58L129.24 183.708C129.491 184.349 129.929 184.9 130.498 185.288C131.067 185.677 131.739 185.884 132.428 185.884C133.117 185.884 133.789 185.677 134.358 185.288C134.927 184.9 135.365 184.349 135.616 183.708L143.399 163.476C146.096 157.308 145.981 153.853 145.981 153.853ZM136.416 162.164C129.559 166.152 122.607 158.782 126.365 151.507C126.86 150.547 127.616 149.746 128.545 149.196C135.407 145.208 142.359 152.578 138.595 159.854C138.102 160.814 137.347 161.616 136.416 162.164Z" fill="#FFA448"/>
<path d="M353.882 226.567H63.8965V269.117H353.882V226.567Z" fill="#FFA448"/>
<g opacity="0.5">
<path d="M353.882 226.567H63.8965V269.117H353.882V226.567Z" fill="black"/>
</g>
<path d="M104.744 296.727C120.153 295.69 131.803 282.358 130.767 266.95C129.73 251.541 116.398 239.891 100.989 240.928C85.5809 241.965 73.9304 255.296 74.9674 270.705C76.0043 286.113 89.336 297.764 104.744 296.727Z" fill="#263238"/>
<path d="M74.9092 268.354C74.9092 268.38 74.9092 268.406 74.9092 268.427C74.856 272.099 75.5266 275.746 76.8827 279.159C78.2388 282.572 80.2539 285.684 82.8128 288.318C85.3718 290.953 88.4245 293.057 91.7968 294.511C95.169 295.966 98.7947 296.742 102.467 296.795C106.139 296.848 109.786 296.177 113.198 294.821C116.611 293.465 119.724 291.45 122.358 288.891C124.992 286.332 127.097 283.28 128.551 279.907C130.005 276.535 130.781 272.909 130.835 269.237C130.835 269.211 130.835 269.185 130.835 269.164L74.9092 268.354Z" fill="#263238"/>
<path d="M83.2346 268.547C83.1771 272.43 84.2724 276.243 86.382 279.503C88.4916 282.763 91.5206 285.325 95.0861 286.863C98.6515 288.402 102.593 288.848 106.412 288.146C110.232 287.444 113.757 285.625 116.542 282.92C119.328 280.214 121.248 276.743 122.061 272.946C122.873 269.148 122.541 265.196 121.107 261.587C119.673 257.978 117.2 254.876 114.003 252.673C110.805 250.47 107.026 249.264 103.143 249.209C97.9389 249.135 92.9185 251.13 89.1853 254.757C85.4521 258.383 83.3116 263.343 83.2346 268.547Z" fill="#FAFAFA"/>
<path d="M103.143 249.203C97.9383 249.128 92.9171 251.123 89.1836 254.75C85.45 258.376 83.3101 263.338 83.2344 268.542L122.492 269.112C122.566 263.906 120.569 258.884 116.94 255.151C113.312 251.417 108.349 249.278 103.143 249.203Z" fill="#E0E0E0"/>
<path d="M90.9076 268.657C90.8726 271.022 91.54 273.345 92.8252 275.331C94.1104 277.317 95.9557 278.877 98.1277 279.814C100.3 280.751 102.701 281.023 105.027 280.595C107.354 280.167 109.501 279.059 111.198 277.411C112.895 275.762 114.064 273.648 114.559 271.335C115.054 269.021 114.851 266.614 113.977 264.415C113.103 262.217 111.597 260.328 109.649 258.986C107.701 257.644 105.399 256.91 103.033 256.876C101.464 256.853 99.9047 257.14 98.4457 257.72C96.9868 258.3 95.6563 259.161 94.5302 260.255C93.4042 261.349 92.5047 262.654 91.8831 264.096C91.2615 265.537 90.93 267.087 90.9076 268.657Z" fill="#263238"/>
<path d="M318.319 296.717C333.736 295.823 345.509 282.6 344.615 267.182C343.721 251.765 330.497 239.991 315.08 240.886C299.662 241.78 287.889 255.003 288.783 270.421C289.678 285.838 302.901 297.612 318.319 296.717Z" fill="#263238"/>
<path d="M288.731 268.354C288.731 268.38 288.731 268.406 288.731 268.427C288.678 272.099 289.349 275.746 290.705 279.159C292.061 282.572 294.076 285.684 296.635 288.318C299.194 290.953 302.247 293.057 305.619 294.511C308.991 295.966 312.617 296.742 316.289 296.795C319.961 296.848 323.608 296.177 327.021 294.821C330.434 293.465 333.546 291.45 336.18 288.891C338.814 286.332 340.919 283.28 342.373 279.907C343.828 276.535 344.604 272.909 344.657 269.237C344.657 269.211 344.657 269.185 344.657 269.164L288.731 268.354Z" fill="#263238"/>
<path d="M297.057 268.547C296.999 272.43 298.095 276.243 300.204 279.503C302.314 282.763 305.343 285.325 308.908 286.863C312.474 288.402 316.415 288.848 320.235 288.146C324.054 287.444 327.579 285.625 330.365 282.92C333.15 280.214 335.07 276.743 335.883 272.946C336.695 269.148 336.363 265.196 334.929 261.587C333.495 257.978 331.022 254.876 327.825 252.673C324.627 250.47 320.848 249.264 316.965 249.209C311.761 249.135 306.741 251.13 303.008 254.757C299.274 258.383 297.134 263.343 297.057 268.547Z" fill="#FAFAFA"/>
<path d="M316.967 249.203C311.763 249.128 306.741 251.123 303.008 254.75C299.274 258.376 297.134 263.338 297.059 268.542L336.316 269.112C336.39 263.906 334.393 258.884 330.764 255.151C327.136 251.417 322.173 249.278 316.967 249.203Z" fill="#E0E0E0"/>
<path d="M304.714 268.657C304.679 271.022 305.347 273.345 306.632 275.331C307.917 277.317 309.762 278.877 311.934 279.814C314.106 280.751 316.508 281.023 318.834 280.595C321.161 280.167 323.308 279.059 325.005 277.411C326.701 275.762 327.871 273.648 328.366 271.335C328.86 269.021 328.658 266.614 327.784 264.415C326.91 262.217 325.404 260.328 323.456 258.986C321.508 257.644 319.205 256.91 316.84 256.876C315.27 256.853 313.711 257.14 312.252 257.72C310.793 258.3 309.463 259.161 308.337 260.255C307.211 261.349 306.311 262.654 305.69 264.096C305.068 265.537 304.737 267.087 304.714 268.657Z" fill="#263238"/>
<path d="M139.516 202.629C139.516 202.629 98.34 205.665 83.0677 209.089C72.3112 211.498 51.5718 215.664 51.8227 228.71L53.4691 238.065C53.4691 238.065 45.7807 241.578 45.7807 250.547C45.7807 259.516 43.9043 273.419 61.8631 273.978C64.8214 274.067 70.4401 273.978 70.4401 273.978C70.4401 273.978 66.9957 235.729 102.129 234.611C137.875 233.471 135.502 273.628 135.502 273.628H284.686C284.686 273.628 278.561 234.506 317.039 234.428C355.518 234.349 349.664 273.884 349.664 273.884C349.664 273.884 363.818 275.107 370.404 263.211C376.989 251.315 375.28 242.827 375.28 242.827L375.061 235.306C375.019 234.071 374.51 232.899 373.637 232.026C372.763 231.152 371.591 230.643 370.357 230.602C370.357 230.602 372.928 211.671 368.982 208.394C365.036 205.117 343.413 185.344 343.413 185.344L344.459 184.701C344.846 184.456 345.156 184.106 345.353 183.692C345.55 183.278 345.625 182.817 345.571 182.362C345.516 181.907 345.333 181.476 345.044 181.121C344.755 180.765 344.37 180.499 343.936 180.353C335.725 177.53 319.491 171.943 315.675 170.61C315.104 170.407 314.508 170.28 313.903 170.234C311.625 170.061 305.175 169.654 293.336 169.528C278.916 169.371 221.663 169.528 221.663 169.528C221.663 169.528 201.959 171.148 190.983 175.978C179.474 181.058 139.516 202.629 139.516 202.629Z" fill="#FFA448"/>
<g opacity="0.4">
<path d="M56.2228 249.502C54.728 249.198 52.4387 249.172 51.2993 250.181C50.4525 250.934 50.2278 252.151 50.1024 253.275C49.8623 254.815 49.8977 256.384 50.2069 257.911C50.3646 258.674 50.6781 259.396 51.1278 260.032C51.5775 260.668 52.1537 261.204 52.8202 261.606C54.1896 262.349 56.0608 262.228 57.1218 261.084C58.0939 260.038 58.2037 258.47 58.1671 257.075C58.1305 255.057 58.2925 253.348 57.9214 251.367C57.8396 250.947 57.6606 250.551 57.3988 250.212C57.2686 250.009 57.0933 249.839 56.8866 249.715C56.68 249.591 56.4474 249.516 56.2071 249.496" fill="black"/>
</g>
<path d="M53.4784 238.065C57.8479 238.065 62.0868 237.825 66.451 237.543C66.9265 237.564 67.3948 237.422 67.7786 237.14C67.9542 236.922 68.0847 236.671 68.1628 236.402C68.2408 236.133 68.2648 235.851 68.2333 235.572C68.2333 233.231 68.1392 230.565 66.3622 229.039C65.275 228.109 63.7854 227.816 62.3585 227.685C58.8152 227.302 55.2309 227.658 51.832 228.731L53.4784 238.065Z" fill="#FAFAFA"/>
<path d="M144.256 272.431C144.256 272.431 144.256 272.305 144.224 272.054C144.193 271.804 144.182 271.432 144.151 270.957C144.099 269.985 144.02 268.568 143.921 266.739C143.822 264.91 143.696 262.667 143.435 260.075C143.165 257.14 142.649 254.232 141.893 251.383C140.939 247.942 139.524 244.645 137.686 241.583C135.604 238.047 132.837 234.962 129.548 232.51C122.497 227.492 112.969 224.67 103.001 224.534C93.0342 224.398 83.5008 227.549 76.6225 232.834C73.3255 235.273 70.4374 238.221 68.0664 241.567C65.9963 244.473 64.3131 247.635 63.0593 250.975C62.025 253.736 61.3147 256.607 60.9425 259.531C60.651 261.736 60.5653 263.964 60.6864 266.185C60.7721 267.588 60.9467 268.985 61.209 270.366C61.2927 270.831 61.3606 271.192 61.4024 271.443C61.4442 271.694 61.4599 271.814 61.4599 271.814C61.4599 271.814 61.4286 271.694 61.3763 271.453L61.1515 270.408C60.8671 269.029 60.6785 267.632 60.5871 266.227C60.445 263.999 60.515 261.762 60.7961 259.547C61.1564 256.608 61.858 253.721 62.8868 250.944C64.1363 247.578 65.8195 244.389 67.8939 241.458C70.2703 238.084 73.1712 235.113 76.4866 232.656C83.3962 227.346 92.9506 224.163 102.996 224.293C113.042 224.424 122.586 227.272 129.694 232.337C133.003 234.814 135.784 237.928 137.874 241.494C139.71 244.58 141.117 247.901 142.055 251.367C142.807 254.228 143.312 257.149 143.566 260.096C143.811 262.709 143.921 264.936 144.005 266.765C144.088 268.594 144.146 270.016 144.188 270.988C144.188 271.464 144.219 271.83 144.229 272.086C144.24 272.342 144.256 272.431 144.256 272.431Z" fill="white"/>
<path d="M145.824 273.079V272.765L145.793 271.84C145.767 271.014 145.73 269.807 145.678 268.229C145.589 265.056 145.458 260.42 145.291 254.519C145.124 248.618 144.93 241.452 144.706 233.246C144.648 231.192 144.596 229.065 144.533 226.896C144.497 225.788 144.546 224.678 144.68 223.577L144.915 221.894L145.26 220.206C145.801 217.9 146.58 215.656 147.586 213.511C148.621 211.262 149.9 209.134 151.401 207.165L177.237 190.89L184.214 186.499C186.566 184.936 189.035 183.558 191.599 182.375C194.222 181.14 196.913 180.057 199.659 179.13C201.028 178.649 202.434 178.257 203.84 177.839C205.246 177.42 206.678 177.075 208.131 176.793C213.61 175.621 219.18 174.922 224.778 174.703C230.15 174.445 235.532 174.463 240.903 174.755H241.054L241.018 174.906L234.077 205.958C232.794 208.064 231.743 210.301 230.941 212.632C230.151 214.843 229.796 217.186 229.895 219.532C230.073 221.826 230.136 224.074 230.193 226.253C230.251 228.433 230.277 230.544 230.319 232.598C230.439 240.804 230.47 247.96 230.491 253.855C230.512 259.751 230.491 264.387 230.491 267.554C230.491 269.122 230.491 270.34 230.491 271.166C230.491 271.568 230.491 271.877 230.491 272.091C230.491 272.305 230.491 272.405 230.491 272.405C230.491 272.405 230.491 272.295 230.491 272.091C230.491 271.887 230.491 271.568 230.491 271.166C230.491 270.34 230.491 269.133 230.491 267.554C230.491 264.387 230.444 259.751 230.407 253.86C230.371 247.97 230.319 240.794 230.177 232.598C230.136 230.549 230.09 228.436 230.042 226.258C229.979 224.079 229.916 221.842 229.733 219.547C229.627 217.172 229.982 214.799 230.778 212.559C231.575 210.209 232.627 207.954 233.914 205.833V205.869C236.042 196.31 238.368 185.877 240.829 174.812L240.95 174.969C235.591 174.68 230.222 174.666 224.862 174.927C219.277 175.143 213.721 175.843 208.257 177.018C206.809 177.305 205.398 177.708 203.981 178.063C202.565 178.419 201.18 178.873 199.8 179.349C197.054 180.278 194.363 181.363 191.741 182.6C189.189 183.775 186.732 185.145 184.392 186.698L177.409 191.088L151.574 207.327V207.301C150.076 209.257 148.799 211.373 147.769 213.61C146.765 215.739 145.987 217.967 145.448 220.258C144.272 224.737 144.863 229.144 144.873 233.246L145.396 254.519C145.537 260.415 145.647 265.056 145.72 268.223C145.756 269.791 145.777 271.014 145.798 271.84C145.798 272.241 145.798 272.549 145.798 272.765C145.824 272.974 145.824 273.079 145.824 273.079Z" fill="#263238"/>
<path d="M240.715 175.617H240.96L241.677 175.591L244.452 175.523L254.743 175.325L289.438 174.729H289.506L289.548 174.781L294.408 180.734C299.332 186.781 304.025 192.531 308.29 197.757L309.858 199.691C310.366 200.339 310.802 201.04 311.16 201.782C311.807 203.157 312.159 204.653 312.193 206.173C312.226 207.692 311.94 209.202 311.353 210.605L309.785 214.263L304.987 225.365L303.67 228.375L303.32 229.159C303.241 229.332 303.194 229.421 303.194 229.421C303.194 229.421 303.226 229.327 303.294 229.149C303.362 228.971 303.482 228.694 303.618 228.354C303.916 227.654 304.339 226.63 304.888 225.323L309.592 214.19C310.491 211.828 312.075 209.34 311.965 206.308C311.941 204.768 311.585 203.25 310.919 201.86C310.569 201.139 310.141 200.457 309.644 199.827L308.076 197.893L294.178 180.886L289.323 174.933L289.427 174.985L254.728 175.508L244.436 175.628H241.661H240.95L240.715 175.617Z" fill="#263238"/>
<path d="M223.179 221.758C223.179 221.758 223.325 221.758 223.592 221.696C223.984 221.626 224.357 221.476 224.689 221.256C225.216 220.913 225.61 220.401 225.808 219.803C225.927 219.433 225.977 219.043 225.954 218.654C225.942 218.22 225.831 217.794 225.63 217.41C225.396 216.972 225.05 216.605 224.626 216.346C224.202 216.088 223.717 215.948 223.22 215.941H219.698H211.622C210.94 215.942 210.284 216.199 209.783 216.662C209.294 217.108 208.982 217.714 208.905 218.371C208.825 219.006 208.942 219.65 209.239 220.216C209.542 220.748 210.013 221.165 210.577 221.403C211.136 221.594 211.729 221.667 212.318 221.617H214.027H217.1L221.548 221.659L222.755 221.685C222.897 221.682 223.039 221.693 223.179 221.716C223.038 221.733 222.897 221.742 222.755 221.743H221.548L217.1 221.784H214.027H212.318C212.02 221.784 211.732 221.784 211.413 221.784C211.094 221.765 210.779 221.692 210.483 221.57C209.863 221.315 209.346 220.861 209.014 220.279C208.683 219.668 208.553 218.967 208.643 218.277C208.725 217.544 209.074 216.867 209.624 216.374C210.173 215.881 210.885 215.608 211.622 215.606H219.698H223.226C223.759 215.618 224.279 215.773 224.732 216.055C225.185 216.338 225.553 216.737 225.797 217.211C226.006 217.623 226.119 218.077 226.126 218.539C226.143 218.947 226.085 219.354 225.954 219.741C225.733 220.362 225.307 220.889 224.747 221.236C224.401 221.455 224.009 221.593 223.602 221.638C223.466 221.695 223.324 221.735 223.179 221.758Z" fill="#263238"/>
<path d="M300.534 221.758C300.534 221.758 300.68 221.758 300.947 221.696C301.339 221.626 301.713 221.476 302.045 221.256C302.571 220.913 302.966 220.401 303.163 219.803C303.283 219.433 303.333 219.043 303.309 218.654C303.297 218.22 303.186 217.794 302.985 217.41C302.752 216.972 302.405 216.605 301.981 216.346C301.557 216.088 301.072 215.948 300.576 215.941H297.053H288.978C288.296 215.942 287.639 216.199 287.138 216.662C286.649 217.108 286.337 217.714 286.26 218.371C286.181 219.006 286.298 219.65 286.595 220.216C286.898 220.748 287.368 221.165 287.933 221.403C288.492 221.594 289.084 221.667 289.673 221.617H291.382H294.455L298.903 221.659L300.111 221.685C300.253 221.682 300.394 221.693 300.534 221.716C300.394 221.733 300.252 221.742 300.111 221.743H298.903L294.455 221.784H291.382H289.673C289.375 221.784 289.088 221.784 288.769 221.784C288.449 221.765 288.135 221.692 287.839 221.57C287.219 221.315 286.702 220.861 286.37 220.279C286.038 219.668 285.908 218.967 285.999 218.277C286.081 217.544 286.43 216.867 286.979 216.374C287.529 215.881 288.24 215.608 288.978 215.606H297.053H300.581C301.115 215.618 301.635 215.773 302.088 216.055C302.54 216.338 302.908 216.737 303.153 217.211C303.362 217.623 303.475 218.077 303.482 218.539C303.499 218.947 303.44 219.354 303.309 219.741C303.089 220.362 302.663 220.889 302.102 221.236C301.756 221.455 301.365 221.593 300.957 221.638C300.822 221.695 300.679 221.735 300.534 221.758Z" fill="#263238"/>
<path d="M368.319 209.141H352.848C351.808 209.141 350.787 209.424 349.897 209.961C349.006 210.498 348.279 211.268 347.794 212.188C347.395 212.949 347.173 213.791 347.144 214.649C347.115 215.508 347.28 216.362 347.626 217.148L353.689 230.931L369.181 230.78C369.181 230.78 372.479 213.307 368.319 209.141Z" fill="#E63946"/>
<path d="M153.455 207.192L233.282 205.718L285.235 204.766L302.368 194.872C302.694 194.683 302.975 194.426 303.194 194.119C303.413 193.812 303.565 193.463 303.638 193.093C303.712 192.723 303.706 192.342 303.622 191.975C303.537 191.608 303.375 191.263 303.147 190.963L292.479 176.95C291.931 176.229 291.225 175.642 290.415 175.236C289.605 174.831 288.713 174.616 287.807 174.609L229.696 174.138C229.696 174.138 207.818 172.863 190.575 182.501C172.444 192.677 153.455 207.192 153.455 207.192Z" fill="#263238"/>
<path d="M190.036 175.586C190.036 175.586 194.04 177.41 191.437 179.098C188.834 180.786 148.39 206.277 148.39 206.277L139.092 202.069C155.561 192.907 172.192 183.996 190.036 175.586Z" fill="#455A64"/>
<path d="M149.697 206.925L149.446 206.988L148.709 207.15L145.871 207.735C143.404 208.226 139.829 208.916 135.417 209.679C126.532 211.206 114.239 212.983 100.561 214.164C97.1374 214.462 93.7662 214.687 90.5674 214.917C87.3687 215.147 84.2223 215.33 81.264 215.596C75.3422 216.119 70.0423 216.976 65.7355 218.256C62.3123 219.208 59.0179 220.574 55.9251 222.323C54.8118 222.908 54.0174 223.483 53.4581 223.828L52.8204 224.231L52.5957 224.361C52.6628 224.307 52.7325 224.257 52.8048 224.21L53.4267 223.781C53.9808 223.42 54.7648 222.83 55.8728 222.213C58.9469 220.416 62.2339 219.012 65.6571 218.032C69.9744 216.72 75.2899 215.837 81.2169 215.309C84.1805 215.026 87.2955 214.828 90.5256 214.613C93.7557 214.399 97.0955 214.148 100.514 213.85C114.187 212.669 126.496 210.923 135.365 209.444C139.803 208.707 143.378 208.049 145.85 207.589L148.698 207.066L149.441 206.93L149.697 206.925Z" fill="#263238"/>
<path d="M374.502 242.67C374.502 242.748 369.181 242.806 362.622 242.806C356.062 242.806 350.736 242.748 350.736 242.67C350.736 242.592 356.057 242.534 362.622 242.534C369.186 242.534 374.502 242.597 374.502 242.67Z" fill="#263238"/>
<path d="M277.165 256.249C277.165 256.328 247.132 256.385 210.091 256.385C173.049 256.385 143.012 256.328 143.012 256.249C143.012 256.171 173.039 256.113 210.091 256.113C247.143 256.113 277.165 256.176 277.165 256.249Z" fill="#263238"/>
<path d="M66.9005 243.12C66.9005 243.198 62.6513 243.256 57.4141 243.256C52.177 243.256 47.9277 243.198 47.9277 243.12C47.9277 243.041 52.177 242.984 57.4141 242.984C62.6513 242.984 66.9005 243.047 66.9005 243.12Z" fill="#263238"/>
<path d="M343.011 184.801C343.011 184.801 339.447 188.788 340.848 191.715C342.248 194.642 356.731 204.897 356.731 204.897L367.242 206.868L343.011 184.801Z" fill="#455A64"/>
<path d="M243.077 177.656L240.715 203.183L283.009 201.975L300.053 192.066L289.02 177.656H243.077Z" fill="#455A64"/>
<path d="M163.469 204.489C163.469 204.489 188.985 186.06 199.052 182.396C208.768 178.863 213.833 177.975 222.959 177.692C231.682 177.441 236.997 177.692 236.997 177.692L230.255 203.643L163.469 204.489Z" fill="#455A64"/>
<path d="M159.738 204.552C159.739 203.758 159.95 202.979 160.35 202.294C160.751 201.609 161.326 201.043 162.017 200.653L167.881 197.36C169.552 196.42 171.437 195.926 173.354 195.928C174.534 195.93 175.707 196.117 176.829 196.482C178.051 196.905 179.115 197.69 179.879 198.733C180.643 199.776 181.071 201.028 181.105 202.32C181.138 203.188 180.995 204.054 180.686 204.866C180.376 205.678 179.906 206.419 179.303 207.044C178.701 207.67 177.978 208.167 177.178 208.507C176.379 208.847 175.519 209.021 174.65 209.021H164.197C163.013 209.018 161.879 208.546 161.043 207.708C160.208 206.87 159.738 205.735 159.738 204.552Z" fill="#FFA448"/>
<path d="M159.738 204.552C159.738 204.552 159.738 204.751 159.806 205.117C159.885 205.655 160.062 206.174 160.329 206.648C160.751 207.395 161.374 208.008 162.127 208.42C162.596 208.666 163.106 208.825 163.632 208.89C164.232 208.935 164.834 208.947 165.435 208.927L174.378 208.895C175.226 208.918 176.07 208.78 176.866 208.488C177.706 208.174 178.47 207.685 179.108 207.055C179.746 206.424 180.243 205.666 180.566 204.829C180.896 203.947 181.029 203.003 180.958 202.064C180.888 201.139 180.616 200.24 180.16 199.431C179.703 198.623 179.075 197.925 178.319 197.386C177.589 196.882 176.767 196.527 175.899 196.341C173.516 195.777 171.013 196.018 168.78 197.026C168.106 197.329 167.489 197.71 166.878 198.04L165.132 199.012L162.127 200.674C161.371 201.081 160.747 201.696 160.329 202.446C160.065 202.921 159.888 203.44 159.806 203.977C159.754 204.343 159.759 204.542 159.743 204.542C159.724 204.351 159.724 204.158 159.743 203.967C159.802 203.418 159.965 202.886 160.224 202.399C160.635 201.618 161.266 200.975 162.038 200.549L165.022 198.85L166.758 197.862C167.364 197.527 167.981 197.141 168.671 196.817C170.945 195.77 173.504 195.512 175.941 196.085C176.84 196.264 177.694 196.619 178.455 197.13C179.245 197.69 179.902 198.417 180.379 199.26C180.856 200.103 181.141 201.041 181.215 202.007C181.291 202.987 181.152 203.971 180.807 204.892C180.47 205.766 179.95 206.558 179.283 207.216C178.617 207.873 177.817 208.382 176.939 208.707C176.114 209.005 175.24 209.145 174.362 209.12L165.42 209.094C164.811 209.107 164.202 209.088 163.595 209.037C163.045 208.96 162.514 208.783 162.027 208.514C161.257 208.083 160.626 207.441 160.209 206.664C159.953 206.175 159.792 205.644 159.733 205.096C159.72 204.915 159.722 204.733 159.738 204.552Z" fill="#263238"/>
<path d="M356.323 272.666C356.323 272.666 356.323 272.546 356.323 272.305C356.323 272.065 356.365 271.704 356.396 271.26C356.427 270.816 356.48 270.215 356.511 269.535C356.542 268.856 356.563 268.061 356.589 267.178C356.616 266.295 356.589 265.302 356.589 264.225C356.589 263.148 356.511 261.972 356.365 260.718C356.127 257.875 355.622 255.061 354.854 252.313C354.402 250.711 353.845 249.139 353.187 247.609C352.488 245.957 351.645 244.369 350.668 242.864C348.49 239.546 345.718 236.658 342.493 234.344C338.943 231.767 334.981 229.812 330.775 228.563C326.416 227.231 321.67 226.745 316.841 226.708C312.13 226.665 307.441 227.347 302.938 228.731C300.806 229.404 298.735 230.259 296.749 231.287C294.856 232.293 293.058 233.468 291.376 234.799C288.251 237.247 285.467 240.101 283.097 243.287C282.056 244.749 281.136 246.294 280.348 247.907C279.63 249.402 278.994 250.936 278.446 252.502C276.775 257.219 275.759 262.143 275.425 267.136C275.341 268.908 275.351 270.272 275.398 271.224C275.425 271.683 275.446 272.034 275.456 272.269C275.466 272.504 275.456 272.629 275.456 272.629C275.456 272.629 275.456 272.509 275.414 272.269C275.372 272.028 275.362 271.668 275.325 271.224C275.256 269.86 275.256 268.494 275.325 267.131C275.614 262.11 276.605 257.154 278.268 252.408C278.817 250.835 279.449 249.293 280.16 247.787C280.955 246.162 281.877 244.603 282.92 243.125C285.297 239.919 288.089 237.043 291.225 234.574C292.916 233.233 294.725 232.047 296.629 231.03C298.628 229.995 300.713 229.133 302.859 228.454C307.388 227.054 312.106 226.364 316.846 226.41C321.696 226.447 326.463 226.933 330.859 228.281C335.092 229.541 339.08 231.514 342.65 234.114C344.303 235.331 345.849 236.688 347.27 238.17C348.62 239.56 349.823 241.086 350.861 242.723C351.841 244.241 352.686 245.843 353.386 247.51C354.043 249.039 354.596 250.611 355.042 252.214C355.805 254.976 356.3 257.804 356.522 260.66C356.663 261.915 356.663 263.091 356.72 264.173C356.778 265.255 356.72 266.263 356.72 267.131C356.72 267.999 356.642 268.809 356.61 269.493C356.579 270.178 356.511 270.748 356.469 271.218C356.427 271.689 356.396 272.028 356.375 272.264C356.354 272.499 356.323 272.666 356.323 272.666Z" fill="white"/>
<path d="M229.017 207.192H228.661L227.297 207.223L222.285 207.312C218.051 207.39 212.208 207.547 205.747 207.725C199.287 207.902 193.439 208.023 189.205 208.054C187.088 208.054 185.374 208.054 184.187 208.054H182.823H182.473C182.432 208.062 182.389 208.062 182.348 208.054C182.389 208.047 182.432 208.047 182.473 208.054H182.823L184.187 208.023L189.2 207.934C193.433 207.855 199.282 207.699 205.742 207.526C212.202 207.354 218.051 207.223 222.285 207.192C224.375 207.192 226.116 207.192 227.297 207.192H228.661H229.017Z" fill="white"/>
<path d="M222.206 215.047C220.684 215.185 219.155 215.23 217.627 215.183C216.1 215.23 214.571 215.185 213.049 215.047C214.571 214.913 216.1 214.867 217.627 214.911C219.155 214.867 220.684 214.913 222.206 215.047Z" fill="white"/>
<path d="M223.89 187.079C223.916 187.147 218.235 189.515 211.195 192.364C204.154 195.212 198.426 197.47 198.395 197.397C198.363 197.324 204.05 194.961 211.09 192.113C218.131 189.264 223.859 187.011 223.89 187.079Z" fill="white"/>
<path d="M212.369 188.872C212.401 188.945 206.986 191.329 200.28 194.198C193.574 197.067 188.117 199.341 188.086 199.273C188.055 199.205 193.47 196.822 200.175 193.947C206.881 191.073 212.338 188.794 212.369 188.872Z" fill="white"/>
<path d="M285.418 186.092C285.449 186.16 279.762 188.527 272.722 191.376C265.682 194.224 259.953 196.477 259.922 196.409C259.891 196.341 265.577 193.973 272.623 191.125C279.668 188.276 285.376 186.018 285.418 186.092Z" fill="white"/>
<path d="M273.877 187.874C273.908 187.947 268.494 190.33 261.793 193.2C255.092 196.069 249.625 198.343 249.594 198.275C249.563 198.207 254.977 195.824 261.683 192.949C268.389 190.074 273.877 187.827 273.877 187.874Z" fill="white"/>
<path d="M286.531 207.165C286.531 207.239 275.226 207.369 261.281 207.453C247.337 207.536 236.031 207.542 236.031 207.453C236.031 207.364 247.331 207.249 261.281 207.171C275.231 207.092 286.531 207.108 286.531 207.165Z" fill="white"/>
<path d="M299.049 214.614C299.049 214.687 295.882 214.776 291.967 214.812C288.052 214.849 284.885 214.812 284.885 214.744C284.885 214.676 288.052 214.577 291.967 214.54C295.882 214.504 299.049 214.535 299.049 214.614Z" fill="white"/>
<path d="M82.5818 210.746C82.4821 210.779 82.3785 210.8 82.2735 210.808L81.3902 210.923C81.0034 210.965 80.533 211.023 79.9894 211.117C79.4458 211.211 78.8239 211.279 78.1444 211.415C76.7802 211.655 75.1652 212.01 73.3986 212.46C71.4849 212.988 69.5991 213.612 67.7486 214.331C65.7833 215.11 63.9592 215.962 62.3285 216.803C60.6978 217.645 59.2866 218.492 58.1472 219.249C57.5566 219.61 57.0443 219.976 56.5792 220.295C56.114 220.614 55.7324 220.875 55.4188 221.105L54.6923 221.628C54.6091 221.692 54.5199 221.748 54.4258 221.795C54.495 221.717 54.5721 221.647 54.6558 221.586L55.3561 221.026C55.6593 220.786 56.0356 220.504 56.4903 220.175C56.945 219.845 57.4416 219.479 58.0583 219.129C59.2082 218.35 60.6298 217.498 62.2397 216.626C65.764 214.742 69.4968 213.277 73.362 212.261C75.1391 211.801 76.7646 211.462 78.1392 211.247C78.8239 211.122 79.4458 211.059 79.9946 210.986C80.5434 210.913 81.04 210.866 81.4006 210.84L82.2944 210.772C82.3895 210.756 82.4855 210.748 82.5818 210.746Z" fill="white"/>
<path d="M175.92 198.416C175.92 198.416 175.768 198.212 175.397 197.93C174.896 197.546 174.3 197.306 173.673 197.235C172.732 197.156 171.785 197.257 170.882 197.533C167.699 198.334 164.743 199.856 162.242 201.98C160.998 203.026 160.339 203.794 160.303 203.758C160.429 203.558 160.576 203.372 160.742 203.204C161.174 202.723 161.631 202.266 162.111 201.834C163.708 200.412 165.522 199.254 167.484 198.405C168.561 197.934 169.679 197.561 170.824 197.292C171.757 197.021 172.733 196.936 173.699 197.041C174.355 197.131 174.969 197.413 175.465 197.851C175.597 197.97 175.715 198.103 175.815 198.249C175.899 198.353 175.93 198.411 175.92 198.416Z" fill="white"/>
<path d="M344.197 184.612C343.468 184.789 342.72 184.866 341.97 184.842C341.091 184.816 340.216 184.708 339.357 184.518C338.223 184.252 337.11 183.902 336.028 183.473C334.82 183.018 333.535 182.428 332.144 181.848L329.975 180.975C329.228 180.677 328.439 180.421 327.644 180.128C324.155 178.947 320.598 177.978 316.992 177.227C310.436 175.862 303.78 175.037 297.089 174.76C295.803 174.692 294.643 174.692 293.619 174.666H291.005L289.354 174.703H288.773C288.822 174.693 288.871 174.693 288.92 174.703L289.348 174.671L291.005 174.582L293.619 174.535C294.664 174.535 295.803 174.535 297.089 174.598C303.798 174.817 310.475 175.622 317.044 177.002C320.658 177.745 324.221 178.715 327.712 179.908C328.507 180.201 329.28 180.462 330.048 180.766L332.217 181.659C333.608 182.26 334.888 182.846 336.085 183.311C337.153 183.742 338.252 184.091 339.373 184.356C340.22 184.559 341.085 184.682 341.955 184.722C342.504 184.741 343.054 184.722 343.601 184.665L344.025 184.612H344.197Z" fill="#263238"/>
<path d="M92.727 185.334C90.6364 173.898 89.2304 172.142 88.0492 168.206C86.8679 164.27 84.9915 161.714 82.6552 160.81C81.0872 160.204 73.2106 157.366 70.4719 158.307C67.7923 159.259 65.2413 160.541 62.8775 162.122C61.0431 163.339 59.6529 165.118 58.9157 167.192L54.7344 178.989L62.0935 186.306L65.7835 178.466L69.7872 187.874L69.1966 197.36L92.1573 203.538C94.2271 200.193 93.9135 191.82 92.727 185.334Z" fill="#FFA448"/>
<g opacity="0.2">
<path d="M86.7631 172.857C85.7491 178.811 85.5871 179.652 84.5731 185.584C84.2229 187.628 83.2037 190.811 81.7507 192.295C80.674 193.388 79.6182 194.438 78.1182 194.794C76.7279 195.123 74.6111 195.16 73.3044 194.585C71.9977 194.01 70.8792 191.449 71.4176 190.137C73.3671 190.555 73.9682 191.182 75.646 190.137C77.1094 189.206 79.1896 187.147 79.9841 185.605C83.3344 179.124 84.2595 178.894 86.7788 172.857" fill="black"/>
</g>
<path d="M70.1266 184.393C69.7553 183.892 69.4166 183.369 69.1127 182.825L66.7502 178.941L64.325 175.121C63.9635 174.606 63.637 174.069 63.3477 173.511C63.4734 173.625 63.5841 173.755 63.6769 173.898C63.8756 174.154 64.1526 174.535 64.4818 175.011C65.1509 175.962 66.0498 177.295 66.9802 178.795C67.9105 180.295 68.7207 181.685 69.2799 182.704C69.5622 183.227 69.8026 183.624 69.928 183.917C70.0186 184.064 70.0857 184.225 70.1266 184.393Z" fill="#263238"/>
<path d="M86.1513 195.071C85.9849 195.157 85.8097 195.226 85.6286 195.275C85.4144 195.346 85.1963 195.406 84.9753 195.452C84.6865 195.531 84.3933 195.592 84.0972 195.635C83.331 195.772 82.5548 195.843 81.7766 195.85C80.8217 195.851 79.8685 195.769 78.928 195.604C77.9885 195.427 77.0667 195.166 76.1736 194.825C75.451 194.543 74.7519 194.204 74.0829 193.811C73.7902 193.649 73.5602 193.471 73.3303 193.33C73.1399 193.207 72.9567 193.072 72.7815 192.928C72.6221 192.819 72.4765 192.69 72.3477 192.546C72.379 192.505 73.0271 193.012 74.177 193.644C74.8511 194.007 75.5497 194.323 76.2677 194.59C78.0321 195.248 79.8987 195.589 81.7818 195.599C82.5492 195.6 83.3157 195.549 84.0763 195.447C85.3516 195.264 86.1356 195.019 86.1513 195.071Z" fill="#263238"/>
<path d="M76.9373 177.253C76.8955 177.457 74.4285 182.37 74.4285 182.37L62.7835 176.234L61.5971 171.216C61.4013 170.411 60.8943 169.715 60.1871 169.282C59.4799 168.849 58.6301 168.714 57.8234 168.906L54.3895 170.312C54.2479 170.367 54.1222 170.457 54.0237 170.573C53.9252 170.689 53.8569 170.827 53.825 170.976C53.778 171.227 53.825 171.499 54.2797 171.441C55.1317 171.373 56.8931 171.185 56.8931 171.185L56.0829 174.044C55.8691 174.793 55.9514 175.596 56.3129 176.286L56.8356 177.274L57.9698 179.109H57.9436C57.9436 179.109 69.2646 190.738 75.6202 191.496C79.4409 191.95 83.7686 181.241 83.7686 181.241L76.9373 177.253Z" fill="#B78876"/>
<path d="M56.8086 171.378C56.8086 171.378 56.8974 171.258 57.0908 171.128C57.3498 170.947 57.6586 170.852 57.9741 170.856C58.1389 170.865 58.2981 170.918 58.4351 171.01C58.5722 171.102 58.6819 171.23 58.7529 171.378C58.8627 171.614 58.7895 171.77 58.7529 171.76C58.7163 171.75 58.7529 171.614 58.6275 171.436C58.5504 171.323 58.4487 171.229 58.3301 171.161C58.2115 171.093 58.0791 171.053 57.9428 171.044C57.6599 171.048 57.3821 171.12 57.1326 171.253C56.9706 171.331 56.8243 171.399 56.8086 171.378Z" fill="#AA6550"/>
<path d="M58.2782 173.161C58.2782 173.161 58.1998 173.067 58.09 172.925C57.9498 172.745 57.7638 172.606 57.5514 172.523C57.339 172.439 57.1081 172.414 56.8827 172.45C56.705 172.45 56.5952 172.513 56.5848 172.492C56.5743 172.471 56.6684 172.392 56.8566 172.33C57.1052 172.257 57.371 172.269 57.6122 172.364C57.8533 172.458 58.0563 172.63 58.1894 172.852C58.2834 173.03 58.2939 173.155 58.2782 173.161Z" fill="#AA6550"/>
<path d="M79.3508 161.746L76.2148 176.689L84.5775 181.711L87.7867 172.528C87.7867 172.528 86.4382 161.375 79.3508 161.746Z" fill="#FFA448"/>
<path d="M83.8567 162.007C83.8567 162.007 83.7888 162.064 83.6424 162.143C83.4961 162.221 83.287 162.336 83.01 162.477C82.456 162.759 81.6406 163.157 80.6214 163.611C77.9718 164.823 75.1821 165.7 72.3163 166.225C69.4324 166.74 66.4722 166.64 63.6295 165.932C62.7787 165.709 61.9496 165.409 61.1521 165.038C60.8646 164.918 60.6294 164.787 60.5092 164.714C60.4342 164.677 60.3625 164.633 60.2949 164.584C60.601 164.687 60.9011 164.808 61.1939 164.944C62.0062 165.272 62.8412 165.541 63.6923 165.749C66.5134 166.395 69.4357 166.466 72.2849 165.958C75.1316 165.434 77.9092 164.587 80.5639 163.434C81.6093 163.005 82.4089 162.634 82.9787 162.388C83.2626 162.242 83.5559 162.114 83.8567 162.007Z" fill="#EBEBEB"/>
<path d="M86.058 163.659C85.9864 163.723 85.9075 163.78 85.8228 163.826L85.1329 164.27C84.7682 164.509 84.3914 164.729 84.004 164.929C83.5545 165.164 83.0527 165.451 82.4621 165.713L81.5527 166.131C81.2338 166.277 80.8889 166.397 80.5387 166.539C79.8435 166.826 79.07 167.061 78.2651 167.323C74.736 168.387 71.0476 168.824 67.3675 168.614C66.5208 168.546 65.7159 168.499 64.9737 168.378C64.5973 168.321 64.2367 168.284 63.8917 168.222L62.9039 168.023C62.2767 167.913 61.7175 167.746 61.2261 167.621C60.8036 167.518 60.3867 167.395 59.977 167.249L59.1982 166.978C59.1049 166.953 59.0153 166.916 58.9316 166.868C59.028 166.873 59.1231 166.893 59.2139 166.925L60.0083 167.145C60.3481 167.249 60.7662 167.37 61.2627 167.474C61.7593 167.579 62.3081 167.741 62.9457 167.835L63.9283 168.013C64.2681 168.075 64.6287 168.107 64.9737 168.154C65.7159 168.263 66.5417 168.305 67.3518 168.363C71.0046 168.548 74.6625 168.115 78.171 167.082C78.9707 166.831 79.739 166.607 80.4341 166.324C80.7791 166.188 81.1241 166.073 81.4429 165.938L82.3576 165.535C82.9482 165.295 83.4499 165.012 83.9256 164.793C84.4012 164.573 84.767 164.359 85.0702 164.181L85.7915 163.784C85.8743 163.731 85.964 163.688 86.058 163.659Z" fill="#EBEBEB"/>
<path d="M84.5572 181.711C84.3229 181.613 84.0958 181.497 83.8777 181.367L82.0379 180.321L75.7659 176.699L75.6875 176.652V176.563C75.9122 175.45 76.1527 174.248 76.4036 173.014C76.7799 171.154 77.1457 169.387 77.4489 167.788C77.6214 166.983 77.7625 166.22 77.9193 165.493C78.0611 164.822 78.2858 164.17 78.5883 163.554C79.0265 162.639 79.8019 161.929 80.7521 161.573C81.0094 161.485 81.2798 161.44 81.5518 161.442C81.6453 161.436 81.7392 161.447 81.8288 161.474C81.4722 161.486 81.1196 161.553 80.7835 161.672C79.8857 162.051 79.1622 162.752 78.7556 163.638C78.473 164.247 78.2642 164.887 78.1336 165.545C77.9925 166.261 77.8461 167.03 77.6893 167.829C77.3653 169.45 77.0098 171.216 76.644 173.056C76.3931 174.295 76.1474 175.492 75.9227 176.605L75.86 176.469L82.0954 180.175L83.8986 181.272C84.13 181.4 84.3503 181.547 84.5572 181.711Z" fill="#263238"/>
<path d="M87.1139 172.084C87.1599 172.549 87.1459 173.018 87.0721 173.48C86.9626 174.597 86.7633 175.703 86.4762 176.788C86.1893 177.874 85.8189 178.937 85.3682 179.966C85.2046 180.403 84.985 180.818 84.7148 181.199C84.8428 180.753 85.0017 180.317 85.1905 179.893C85.9838 177.813 86.5516 175.654 86.8839 173.453C86.9315 172.992 87.0083 172.535 87.1139 172.084Z" fill="#263238"/>
<path d="M41.771 255.204L41.6769 263.18C41.6769 263.18 33.5338 265.767 33.377 267.241L48.8374 267.972L49.496 255.549L41.771 255.204Z" fill="#455A64"/>
<path d="M46.5171 262.735C46.6638 262.788 46.7861 262.892 46.8603 263.029C46.9346 263.166 46.9557 263.326 46.9196 263.478C46.8735 263.627 46.7717 263.752 46.6354 263.828C46.4991 263.904 46.3388 263.924 46.1878 263.885C46.0329 263.828 45.9042 263.717 45.8262 263.571C45.7482 263.426 45.7262 263.257 45.7645 263.096C45.8301 262.946 45.9512 262.828 46.1022 262.766C46.2532 262.703 46.4225 262.702 46.5746 262.761" fill="#E0E0E0"/>
<path d="M48.8382 267.973V266.718L34.005 266.483C34.005 266.483 33.2994 266.749 33.3568 267.241L48.8382 267.973Z" fill="#E0E0E0"/>
<path d="M41.4321 263.091C41.4321 263.164 41.8084 263.216 42.1638 263.477C42.5192 263.739 42.6865 264.063 42.7805 264.037C42.8746 264.011 42.7805 263.572 42.3154 263.263C41.8502 262.955 41.4164 263.018 41.4321 263.091Z" fill="#263238"/>
<path d="M39.7754 263.681C39.7754 263.754 40.0785 263.901 40.2981 264.23C40.5176 264.559 40.596 264.904 40.6744 264.904C40.7528 264.904 40.8155 264.481 40.5071 264.073C40.1988 263.666 39.7806 263.613 39.7754 263.681Z" fill="#263238"/>
<path d="M38.7604 265.579C38.8283 265.579 38.9538 265.228 38.7604 264.805C38.567 264.382 38.2377 264.204 38.2064 264.282C38.175 264.361 38.3788 264.575 38.5147 264.925C38.6506 265.276 38.6768 265.568 38.7604 265.579Z" fill="#263238"/>
<path d="M41.6523 261.272C41.6836 261.345 42.0338 261.272 42.4624 261.303C42.891 261.334 43.2098 261.507 43.2516 261.444C43.2934 261.381 42.9903 261.094 42.4885 261.042C41.9868 260.989 41.6209 261.214 41.6523 261.272Z" fill="#263238"/>
<g opacity="0.3">
<path d="M41.7553 256.782L41.7344 258.204L49.3392 258.497L49.4071 257.216L41.7553 256.782Z" fill="black"/>
</g>
<path d="M41.7031 259.662C41.9527 259.745 42.2204 259.758 42.4767 259.699C42.7582 259.662 43.0339 259.59 43.2973 259.484C43.4546 259.426 43.6067 259.354 43.752 259.27C43.8423 259.228 43.9252 259.171 43.9976 259.103C44.05 259.051 44.0837 258.983 44.0931 258.911C44.1026 258.838 44.0874 258.764 44.0499 258.7C44.0139 258.646 43.966 258.601 43.9098 258.568C43.8536 258.536 43.7907 258.517 43.7258 258.512C43.6275 258.507 43.529 258.516 43.4332 258.538C43.2671 258.57 43.1044 258.618 42.9471 258.679C42.6811 258.786 42.4326 258.932 42.2101 259.113C41.8338 259.432 41.6874 259.709 41.724 259.725C41.7606 259.74 41.9436 259.521 42.3199 259.265C42.5412 259.117 42.78 258.998 43.0307 258.909C43.1773 258.859 43.3276 258.821 43.4802 258.794C43.6474 258.758 43.7886 258.763 43.8252 258.836C43.8617 258.909 43.8252 258.878 43.8252 258.925C43.771 258.974 43.7114 259.016 43.6474 259.05C43.5063 259.129 43.3652 259.202 43.2293 259.265C42.983 259.371 42.7276 259.455 42.4662 259.516C42.209 259.548 41.9541 259.597 41.7031 259.662Z" fill="#263238"/>
<path d="M41.8145 259.777C41.9698 259.563 42.0523 259.305 42.0497 259.04C42.0787 258.755 42.0574 258.466 41.9869 258.188C41.9448 258.022 41.8852 257.861 41.8092 257.707C41.7725 257.603 41.7093 257.51 41.626 257.438C41.5426 257.366 41.4418 257.316 41.3336 257.294C41.2653 257.292 41.1978 257.309 41.1393 257.345C41.0808 257.38 41.0338 257.431 41.0043 257.493C40.9582 257.582 40.9264 257.677 40.9102 257.775C40.8841 257.949 40.8841 258.125 40.9102 258.298C40.9388 258.59 41.0394 258.87 41.2029 259.113C41.4852 259.531 41.7988 259.636 41.804 259.61C41.8092 259.584 41.574 259.416 41.3597 259.019C41.2371 258.792 41.1658 258.54 41.1507 258.282C41.1423 258.131 41.1546 257.98 41.1873 257.833C41.2186 257.671 41.2866 257.54 41.3493 257.561C41.412 257.582 41.5479 257.692 41.6054 257.828C41.6762 257.965 41.734 258.108 41.7779 258.256C41.8529 258.509 41.8917 258.771 41.8929 259.035C41.851 259.484 41.757 259.761 41.8145 259.777Z" fill="#263238"/>
<path d="M73.2883 197.444C73.2883 197.444 49.1306 187.304 41.6565 186.881C36.9525 186.609 33.4193 189.62 34.0569 194.47C34.3758 196.9 41.0502 225.307 41.0502 225.307L51.2213 220.666L46.3291 201.019L66.1905 210.667L73.2883 197.444Z" fill="#263238"/>
<path d="M43.2924 196.048C43.214 196.116 44.0137 197.146 44.8604 198.51C45.7072 199.874 46.2716 201.05 46.3657 201.014C46.4598 200.977 46.026 199.717 45.1636 198.327C44.3012 196.937 43.3813 195.986 43.2924 196.048Z" fill="#455A64"/>
<path d="M41.318 197.177C41.2658 197.266 42.4836 198.04 43.9314 199.095C45.3791 200.151 46.4663 201.076 46.5447 201.003C46.6231 200.93 45.5778 199.848 44.1247 198.803C42.6717 197.757 41.3598 197.094 41.318 197.177Z" fill="#455A64"/>
<path d="M92.1305 203.538C92.1305 203.538 89.0938 207.453 86.1983 208.524C82.5396 209.868 55.6432 222.563 55.6432 222.563C55.6432 222.563 50.7615 258.831 51.1482 257.315L39.8848 257.044L41.1078 223.64C41.2542 219.364 44.6828 214.451 48.3676 212.267L73.2884 197.444L92.1305 203.538Z" fill="#263238"/>
<path d="M40.894 229.755C40.9298 229.604 40.9456 229.45 40.9411 229.295C40.9411 228.96 40.9829 228.527 41.009 227.983C41.073 226.375 41.2231 224.772 41.4585 223.18C41.7885 220.827 42.6229 218.574 43.9046 216.573C44.6977 215.423 45.6762 214.413 46.8002 213.584C48.0199 212.695 49.2961 211.887 50.6209 211.164C56.0409 208.059 60.7188 204.892 64.1788 202.723C65.9036 201.625 67.3148 200.752 68.2766 200.156L69.3951 199.466C69.5303 199.392 69.6581 199.304 69.7766 199.205C69.6326 199.257 69.4943 199.324 69.3637 199.404C69.0971 199.545 68.7051 199.754 68.2086 200.036C67.2103 200.595 65.7887 201.442 64.0273 202.508C60.5306 204.63 55.8266 207.761 50.4379 210.871C49.0996 211.602 47.811 212.421 46.5807 213.322C45.4285 214.177 44.4285 215.219 43.6224 216.406C42.333 218.458 41.5105 220.769 41.2129 223.175C40.9976 224.777 40.8859 226.392 40.8784 228.009C40.8784 228.532 40.8784 228.987 40.8784 229.326C40.8708 229.469 40.876 229.613 40.894 229.755Z" fill="#455A64"/>
<path d="M82.1897 207.359C81.9809 207.035 81.7504 206.726 81.4997 206.434C80.9805 205.679 80.6202 204.826 80.4405 203.928C80.2608 203.029 80.2655 202.104 80.4544 201.207C80.5705 200.839 80.6613 200.464 80.7262 200.083C80.4724 200.386 80.2934 200.744 80.2035 201.129C79.9359 202.057 79.8964 203.036 80.0885 203.982C80.2761 204.929 80.6924 205.815 81.3011 206.564C81.7768 207.165 82.1688 207.39 82.1897 207.359Z" fill="#455A64"/>
<path d="M44.0246 257.043C44.0431 256.984 44.0536 256.923 44.056 256.86C44.056 256.714 44.0978 256.536 44.1239 256.312C44.1814 255.789 44.2546 255.099 44.3486 254.221C44.5316 252.36 44.7929 249.71 45.117 246.449C45.2685 244.808 45.441 243.01 45.6396 241.081C45.8382 239.152 46.0212 237.088 46.1623 234.914C46.3034 232.739 46.5334 230.466 46.9306 228.119C47.3185 225.712 48.0215 223.366 49.0213 221.141C50.0654 218.944 51.4442 216.921 53.1085 215.146C54.668 213.495 56.3756 211.991 58.2098 210.651C61.3533 208.438 64.6181 206.401 67.9889 204.552C70.8479 202.911 73.1267 201.51 74.6372 200.454C75.4003 199.932 75.9752 199.508 76.362 199.21L76.7958 198.871C76.8934 198.794 76.9404 198.752 76.9369 198.745C76.8787 198.769 76.8242 198.8 76.7749 198.839L76.3202 199.153C75.9229 199.43 75.3323 199.837 74.564 200.344C73.0274 201.358 70.7381 202.723 67.8634 204.338C64.4651 206.16 61.1771 208.181 58.0164 210.39C56.1577 211.733 54.4289 213.246 52.8524 214.911C51.1584 216.71 49.7564 218.763 48.6972 220.995C47.6932 223.247 46.9902 225.621 46.6066 228.056C46.2146 230.408 46.016 232.692 45.8539 234.851C45.6919 237.01 45.5299 239.09 45.3313 241.018C45.1327 242.947 45.0072 244.745 44.8661 246.391C44.5891 249.658 44.3434 252.308 44.2128 254.174C44.1431 255.073 44.0908 255.77 44.056 256.265C44.056 256.489 44.0298 256.672 44.0194 256.813C44.0089 256.955 44.0141 257.043 44.0246 257.043Z" fill="#455A64"/>
<path d="M70.5609 139.919C70.1815 138.942 69.4665 138.133 68.544 137.635C67.6216 137.138 66.5521 136.986 65.5276 137.206C65.0768 137.371 64.6055 137.473 64.1269 137.51C63.5468 137.41 62.9766 137.26 62.423 137.06C61.7956 136.958 61.1529 137.094 60.6197 137.439C60.0865 137.785 59.7009 138.317 59.5379 138.931C59.0469 138.812 58.5358 138.801 58.0403 138.9C57.5447 138.998 57.0766 139.203 56.6684 139.501C56.2682 139.811 55.984 140.247 55.8617 140.738C55.7394 141.229 55.786 141.747 55.9942 142.208C56.198 142.59 56.5168 142.893 56.7207 143.285C57.0291 143.928 56.8879 144.701 57.1022 145.376C57.3034 145.866 57.6385 146.29 58.0692 146.599C58.5 146.907 59.0089 147.088 59.5379 147.121C60.602 147.176 61.6668 147.025 62.6739 146.677" fill="#263238"/>
<path d="M65.6944 160.591C65.5638 159.577 65.4801 158.866 65.4801 158.866C65.4801 158.866 62.1089 158.866 60.7761 154.684C60.1019 152.594 59.6524 149.102 59.3806 146.217C59.3212 145.603 59.3868 144.982 59.5736 144.394C59.7603 143.805 60.0644 143.261 60.4673 142.793C60.8702 142.325 61.3637 141.943 61.918 141.671C62.4723 141.399 63.076 141.242 63.6926 141.21L72.6407 140.745L72.834 142.13L75.1913 159.336C75.2765 159.96 75.2376 160.594 75.0767 161.203C74.9159 161.812 74.6363 162.383 74.254 162.883C73.8717 163.383 73.3943 163.803 72.8493 164.118C72.3042 164.434 71.7022 164.638 71.0779 164.72C70.4531 164.803 69.8179 164.763 69.2088 164.6C68.5997 164.438 68.0287 164.157 67.5285 163.773C67.0283 163.39 66.6088 162.911 66.2941 162.365C65.9793 161.819 65.7755 161.216 65.6944 160.591Z" fill="#B78876"/>
<path d="M60.6289 148.679C60.6509 148.822 60.7275 148.951 60.8425 149.038C60.9575 149.126 61.102 149.166 61.2456 149.149C61.3168 149.145 61.3862 149.126 61.4498 149.094C61.5133 149.061 61.5695 149.016 61.6151 148.962C61.6606 148.907 61.6944 148.843 61.7145 148.775C61.7346 148.706 61.7404 148.635 61.7317 148.564C61.7122 148.42 61.6363 148.289 61.5207 148.201C61.4051 148.113 61.2591 148.074 61.115 148.093C61.0439 148.098 60.9744 148.117 60.9109 148.149C60.8473 148.181 60.7911 148.226 60.7456 148.281C60.7 148.336 60.6662 148.4 60.6461 148.468C60.6261 148.536 60.6202 148.608 60.6289 148.679Z" fill="#263238"/>
<path d="M60.3998 147.906C60.4782 147.963 60.844 147.592 61.4451 147.498C62.0462 147.404 62.4904 147.634 62.5688 147.55C62.6472 147.466 62.5061 147.393 62.2971 147.289C62.0136 147.15 61.6934 147.104 61.3824 147.158C61.0747 147.204 60.7903 147.349 60.5723 147.571C60.3998 147.738 60.358 147.879 60.3998 147.906Z" fill="#263238"/>
<path d="M66.2324 147.728C66.2544 147.87 66.3311 147.999 66.4463 148.086C66.5615 148.172 66.706 148.211 66.8491 148.193C66.9202 148.189 66.9898 148.171 67.0535 148.139C67.1173 148.107 67.1739 148.063 67.2199 148.009C67.2659 147.954 67.3003 147.891 67.321 147.823C67.3418 147.755 67.3484 147.683 67.3404 147.613C67.3184 147.47 67.2419 147.341 67.1269 147.253C67.0119 147.166 66.8674 147.126 66.7237 147.142C66.6521 147.146 66.5821 147.165 66.5179 147.197C66.4538 147.229 66.3969 147.273 66.3508 147.328C66.3048 147.383 66.2705 147.447 66.2501 147.516C66.2297 147.584 66.2237 147.657 66.2324 147.728Z" fill="#263238"/>
<path d="M66.2219 147.09C66.3003 147.153 66.6661 146.776 67.2672 146.688C67.8683 146.599 68.3125 146.818 68.3909 146.735C68.4693 146.651 68.3282 146.583 68.1191 146.473C67.8343 146.339 67.5156 146.293 67.2045 146.343C66.8979 146.392 66.6145 146.536 66.3943 146.755C66.2219 146.923 66.1853 147.059 66.2219 147.09Z" fill="#263238"/>
<path d="M64.7744 151.815C64.4466 151.771 64.1144 151.771 63.7866 151.815C63.635 151.815 63.4887 151.815 63.4469 151.716C63.3988 151.564 63.3988 151.402 63.4469 151.251C63.5305 150.864 63.6193 150.456 63.7134 150.033C63.9686 148.994 64.1433 147.937 64.2361 146.871C63.8936 147.894 63.6332 148.942 63.4573 150.007C63.3737 150.435 63.2901 150.843 63.2169 151.235C63.1439 151.429 63.1439 151.642 63.2169 151.836C63.2474 151.885 63.2886 151.928 63.3374 151.959C63.3862 151.991 63.4414 152.011 63.4991 152.019C63.5859 152.03 63.6737 152.03 63.7605 152.019C64.1057 151.994 64.4464 151.926 64.7744 151.815Z" fill="#263238"/>
<path d="M65.4805 158.866C67.5005 158.576 69.4003 157.731 70.9685 156.425C70.9685 156.425 70.0381 159.603 65.6948 159.869L65.4805 158.866Z" fill="#AA6550"/>
<path d="M66.5774 151.946C66.4781 151.946 66.5774 152.594 66.107 153.137C65.6366 153.681 64.9362 153.717 64.9414 153.806C64.9467 153.895 65.1139 153.911 65.4066 153.869C65.7833 153.818 66.1288 153.633 66.3788 153.346C66.6236 153.075 66.7513 152.718 66.7342 152.353C66.7185 152.081 66.6192 151.935 66.5774 151.946Z" fill="#263238"/>
<path d="M65.7003 144.801C65.7839 144.952 66.3641 144.801 67.0697 144.754C67.7753 144.707 68.3659 144.827 68.4338 144.67C68.5018 144.513 68.345 144.461 68.0941 144.341C67.7614 144.196 67.3997 144.129 67.0372 144.146C66.6746 144.163 66.3208 144.264 66.0034 144.44C65.7734 144.581 65.6637 144.727 65.7003 144.801Z" fill="#263238"/>
<path d="M60.3422 146.16C60.4676 146.275 60.8649 146.071 61.3405 145.987C61.8161 145.904 62.2604 145.935 62.3336 145.778C62.3649 145.705 62.2761 145.58 62.0774 145.486C61.8101 145.367 61.5124 145.334 61.2255 145.392C60.9393 145.442 60.676 145.581 60.4729 145.789C60.3213 145.956 60.2847 146.102 60.3422 146.16Z" fill="#263238"/>
<path d="M58.9096 144.33C58.9096 144.33 61.2773 145.13 63.9952 143.311C65.7775 142.119 67.9413 141.372 68.4797 141.696C69.018 142.02 69.3682 143.964 71.3282 144.309C71.3282 144.309 71.6732 148.073 73.1523 147.749C74.1976 147.519 73.5913 143.369 73.1523 141.001C73.0606 140.543 72.8183 140.129 72.464 139.825C72.1097 139.521 71.6639 139.344 71.1975 139.323L68.4431 139.213L65.0039 140.175L61.3139 141.179L58.502 142.355L58.9096 144.33Z" fill="#263238"/>
<path d="M72.8242 146.217C72.8765 146.181 75.1605 144.979 75.5839 147.472C76.0073 149.965 73.4201 149.871 73.3991 149.803C73.3782 149.735 72.8242 146.217 72.8242 146.217Z" fill="#B78876"/>
<path d="M73.9998 148.726C73.9998 148.726 74.052 148.752 74.1304 148.773C74.2405 148.799 74.3564 148.782 74.4545 148.726C74.5966 148.596 74.7023 148.431 74.761 148.248C74.8197 148.065 74.8293 147.869 74.789 147.681C74.7588 147.466 74.6821 147.261 74.5642 147.08C74.5263 147.006 74.4714 146.943 74.4042 146.895C74.3369 146.846 74.2592 146.815 74.1775 146.803C74.1256 146.798 74.0737 146.812 74.0308 146.842C73.9879 146.871 73.9566 146.915 73.9423 146.965C73.9423 147.038 73.9423 147.085 73.9423 147.095C73.9423 147.106 73.8848 147.059 73.8848 146.954C73.8892 146.89 73.915 146.829 73.9579 146.782C74.0183 146.719 74.1007 146.681 74.1879 146.677C74.2942 146.679 74.3982 146.709 74.4898 146.763C74.5814 146.817 74.6574 146.894 74.7106 146.986C74.8536 147.183 74.9452 147.413 74.9771 147.655C75.029 147.875 75.0139 148.105 74.9338 148.317C74.8537 148.528 74.7123 148.711 74.5276 148.841C74.4639 148.871 74.3943 148.887 74.3238 148.887C74.2533 148.887 74.1837 148.871 74.12 148.841C74.0154 148.789 73.9945 148.737 73.9998 148.726Z" fill="#AA6550"/>
<path d="M60.1074 138.011C60.1074 138.011 60.191 138.147 60.3688 138.346C60.6233 138.628 60.9479 138.837 61.3096 138.952C61.8469 139.126 62.4211 139.151 62.9716 139.025C63.6562 138.859 64.3285 138.646 64.9839 138.388C65.6624 138.12 66.3873 137.991 67.1164 138.006C67.733 138.028 68.3164 138.291 68.7419 138.738C69.0317 139.029 69.2078 139.415 69.2384 139.825C69.2601 139.974 69.2345 140.125 69.1652 140.259C69.1391 140.259 69.1652 140.102 69.1339 139.835C69.0687 139.465 68.8853 139.126 68.6112 138.869C68.2085 138.483 67.6742 138.264 67.1164 138.257C66.4204 138.258 65.7308 138.389 65.0832 138.644C64.4169 138.909 63.7299 139.119 63.0291 139.271C62.4375 139.393 61.8233 139.346 61.2573 139.135C60.873 138.994 60.5386 138.743 60.2956 138.414C60.1074 138.173 60.1074 138.017 60.1074 138.011Z" fill="#455A64"/>
<path d="M68.5279 140.4C68.5279 140.4 68.4025 140.269 68.1412 140.086C67.7684 139.858 67.3394 139.739 66.9024 139.741C66.2398 139.739 65.5867 139.899 64.9999 140.207C64.2667 140.603 63.509 140.952 62.7316 141.252C61.9939 141.481 61.2171 141.556 60.4493 141.472C59.6815 141.389 58.9391 141.148 58.268 140.766C57.862 140.537 57.4907 140.252 57.1652 139.919C57.0384 139.806 56.9323 139.671 56.8516 139.522C57.3143 139.931 57.8189 140.29 58.3568 140.593C59.6785 141.287 61.2203 141.432 62.6479 140.996C63.4144 140.686 64.1645 140.337 64.8954 139.95C65.5193 139.635 66.2146 139.487 66.9129 139.522C67.3874 139.54 67.8444 139.706 68.2196 139.997C68.3567 140.101 68.4632 140.24 68.5279 140.4Z" fill="#455A64"/>
<path d="M60.7864 182.872L48.6501 172.528L44.6465 173.433C44.6465 173.433 48.8644 182.203 51.9168 185.417C51.9168 185.417 54.9326 189.452 59.9084 187.707C64.8841 185.961 60.7864 182.872 60.7864 182.872Z" fill="#B78876"/>
<path d="M47.7296 161.134H42.5709C42.3762 161.145 42.1863 161.198 42.0151 161.292C41.8438 161.385 41.6955 161.515 41.5808 161.673C41.4662 161.83 41.3882 162.012 41.3524 162.203C41.3166 162.395 41.324 162.592 41.374 162.78L46.564 172.884C46.6624 173.076 46.8122 173.237 46.9967 173.35C47.1812 173.463 47.3932 173.522 47.6094 173.521H53.8814C54.0288 173.505 54.1699 173.452 54.292 173.368C54.4142 173.284 54.5136 173.171 54.5814 173.039C54.6492 172.907 54.6833 172.76 54.6806 172.612C54.6779 172.463 54.6386 172.318 54.5661 172.188L49.5641 162.294C49.3939 161.952 49.1327 161.662 48.8092 161.457C48.4857 161.253 48.1123 161.141 47.7296 161.134Z" fill="#455A64"/>
<path d="M47.3859 161.746H42.2272C42.0791 161.745 41.9333 161.782 41.8038 161.854C41.6743 161.925 41.5654 162.029 41.4877 162.155C41.41 162.281 41.366 162.425 41.3601 162.573C41.3541 162.721 41.3863 162.868 41.4536 163L46.5183 172.884C46.6176 173.075 46.7676 173.236 46.9519 173.348C47.1362 173.461 47.3477 173.521 47.5636 173.521H53.7833C53.8687 173.518 53.9519 173.493 54.0257 173.45C54.0994 173.407 54.1615 173.346 54.2063 173.274C54.2512 173.201 54.2776 173.118 54.2831 173.033C54.2886 172.948 54.2732 172.862 54.238 172.784L49.2309 162.895C49.0617 162.55 48.7991 162.26 48.473 162.056C48.1468 161.853 47.7702 161.745 47.3859 161.746Z" fill="#263238"/>
<path d="M46.9456 165.875L43.8096 167.129L43.1406 169.659L44.6511 173.422L50.1757 174.237L48.5555 172.581L48.7593 171.133C48.7593 171.133 50.3273 170.647 50.3273 170.411C50.3273 170.176 50.1339 169.366 49.8987 169.34C49.2799 169.481 48.6735 169.672 48.0851 169.91C48.0851 169.91 50.0032 168.389 49.951 168.143C49.8987 167.897 49.6896 167.275 49.3081 167.202C48.9265 167.129 45.8219 168.598 45.8219 168.598L45.2992 169.742L44.8602 167.908C44.8602 167.908 47.6251 167.134 46.9456 165.875Z" fill="#B78876"/>
<path d="M47.3435 171.812C47.3435 171.812 47.2651 171.708 47.2337 171.499C47.2007 171.232 47.2308 170.962 47.3216 170.71C47.4124 170.457 47.5613 170.23 47.7564 170.046C47.9132 169.91 48.0334 169.863 48.0438 169.878C47.8053 170.142 47.6096 170.442 47.4637 170.767C47.3706 171.107 47.3301 171.46 47.3435 171.812Z" fill="#AA6550"/>
<path d="M45.8477 171.263C45.9089 170.993 45.9508 170.719 45.9731 170.443C45.9858 170.134 46.0385 169.829 46.1299 169.533C46.1896 169.344 46.2938 169.171 46.4339 169.031C46.5739 168.89 46.7457 168.784 46.9348 168.723C47.6822 168.452 48.3617 168.232 48.853 168.07C49.1157 167.971 49.3868 167.895 49.6631 167.845C49.4198 167.984 49.1622 168.096 48.8948 168.18C48.4087 168.368 47.7293 168.608 46.9923 168.875C46.8202 168.934 46.6632 169.031 46.5323 169.157C46.4163 169.28 46.3273 169.426 46.271 169.586C46.1753 169.868 46.1139 170.161 46.0881 170.459C46.078 170.743 45.9952 171.02 45.8477 171.263Z" fill="#AA6550"/>
<path d="M45.1269 170.699C45.0775 170.495 45.0775 170.281 45.1269 170.077C45.1844 169.743 45.2628 169.481 45.3099 169.486C45.3589 169.691 45.3589 169.904 45.3099 170.108C45.2524 170.443 45.174 170.704 45.1269 170.699Z" fill="#AA6550"/>
<path d="M45.043 163.653C45.043 163.784 45.0816 163.911 45.154 164.019C45.2263 164.128 45.3292 164.212 45.4495 164.262C45.5699 164.312 45.7023 164.325 45.83 164.299C45.9578 164.274 46.0751 164.211 46.1672 164.119C46.2593 164.027 46.322 163.91 46.3475 163.782C46.3729 163.654 46.3598 163.522 46.31 163.401C46.2601 163.281 46.1757 163.178 46.0674 163.106C45.9591 163.034 45.8318 162.995 45.7016 162.995C45.6149 162.994 45.5289 163.011 45.4487 163.044C45.3685 163.076 45.2956 163.125 45.2343 163.186C45.173 163.248 45.1246 163.32 45.0917 163.401C45.0589 163.481 45.0423 163.567 45.043 163.653Z" fill="#FAFAFA"/>
<path d="M26.9697 263.279C27.7884 263.533 28.5474 263.949 29.2012 264.503C29.855 265.057 30.3902 265.738 30.7747 266.504C31.5367 268.043 31.9354 269.736 31.9403 271.453C32.0448 274.757 30.6754 278.311 29.0604 281.201C25.9714 279.215 24.7379 275.112 24.2362 273.021C23.4522 269.687 24.0532 263.185 26.9697 263.274" fill="#FFA448"/>
<path d="M33.0271 286.114C32.7051 285.211 32.6273 284.239 32.8017 283.297C32.9761 282.354 33.3964 281.474 34.0201 280.746C34.6566 280.03 35.4297 279.448 36.2939 279.034C37.1582 278.621 38.0964 278.383 39.0534 278.337C39.9315 278.274 40.9141 278.389 41.5152 279.037C41.7793 279.356 41.9535 279.74 42.0196 280.149C42.0858 280.558 42.0416 280.977 41.8915 281.363C41.5791 282.132 41.0688 282.805 40.4124 283.313C38.2537 285.152 35.8286 286.532 33.0271 286.114Z" fill="#FFA448"/>
<path d="M30.969 296.604C30.9452 296.378 30.9452 296.151 30.969 295.925C30.969 295.439 31.0108 294.817 31.0369 294.069C31.0574 292.01 31.4104 289.968 32.0823 288.022C32.7849 286.072 33.9935 284.344 35.5841 283.015C36.0668 282.625 36.593 282.291 37.1521 282.022C37.3507 281.922 37.518 281.875 37.6225 281.828C37.7271 281.781 37.7898 281.771 37.795 281.781C36.5055 282.419 35.3554 283.306 34.4116 284.392C33.4677 285.478 32.7488 286.74 32.2965 288.106C31.6425 290.032 31.2779 292.046 31.2146 294.08C31.1624 294.858 31.1153 295.491 31.0735 295.93C31.0573 296.157 31.0223 296.383 30.969 296.604Z" fill="#263238"/>
<path d="M26.9477 268.27C26.979 268.364 27.0035 268.46 27.0209 268.558C27.0662 268.774 27.1237 269.051 27.1934 269.389C27.3397 270.11 27.5384 271.161 27.7683 272.457C28.2335 275.07 28.8137 278.65 29.3834 282.633C29.9531 286.616 30.3764 290.233 30.6482 292.857C30.7841 294.168 30.8834 295.229 30.9461 295.966C30.9705 296.315 30.9914 296.597 31.0089 296.813C31.0239 296.91 31.0239 297.009 31.0089 297.106C30.9828 297.01 30.9653 296.912 30.9566 296.813C30.9305 296.599 30.8939 296.322 30.8468 295.972C30.7528 295.214 30.6273 294.163 30.4705 292.877C30.1569 290.264 29.7022 286.647 29.1429 282.665C28.5837 278.682 28.0192 275.112 27.6011 272.499C27.392 271.218 27.2248 270.173 27.0784 269.415C27.0261 269.07 26.9843 268.793 26.9477 268.579C26.9341 268.476 26.9341 268.373 26.9477 268.27Z" fill="#263238"/>
<path d="M28.5742 288.785C27.9594 286.864 26.8958 285.116 25.4716 283.688C24.0474 282.259 22.3035 281.19 20.3841 280.569C19.4014 280.26 18.1679 280.151 17.5094 280.94C16.8508 281.729 17.2062 282.931 17.7132 283.825C18.8037 285.671 20.4169 287.153 22.349 288.083C24.2811 289.014 26.4456 289.351 28.569 289.052" fill="#FFA448"/>
<path d="M21.2562 283.59C21.4665 283.626 21.6729 283.682 21.873 283.757C22.1132 283.828 22.3489 283.913 22.5786 284.013C22.8504 284.133 23.1692 284.238 23.4932 284.415C23.8514 284.591 24.2004 284.784 24.5386 284.996C24.9367 285.235 25.3222 285.495 25.6937 285.774C27.4041 287.059 28.7749 288.742 29.6868 290.677C29.885 291.097 30.0595 291.528 30.2095 291.968C30.3469 292.347 30.4604 292.735 30.5492 293.128C30.6304 293.452 30.6932 293.78 30.7374 294.111C30.7828 294.358 30.8125 294.608 30.8263 294.858C30.8479 295.07 30.8514 295.283 30.8367 295.496C30.7792 295.496 30.7426 294.581 30.3715 293.165C30.2726 292.781 30.154 292.402 30.0161 292.031C29.8662 291.599 29.6916 291.177 29.4935 290.766C29.0299 289.837 28.4674 288.961 27.8157 288.152C27.1455 287.347 26.3921 286.615 25.5682 285.968C25.2073 285.689 24.8322 285.429 24.4445 285.189C24.1072 284.97 23.7582 284.769 23.3992 284.588C22.1186 283.893 21.2353 283.637 21.2562 283.59Z" fill="#263238"/>
</svg>
