<svg width="392" height="393" viewBox="0 0 392 393" fill="none" xmlns="http://www.w3.org/2000/svg">
<path d="M84.9002 187.065C80.7516 192.642 75.0423 196.864 68.4942 199.197C61.9462 201.529 54.8535 201.868 48.113 200.17C41.3725 198.472 35.2869 194.813 30.6257 189.656C25.9646 184.499 22.9372 178.076 21.9264 171.199C20.9155 164.322 21.9667 157.299 24.9469 151.019C27.9271 144.74 32.7026 139.484 38.6694 135.919C44.6362 132.353 51.5264 130.636 58.4687 130.986C65.411 131.336 72.0937 133.736 77.6717 137.884L77.7423 137.939C85.2051 143.505 90.1516 151.807 91.4939 161.02C92.8362 170.232 90.4644 179.601 84.9002 187.065Z" fill="#EBEBEB"/>
<path d="M78.2052 182.056C75.0474 186.309 70.6994 189.53 65.7111 191.311C60.7228 193.093 55.3182 193.355 50.1808 192.065C45.0434 190.775 40.4039 187.991 36.849 184.064C33.2941 180.137 30.9835 175.244 30.2094 170.004C29.4353 164.764 30.2325 159.412 32.5 154.625C34.7676 149.838 38.4038 145.831 42.9488 143.111C47.4937 140.39 52.7433 139.079 58.0337 139.342C63.324 139.605 68.4176 141.431 72.6702 144.589H72.7172C78.4079 148.825 82.1831 155.147 83.2123 162.166C84.2414 169.185 82.4404 176.326 78.2052 182.017V182.056Z" fill="#F5F5F5"/>
<path d="M78.6987 181.381C78.5654 181.287 79.1769 180.283 80.0628 178.378C81.3092 175.715 82.1318 172.874 82.5011 169.958C83.048 165.658 82.5339 161.289 81.0036 157.233C80.0972 154.868 78.8649 152.641 77.3424 150.616C76.534 149.55 75.6427 148.548 74.6768 147.622C72.6902 145.706 70.4117 144.118 67.9265 142.918C65.5549 141.762 63.0231 140.969 60.4158 140.566C59.1886 140.377 57.9492 140.277 56.7075 140.268C54.4046 140.238 52.1073 140.501 49.871 141.052C47.9228 141.556 46.0353 142.271 44.2419 143.184C41.6347 144.534 39.254 146.282 37.1859 148.366C35.7041 149.848 34.9672 150.773 34.8339 150.718C34.7006 150.663 35.2494 149.566 36.59 147.872C38.5275 145.496 40.8912 143.502 43.5598 141.992C46.75 140.172 50.2766 139.018 53.9259 138.6C57.5752 138.182 61.2714 138.509 64.7905 139.562C66.1756 139.978 67.5257 140.502 68.8281 141.13C70.1671 141.78 71.454 142.532 72.6776 143.38C73.8917 144.242 75.0396 145.193 76.1115 146.226C77.147 147.236 78.1012 148.327 78.9652 149.487C81.1505 152.428 82.7187 155.78 83.5756 159.343C84.4324 162.905 84.5603 166.604 83.9515 170.216C83.4487 173.248 82.3852 176.159 80.8155 178.801C79.6395 180.597 78.8006 181.451 78.6987 181.381Z" fill="#E0E0E0"/>
<path d="M49.6128 180.638L46.8766 184.409L43.5054 181.978L46.171 178.309C42.9801 175.683 40.5341 172.319 39.7344 169.521L44.5717 166.753C45.5261 169.509 47.1825 171.968 49.3776 173.887L53.4622 168.258C50.3733 164.636 47.0961 160.356 50.5928 155.534C53.1878 151.959 58.0094 150.775 63.7797 154.029L66.4923 150.289L69.8635 152.735L67.1979 156.404C69.5171 158.298 71.3525 160.717 72.5526 163.46L67.8486 166.385C66.9215 164.312 65.5886 162.446 63.9286 160.897L59.7734 166.628C62.9094 170.218 66.0925 174.468 62.6429 179.172C60.1419 182.66 55.3752 183.836 49.6128 180.638ZM57.0529 163.288L60.5261 158.498C58.4485 157.604 57.0294 158.074 56.2219 159.187C55.4144 160.301 55.9083 161.735 57.0529 163.288ZM56.9589 175.62C57.8134 174.436 57.3038 173.088 56.2219 171.528L52.8429 176.185C54.8029 177.039 56.1749 176.694 56.9589 175.62Z" fill="#E0E0E0"/>
<path d="M295.945 286.892C292.346 291.732 287.392 295.395 281.71 297.42C276.028 299.444 269.873 299.738 264.024 298.265C258.175 296.791 252.894 293.616 248.85 289.142C244.805 284.667 242.178 279.093 241.301 273.126C240.424 267.158 241.336 261.064 243.922 255.615C246.508 250.166 250.652 245.606 255.83 242.512C261.007 239.418 266.986 237.928 273.01 238.232C279.034 238.536 284.833 240.619 289.673 244.219L289.736 244.266C296.21 249.096 300.502 256.3 301.666 264.293C302.83 272.287 300.773 280.415 295.945 286.892Z" fill="#EBEBEB"/>
<path d="M290.136 282.549C287.39 286.234 283.614 289.023 279.283 290.563C274.953 292.102 270.264 292.323 265.808 291.197C261.352 290.072 257.33 287.65 254.251 284.239C251.171 280.827 249.172 276.579 248.507 272.032C247.841 267.485 248.539 262.842 250.512 258.691C252.485 254.541 255.644 251.068 259.591 248.713C263.537 246.358 268.093 245.226 272.683 245.46C277.273 245.694 281.69 247.284 285.377 250.028H285.416C287.864 251.852 289.927 254.14 291.49 256.762C293.052 259.385 294.082 262.289 294.52 265.31C294.958 268.33 294.797 271.408 294.044 274.366C293.292 277.324 291.964 280.105 290.136 282.549Z" fill="#F5F5F5"/>
<path d="M290.567 281.962C290.449 281.875 290.983 281.005 291.743 279.351C292.825 277.04 293.539 274.575 293.86 272.044C294.073 270.311 294.094 268.56 293.923 266.823C293.721 264.833 293.262 262.877 292.558 261.005C292.184 259.995 291.734 259.015 291.21 258.073C290.676 257.086 290.065 256.142 289.383 255.251C288.68 254.325 287.907 253.455 287.07 252.648C286.2 251.826 285.276 251.064 284.303 250.366C283.318 249.687 282.286 249.079 281.214 248.547C279.157 247.545 276.961 246.861 274.699 246.517C273.633 246.352 272.556 246.266 271.477 246.258C267.717 246.212 264.004 247.093 260.665 248.822C258.399 249.993 256.328 251.509 254.527 253.314C253.241 254.6 252.598 255.4 252.488 255.313C252.378 255.227 252.849 254.318 254.009 252.852C255.689 250.778 257.742 249.036 260.062 247.716C261.667 246.792 263.378 246.062 265.158 245.545C267.212 244.951 269.338 244.64 271.477 244.62C272.633 244.602 273.789 244.676 274.934 244.839C276.134 245.006 277.319 245.268 278.478 245.623C282.171 246.727 285.542 248.71 288.301 251.401C289.197 252.281 290.025 253.227 290.779 254.231C291.503 255.2 292.147 256.225 292.707 257.297C293.25 258.306 293.717 259.354 294.103 260.433C294.814 262.456 295.25 264.566 295.396 266.705C295.52 268.555 295.422 270.413 295.106 272.24C294.66 274.872 293.727 277.398 292.355 279.688C291.375 281.279 290.645 282.016 290.567 281.962Z" fill="#E0E0E0"/>
<path d="M265.331 281.311L262.979 284.588L260.047 282.464L262.359 279.273C259.592 276.999 257.475 274.075 256.777 271.652L260.972 269.253C261.802 271.644 263.239 273.779 265.143 275.447L268.686 270.555C266.013 267.419 263.198 263.703 266.201 259.516C268.451 256.38 272.638 255.384 277.64 258.215L279.992 254.961L282.916 257.086L280.603 260.276C282.616 261.908 284.209 263.997 285.252 266.368L281.175 268.9C280.383 267.102 279.236 265.481 277.804 264.134L274.198 269.112C276.895 272.248 279.686 275.894 276.691 280.018C274.457 283.067 270.325 284.087 265.331 281.311ZM271.783 266.258L274.794 262.103C272.99 261.319 271.76 261.735 271.054 262.699C270.348 263.663 270.787 264.918 271.783 266.258ZM271.697 276.96C272.442 275.933 271.995 274.765 271.054 273.408L268.13 277.446C269.823 278.23 271.023 277.893 271.697 276.96Z" fill="#E0E0E0"/>
<path d="M111.563 77.345C110.85 81.2423 108.998 84.8406 106.24 87.6849C103.482 90.5292 99.9419 92.4917 96.0684 93.3242C92.1949 94.1567 88.1615 93.8218 84.4783 92.3619C80.7951 90.9021 77.6276 88.3827 75.3763 85.1225C73.125 81.8624 71.891 78.0078 71.8305 74.0463C71.7699 70.0848 72.8855 66.1943 75.0361 62.8669C77.1868 59.5394 80.2758 56.9245 83.9127 55.3527C87.5496 53.7809 91.5708 53.323 95.468 54.0367H95.515C98.0994 54.5131 100.565 55.4939 102.77 56.9231C104.975 58.3524 106.877 60.202 108.367 62.3665C109.858 64.531 110.907 66.9678 111.455 69.5379C112.004 72.1079 112.041 74.7608 111.563 77.345Z" fill="#EBEBEB"/>
<path d="M106.877 76.4747C106.332 79.4443 104.92 82.1859 102.818 84.3528C100.715 86.5196 98.0176 88.0144 95.0658 88.648C92.1139 89.2816 89.0405 89.0257 86.2341 87.9125C83.4277 86.7994 81.0144 84.879 79.2994 82.3943C77.5845 79.9096 76.6449 76.9721 76.5994 73.9533C76.5539 70.9346 77.4047 67.9701 79.044 65.4349C80.6834 62.8997 83.0377 60.9075 85.8093 59.7103C88.5809 58.5132 91.6453 58.1648 94.6149 58.7093C98.5892 59.4427 102.109 61.7247 104.402 65.0533C106.694 68.3818 107.57 72.4845 106.837 76.459L106.877 76.4747Z" fill="#F5F5F5"/>
<path d="M106.963 76.0051C106.871 75.3822 106.85 74.7511 106.9 74.1235C106.864 72.4493 106.568 70.7909 106.022 69.2078C105.647 68.1103 105.15 67.0584 104.54 66.0718C103.844 64.9595 103.006 63.9422 102.047 63.0456C100.993 62.0533 99.7993 61.2212 98.5035 60.576C97.82 60.237 97.1125 59.9487 96.3867 59.7136C95.6375 59.4789 94.8724 59.2981 94.0974 59.1726C93.3184 59.0603 92.5325 59.0027 91.7454 59.0001C90.9814 59.008 90.219 59.0708 89.464 59.1883C88.736 59.3033 88.0179 59.4737 87.3158 59.6979C86.6407 59.9081 85.9827 60.1702 85.348 60.4819C83.1131 61.5628 81.1796 63.1786 79.7189 65.1859C78.7089 66.5309 77.9153 68.0255 77.3669 69.6155C77.2242 70.2265 77.0166 70.8205 76.7475 71.3873C76.6697 70.7493 76.7313 70.102 76.9278 69.4901C77.3199 67.7816 78.0242 66.1602 79.0054 64.7077C80.4649 62.5191 82.47 60.7491 84.8227 59.5725C85.5023 59.2265 86.2073 58.9329 86.9317 58.6944C87.684 58.4423 88.4546 58.2483 89.2366 58.1142C90.0607 57.9731 90.8939 57.8919 91.7297 57.8712C92.5771 57.8685 93.4236 57.9288 94.2621 58.0515C95.099 58.1843 95.9246 58.3809 96.7317 58.6395C97.5153 58.8968 98.2781 59.2139 99.0131 59.5881C99.7229 59.9474 100.402 60.3643 101.044 60.8347C101.662 61.2757 102.244 61.766 102.784 62.3008C103.788 63.2807 104.655 64.3908 105.363 65.6014C105.969 66.6596 106.452 67.7826 106.806 68.9491C107.306 70.628 107.49 72.3853 107.347 74.1313C107.346 74.7754 107.215 75.4126 106.963 76.0051Z" fill="#E0E0E0"/>
<path d="M91.9006 82.9503L91.4537 85.5767L89.1017 85.1768L89.5329 82.621C87.472 82.199 85.5707 81.2076 84.0449 79.7594L85.8168 77.1252C86.999 78.2934 88.4668 79.1314 90.0739 79.5556L90.7403 75.6356C88.255 74.5615 85.5032 73.1973 86.0755 69.8496C86.4988 67.3722 88.6627 65.5533 92.4337 65.765L92.8728 63.1621L95.2248 63.562L94.7857 66.1178C96.4434 66.4971 97.988 67.2627 99.2937 68.3522L97.6316 71.0335C96.6396 70.2061 95.494 69.5826 94.2604 69.1989L93.5784 73.1816C96.0715 74.2322 98.7763 75.5885 98.2118 78.8813C97.7884 81.3352 95.6481 83.1384 91.9006 82.9503ZM91.3283 72.2173L91.9006 68.8932C90.607 68.9637 90.0033 69.5596 89.87 70.3357C89.7368 71.1119 90.3561 71.7077 91.3283 72.2173ZM94.3937 78.5442C94.5348 77.7602 93.9312 77.1644 92.9825 76.6469L92.4337 79.8692C93.6489 79.8064 94.2683 79.2733 94.3937 78.5363V78.5442Z" fill="#E0E0E0"/>
<path d="M370.534 347.307C370.534 347.425 298.022 347.519 208.599 347.519C119.176 347.519 46.6562 347.401 46.6562 347.307C46.6562 347.213 119.145 347.104 208.599 347.104C298.054 347.104 370.534 347.198 370.534 347.307Z" fill="#263238"/>
<path d="M142.383 100.489C142.383 100.489 143.065 65.3575 114.002 47.5137H206.114C206.114 47.5137 232.449 68.8541 232.668 100.489H142.383Z" fill="#EBEBEB"/>
<path d="M199.091 60.3249C199.091 60.4425 188.57 60.5366 175.571 60.5366C162.572 60.5366 152.051 60.4425 152.051 60.3249C152.051 60.2073 162.572 60.1211 175.571 60.1211C188.57 60.1211 199.091 60.2152 199.091 60.3249Z" fill="#455A64"/>
<path d="M209.14 66.6824C209.14 66.7921 195.201 66.8862 178.008 66.8862C160.815 66.8862 146.875 66.7921 146.875 66.6824C146.875 66.5726 160.815 66.4707 178.008 66.4707C195.201 66.4707 209.14 66.5648 209.14 66.6824Z" fill="#263238"/>
<path d="M214.379 82.7546C214.379 82.8644 200.439 82.9585 183.246 82.9585C166.053 82.9585 152.105 82.8644 152.105 82.7546C152.105 82.6449 166.045 82.5508 183.246 82.5508C200.447 82.5508 214.379 82.6449 214.379 82.7546Z" fill="#263238"/>
<path d="M181.842 73.9968C181.422 74.0606 180.997 74.0895 180.572 74.083L177.091 74.1458C174.151 74.185 170.098 74.2085 165.614 74.2085C161.129 74.2085 157.076 74.2085 154.136 74.1458L150.655 74.083C150.23 74.0895 149.805 74.0606 149.385 73.9968C149.805 73.9356 150.23 73.9093 150.655 73.9184L154.136 73.8557C157.076 73.8557 161.129 73.793 165.614 73.793C170.098 73.793 174.151 73.793 177.091 73.8557L180.572 73.9184C180.997 73.9093 181.422 73.9356 181.842 73.9968Z" fill="#263238"/>
<path d="M209.141 73.9968C208.831 74.0608 208.516 74.0898 208.2 74.083L205.628 74.1458C203.465 74.185 200.462 74.2085 197.153 74.2085C193.845 74.2085 190.842 74.2085 188.678 74.1458L186.107 74.083C185.791 74.0898 185.475 74.0608 185.166 73.9968C185.476 73.9396 185.791 73.9133 186.107 73.9184L188.678 73.8557C190.842 73.8557 193.845 73.793 197.153 73.793C200.462 73.793 203.425 73.793 205.628 73.8557L208.2 73.9184C208.515 73.9094 208.831 73.9357 209.141 73.9968Z" fill="#263238"/>
<path d="M187.62 91.3699C187.197 91.4339 186.769 91.4628 186.342 91.4561L182.869 91.5188C179.929 91.5188 175.868 91.5815 171.391 91.5815C166.914 91.5815 162.845 91.5815 159.905 91.5188L156.432 91.4561C156.005 91.4628 155.577 91.4339 155.154 91.3699C155.577 91.3084 156.005 91.2822 156.432 91.2915L159.905 91.2287C162.845 91.2287 166.906 91.166 171.391 91.166C175.875 91.166 179.929 91.166 182.869 91.2287L186.342 91.2915C186.769 91.2822 187.197 91.3084 187.62 91.3699Z" fill="#263238"/>
<path d="M214.918 91.3699C214.609 91.4339 214.293 91.4628 213.977 91.4561L211.406 91.5188C209.234 91.5188 206.239 91.5815 202.931 91.5815C199.622 91.5815 196.659 91.5815 194.448 91.5188L191.876 91.4561C191.561 91.4628 191.245 91.4339 190.936 91.3699C191.246 91.3127 191.561 91.2864 191.876 91.2915L194.448 91.2287C196.62 91.2287 199.614 91.166 202.931 91.166C206.247 91.166 209.203 91.166 211.406 91.2287L213.977 91.2915C214.293 91.2864 214.608 91.3127 214.918 91.3699Z" fill="#263238"/>
<path d="M123.551 99.4922H259.45L266.851 334.927C266.901 336.507 266.639 338.081 266.081 339.559C265.523 341.038 264.678 342.391 263.596 343.543C262.514 344.695 261.216 345.623 259.775 346.272C258.335 346.922 256.78 347.282 255.201 347.33H113.508C111.512 347.331 109.592 346.563 108.145 345.187C106.699 343.811 105.837 341.931 105.739 339.937L99.2081 206.994C99.2081 206.994 58.9027 192.365 59.5847 147.732C59.5847 147.732 61.4193 99.4922 123.551 99.4922Z" fill="#263238"/>
<path d="M130.929 346.977L125.002 99.4922H264.381L266.898 336.566C266.985 339.325 265.972 342.005 264.083 344.018C262.194 346.031 259.583 347.211 256.824 347.299H256.463L130.929 346.977Z" fill="#455A64"/>
<path d="M136.52 113.832L139.342 229.064H252.857L251.328 113.832H136.52Z" fill="#263238"/>
<path d="M149.078 128.745C154.621 130.242 161.622 129.607 167.314 129.333C167.73 129.333 168.128 129.168 168.422 128.873C168.716 128.579 168.882 128.181 168.882 127.765C168.882 127.349 168.716 126.95 168.422 126.656C168.128 126.362 167.73 126.197 167.314 126.197C161.622 125.915 154.613 125.279 149.078 126.785C148.813 126.863 148.59 127.043 148.457 127.286C148.325 127.528 148.294 127.813 148.372 128.078C148.423 128.245 148.514 128.396 148.637 128.52C148.76 128.643 148.911 128.733 149.078 128.784V128.745Z" fill="#E0E0E0"/>
<path d="M177.005 128.517C182.446 129.905 189.479 129.654 195.037 129.121C195.453 129.121 195.852 128.955 196.146 128.661C196.44 128.367 196.605 127.968 196.605 127.553C196.605 127.137 196.44 126.738 196.146 126.444C195.852 126.15 195.453 125.985 195.037 125.985C189.479 125.444 182.446 125.201 177.005 126.588C176.878 126.627 176.76 126.69 176.657 126.774C176.554 126.859 176.469 126.962 176.406 127.08C176.344 127.197 176.305 127.325 176.292 127.457C176.279 127.59 176.292 127.723 176.331 127.85C176.379 128.01 176.465 128.155 176.583 128.273C176.701 128.39 176.846 128.477 177.005 128.525V128.517Z" fill="#E0E0E0"/>
<path d="M204.554 128.023C207.29 128.854 210.246 128.713 213.084 128.76C215.982 128.932 218.889 128.877 221.779 128.595C223.198 128.391 223.198 125.922 221.779 125.726C218.89 125.437 215.982 125.379 213.084 125.553C210.246 125.6 207.29 125.459 204.554 126.29C204.366 126.344 204.201 126.458 204.084 126.614C203.966 126.771 203.902 126.961 203.902 127.156C203.902 127.352 203.966 127.542 204.084 127.698C204.201 127.855 204.366 127.969 204.554 128.023Z" fill="#E0E0E0"/>
<path d="M230.081 128.179C232.146 128.48 234.228 128.64 236.314 128.658C238.384 128.705 240.618 129.042 242.625 128.47C242.907 128.384 243.154 128.211 243.33 127.974C243.505 127.738 243.6 127.451 243.6 127.156C243.6 126.862 243.505 126.575 243.33 126.339C243.154 126.102 242.907 125.928 242.625 125.843C240.618 125.271 238.384 125.608 236.314 125.655C234.228 125.672 232.145 125.834 230.081 126.141C229.863 126.208 229.672 126.343 229.537 126.527C229.401 126.71 229.328 126.932 229.328 127.16C229.328 127.388 229.401 127.61 229.537 127.794C229.672 127.977 229.863 128.112 230.081 128.179Z" fill="#E0E0E0"/>
<path d="M172.278 242.77H139.381V266.282H172.278V242.77Z" fill="#FFA448"/>
<path d="M145.331 242.77H139.381V266.282H145.331V242.77Z" fill="#263238"/>
<path d="M212.559 242.77H179.662V266.282H212.559V242.77Z" fill="#FFA448"/>
<path d="M185.275 242.77H179.324V266.282H185.275V242.77Z" fill="#263238"/>
<path d="M252.848 242.77H219.951V266.282H252.848V242.77Z" fill="#FFA448"/>
<path d="M224.962 242.77H219.012V266.282H224.962V242.77Z" fill="#263238"/>
<path d="M252.848 274.051H219.951V297.563H252.848V274.051Z" fill="#FFA448"/>
<path d="M226.082 274.051H219.951V297.563H226.082V274.051Z" fill="#263238"/>
<path d="M172.278 274.051H139.381V297.563H172.278V274.051Z" fill="#FFA448"/>
<path d="M145.331 274.004H139.381V297.516H145.331V274.004Z" fill="#263238"/>
<path d="M172.278 305.02H139.381V328.532H172.278V305.02Z" fill="#FFA448"/>
<path opacity="0.3" d="M172.278 305.02H139.381V328.532H172.278V305.02Z" fill="black"/>
<path d="M145.331 305.02H139.381V328.532H145.331V305.02Z" fill="#263238"/>
<path d="M212.379 274.051H179.482V297.563H212.379V274.051Z" fill="#FFA448"/>
<path d="M185.433 274.004H179.482V297.516H185.433V274.004Z" fill="#263238"/>
<path d="M212.559 305.02H179.662V328.532H212.559V305.02Z" fill="#FFA448"/>
<path opacity="0.3" d="M212.559 305.02H179.662V328.532H212.559V305.02Z" fill="black"/>
<path d="M185.613 305.02H179.662V328.532H185.613V305.02Z" fill="#263238"/>
<path d="M252.848 305.02H219.951V328.532H252.848V305.02Z" fill="#E0E0E0"/>
<path d="M225.902 305.02H219.951V328.532H225.902V305.02Z" fill="#263238"/>
<path d="M120.071 347.338C119.506 347.338 117.445 291.878 115.461 223.466C113.477 155.054 112.325 99.5235 112.889 99.5078C113.454 99.4921 115.516 154.952 117.499 223.38C119.483 291.807 120.635 347.322 120.071 347.338Z" fill="#455A64"/>
<path d="M252.684 215.941V220.167L265.698 223.405L265.627 216.89L252.684 215.941Z" fill="#455A64"/>
<path d="M94.6993 207.465C93.987 207.183 93.2222 207.057 92.457 207.097C91.6868 207.169 90.9313 207.354 90.2148 207.646L81.3086 210.625L63.9038 216.474L30.9758 227.45C29.6765 227.821 28.5599 228.658 27.8398 229.802C27.1262 230.92 26.8602 232.267 27.095 233.573C27.239 234.22 27.4276 234.856 27.6594 235.478L28.2945 237.375C28.7178 238.637 29.1334 239.884 29.5567 241.13C31.2083 246.09 32.8182 250.907 34.3862 255.58C37.5222 264.909 40.4073 273.611 43.065 281.522C48.3492 297.382 52.6377 310.224 55.609 319.099C57.083 323.537 58.2198 326.978 59.0038 329.291C59.3801 330.459 59.678 331.345 59.874 331.949C60.07 332.553 60.1562 332.858 60.1562 332.858C60.2612 333.158 60.3952 333.447 60.5561 333.721C61.0081 334.538 61.6612 335.226 62.4534 335.72C63.0952 336.118 63.8123 336.379 64.5596 336.487C65.307 336.595 66.0685 336.547 66.7967 336.347C68.5058 335.798 70.4658 335.108 72.6846 334.372L105.424 323.333L70.505 214.278L87.9726 208.422L119.513 305.066L118.133 271.448C111.783 252.53 104.923 232.075 97.749 210.727C97.5058 209.996 97.1073 209.325 96.5809 208.763C96.0545 208.2 95.4126 207.757 94.6993 207.465ZM54.4487 257.148L46.6558 232.483L49.2978 231.644L57.0908 256.309L54.4487 257.148ZM59.8583 243.561L55.3111 229.182L57.9532 228.351L62.5004 242.722L59.8583 243.561ZM65.9578 261.797L61.4185 247.418L64.0606 246.587L68.5999 260.958L65.9578 261.797ZM67.5258 265.654L70.1679 264.815L82.7119 304.627L80.0698 305.458L67.5258 265.654ZM83.9898 317.743L81.3007 309.236L83.9428 308.398L86.6319 316.912L83.9898 317.743ZM94.8639 313.227L92.2218 314.058L75.6246 261.53L78.2666 260.699L94.8639 313.227ZM76.9103 255.674L74.2682 256.505L64.6407 226.062L67.2828 225.223L76.9103 255.674Z" fill="#FFA448"/>
<path opacity="0.3" d="M94.6993 207.465C93.987 207.183 93.2222 207.057 92.457 207.097C91.6868 207.169 90.9313 207.354 90.2148 207.646L81.3086 210.625L63.9038 216.474L30.9758 227.45C29.6765 227.821 28.5599 228.658 27.8398 229.802C27.1262 230.92 26.8602 232.267 27.095 233.573C27.239 234.22 27.4276 234.856 27.6594 235.478L28.2945 237.375C28.7178 238.637 29.1334 239.884 29.5567 241.13C31.2083 246.09 32.8182 250.907 34.3862 255.58C37.5222 264.909 40.4073 273.611 43.065 281.522C48.3492 297.382 52.6377 310.224 55.609 319.099C57.083 323.537 58.2198 326.978 59.0038 329.291C59.3801 330.459 59.678 331.345 59.874 331.949C60.07 332.553 60.1562 332.858 60.1562 332.858C60.2612 333.158 60.3952 333.447 60.5561 333.721C61.0081 334.538 61.6612 335.226 62.4534 335.72C63.0952 336.118 63.8123 336.379 64.5596 336.487C65.307 336.595 66.0685 336.547 66.7967 336.347C68.5058 335.798 70.4658 335.108 72.6846 334.372L105.424 323.333L70.505 214.278L87.9726 208.422L119.513 305.066L118.133 271.448C111.783 252.53 104.923 232.075 97.749 210.727C97.5058 209.996 97.1073 209.325 96.5809 208.763C96.0545 208.2 95.4126 207.757 94.6993 207.465ZM54.4487 257.148L46.6558 232.483L49.2978 231.644L57.0908 256.309L54.4487 257.148ZM59.8583 243.561L55.3111 229.182L57.9532 228.351L62.5004 242.722L59.8583 243.561ZM65.9578 261.797L61.4185 247.418L64.0606 246.587L68.5999 260.958L65.9578 261.797ZM67.5258 265.654L70.1679 264.815L82.7119 304.627L80.0698 305.458L67.5258 265.654ZM83.9898 317.743L81.3007 309.236L83.9428 308.398L86.6319 316.912L83.9898 317.743ZM94.8639 313.227L92.2218 314.058L75.6246 261.53L78.2666 260.699L94.8639 313.227ZM76.9103 255.674L74.2682 256.505L64.6407 226.062L67.2828 225.223L76.9103 255.674Z" fill="black"/>
<path d="M105.448 323.482L105.409 323.357L72.6689 334.395C70.4502 335.132 68.4902 335.822 66.7811 336.371C66.0529 336.571 65.2914 336.618 64.544 336.51C63.7967 336.403 63.0796 336.142 62.4377 335.744C61.6456 335.25 60.9925 334.562 60.5405 333.745C60.2347 333.196 60.1641 332.874 60.1406 332.882L60.219 333.11C60.6299 334.223 61.3958 335.171 62.3985 335.807C63.0449 336.221 63.7711 336.495 64.53 336.611C65.289 336.727 66.0639 336.683 66.8046 336.481C68.5294 335.94 70.4894 335.266 72.716 334.529L110.293 321.985L119.207 319.005L120.07 318.566L105.448 323.482Z" fill="#263238"/>
<path d="M59.8593 331.964C59.6633 331.361 59.3653 330.475 58.989 329.307C58.205 326.955 57.0682 323.521 55.5943 319.115C52.6386 310.24 48.3501 297.398 43.0503 281.537C40.3925 273.611 37.4917 264.925 34.3714 255.595C32.8034 250.933 31.1936 246.116 29.542 241.146C29.1186 239.899 28.7031 238.653 28.2797 237.39L27.6447 235.493C27.4129 234.872 27.2242 234.235 27.0802 233.588C26.857 232.277 27.137 230.93 27.8642 229.817C28.5844 228.674 29.701 227.836 31.0002 227.465L63.9282 216.489L81.333 210.656L90.2393 207.677C90.9557 207.385 91.7112 207.2 92.4815 207.128C93.6398 207.067 94.7863 207.387 95.745 208.04C96.7038 208.693 97.4219 209.642 97.7892 210.742C104.947 232.091 111.807 252.545 118.173 271.463L118.118 270.193C111.893 251.597 105.167 231.542 98.1655 210.609C97.9017 209.826 97.4714 209.11 96.9044 208.509C96.3373 207.908 95.6469 207.437 94.8805 207.128C94.1168 206.822 93.295 206.688 92.4737 206.736C91.6665 206.809 90.8742 207 90.1217 207.3L81.2233 210.288L63.8185 216.12L30.8905 227.159C29.513 227.538 28.3238 228.412 27.5506 229.613C26.7969 230.809 26.5173 232.244 26.7666 233.635C26.9159 234.298 27.1097 234.95 27.3468 235.587C27.5585 236.222 27.778 236.849 27.9897 237.485C28.4052 238.739 28.8285 239.993 29.2441 241.232C30.9166 246.197 32.5342 251.014 34.097 255.681L42.8073 281.592L55.4532 319.13C56.9585 323.552 58.1188 326.97 58.9106 329.322C59.3105 330.483 59.6162 331.369 59.8201 331.972L60.1415 332.874C60.1415 332.874 60.0553 332.568 59.8593 331.964Z" fill="#263238"/>
<path d="M78.2404 260.711L75.6016 261.545L92.2023 314.068L94.8411 313.234L78.2404 260.711Z" fill="#FAFAFA"/>
<path d="M67.2814 225.223L64.6426 226.057L74.2708 256.519L76.9096 255.685L67.2814 225.223Z" fill="#FAFAFA"/>
<path d="M57.9572 228.348L55.3184 229.182L59.8619 243.557L62.5008 242.723L57.9572 228.348Z" fill="#FAFAFA"/>
<path d="M48.8093 230.903L46.1777 231.734L53.9422 256.315L56.5737 255.484L48.8093 230.903Z" fill="#FAFAFA"/>
<path d="M83.9748 308.391L81.3359 309.225L84.0248 317.732L86.6636 316.898L83.9748 308.391Z" fill="#FAFAFA"/>
<path d="M64.0549 246.586L61.416 247.42L65.9596 261.795L68.5984 260.961L64.0549 246.586Z" fill="#FAFAFA"/>
<path d="M70.1369 264.836L67.498 265.67L80.0797 305.477L82.7186 304.643L70.1369 264.836Z" fill="#FAFAFA"/>
<path d="M70.5059 214.278L105.41 323.356L105.449 323.482L120.07 318.582L119.514 305.05L87.9734 208.422L70.5059 214.278Z" fill="#FAFAFA"/>
<path d="M105.252 329.996L119.427 325.01L119.121 318.793L105.448 323.481L105.252 329.996Z" fill="#263238"/>
<path d="M283.972 149.527C283.972 149.637 283.533 149.708 282.984 149.684C282.435 149.661 282.012 149.551 282.02 149.433C282.027 149.316 282.467 149.253 283.007 149.276C283.548 149.3 283.98 149.41 283.972 149.527Z" fill="#263238"/>
<path d="M291.646 149.199C291.044 149.452 290.394 149.572 289.741 149.551C289.099 149.67 288.439 149.652 287.805 149.497C289.05 149.128 290.359 149.026 291.646 149.199Z" fill="#263238"/>
<path d="M299.252 147.842C298.687 148.17 298.059 148.376 297.409 148.445C296.786 148.642 296.131 148.712 295.48 148.649C296.668 148.124 297.953 147.857 299.252 147.865V147.842Z" fill="#263238"/>
<path d="M306.583 145.498C306.068 145.896 305.475 146.182 304.843 146.337C304.255 146.62 303.613 146.775 302.961 146.792C303.474 146.39 304.068 146.104 304.701 145.953C305.292 145.677 305.932 145.522 306.583 145.498Z" fill="#263238"/>
<path d="M313.537 142.182C312.533 143.004 311.369 143.61 310.119 143.961C310.58 143.498 311.129 143.133 311.734 142.887C312.28 142.53 312.894 142.289 313.537 142.182Z" fill="#263238"/>
<path d="M319.941 137.91C320.012 137.996 319.369 138.576 318.498 139.203C318.012 139.637 317.441 139.966 316.821 140.167C316.758 140.073 317.401 139.493 318.263 138.866C319.126 138.239 319.87 137.815 319.941 137.91Z" fill="#263238"/>
<path d="M325.602 132.687C325.688 132.766 325.139 133.471 324.387 134.192C323.634 134.914 322.952 135.494 322.881 135.408C322.811 135.321 323.344 134.624 324.096 133.902C324.849 133.181 325.516 132.585 325.602 132.687Z" fill="#263238"/>
<path d="M330.283 126.58C330.385 126.635 329.962 127.364 329.35 128.274C328.739 129.183 328.166 129.842 328.08 129.74C328.274 129.116 328.591 128.538 329.013 128.039C329.625 127.176 330.189 126.518 330.283 126.58Z" fill="#263238"/>
<path d="M333.732 119.697C333.466 120.971 332.931 122.174 332.164 123.225C332.413 121.946 332.949 120.74 333.732 119.697Z" fill="#263238"/>
<path d="M335.771 112.281C335.829 112.93 335.751 113.584 335.543 114.202C335.467 114.851 335.253 115.477 334.916 116.037C334.931 114.738 335.222 113.458 335.771 112.281Z" fill="#263238"/>
<path d="M336.554 104.621C336.753 105.904 336.67 107.215 336.311 108.463C336.152 107.832 336.125 107.175 336.233 106.534C336.21 105.881 336.319 105.231 336.554 104.621Z" fill="#263238"/>
<path d="M336.17 96.9375C336.559 98.1758 336.674 99.484 336.507 100.771C336.257 100.171 336.131 99.5249 336.139 98.874C336.02 98.2329 336.03 97.5744 336.17 96.9375Z" fill="#263238"/>
<path d="M334.611 89.3945C334.955 89.9488 335.182 90.5679 335.278 91.2134C335.499 91.8282 335.59 92.4824 335.544 93.1342C335.2 92.5799 334.973 91.9608 334.878 91.3153C334.661 90.6995 334.57 90.0462 334.611 89.3945Z" fill="#263238"/>
<path d="M331.82 82.2207C332.255 82.7071 332.583 83.2784 332.785 83.8985C333.112 84.4656 333.312 85.0968 333.373 85.7487C332.942 85.2569 332.614 84.6838 332.408 84.0631C332.088 83.4958 331.888 82.8687 331.82 82.2207Z" fill="#263238"/>
<path d="M327.711 75.7064C327.797 75.6358 328.362 76.2866 328.981 77.1646C329.406 77.6584 329.724 78.2351 329.914 78.8581C329.82 78.9208 329.248 78.2623 328.644 77.3999C328.219 76.9061 327.901 76.3294 327.711 75.7064Z" fill="#263238"/>
<path d="M322.373 70.1879C322.443 70.1017 323.157 70.5721 323.941 71.3012C324.725 72.0303 325.258 72.7202 325.18 72.7986C325.101 72.877 324.443 72.3204 323.667 71.5991C322.89 70.8778 322.302 70.2741 322.373 70.1879Z" fill="#263238"/>
<path d="M317.582 66.8778C317.637 66.7837 318.06 66.9327 318.523 67.2149C318.985 67.4971 319.307 67.8029 319.252 67.897C319.197 67.9911 318.766 67.8421 318.311 67.5677C317.856 67.2933 317.519 66.9797 317.582 66.8778Z" fill="#263238"/>
<path d="M296.32 86.2433C311.319 86.2433 323.478 74.0843 323.478 59.0855C323.478 44.0867 311.319 31.9277 296.32 31.9277C281.321 31.9277 269.162 44.0867 269.162 59.0855C269.162 74.0843 281.321 86.2433 296.32 86.2433Z" fill="#FFA448"/>
<path d="M280.256 61.0686L284.458 56.8663L292.565 64.0713L308.48 48.7598L312.384 52.962L291.969 72.1778L280.256 61.0686Z" fill="#FAFAFA"/>
<path d="M312.166 177.495L308.167 162.842C308.167 162.842 289.351 167.742 288.152 166.221C281.323 157.777 277.874 146.174 276.799 142.011C276.948 141.415 277.152 140.717 277.427 139.902C277.665 139.204 278.02 138.552 278.477 137.973C279.017 137.236 279.655 136.577 280.375 136.013C280.57 135.903 280.713 135.72 280.774 135.504C280.834 135.287 280.806 135.056 280.696 134.861C280.64 134.752 280.559 134.657 280.459 134.585C280.36 134.513 280.245 134.465 280.124 134.445C279.34 134.39 277.364 135.582 275.882 137.848C274.4 140.114 273.954 135.88 273.765 134.343C273.577 132.807 272.754 128.071 272.237 127.734C271.453 127.272 270.833 128.001 271.061 129.537C271.288 131.074 271.641 135.731 270.825 135.809C270.01 135.888 269.148 127.969 269.148 127.969C269.148 127.969 269.234 126.26 268.285 126.299C266.568 126.37 268.113 134.665 268.285 135.457C268.403 135.998 267.501 136.099 267.423 135.504C267.344 134.908 266.733 127.664 264.992 127.664C263.652 127.711 266.192 134.5 265.479 136.076C264.765 137.652 264.075 130.729 262.797 130.823C262.327 130.823 261.974 130.949 262.946 134.869C263.764 137.663 264.732 140.411 265.847 143.101H265.776C265.776 143.101 272.754 184.041 290.864 181.752C310.143 179.368 312.166 177.495 312.166 177.495Z" fill="#FFBE9D"/>
<path d="M284.842 218.113L169.932 209.748C168.374 209.639 166.922 208.919 165.894 207.744C164.866 206.569 164.345 205.034 164.444 203.476L169.587 132.877C169.695 131.319 170.416 129.868 171.591 128.84C172.766 127.811 174.3 127.29 175.859 127.389L290.864 135.723C292.429 135.833 293.887 136.561 294.916 137.746C295.945 138.931 296.461 140.476 296.352 142.042L291.209 212.641C291.155 213.416 290.949 214.173 290.603 214.868C290.256 215.563 289.776 216.183 289.19 216.693C288.604 217.203 287.923 217.592 287.187 217.838C286.45 218.085 285.672 218.183 284.897 218.129L284.842 218.113Z" fill="#FFA448"/>
<path d="M284.843 218.112C285.196 218.112 285.541 218.112 285.894 218.112C286.922 218.002 287.902 217.618 288.732 216.999C289.401 216.502 289.957 215.868 290.363 215.14C290.768 214.411 291.014 213.604 291.084 212.773C291.225 210.782 291.389 208.485 291.57 205.905L294.706 162.182C295.035 157.567 295.383 152.735 295.748 147.686C295.843 146.431 295.929 145.153 296.023 143.875C296.243 142.609 296.211 141.311 295.929 140.057C295.574 138.808 294.798 137.72 293.734 136.976C293.199 136.598 292.606 136.312 291.977 136.129C291.329 135.981 290.667 135.894 290.002 135.871L255.341 133.37L175.93 127.56C175.08 127.498 174.227 127.627 173.433 127.938C172.639 128.249 171.925 128.733 171.343 129.356C170.762 129.975 170.328 130.717 170.073 131.527C169.853 132.356 169.737 133.21 169.728 134.068C169.467 137.549 169.206 141.003 168.944 144.432C168.422 151.295 167.93 158.048 167.47 164.691C166.498 177.972 165.557 190.79 164.664 202.989C164.459 204.471 164.829 205.974 165.699 207.191C166.555 208.39 167.841 209.21 169.289 209.481C172.214 209.771 175.177 209.927 178.062 210.163L194.879 211.393L225.079 213.62L268.795 216.866L280.672 217.775L283.808 218.042L284.859 218.136C284.859 218.136 284.506 218.136 283.808 218.081L280.672 217.877L268.787 217.054L225.055 213.918L194.879 211.77L178.054 210.555C175.161 210.327 172.253 210.178 169.242 209.88C167.701 209.595 166.33 208.724 165.416 207.45C164.501 206.161 164.106 204.573 164.311 203.005C165.197 190.798 166.13 177.987 167.094 164.698C167.575 158.055 168.064 151.302 168.56 144.44C168.811 141.006 169.072 137.551 169.344 134.075C169.358 133.186 169.48 132.302 169.705 131.441C170.121 130.131 170.966 128.999 172.103 128.228C173.241 127.457 174.606 127.092 175.977 127.192L255.388 132.993L290.041 135.534C290.728 135.558 291.411 135.65 292.079 135.808C293.072 136.095 293.977 136.625 294.712 137.351C295.448 138.076 295.99 138.974 296.289 139.963C296.479 140.609 296.555 141.283 296.517 141.955C296.517 142.613 296.431 143.248 296.383 143.899C296.289 145.177 296.195 146.455 296.101 147.709C295.73 152.753 295.375 157.582 295.035 162.197C293.663 180.653 292.55 195.588 291.781 205.921C291.585 208.501 291.413 210.782 291.264 212.781C291.187 213.628 290.928 214.449 290.506 215.188C290.084 215.926 289.509 216.565 288.818 217.062C287.977 217.682 286.981 218.059 285.941 218.152C285.68 218.175 285.417 218.175 285.157 218.152L284.843 218.112Z" fill="#263238"/>
<path d="M177.442 180.411L176.932 187.467L176.211 187.412L176.674 181.022L175.02 180.905L175.067 180.262L177.442 180.411Z" fill="#FAFAFA"/>
<path d="M184.24 187.348L184.185 187.991L179.254 187.63V187.121L182.39 184.471C183.237 183.741 183.425 183.287 183.456 182.801C183.519 182.017 182.978 181.444 181.888 181.366C181.532 181.315 181.168 181.346 180.825 181.457C180.483 181.569 180.171 181.758 179.912 182.009L179.434 181.531C179.774 181.212 180.18 180.972 180.623 180.83C181.067 180.687 181.536 180.646 181.998 180.707C183.425 180.809 184.279 181.601 184.193 182.777C184.142 183.205 183.998 183.616 183.77 183.982C183.542 184.348 183.237 184.659 182.876 184.894L180.32 187.066L184.24 187.348Z" fill="#FAFAFA"/>
<path d="M191.703 186.683L190.3 186.581L190.159 188.431L189.437 188.376L189.571 186.526L185.604 186.244V185.719L189.672 181.328L190.456 181.383L186.536 185.664L189.594 185.891L189.712 184.26L190.417 184.307L190.3 185.938L191.703 186.04V186.683Z" fill="#FAFAFA"/>
<path d="M202.484 187.466L201.081 187.364L200.94 189.214L200.219 189.159L200.352 187.317L196.385 187.027V186.502L200.454 182.111L201.238 182.174L197.318 186.447L200.375 186.674L200.493 185.043L201.199 185.098L201.073 186.721L202.484 186.823V187.466Z" fill="#FAFAFA"/>
<path d="M208.647 187.694C208.561 188.894 207.659 189.764 205.942 189.639C205.014 189.606 204.135 189.216 203.488 188.549L203.88 188.008C204.427 188.593 205.181 188.942 205.981 188.98C207.173 189.066 207.847 188.525 207.91 187.671C207.973 186.816 207.455 186.165 205.668 186.032L204.17 185.922L204.79 182.426L208.639 182.708L208.592 183.351L205.378 183.116L204.97 185.334L205.879 185.405C207.996 185.554 208.741 186.448 208.647 187.694Z" fill="#FAFAFA"/>
<path d="M215.599 188.172C215.551 188.749 215.277 189.284 214.837 189.66C214.396 190.036 213.825 190.223 213.247 190.179H213.059C211.186 190.046 210.268 188.674 210.433 186.455C210.605 184.064 212.001 182.911 213.914 183.053C214.495 183.068 215.062 183.242 215.552 183.554L215.215 184.119C214.82 183.848 214.354 183.699 213.875 183.688C212.354 183.578 211.311 184.472 211.17 186.385V186.965C211.399 186.591 211.733 186.292 212.13 186.106C212.527 185.919 212.97 185.852 213.404 185.914C213.963 185.895 214.506 186.097 214.917 186.475C215.328 186.854 215.573 187.379 215.599 187.937C215.607 188.015 215.607 188.094 215.599 188.172ZM214.886 188.172C214.957 187.247 214.314 186.604 213.232 186.526C213.021 186.486 212.805 186.488 212.595 186.532C212.385 186.576 212.186 186.661 212.01 186.782C211.833 186.902 211.681 187.057 211.564 187.236C211.447 187.416 211.366 187.617 211.327 187.827C211.327 187.827 211.327 187.898 211.327 187.929C211.264 188.713 211.86 189.497 213.075 189.575C213.278 189.61 213.487 189.605 213.688 189.559C213.889 189.513 214.079 189.428 214.247 189.309C214.416 189.189 214.559 189.038 214.668 188.863C214.778 188.688 214.852 188.493 214.886 188.29C214.89 188.24 214.89 188.19 214.886 188.141V188.172Z" fill="#FAFAFA"/>
<path d="M225.219 188.956C225.133 190.132 224.216 190.971 222.515 190.846C221.584 190.814 220.702 190.423 220.053 189.756L220.445 189.215C220.999 189.799 221.757 190.147 222.562 190.187C223.73 190.266 224.412 189.772 224.475 188.902C224.537 188.031 223.981 187.459 222.679 187.334L222.177 187.294L222.217 186.761L224.341 184.464L220.743 184.205L220.79 183.562L225.313 183.892L225.274 184.401L223.103 186.753C224.608 186.981 225.298 187.827 225.219 188.956Z" fill="#FAFAFA"/>
<path d="M232.275 189.387C232.231 189.967 231.959 190.505 231.518 190.885C231.077 191.264 230.503 191.452 229.923 191.409C229.853 191.417 229.782 191.417 229.712 191.409C227.846 191.276 226.92 189.904 227.085 187.685C227.258 185.333 228.653 184.142 230.566 184.283C231.148 184.299 231.714 184.472 232.205 184.784L231.868 185.349C231.473 185.075 231.007 184.925 230.527 184.918C229.006 184.808 227.963 185.702 227.822 187.615V188.195C228.052 187.821 228.385 187.522 228.782 187.336C229.179 187.149 229.622 187.083 230.056 187.144C230.621 187.121 231.171 187.322 231.587 187.705C232.003 188.087 232.251 188.618 232.275 189.183C232.281 189.251 232.281 189.319 232.275 189.387ZM231.562 189.387C231.632 188.461 230.989 187.819 229.908 187.74C229.697 187.7 229.481 187.703 229.271 187.746C229.061 187.79 228.862 187.875 228.685 187.996C228.508 188.117 228.357 188.271 228.24 188.451C228.123 188.63 228.042 188.831 228.002 189.042C228.002 189.042 228.002 189.112 228.002 189.144C227.94 189.928 228.536 190.712 229.751 190.79C229.954 190.825 230.162 190.819 230.364 190.773C230.565 190.727 230.755 190.642 230.923 190.523C231.091 190.404 231.234 190.252 231.344 190.077C231.454 189.902 231.528 189.708 231.562 189.504C231.566 189.455 231.566 189.405 231.562 189.355V189.387Z" fill="#FAFAFA"/>
<path d="M239.12 184.925L239.081 185.435L235.663 191.707L234.879 191.652L238.242 185.474L234.628 185.207L234.526 186.525L233.812 186.478L233.961 184.518L239.12 184.925Z" fill="#FAFAFA"/>
<path d="M249.163 185.656L249.124 186.173L245.706 192.445L244.922 192.39L248.277 186.212L244.663 185.946L244.569 187.263L243.855 187.208L243.997 185.248L249.163 185.656Z" fill="#FAFAFA"/>
<path d="M255.709 191.236C255.623 192.483 254.509 193.173 252.832 193.055C251.154 192.938 250.174 192.083 250.268 190.836C250.295 190.437 250.455 190.059 250.725 189.763C250.994 189.467 251.355 189.27 251.75 189.206C251.429 189.082 251.157 188.856 250.977 188.563C250.797 188.269 250.719 187.925 250.754 187.583C250.84 186.438 251.867 185.795 253.357 185.897C254.846 185.999 255.787 186.799 255.709 187.943C255.692 188.289 255.562 188.62 255.338 188.883C255.114 189.147 254.809 189.329 254.47 189.402C254.853 189.523 255.185 189.77 255.409 190.103C255.634 190.436 255.74 190.836 255.709 191.236ZM254.972 191.174C255.035 190.303 254.329 189.707 253.082 189.606C251.836 189.504 251.068 189.998 251.005 190.868C250.942 191.738 251.632 192.334 252.879 192.436C254.125 192.538 254.909 192.044 254.972 191.174ZM253.122 189.033C254.219 189.112 254.909 188.665 254.964 187.904C255.019 187.144 254.36 186.572 253.31 186.501C252.259 186.43 251.538 186.854 251.483 187.638C251.428 188.422 252.032 188.963 253.122 189.033Z" fill="#FAFAFA"/>
<path d="M262.639 190.116C262.467 192.508 261.071 193.66 259.158 193.519C258.578 193.496 258.014 193.323 257.52 193.017L257.849 192.453C258.248 192.722 258.716 192.872 259.198 192.884C260.711 192.994 261.753 192.1 261.895 190.179V189.607C261.665 189.982 261.329 190.282 260.931 190.468C260.532 190.655 260.088 190.721 259.652 190.657C259.088 190.681 258.537 190.479 258.121 190.097C257.705 189.715 257.458 189.183 257.434 188.619C257.426 188.538 257.426 188.457 257.434 188.376C257.484 187.8 257.758 187.266 258.198 186.89C258.638 186.515 259.209 186.328 259.786 186.369H259.966C261.902 186.526 262.82 187.898 262.639 190.116ZM261.746 188.642C261.8 187.858 261.212 187.074 259.997 187.004C259.588 186.933 259.167 187.028 258.827 187.268C258.488 187.508 258.257 187.872 258.186 188.282C258.183 188.324 258.183 188.366 258.186 188.407C258.116 189.332 258.759 189.975 259.84 190.054C260.264 190.139 260.703 190.054 261.063 189.816C261.423 189.578 261.674 189.206 261.761 188.784V188.642H261.746Z" fill="#FAFAFA"/>
<path d="M228.644 196.48L228.422 199.537L284.76 203.635L284.983 200.577L228.644 196.48Z" fill="#FAFAFA"/>
<path d="M255.652 204.583L255.43 207.641L284.322 209.742L284.545 206.685L255.652 204.583Z" fill="#FAFAFA"/>
<path d="M174.569 160.312L173.847 170.212C173.691 172.353 175.301 174.216 177.443 174.373L193.324 175.53C195.466 175.687 197.329 174.077 197.485 171.935L198.207 162.036C198.363 159.894 196.753 158.031 194.611 157.875L178.73 156.717C176.588 156.561 174.725 158.17 174.569 160.312Z" fill="#FFA448" fill-opacity="0.4"/>
<path d="M173.93 169.192L174.016 168.063L186.184 168.949C186.518 168.983 186.855 168.952 187.177 168.856C187.499 168.76 187.799 168.601 188.059 168.389C188.32 168.177 188.536 167.916 188.696 167.621C188.856 167.325 188.956 167.001 188.99 166.667C189.025 166.333 188.993 165.996 188.897 165.674C188.801 165.352 188.643 165.052 188.431 164.791C188.219 164.531 187.958 164.314 187.662 164.155C187.367 163.995 187.043 163.895 186.709 163.861H186.591L174.424 162.975L174.502 161.838L186.678 162.724C187.63 162.825 188.505 163.293 189.12 164.028C189.734 164.762 190.038 165.707 189.969 166.662C189.9 167.618 189.462 168.508 188.749 169.147C188.035 169.786 187.101 170.122 186.144 170.086L173.93 169.192Z" fill="#FFA448"/>
<path d="M189.523 166.046L189.439 167.18L197.79 167.796L197.874 166.662L189.523 166.046Z" fill="#FFA448"/>
<path d="M178.703 142.085L178.322 147.301L239.117 151.733L239.497 146.518L178.703 142.085Z" fill="#FAFAFA"/>
<path d="M319.464 128.353C317.841 131.058 318.006 134.453 318.461 137.581C318.915 140.709 319.621 143.9 318.923 146.989C318.461 149.019 317.355 151.05 317.888 153.065C318.241 154.5 319.315 155.629 319.848 156.985C320.632 158.945 320.185 161.124 319.927 163.21C319.668 165.295 319.684 167.624 321.063 169.2C322.78 171.16 325.94 171.073 328.292 169.984C330.644 168.894 332.51 166.957 334.689 165.538C336.869 164.119 339.707 163.186 342.051 164.315C343.133 164.833 344.066 165.758 345.258 165.883C346.928 166.009 348.245 164.48 349.86 164.033C351.247 163.657 352.729 164.119 354.156 163.955C357.065 163.633 359.213 160.497 358.805 157.604C358.533 156.159 357.82 154.834 356.764 153.811C355.709 152.787 354.362 152.116 352.909 151.889C351.679 151.685 350.197 151.654 349.523 150.603C348.519 149.035 350.307 147.067 349.969 145.256C349.75 143.955 348.511 143.085 347.296 142.551C346.081 142.018 344.74 141.665 343.799 140.74C342.114 139.094 342.302 136.397 341.785 134.092C340.93 130.297 337.378 122.528 329.648 121.768" fill="#263238"/>
<path d="M315.882 344.266L316.031 338.73L326.404 338.942L326.27 347.041H325.628C322.766 347.143 311.053 347.354 309.164 346.735C307.031 346.069 315.882 344.266 315.882 344.266Z" fill="#FFA448"/>
<path d="M322.514 346.878C322.686 346.009 323.171 345.233 323.878 344.698C324.573 344.166 325.444 343.914 326.316 343.993L326.261 346.886L322.514 346.878Z" fill="#FFA448"/>
<path d="M311.554 345.293C311.554 345.293 308.418 346.124 308.826 346.641C309.233 347.159 321.04 347.425 326.27 347.033V346.806L312.463 346.649C312.463 346.649 312.158 345.332 311.554 345.293Z" fill="#FFA448"/>
<path d="M326.418 346.798H325.729L323.847 346.845H317.622C315.192 346.845 312.989 346.712 311.397 346.626L309.515 346.508L309.006 346.469H309.515L311.405 346.539C312.973 346.602 315.192 346.68 317.622 346.727C320.052 346.775 322.248 346.782 323.839 346.775H326.418V346.798Z" fill="#263238"/>
<path d="M312.447 346.814C312.37 346.499 312.256 346.194 312.11 345.905C311.929 345.637 311.718 345.389 311.482 345.168C311.791 345.313 312.048 345.548 312.22 345.842C312.392 346.135 312.471 346.475 312.447 346.814Z" fill="#263238"/>
<path d="M315.537 345.316C315.416 345.195 315.308 345.061 315.216 344.917C315.067 344.681 314.973 344.462 315.004 344.446C315.035 344.431 315.177 344.611 315.326 344.846C315.474 345.081 315.569 345.301 315.537 345.316Z" fill="#263238"/>
<path d="M316.384 344.894C316.253 344.827 316.132 344.742 316.023 344.643C315.843 344.478 315.726 344.322 315.749 344.298C315.773 344.275 315.937 344.384 316.11 344.549C316.282 344.714 316.408 344.87 316.384 344.894Z" fill="#263238"/>
<path d="M316.932 343.921C316.932 343.96 316.688 343.984 316.391 343.984C316.093 343.984 315.85 343.984 315.85 343.913C316.023 343.852 316.208 343.833 316.391 343.858C316.573 343.84 316.758 343.861 316.932 343.921Z" fill="#263238"/>
<path d="M317.127 343.239C316.948 343.355 316.737 343.413 316.524 343.404C316.312 343.438 316.094 343.402 315.904 343.302C316.108 343.286 316.312 343.286 316.516 343.302C316.716 343.254 316.922 343.233 317.127 343.239Z" fill="#263238"/>
<path d="M315.169 344.407C314.948 344.447 314.723 344.447 314.502 344.407C314.262 344.37 314.026 344.313 313.797 344.235C313.658 344.19 313.524 344.133 313.397 344.063C313.319 344.013 313.261 343.938 313.232 343.851C313.224 343.801 313.23 343.749 313.249 343.702C313.269 343.655 313.301 343.614 313.342 343.584C313.6 343.466 313.89 343.441 314.164 343.512C314.439 343.584 314.68 343.748 314.847 343.976C314.949 344.107 315.019 344.26 315.051 344.423V344.603C314.989 344.397 314.891 344.203 314.761 344.031C314.613 343.852 314.417 343.718 314.196 343.647C314.07 343.601 313.935 343.581 313.8 343.587C313.666 343.594 313.534 343.628 313.412 343.686C313.303 343.765 313.342 343.89 313.459 343.961C313.579 344.023 313.702 344.078 313.828 344.125C314.049 344.211 314.277 344.276 314.51 344.321C314.731 344.338 314.951 344.367 315.169 344.407Z" fill="#263238"/>
<path d="M315.026 344.438C314.948 344.297 314.925 344.132 314.964 343.976C314.987 343.796 315.057 343.625 315.168 343.482C315.224 343.382 315.306 343.299 315.406 343.241C315.505 343.183 315.617 343.153 315.732 343.152C315.797 343.172 315.853 343.215 315.889 343.273C315.925 343.33 315.939 343.399 315.928 343.466C315.909 343.57 315.869 343.668 315.81 343.756C315.721 343.903 315.613 344.037 315.489 344.156C315.381 344.274 315.247 344.365 315.097 344.422C315.214 344.32 315.324 344.21 315.426 344.093C315.536 343.974 315.631 343.843 315.709 343.701C315.803 343.56 315.873 343.309 315.709 343.278C315.544 343.246 315.364 343.419 315.262 343.552C315.162 343.678 315.095 343.826 315.066 343.983C315.041 344.134 315.028 344.286 315.026 344.438Z" fill="#263238"/>
<path d="M326.261 343.961C326.001 343.936 325.738 343.936 325.477 343.961C324.864 344.016 324.279 344.244 323.79 344.619C323.301 344.994 322.929 345.5 322.718 346.078C322.553 346.517 322.529 346.815 322.506 346.815C322.498 346.745 322.498 346.674 322.506 346.603C322.601 345.873 322.95 345.199 323.492 344.7C324.034 344.202 324.734 343.909 325.469 343.875C325.657 343.859 325.846 343.859 326.034 343.875C326.113 343.894 326.189 343.923 326.261 343.961Z" fill="#263238"/>
<path d="M325.274 339.625C325.337 340.334 325.352 341.046 325.321 341.757C325.338 342.467 325.312 343.176 325.242 343.882C325.159 342.464 325.159 341.043 325.242 339.625H325.274Z" fill="#263238"/>
<path d="M321.229 345.834C320.73 345.944 320.218 345.983 319.708 345.952C319.2 345.965 318.692 345.915 318.195 345.803C318.195 345.803 318.877 345.803 319.716 345.803C320.555 345.803 321.222 345.834 321.229 345.834Z" fill="#263238"/>
<path d="M323.26 345.882C323.22 345.98 323.176 346.077 323.126 346.172C323.048 346.321 323.017 346.47 322.977 346.462C322.938 346.454 322.93 346.297 323.017 346.125C323.103 345.952 323.236 345.834 323.26 345.882Z" fill="#263238"/>
<path d="M324.043 344.94C324.009 345.029 323.955 345.109 323.887 345.175C323.777 345.277 323.675 345.348 323.651 345.324C323.628 345.301 323.691 345.191 323.8 345.089C323.91 344.987 324.02 344.917 324.043 344.94Z" fill="#263238"/>
<path d="M325.148 344.525C325.148 344.564 324.999 344.525 324.851 344.612C324.702 344.698 324.584 344.737 324.56 344.713C324.537 344.69 324.623 344.549 324.811 344.486C324.999 344.423 325.156 344.494 325.148 344.525Z" fill="#263238"/>
<path d="M325.933 344.336C325.902 344.389 325.855 344.43 325.799 344.454C325.741 344.471 325.678 344.471 325.619 344.454C325.647 344.399 325.695 344.357 325.752 344.336C325.839 344.305 325.917 344.305 325.933 344.336Z" fill="#263238"/>
<path d="M345.306 344.266L345.455 338.73L355.819 338.942L355.686 347.041H355.043C352.182 347.143 340.477 347.354 338.579 346.735C336.455 346.069 345.306 344.266 345.306 344.266Z" fill="#FFA448"/>
<path d="M351.93 346.877C352.102 346.006 352.591 345.229 353.302 344.697C353.996 344.162 354.867 343.909 355.74 343.992L355.677 346.885L351.93 346.877Z" fill="#FFA448"/>
<path d="M340.976 345.293C340.976 345.293 337.84 346.124 338.24 346.641C338.64 347.159 350.455 347.425 355.684 347.033V346.806L341.87 346.649C341.87 346.649 341.58 345.332 340.976 345.293Z" fill="#FFA448"/>
<path d="M355.842 346.798H355.152L353.263 346.845H347.038C344.608 346.845 342.405 346.712 340.821 346.626L338.931 346.508L338.422 346.469H338.939L340.821 346.539C342.389 346.602 344.608 346.68 347.038 346.727C349.468 346.775 351.671 346.782 353.263 346.775H355.842V346.798Z" fill="#263238"/>
<path d="M341.863 346.814C341.788 346.5 341.678 346.194 341.533 345.905C341.353 345.637 341.142 345.389 340.906 345.168C341.214 345.313 341.47 345.548 341.641 345.842C341.811 346.136 341.889 346.475 341.863 346.814Z" fill="#263238"/>
<path d="M344.961 345.316C344.841 345.196 344.735 345.062 344.647 344.917C344.506 344.681 344.404 344.462 344.435 344.446C344.467 344.431 344.608 344.611 344.749 344.846C344.84 344.993 344.911 345.151 344.961 345.316Z" fill="#263238"/>
<path d="M345.806 344.894C345.674 344.829 345.552 344.744 345.445 344.643C345.273 344.478 345.147 344.322 345.171 344.298C345.194 344.275 345.351 344.384 345.531 344.549C345.712 344.714 345.829 344.87 345.806 344.894Z" fill="#263238"/>
<path d="M346.355 343.921C346.355 343.96 346.112 343.984 345.814 343.984C345.516 343.984 345.273 343.984 345.273 343.913C345.447 343.852 345.632 343.833 345.814 343.858C345.997 343.84 346.182 343.861 346.355 343.921Z" fill="#263238"/>
<path d="M346.528 343.239C346.344 343.352 346.132 343.409 345.916 343.404C345.704 343.438 345.487 343.402 345.297 343.302C345.5 343.287 345.705 343.287 345.908 343.302C346.111 343.254 346.319 343.233 346.528 343.239Z" fill="#263238"/>
<path d="M344.624 344.407C344.403 344.447 344.178 344.447 343.957 344.407C343.718 344.37 343.482 344.313 343.252 344.235C343.11 344.194 342.973 344.136 342.844 344.063C342.767 344.015 342.71 343.939 342.687 343.851C342.679 343.801 342.684 343.751 342.702 343.704C342.72 343.657 342.75 343.616 342.789 343.584C343.047 343.466 343.338 343.441 343.612 343.512C343.886 343.584 344.127 343.748 344.295 343.976C344.396 344.109 344.468 344.261 344.506 344.423C344.522 344.482 344.522 344.544 344.506 344.603C344.442 344.396 344.341 344.203 344.208 344.031C344.065 343.85 343.872 343.717 343.652 343.647C343.395 343.557 343.114 343.572 342.868 343.686C342.766 343.765 342.805 343.89 342.915 343.961C343.033 344.031 343.159 344.087 343.291 344.125C343.512 344.211 343.74 344.276 343.973 344.321C344.365 344.384 344.624 344.384 344.624 344.407Z" fill="#263238"/>
<path d="M344.45 344.438C344.368 344.298 344.343 344.133 344.379 343.976C344.405 343.8 344.472 343.633 344.575 343.489C344.634 343.393 344.715 343.312 344.812 343.255C344.909 343.197 345.019 343.165 345.132 343.16C345.199 343.177 345.258 343.219 345.296 343.277C345.334 343.335 345.348 343.405 345.336 343.474C345.317 343.579 345.274 343.678 345.21 343.764C345.123 343.912 345.015 344.047 344.889 344.164C344.785 344.283 344.653 344.375 344.505 344.43C344.618 344.326 344.725 344.217 344.826 344.101C344.936 343.98 345.033 343.849 345.116 343.709C345.21 343.568 345.273 343.317 345.116 343.286C344.96 343.254 344.779 343.427 344.669 343.56C344.578 343.69 344.511 343.836 344.473 343.991C344.45 344.139 344.442 344.289 344.45 344.438Z" fill="#263238"/>
<path d="M355.685 343.961C355.424 343.936 355.162 343.936 354.901 343.961C354.288 344.017 353.703 344.245 353.215 344.62C352.726 344.995 352.354 345.5 352.141 346.078C351.977 346.517 351.953 346.815 351.93 346.815C351.914 346.745 351.914 346.673 351.93 346.603C351.952 346.414 351.994 346.227 352.055 346.047C352.25 345.44 352.626 344.907 353.131 344.519C353.637 344.131 354.249 343.907 354.885 343.875C355.076 343.859 355.267 343.859 355.458 343.875C355.539 343.888 355.616 343.918 355.685 343.961Z" fill="#263238"/>
<path d="M354.697 339.625C354.781 341.043 354.781 342.464 354.697 343.882C354.635 343.176 354.619 342.466 354.65 341.757C354.623 341.046 354.639 340.334 354.697 339.625Z" fill="#263238"/>
<path d="M350.643 345.834C350.147 345.944 349.638 345.983 349.13 345.952C348.622 345.969 348.113 345.919 347.617 345.803C347.617 345.803 348.299 345.803 349.13 345.803C349.961 345.803 350.643 345.834 350.643 345.834Z" fill="#263238"/>
<path d="M352.675 345.882C352.675 345.882 352.62 346.023 352.55 346.172C352.479 346.321 352.432 346.47 352.401 346.462C352.369 346.454 352.354 346.297 352.401 346.125C352.448 345.952 352.66 345.834 352.675 345.882Z" fill="#263238"/>
<path d="M353.467 344.94C353.432 345.029 353.379 345.109 353.31 345.175C353.2 345.277 353.091 345.348 353.067 345.324C353.044 345.301 353.114 345.191 353.224 345.089C353.334 344.987 353.436 344.917 353.467 344.94Z" fill="#263238"/>
<path d="M354.565 344.525C354.565 344.564 354.424 344.525 354.267 344.612C354.11 344.698 354.008 344.737 353.977 344.713C353.945 344.69 354.039 344.549 354.228 344.486C354.416 344.423 354.58 344.494 354.565 344.525Z" fill="#263238"/>
<path d="M355.349 344.336C355.318 344.389 355.271 344.43 355.215 344.454C355.157 344.471 355.094 344.471 355.035 344.454C355.035 344.454 355.09 344.367 355.176 344.336C355.263 344.305 355.341 344.305 355.349 344.336Z" fill="#263238"/>
<path d="M313.789 202.01L308.818 276.106V342.926H328.685C328.685 342.926 329.524 285.302 328.999 281.531C328.999 281.531 332.244 223.813 332.613 224.636C333.397 226.322 333.35 275.384 334.463 281.46C335.576 287.536 340.735 342.926 340.735 342.926H359.857L353.428 279.422C353.295 271.77 351.327 204.573 351.327 204.573L313.789 202.01Z" fill="#263238"/>
<path d="M359.426 339.131C359.21 339.285 358.954 339.375 358.689 339.389C357.971 339.453 357.248 339.334 356.588 339.045C355.671 338.591 354.706 338.244 353.71 338.01C352.589 337.845 351.421 338.433 350.308 339.178C349.284 339.986 348.083 340.539 346.803 340.793C345.743 340.893 344.673 340.762 343.667 340.409C342.999 340.187 342.344 339.925 341.707 339.625C341.467 339.532 341.242 339.403 341.041 339.241C341.041 339.17 342.068 339.648 343.746 340.15C344.72 340.447 345.744 340.543 346.756 340.432C347.974 340.175 349.115 339.638 350.088 338.864C350.646 338.488 351.239 338.167 351.86 337.908C352.463 337.67 353.115 337.589 353.757 337.673C354.789 337.913 355.785 338.284 356.721 338.778C357.338 339.074 358.013 339.226 358.697 339.225C359.159 339.209 359.41 339.092 359.426 339.131Z" fill="#455A64"/>
<path d="M328.848 338.668C328.652 338.483 328.442 338.313 328.221 338.159C327.585 337.803 326.84 337.691 326.128 337.845C325.071 338.144 324.081 338.641 323.211 339.311C322.654 339.688 322.06 340.008 321.439 340.268C320.748 340.552 319.991 340.642 319.252 340.526C317.747 340.268 316.555 339.484 315.332 339.217C314.266 338.989 313.159 339.037 312.118 339.358C310.314 339.899 309.256 340.456 309.225 340.377C309.445 340.205 309.688 340.062 309.946 339.954C310.619 339.607 311.319 339.313 312.039 339.076C313.125 338.7 314.292 338.621 315.418 338.849C316.696 339.123 317.903 339.899 319.283 340.126C320.663 340.354 321.925 339.64 322.968 338.99C323.883 338.312 324.926 337.827 326.034 337.563C326.813 337.422 327.616 337.587 328.276 338.025C328.532 338.171 328.733 338.397 328.848 338.668Z" fill="#455A64"/>
<path d="M349.985 217.377C349.638 217.604 349.238 217.739 348.824 217.769C347.837 217.916 346.83 217.853 345.869 217.583C344.908 217.312 344.016 216.841 343.25 216.201C342.67 215.707 342.411 215.307 342.466 215.275C343.483 216.17 344.689 216.821 345.994 217.181C347.299 217.541 348.669 217.6 350 217.353L349.985 217.377Z" fill="#455A64"/>
<path d="M317.002 214.482C317.05 214.482 317.05 214.882 316.846 215.462C316.569 216.222 316.109 216.901 315.505 217.438C314.899 217.973 314.173 218.355 313.388 218.551C312.785 218.685 312.4 218.638 312.4 218.591C313.453 218.352 314.427 217.85 315.232 217.131C316.037 216.413 316.646 215.501 317.002 214.482Z" fill="#455A64"/>
<path d="M270.05 187.176L269.532 194.232L268.811 194.185L269.273 187.796L267.619 187.67L267.666 187.027L270.05 187.176Z" fill="#FAFAFA"/>
<path d="M276.814 194.09L276.767 194.733L271.836 194.38V193.863L274.972 191.213C275.819 190.492 276.007 190.029 276.046 189.543C276.101 188.759 275.568 188.187 274.478 188.108C274.122 188.062 273.759 188.095 273.418 188.206C273.076 188.318 272.763 188.504 272.502 188.751L272.048 188.249C272.387 187.93 272.793 187.691 273.237 187.549C273.68 187.406 274.15 187.364 274.611 187.426C276.038 187.528 276.893 188.32 276.806 189.496C276.759 190.17 276.501 190.758 275.489 191.613L272.934 193.792L276.814 194.09Z" fill="#FAFAFA"/>
<path d="M283.219 193.181C283.133 194.349 282.216 195.196 280.522 195.07C279.589 195.039 278.705 194.648 278.053 193.981L278.445 193.432C278.718 193.726 279.046 193.963 279.41 194.129C279.775 194.296 280.169 194.389 280.569 194.404C281.73 194.49 282.412 193.996 282.482 193.126C282.553 192.256 281.988 191.683 280.679 191.558H280.177L280.217 191.025L282.349 188.728L278.75 188.469L278.798 187.826L283.313 188.155V188.665L281.142 191.017C282.608 191.205 283.306 192.052 283.219 193.181Z" fill="#FAFAFA"/>
<path d="M320.264 124.213C319.564 124.925 319.024 125.78 318.682 126.718C318.34 127.657 318.203 128.658 318.281 129.654C318.455 131.646 319.103 133.568 320.17 135.259" fill="#263238"/>
<path d="M337.378 154.86L338.444 130.298L328.59 122.834L319.636 127.209C319.636 127.209 319.338 138.451 319.636 143.328C319.934 148.204 324.85 148.722 324.85 148.722C324.85 148.722 324.709 151.411 324.552 154.21C324.466 155.892 325.042 157.541 326.157 158.803C327.273 160.065 328.838 160.839 330.518 160.96C332.217 161.078 333.893 160.517 335.178 159.4C336.463 158.282 337.252 156.7 337.37 155.002C337.37 154.954 337.378 154.907 337.378 154.86Z" fill="#FFBE9D"/>
<path d="M321.236 135.408C321.236 135.533 321.273 135.654 321.342 135.757C321.411 135.86 321.509 135.94 321.624 135.988C321.738 136.035 321.864 136.048 321.986 136.024C322.108 135.999 322.219 135.94 322.307 135.852C322.395 135.764 322.454 135.652 322.479 135.531C322.503 135.409 322.49 135.283 322.443 135.168C322.396 135.054 322.315 134.956 322.212 134.887C322.109 134.818 321.988 134.781 321.864 134.781C321.781 134.781 321.7 134.797 321.624 134.829C321.547 134.861 321.478 134.907 321.42 134.965C321.362 135.023 321.316 135.092 321.284 135.168C321.253 135.245 321.236 135.326 321.236 135.408Z" fill="#263238"/>
<path d="M320.013 134.728C320.091 134.806 320.554 134.414 321.22 134.375C321.887 134.336 322.396 134.665 322.467 134.579C322.537 134.492 322.42 134.391 322.2 134.234C321.903 134.04 321.551 133.949 321.197 133.975C320.844 133.992 320.507 134.127 320.24 134.359C320.037 134.532 319.974 134.688 320.013 134.728Z" fill="#263238"/>
<path d="M328.496 135.408C328.496 135.573 328.561 135.73 328.677 135.846C328.794 135.963 328.951 136.028 329.115 136.028C329.239 136.029 329.361 135.994 329.465 135.926C329.569 135.859 329.651 135.762 329.7 135.648C329.749 135.534 329.763 135.408 329.74 135.286C329.717 135.164 329.659 135.052 329.572 134.963C329.486 134.874 329.375 134.813 329.253 134.787C329.132 134.761 329.006 134.772 328.891 134.818C328.775 134.864 328.676 134.943 328.606 135.046C328.536 135.148 328.498 135.269 328.496 135.393V135.408Z" fill="#263238"/>
<path d="M327.46 134.727C327.539 134.805 328.001 134.413 328.668 134.374C329.334 134.335 329.844 134.664 329.914 134.578C329.985 134.492 329.867 134.39 329.648 134.233C329.349 134.042 328.997 133.952 328.643 133.974C328.289 133.997 327.952 134.131 327.68 134.358C327.484 134.531 327.421 134.688 327.46 134.727Z" fill="#263238"/>
<path d="M327.25 141.037C326.224 141.555 325.132 141.93 324.004 142.15C324.253 142.487 324.606 142.732 325.009 142.847C325.412 142.962 325.841 142.94 326.23 142.785C326.407 142.747 326.575 142.673 326.723 142.569C326.872 142.465 326.998 142.333 327.095 142.18C327.192 142.026 327.258 141.856 327.288 141.677C327.319 141.499 327.314 141.316 327.273 141.139L327.25 141.037Z" fill="#FAFAFA"/>
<path d="M324.85 148.721C327.167 148.625 329.408 147.868 331.31 146.541C331.31 146.541 329.844 150.124 324.959 149.92L324.85 148.721Z" fill="#EB996E"/>
<path d="M325.031 140.427C324.672 140.339 324.303 140.295 323.933 140.294C323.761 140.294 323.596 140.294 323.557 140.137C323.536 139.948 323.571 139.757 323.659 139.588C323.8 139.149 323.957 138.686 324.114 138.2C324.435 137.205 324.71 136.311 324.898 135.652C325.03 135.305 325.111 134.941 325.141 134.57C324.961 134.893 324.819 135.235 324.717 135.59C324.482 136.232 324.176 137.158 323.855 138.114C323.706 138.608 323.557 139.07 323.416 139.517C323.321 139.737 323.299 139.982 323.353 140.215C323.377 140.275 323.415 140.329 323.464 140.372C323.514 140.414 323.572 140.444 323.635 140.458C323.732 140.474 323.83 140.474 323.926 140.458C324.294 140.499 324.666 140.488 325.031 140.427Z" fill="#263238"/>
<path d="M337.724 139.03C337.647 138.218 337.738 137.399 337.99 136.623C338.117 136.236 338.346 135.891 338.654 135.624C338.962 135.357 339.337 135.18 339.739 135.11C340.203 135.085 340.661 135.231 341.026 135.52C341.392 135.808 341.639 136.22 341.722 136.678C341.78 137.146 341.696 137.62 341.48 138.04C341.265 138.459 340.929 138.804 340.515 139.03C340.097 139.244 339.636 139.362 339.167 139.374C338.697 139.386 338.231 139.293 337.802 139.101" fill="#FFBE9D"/>
<path d="M339.15 138.318C339.15 138.263 339.409 138.389 339.754 138.279C339.969 138.205 340.155 138.065 340.286 137.879C340.417 137.694 340.486 137.471 340.483 137.244C340.505 137.13 340.5 137.012 340.47 136.899C340.441 136.787 340.386 136.682 340.311 136.593C340.158 136.478 339.969 136.422 339.778 136.437C339.417 136.437 339.158 136.562 339.135 136.507C339.111 136.452 339.299 136.28 339.738 136.154C339.873 136.123 340.012 136.121 340.147 136.148C340.283 136.175 340.411 136.23 340.522 136.311C340.65 136.434 340.748 136.585 340.806 136.753C340.865 136.921 340.883 137.1 340.86 137.275C340.839 137.609 340.713 137.928 340.499 138.185C340.313 138.394 340.056 138.528 339.778 138.561C339.331 138.608 339.103 138.35 339.15 138.318Z" fill="#EB996E"/>
<path d="M319.708 124.691C317.544 127.38 320.429 129.074 321.864 130.179C322.969 131.042 326.231 133.315 329.092 132.241C328.081 130.885 326.929 130.289 326.482 128.995C327.65 130.642 328.881 131.888 330.888 132.131C330.488 130.963 329.923 128.588 330.355 128.494C330.888 133.135 335.239 137.039 338.234 135.55C338.794 134.09 339.002 132.518 338.842 130.962C338.681 129.407 338.156 127.911 337.309 126.596C336.439 125.296 335.31 124.191 333.991 123.35C332.673 122.51 331.194 121.952 329.649 121.712C327.875 121.442 326.063 121.57 324.344 122.085C322.625 122.6 321.041 123.49 319.708 124.691Z" fill="#263238"/>
<path d="M340.256 139.478C340.256 139.431 340.624 139.784 340.475 140.451C340.429 140.643 340.34 140.822 340.215 140.975C340.09 141.129 339.932 141.252 339.754 141.337C339.531 141.438 339.287 141.487 339.042 141.477C338.797 141.467 338.557 141.401 338.343 141.282C338.133 141.155 337.953 140.982 337.818 140.778C337.682 140.573 337.594 140.341 337.559 140.098C337.511 139.707 337.611 139.312 337.841 138.992C338.233 138.459 338.672 138.404 338.672 138.444C338.439 138.646 338.241 138.884 338.084 139.149C337.934 139.421 337.881 139.737 337.935 140.043C337.965 140.224 338.032 140.396 338.134 140.549C338.235 140.702 338.368 140.831 338.523 140.929C338.682 141.018 338.859 141.07 339.04 141.082C339.222 141.094 339.404 141.066 339.573 140.999C339.713 140.942 339.839 140.856 339.943 140.746C340.047 140.637 340.127 140.507 340.177 140.364C340.262 140.077 340.288 139.776 340.256 139.478Z" fill="#FFA448"/>
<path d="M306.364 179.869L313.718 178.34L315.952 190.712C314.064 197.053 312.494 203.484 311.248 209.982L328.496 220.747L331.154 215.698L335.411 219.743L353.765 209.982C351.499 198.222 345.776 195.149 345.776 193.236C345.776 187.748 344.992 193.079 349.594 174.898C354.196 156.717 337.403 154.859 337.403 154.859C337.403 154.859 337.779 157.4 324.42 154.977C319.527 154.091 299.998 164.346 299.998 164.346L306.364 179.869Z" fill="#FFA448"/>
<path d="M324.396 154.977C324.396 154.977 324.239 168.431 327.446 167.521C330.652 166.612 337.112 160.865 337.379 154.828L324.396 154.977Z" fill="#FFBE9D"/>
<path d="M325.211 178.553C325.173 176.959 325.265 175.365 325.486 173.786C325.578 172.201 325.809 170.627 326.176 169.082C326.215 170.679 326.121 172.276 325.894 173.857C325.8 175.438 325.572 177.01 325.211 178.553Z" fill="#263238"/>
<path d="M327.258 177.462C327.023 176.204 326.92 174.924 326.952 173.644C326.853 172.366 326.887 171.081 327.054 169.811C327.289 171.072 327.391 172.354 327.36 173.636C327.467 174.912 327.433 176.195 327.258 177.462Z" fill="#263238"/>
<path d="M324.379 179.87C324.269 179.87 324.191 179.525 324.379 179.141C324.567 178.756 324.873 178.584 324.944 178.67C325.014 178.756 324.889 179.007 324.756 179.305C324.622 179.603 324.497 179.878 324.379 179.87Z" fill="#263238"/>
<path d="M324.82 179.869C324.71 179.869 324.671 179.587 324.726 179.281C324.781 178.975 324.93 178.756 325.039 178.779C325.149 178.803 325.188 179.061 325.133 179.367C325.079 179.673 324.93 179.892 324.82 179.869Z" fill="#263238"/>
<path d="M325.235 179.877C325.125 179.877 325.008 179.65 324.976 179.344C324.945 179.038 325.015 178.787 325.133 178.779C325.251 178.772 325.36 179.007 325.384 179.305C325.407 179.603 325.36 179.861 325.235 179.877Z" fill="#263238"/>
<path d="M325.917 180.088C325.799 180.088 325.713 179.696 325.509 179.304C325.305 178.912 325.07 178.568 325.148 178.473C325.227 178.379 325.642 178.615 325.885 179.132C326.128 179.649 326.026 180.096 325.917 180.088Z" fill="#263238"/>
<path d="M327.335 178.67C327.233 178.709 327.021 178.372 327.021 177.886C327.021 177.399 327.233 177.102 327.335 177.102C327.437 177.102 327.429 177.47 327.429 177.886C327.429 178.301 327.445 178.63 327.335 178.67Z" fill="#263238"/>
<path d="M327.76 178.45C327.65 178.45 327.533 178.199 327.501 177.87C327.47 177.54 327.501 177.258 327.65 177.25C327.799 177.242 327.878 177.501 327.909 177.83C327.94 178.16 327.87 178.442 327.76 178.45Z" fill="#263238"/>
<path d="M328.427 178.341C328.34 178.412 328.097 178.247 327.886 177.973C327.674 177.699 327.572 177.424 327.666 177.361C327.76 177.299 327.995 177.456 328.207 177.722C328.419 177.989 328.497 178.271 328.427 178.341Z" fill="#263238"/>
<path d="M328.645 178.121C328.543 178.168 328.347 177.964 328.096 177.745C327.845 177.525 327.626 177.36 327.665 177.251C327.704 177.141 328.057 177.157 328.37 177.439C328.684 177.721 328.747 178.058 328.645 178.121Z" fill="#263238"/>
<path d="M323.417 156.46C323.417 156.412 323.652 156.295 323.926 156.546C324.039 156.678 324.095 156.85 324.081 157.023C324.068 157.196 323.987 157.357 323.856 157.471C323.791 157.529 323.715 157.573 323.633 157.601C323.551 157.628 323.464 157.639 323.378 157.633C323.292 157.626 323.207 157.602 323.13 157.562C323.054 157.522 322.986 157.467 322.93 157.4C322.892 157.361 322.86 157.316 322.836 157.267C322.8 157.163 322.788 157.052 322.803 156.943C322.818 156.834 322.859 156.73 322.923 156.64C323.15 156.342 323.424 156.412 323.409 156.46C323.311 156.554 323.231 156.666 323.173 156.789C323.095 157 323.173 157.283 323.495 157.244C323.816 157.204 323.84 156.93 323.714 156.734C323.589 156.538 323.424 156.522 323.417 156.46Z" fill="#263238"/>
<path d="M323.729 158.992C323.658 159.078 323.438 158.992 323.227 158.882C323.015 158.772 322.897 158.537 322.96 158.443C323.023 158.349 323.25 158.396 323.462 158.553C323.674 158.709 323.791 158.898 323.729 158.992Z" fill="#263238"/>
<path d="M323.934 159.524C324.028 159.594 323.934 159.869 323.621 159.986C323.307 160.104 323.048 159.986 323.072 159.869C323.095 159.751 323.276 159.688 323.472 159.61C323.668 159.531 323.848 159.453 323.934 159.524Z" fill="#263238"/>
<path d="M323.949 160.85C324.035 160.92 323.949 161.124 323.831 161.305C323.714 161.485 323.486 161.579 323.4 161.501C323.314 161.422 323.361 161.226 323.518 161.046C323.675 160.866 323.855 160.811 323.949 160.85Z" fill="#263238"/>
<path d="M323.612 162.284C323.612 162.237 323.926 162.127 324.294 162.464C324.398 162.563 324.472 162.688 324.509 162.826C324.547 162.965 324.546 163.11 324.506 163.248C324.453 163.429 324.344 163.589 324.195 163.704C324.046 163.82 323.863 163.885 323.675 163.891C323.489 163.877 323.313 163.804 323.172 163.683C323.031 163.561 322.932 163.398 322.891 163.217C322.856 163.065 322.872 162.907 322.936 162.766C323 162.624 323.108 162.507 323.244 162.433C323.698 162.182 324.028 162.433 323.949 162.472C323.756 162.492 323.57 162.559 323.408 162.668C323.339 162.718 323.287 162.789 323.26 162.871C323.233 162.953 323.233 163.041 323.259 163.123C323.292 163.22 323.352 163.305 323.433 163.368C323.514 163.431 323.612 163.468 323.714 163.475C323.785 163.471 323.854 163.453 323.918 163.422C323.981 163.391 324.038 163.348 324.085 163.295C324.132 163.241 324.167 163.179 324.19 163.112C324.212 163.045 324.221 162.974 324.216 162.903C324.208 162.795 324.17 162.692 324.106 162.605C323.871 162.378 323.604 162.378 323.612 162.284Z" fill="#263238"/>
<path d="M324.49 164.565C324.545 164.667 324.372 164.855 324.184 165.067C323.996 165.279 323.839 165.475 323.729 165.435C323.62 165.396 323.635 165.083 323.878 164.8C324.121 164.518 324.443 164.463 324.49 164.565Z" fill="#263238"/>
<path d="M324.929 165.986C325.031 166.025 325.015 166.338 324.772 166.621C324.529 166.903 324.216 166.958 324.161 166.864C324.106 166.769 324.278 166.566 324.466 166.354C324.655 166.142 324.819 165.946 324.929 165.986Z" fill="#263238"/>
<path d="M325.165 168.282C325.055 168.282 324.938 168.031 324.914 167.694C324.891 167.357 324.914 167.091 325.063 167.075C325.212 167.059 325.29 167.326 325.314 167.663C325.337 168 325.283 168.274 325.165 168.282Z" fill="#263238"/>
<path d="M328.975 168.649C328.92 168.743 328.7 168.728 328.488 168.649C328.277 168.571 328.151 168.351 328.206 168.25C328.261 168.148 328.481 168.171 328.692 168.25C328.904 168.328 329.029 168.508 328.975 168.649Z" fill="#263238"/>
<path d="M330.3 167.082C330.378 167.16 330.245 167.419 330.01 167.662C329.774 167.905 329.508 168.039 329.43 167.96C329.351 167.882 329.477 167.623 329.72 167.38C329.963 167.137 330.214 167.011 330.3 167.082Z" fill="#263238"/>
<path d="M331.382 166.204C331.382 166.142 331.585 166.11 331.883 166.118H331.923L331.977 166.165C332.047 166.235 332.098 166.321 332.127 166.415C332.156 166.509 332.161 166.609 332.142 166.706C332.12 166.829 332.059 166.942 331.967 167.027C331.875 167.112 331.757 167.165 331.632 167.176C331.5 167.188 331.366 167.157 331.252 167.088C331.138 167.019 331.049 166.916 330.997 166.792C330.956 166.694 330.946 166.586 330.969 166.482C330.991 166.379 331.045 166.284 331.123 166.212C331.382 165.977 331.625 166.095 331.593 166.142C331.562 166.189 331.437 166.22 331.35 166.392C331.327 166.43 331.315 166.474 331.315 166.518C331.315 166.562 331.327 166.605 331.35 166.643C331.378 166.686 331.417 166.719 331.462 166.741C331.508 166.764 331.559 166.773 331.609 166.769C331.774 166.769 331.852 166.479 331.766 166.377L331.86 166.424C331.554 166.345 331.374 166.298 331.382 166.204Z" fill="#263238"/>
<path d="M332.503 165.993C332.393 165.993 332.346 165.703 332.409 165.405C332.472 165.107 332.613 164.88 332.723 164.895C332.832 164.911 332.872 165.185 332.809 165.483C332.746 165.781 332.613 166.016 332.503 165.993Z" fill="#263238"/>
<path d="M334.22 164.785C334.181 164.887 333.922 164.871 333.648 164.785C333.373 164.699 333.193 164.479 333.24 164.377C333.287 164.275 333.546 164.291 333.812 164.377C334.079 164.464 334.267 164.683 334.22 164.785Z" fill="#263238"/>
<path d="M334.416 163.296C334.463 163.296 334.455 163.438 334.549 163.54C334.643 163.641 334.761 163.665 334.847 163.54C334.933 163.414 334.847 163.32 334.722 163.273C334.629 163.248 334.532 163.248 334.439 163.273C334.392 163.273 334.439 163.053 334.706 162.999C334.789 162.983 334.874 162.989 334.954 163.017C335.034 163.044 335.105 163.092 335.161 163.155C335.233 163.239 335.275 163.344 335.282 163.455C335.29 163.565 335.261 163.675 335.2 163.767C335.144 163.863 335.06 163.939 334.958 163.984C334.857 164.029 334.744 164.041 334.635 164.018C334.554 163.999 334.479 163.958 334.418 163.9C334.357 163.842 334.313 163.769 334.29 163.688C334.212 163.391 334.377 163.257 334.416 163.296Z" fill="#263238"/>
<path d="M335.615 162.057C335.545 162.046 335.479 162.016 335.425 161.97C335.371 161.925 335.33 161.866 335.307 161.799C335.284 161.733 335.279 161.661 335.293 161.592C335.307 161.523 335.34 161.458 335.387 161.406C335.466 161.406 335.63 161.485 335.693 161.665C335.756 161.845 335.716 162.026 335.615 162.057Z" fill="#263238"/>
<path d="M336.736 160.959C336.681 161.053 336.461 161.038 336.25 160.912C336.038 160.787 335.912 160.614 335.975 160.52C336.038 160.426 336.242 160.442 336.453 160.559C336.665 160.677 336.791 160.857 336.736 160.959Z" fill="#263238"/>
<path d="M337.505 159.312C337.552 159.422 337.364 159.602 337.097 159.719C336.831 159.837 336.564 159.853 336.517 159.719C336.47 159.586 336.658 159.437 336.925 159.32C337.013 159.269 337.112 159.242 337.214 159.24C337.315 159.239 337.415 159.264 337.505 159.312Z" fill="#263238"/>
<path d="M337.857 157.345C337.857 157.306 338.006 157.157 338.273 157.298C338.35 157.341 338.416 157.403 338.462 157.479C338.509 157.554 338.535 157.64 338.539 157.729C338.539 157.844 338.504 157.957 338.438 158.052C338.373 158.147 338.28 158.22 338.173 158.262C338.065 158.304 337.947 158.312 337.835 158.285C337.723 158.258 337.621 158.199 337.543 158.113C337.486 158.044 337.448 157.962 337.433 157.874C337.418 157.786 337.426 157.695 337.457 157.611C337.559 157.337 337.779 157.321 337.786 157.376C337.794 157.431 337.724 157.517 337.739 157.666C337.755 157.815 337.849 157.949 338.022 157.886C338.194 157.823 338.194 157.666 338.092 157.533C337.99 157.4 337.904 157.4 337.857 157.345Z" fill="#263238"/>
<path d="M338.931 155.628C338.931 155.738 338.759 155.879 338.484 155.941C338.21 156.004 337.975 155.941 337.951 155.855C337.928 155.769 338.124 155.604 338.398 155.542C338.672 155.479 338.908 155.518 338.931 155.628Z" fill="#263238"/>
<path d="M337.834 155.056L338.265 154.727Z" fill="#263238"/>
<path d="M302.224 166.236C302.122 166.236 302.082 166.008 302.153 165.804C302.224 165.601 302.357 165.467 302.459 165.499C302.561 165.53 302.6 165.726 302.537 165.93C302.474 166.134 302.333 166.298 302.224 166.236Z" fill="#263238"/>
<path d="M303.165 167.372C303.165 167.325 303.306 167.176 303.588 167.301C303.685 167.344 303.768 167.414 303.826 167.504C303.884 167.593 303.915 167.697 303.915 167.803C303.915 167.909 303.884 168.013 303.826 168.102C303.768 168.191 303.685 168.262 303.588 168.305C303.484 168.361 303.365 168.385 303.247 168.37C303.129 168.356 303.018 168.306 302.93 168.226C302.865 168.163 302.817 168.085 302.789 167.999C302.762 167.913 302.756 167.821 302.773 167.732C302.828 167.426 303.055 167.379 303.071 167.426C303.087 167.474 303.024 167.583 303.071 167.74C303.118 167.897 303.228 168.038 303.424 167.944C303.62 167.85 303.58 167.677 303.424 167.544C303.267 167.411 303.188 167.426 303.165 167.372Z" fill="#263238"/>
<path d="M304.333 169.935C304.286 170.037 304.043 170.037 303.784 169.935C303.526 169.833 303.361 169.661 303.4 169.559C303.439 169.457 303.69 169.457 303.949 169.559C304.208 169.661 304.372 169.833 304.333 169.935Z" fill="#263238"/>
<path d="M304.622 171.504C304.583 171.613 304.395 171.645 304.191 171.582C303.987 171.519 303.854 171.378 303.885 171.268C303.917 171.159 304.113 171.127 304.317 171.198C304.52 171.268 304.654 171.402 304.622 171.504Z" fill="#263238"/>
<path d="M305.102 172.57C305.196 172.625 305.173 172.853 305.039 173.072C304.906 173.292 304.726 173.433 304.632 173.37C304.538 173.307 304.561 173.088 304.687 172.868C304.723 172.786 304.781 172.716 304.854 172.663C304.927 172.611 305.013 172.579 305.102 172.57Z" fill="#263238"/>
<path d="M305.383 173.66C305.328 173.66 305.516 173.37 305.916 173.48C306.031 173.511 306.136 173.571 306.222 173.653C306.308 173.735 306.373 173.837 306.41 173.95C306.455 174.108 306.438 174.278 306.362 174.423C306.286 174.569 306.158 174.68 306.002 174.734C305.861 174.791 305.707 174.806 305.558 174.776C305.409 174.747 305.272 174.675 305.163 174.57C305.076 174.468 305.027 174.339 305.027 174.205C305.027 174.071 305.076 173.942 305.163 173.841C305.228 173.776 305.315 173.74 305.406 173.74C305.497 173.74 305.585 173.776 305.649 173.841C305.736 173.942 305.696 174.021 305.649 174.021C305.627 174.023 305.605 174.02 305.585 174.012C305.564 174.004 305.546 173.991 305.532 173.974C305.517 173.965 305.5 173.959 305.482 173.957C305.465 173.956 305.447 173.958 305.431 173.964C305.414 173.97 305.399 173.979 305.387 173.992C305.374 174.005 305.365 174.02 305.359 174.037C305.34 174.085 305.337 174.138 305.35 174.189C305.362 174.239 305.39 174.285 305.43 174.319C305.489 174.361 305.559 174.388 305.632 174.396C305.704 174.404 305.778 174.394 305.845 174.366C306.167 174.248 306.034 173.888 305.798 173.77C305.563 173.652 305.422 173.707 305.383 173.66Z" fill="#263238"/>
<path d="M306.545 175.707C306.623 175.785 306.545 175.966 306.404 176.107C306.262 176.248 306.066 176.279 305.988 176.201C305.91 176.122 305.988 175.934 306.129 175.801C306.27 175.668 306.443 175.605 306.545 175.707Z" fill="#263238"/>
<path d="M306.968 177.054C307.054 177.132 306.968 177.328 306.835 177.493C306.702 177.658 306.482 177.736 306.396 177.658C306.31 177.579 306.396 177.383 306.537 177.219C306.678 177.054 306.89 176.976 306.968 177.054Z" fill="#263238"/>
<path d="M314.972 211.967C314.878 212.021 314.667 211.841 314.518 211.559C314.369 211.277 314.314 211.01 314.408 210.955C314.502 210.9 314.714 211.081 314.87 211.363C315.027 211.645 315.074 211.912 314.972 211.967Z" fill="#263238"/>
<path d="M315.654 211.966C315.552 212.013 315.364 211.825 315.239 211.542C315.113 211.26 315.098 211.002 315.239 210.954C315.38 210.907 315.529 211.096 315.654 211.378C315.78 211.66 315.756 211.919 315.654 211.966Z" fill="#263238"/>
<path d="M316.618 212.477V212.728C316.618 212.845 316.735 212.892 316.845 212.83C316.955 212.767 316.947 212.681 316.845 212.579C316.743 212.477 316.665 212.493 316.633 212.438C316.602 212.383 316.728 212.242 316.978 212.32C317.095 212.358 317.192 212.44 317.249 212.548C317.306 212.656 317.319 212.783 317.284 212.9C317.245 213.019 317.16 213.117 317.049 213.175C316.965 213.236 316.863 213.269 316.759 213.269C316.655 213.269 316.553 213.236 316.469 213.175C316.411 213.122 316.368 213.055 316.342 212.981C316.316 212.908 316.308 212.829 316.32 212.751C316.406 212.461 316.602 212.422 316.618 212.477Z" fill="#263238"/>
<path d="M319.032 212.985C319.103 213.071 318.954 213.299 318.703 213.487C318.452 213.675 318.201 213.754 318.131 213.659C318.06 213.565 318.209 213.346 318.46 213.158C318.711 212.969 318.97 212.891 319.032 212.985Z" fill="#263238"/>
<path d="M319.824 213.77C319.871 213.872 319.762 214.029 319.581 214.123C319.401 214.217 319.197 214.209 319.15 214.123C319.103 214.036 319.205 213.864 319.393 213.77C319.581 213.676 319.777 213.676 319.824 213.77Z" fill="#263238"/>
<path d="M320.939 215.016C320.821 215.016 320.712 214.867 320.672 214.647C320.633 214.428 320.712 214.239 320.821 214.224C320.931 214.208 321.049 214.373 321.08 214.592C321.111 214.812 321.049 215 320.939 215.016Z" fill="#263238"/>
<path d="M322.734 214.993C322.709 215.094 322.709 215.199 322.734 215.299C322.781 215.456 322.883 215.566 323.055 215.464C323.228 215.362 323.181 215.213 323.055 215.103C322.93 214.993 322.804 215.025 322.773 214.978C322.742 214.931 322.867 214.758 323.165 214.837C323.252 214.861 323.331 214.906 323.396 214.969C323.46 215.032 323.508 215.111 323.533 215.197C323.566 215.345 323.539 215.499 323.459 215.627C323.378 215.755 323.25 215.846 323.102 215.879C323.018 215.899 322.931 215.9 322.846 215.881C322.762 215.862 322.683 215.824 322.616 215.77C322.55 215.709 322.5 215.633 322.472 215.548C322.443 215.463 322.436 215.372 322.452 215.283C322.491 214.978 322.718 214.907 322.734 214.993Z" fill="#263238"/>
<path d="M324.866 215.815C324.944 215.901 324.827 216.121 324.607 216.309C324.388 216.497 324.152 216.583 324.082 216.497C324.011 216.411 324.121 216.191 324.341 216.003C324.56 215.815 324.795 215.729 324.866 215.815Z" fill="#263238"/>
<path d="M326.277 216.654C326.355 216.732 326.23 216.975 325.94 217.109C325.65 217.242 325.375 217.171 325.367 217.054C325.36 216.936 325.548 216.834 325.767 216.732C325.987 216.63 326.191 216.568 326.277 216.654Z" fill="#263238"/>
<path d="M327.343 218.183C327.233 218.222 327.092 218.097 327.03 217.909C326.967 217.721 327.03 217.54 327.108 217.509C327.186 217.478 327.359 217.595 327.422 217.783C327.484 217.972 327.445 218.152 327.343 218.183Z" fill="#263238"/>
<path d="M328.552 217.462C328.505 217.462 328.599 217.227 328.897 217.243C329.003 217.249 329.105 217.29 329.186 217.359C329.267 217.428 329.323 217.522 329.345 217.627C329.368 217.731 329.355 217.84 329.309 217.936C329.264 218.033 329.188 218.111 329.093 218.16C328.991 218.229 328.869 218.258 328.747 218.242C328.626 218.226 328.515 218.166 328.434 218.074C328.38 218 328.348 217.912 328.341 217.821C328.334 217.729 328.353 217.638 328.395 217.557C328.544 217.29 328.795 217.345 328.771 217.4C328.715 217.476 328.68 217.565 328.669 217.658C328.669 217.8 328.732 217.894 328.881 217.807C329.03 217.721 328.975 217.611 328.834 217.525C328.693 217.439 328.599 217.502 328.552 217.462Z" fill="#263238"/>
<path d="M329.68 216.364C329.586 216.426 329.422 216.364 329.312 216.199C329.202 216.034 329.194 215.862 329.312 215.799C329.429 215.737 329.571 215.799 329.68 215.964C329.79 216.129 329.774 216.301 329.68 216.364Z" fill="#263238"/>
<path d="M330.237 215.462C330.159 215.541 329.994 215.509 329.869 215.384C329.743 215.258 329.704 215.094 329.783 215.015C329.861 214.937 330.034 214.968 330.159 215.094C330.284 215.219 330.316 215.384 330.237 215.462Z" fill="#263238"/>
<path d="M330.848 213.739C330.793 213.739 330.911 213.527 331.154 213.614C331.226 213.639 331.289 213.686 331.335 213.747C331.381 213.809 331.408 213.882 331.413 213.959C331.403 214.08 331.345 214.192 331.253 214.272C331.16 214.351 331.04 214.391 330.919 214.382C330.848 214.378 330.779 214.358 330.718 214.323C330.657 214.287 330.605 214.238 330.566 214.178C330.532 214.117 330.514 214.048 330.514 213.978C330.514 213.908 330.532 213.839 330.566 213.778C330.66 213.574 330.833 213.567 330.848 213.614C330.856 213.692 330.856 213.771 330.848 213.849C330.849 213.871 330.854 213.893 330.864 213.913C330.873 213.933 330.887 213.951 330.903 213.966H331.06V213.88C331.06 213.88 330.911 213.778 330.848 213.739Z" fill="#263238"/>
<path d="M332.102 215.017C332.045 214.992 331.998 214.948 331.972 214.891C331.946 214.835 331.942 214.77 331.961 214.711C331.964 214.681 331.972 214.652 331.987 214.626C332.001 214.599 332.02 214.576 332.044 214.557C332.067 214.538 332.094 214.524 332.123 214.515C332.151 214.507 332.182 214.504 332.212 214.507C332.268 214.53 332.314 214.573 332.34 214.629C332.366 214.684 332.371 214.747 332.353 214.805C332.343 214.865 332.313 214.919 332.267 214.958C332.221 214.997 332.162 215.018 332.102 215.017Z" fill="#263238"/>
<path d="M332.674 215.69C332.631 215.646 332.6 215.592 332.584 215.533C332.567 215.474 332.566 215.412 332.58 215.353C332.58 215.29 332.6 215.229 332.637 215.179C332.673 215.128 332.725 215.09 332.784 215.07C332.894 215.07 333.027 215.204 332.988 215.423C332.949 215.643 332.761 215.76 332.674 215.69Z" fill="#263238"/>
<path d="M333.467 216.6C333.425 216.647 333.37 216.681 333.308 216.698C333.247 216.715 333.183 216.714 333.122 216.694C333.059 216.694 332.997 216.673 332.946 216.635C332.895 216.597 332.858 216.543 332.84 216.483C332.84 216.373 332.981 216.247 333.2 216.287C333.42 216.326 333.522 216.475 333.467 216.6Z" fill="#263238"/>
<path d="M334.109 217.368C334.07 217.329 334.172 217.172 334.415 217.211C334.49 217.227 334.56 217.261 334.619 217.311C334.678 217.36 334.723 217.423 334.752 217.494C334.786 217.613 334.772 217.741 334.711 217.85C334.651 217.959 334.55 218.039 334.431 218.074C334.35 218.096 334.265 218.097 334.184 218.077C334.103 218.056 334.028 218.015 333.968 217.956C333.923 217.891 333.898 217.813 333.898 217.733C333.898 217.653 333.923 217.575 333.968 217.509C334.094 217.274 334.313 217.337 334.29 217.392C334.251 217.455 334.232 217.529 334.235 217.603C334.235 217.705 334.235 217.705 334.282 217.705H334.36C334.439 217.705 334.415 217.658 334.423 217.635C334.415 217.588 334.39 217.546 334.353 217.517C334.235 217.415 334.141 217.415 334.109 217.368Z" fill="#263238"/>
<path d="M335.113 218.92C335.054 218.903 335.003 218.865 334.971 218.813C334.939 218.76 334.928 218.698 334.94 218.638C334.939 218.608 334.944 218.577 334.955 218.549C334.966 218.521 334.983 218.496 335.005 218.474C335.026 218.453 335.051 218.436 335.079 218.425C335.108 218.414 335.138 218.409 335.168 218.41C335.197 218.416 335.225 218.427 335.25 218.444C335.275 218.46 335.296 218.481 335.313 218.506C335.33 218.531 335.342 218.559 335.348 218.588C335.354 218.617 335.354 218.648 335.348 218.677C335.346 218.739 335.321 218.799 335.278 218.844C335.234 218.889 335.175 218.916 335.113 218.92Z" fill="#263238"/>
<path d="M336.634 218.113C336.634 218.223 336.415 218.278 336.195 218.223C335.975 218.168 335.819 218.042 335.842 217.933C335.866 217.823 336.07 217.776 336.289 217.823C336.509 217.87 336.658 218.042 336.634 218.113Z" fill="#263238"/>
<path d="M337.206 217.838C337.143 217.831 337.085 217.8 337.043 217.752C337.001 217.705 336.978 217.643 336.979 217.58C336.979 217.423 337.041 217.282 337.159 217.274C337.276 217.266 337.371 217.384 337.386 217.54C337.402 217.697 337.323 217.83 337.206 217.838Z" fill="#263238"/>
<path d="M338.272 216.992C338.162 216.992 338.068 216.867 338.068 216.71C338.068 216.553 338.162 216.428 338.272 216.428C338.382 216.428 338.476 216.553 338.476 216.71C338.476 216.867 338.39 216.992 338.272 216.992Z" fill="#263238"/>
<path d="M339.096 215.84C339.096 215.8 339.238 215.644 339.496 215.8C339.572 215.847 339.633 215.915 339.67 215.996C339.708 216.077 339.721 216.167 339.708 216.255C339.687 216.374 339.622 216.48 339.526 216.552C339.43 216.625 339.31 216.659 339.191 216.647C339.083 216.656 338.976 216.627 338.888 216.564C338.8 216.502 338.737 216.41 338.711 216.305C338.685 216.201 338.696 216.09 338.744 215.993C338.792 215.897 338.872 215.82 338.971 215.777C339.238 215.644 339.402 215.824 339.355 215.863C339.308 215.902 339.214 215.863 339.136 216.012C339.115 216.034 339.1 216.06 339.091 216.089C339.081 216.117 339.078 216.147 339.081 216.177C339.114 216.212 339.158 216.234 339.206 216.239C339.285 216.239 339.324 216.239 339.339 216.185C339.347 216.13 339.347 216.075 339.339 216.02C339.339 215.965 339.12 215.887 339.096 215.84Z" fill="#263238"/>
<path d="M341.221 215.181C341.135 215.267 340.986 215.243 340.837 215.228C340.688 215.212 340.531 215.165 340.484 215.063C340.437 214.961 340.61 214.773 340.9 214.82C341.19 214.867 341.3 215.11 341.221 215.181Z" fill="#263238"/>
<path d="M342.295 214.617C342.24 214.719 342.021 214.711 341.786 214.672C341.55 214.632 341.346 214.562 341.331 214.444C341.315 214.327 341.558 214.209 341.856 214.264C342.154 214.319 342.35 214.523 342.295 214.617Z" fill="#263238"/>
<path d="M342.905 214.123C342.796 214.123 342.717 213.974 342.725 213.817C342.733 213.66 342.843 213.542 342.96 213.558C343.078 213.574 343.149 213.699 343.133 213.856C343.134 213.92 343.111 213.983 343.069 214.032C343.027 214.081 342.969 214.113 342.905 214.123Z" fill="#263238"/>
<path d="M343.831 212.672C343.791 212.672 343.909 212.46 344.191 212.515C344.278 212.537 344.357 212.585 344.417 212.652C344.477 212.719 344.516 212.802 344.528 212.891C344.543 213.005 344.52 213.121 344.462 213.221C344.404 213.32 344.314 213.397 344.207 213.44C344.094 213.475 343.972 213.469 343.863 213.423C343.754 213.377 343.665 213.295 343.611 213.189C343.565 213.105 343.551 213.008 343.571 212.914C343.592 212.821 343.645 212.737 343.721 212.68C343.972 212.499 344.152 212.68 344.113 212.68C344.074 212.68 343.98 212.75 343.925 212.86C343.87 212.97 343.925 212.954 343.925 212.978C343.94 212.996 343.959 213.01 343.981 213.019C344.003 213.029 344.026 213.033 344.05 213.032C344.073 213.017 344.092 212.998 344.107 212.975C344.122 212.952 344.132 212.926 344.136 212.899C344.138 212.873 344.134 212.848 344.123 212.824C344.112 212.801 344.095 212.781 344.074 212.766C343.987 212.703 343.862 212.719 343.831 212.672Z" fill="#263238"/>
<path d="M345.172 212.633C345.112 212.607 345.064 212.56 345.036 212.501C345.009 212.442 345.004 212.374 345.023 212.312C345.023 212.279 345.03 212.246 345.043 212.215C345.056 212.185 345.075 212.157 345.1 212.134C345.124 212.111 345.153 212.094 345.184 212.083C345.215 212.071 345.249 212.067 345.282 212.069C345.392 212.069 345.454 212.234 345.423 212.39C345.392 212.547 345.282 212.657 345.172 212.633Z" fill="#263238"/>
<path d="M346.308 211.676C346.249 211.66 346.199 211.621 346.167 211.569C346.135 211.517 346.124 211.454 346.136 211.394C346.131 211.367 346.133 211.339 346.139 211.312C346.146 211.285 346.158 211.26 346.175 211.238C346.192 211.216 346.213 211.197 346.237 211.184C346.262 211.17 346.288 211.162 346.316 211.159C346.344 211.154 346.372 211.156 346.4 211.162C346.427 211.169 346.453 211.181 346.475 211.198C346.498 211.215 346.517 211.236 346.532 211.26C346.546 211.284 346.555 211.311 346.559 211.339C346.567 211.373 346.567 211.408 346.559 211.441C346.555 211.505 346.527 211.565 346.48 211.608C346.434 211.652 346.372 211.676 346.308 211.676Z" fill="#263238"/>
<path d="M347.908 210.75C347.845 210.844 347.649 210.829 347.446 210.75C347.242 210.672 347.061 210.633 347.046 210.515C347.03 210.397 347.257 210.288 347.54 210.35C347.822 210.413 347.971 210.656 347.908 210.75Z" fill="#263238"/>
<path d="M348.677 210.202C348.575 210.249 348.418 210.101 348.481 209.897C348.544 209.693 348.748 209.654 348.81 209.748C348.837 209.786 348.855 209.83 348.865 209.875C348.874 209.921 348.874 209.968 348.865 210.014C348.849 210.057 348.824 210.096 348.792 210.129C348.759 210.161 348.72 210.186 348.677 210.202Z" fill="#263238"/>
<path d="M349.601 209.301C349.542 209.284 349.491 209.246 349.459 209.193C349.427 209.141 349.416 209.079 349.429 209.018C349.429 208.988 349.435 208.958 349.447 208.93C349.459 208.902 349.476 208.876 349.498 208.855C349.52 208.834 349.546 208.817 349.574 208.806C349.603 208.795 349.633 208.79 349.664 208.791C349.722 208.806 349.773 208.843 349.805 208.894C349.837 208.945 349.848 209.006 349.836 209.066C349.833 209.127 349.807 209.184 349.763 209.228C349.72 209.271 349.662 209.297 349.601 209.301Z" fill="#263238"/>
<path d="M338.296 167.655L333.098 172.884L345.689 185.263C345.689 185.263 348.252 177.799 350.04 171.23C351.302 166.588 338.296 167.655 338.296 167.655Z" fill="#FFA448"/>
<path d="M336.266 173.354C336.156 173.354 336.039 173.126 336.007 172.828C335.976 172.53 336.047 172.272 336.156 172.264C336.266 172.256 336.384 172.483 336.415 172.789C336.447 173.095 336.376 173.354 336.266 173.354Z" fill="#263238"/>
<path d="M337.466 173.596C337.466 173.706 337.27 173.8 337.027 173.8C336.784 173.8 336.596 173.706 336.596 173.596C336.596 173.487 336.792 173.393 337.027 173.393C337.262 173.393 337.466 173.479 337.466 173.596Z" fill="#263238"/>
<path d="M337.793 175.338C337.692 175.275 337.699 175.095 337.699 174.899C337.699 174.703 337.699 174.531 337.793 174.468C337.888 174.405 338.107 174.578 338.107 174.899C338.107 175.22 337.903 175.409 337.793 175.338Z" fill="#263238"/>
<path d="M338.829 175.511C338.781 175.511 338.962 175.26 339.299 175.37C339.401 175.402 339.493 175.462 339.564 175.542C339.636 175.622 339.685 175.719 339.707 175.824C339.722 175.966 339.688 176.11 339.609 176.229C339.529 176.348 339.411 176.436 339.274 176.477C339.137 176.518 338.99 176.51 338.858 176.453C338.727 176.397 338.619 176.297 338.554 176.169C338.518 176.064 338.514 175.951 338.542 175.844C338.569 175.736 338.628 175.64 338.711 175.566C338.76 175.517 338.819 175.481 338.884 175.459C338.95 175.437 339.019 175.431 339.087 175.44C339.189 175.44 339.221 175.519 339.205 175.534C339.091 175.575 338.995 175.652 338.93 175.754C338.829 175.926 338.883 176.154 339.158 176.083C339.432 176.012 339.362 175.762 339.158 175.636C338.954 175.511 338.86 175.558 338.829 175.511Z" fill="#263238"/>
<path d="M340.185 177.627C340.083 177.627 340.044 177.415 340.099 177.235C340.154 177.054 340.295 176.937 340.405 176.968C340.515 176.999 340.554 177.18 340.491 177.36C340.428 177.54 340.295 177.658 340.185 177.627Z" fill="#263238"/>
<path d="M341.361 177.399C341.471 177.399 341.51 177.728 341.447 178.089C341.385 178.45 341.244 178.732 341.134 178.708C341.024 178.685 340.985 178.379 341.048 178.018C341.11 177.658 341.251 177.383 341.361 177.399Z" fill="#263238"/>
<path d="M342.608 178.842C342.608 178.952 342.412 179.069 342.137 179.101C341.863 179.132 341.643 179.061 341.628 178.952C341.612 178.842 341.824 178.724 342.098 178.693C342.373 178.662 342.608 178.709 342.608 178.842Z" fill="#263238"/>
<path d="M343.118 179.439C343.118 179.392 343.282 179.267 343.58 179.392C343.671 179.43 343.751 179.489 343.815 179.564C343.879 179.639 343.925 179.728 343.949 179.823C343.975 179.954 343.958 180.09 343.9 180.211C343.842 180.331 343.746 180.429 343.627 180.49C343.505 180.562 343.361 180.586 343.222 180.555C343.084 180.524 342.962 180.442 342.882 180.325C342.831 180.226 342.814 180.114 342.834 180.004C342.854 179.895 342.91 179.796 342.992 179.721C343.043 179.669 343.107 179.632 343.178 179.615C343.249 179.598 343.323 179.603 343.392 179.627C343.486 179.666 343.502 179.721 343.486 179.737C343.431 179.744 343.379 179.764 343.335 179.797C343.291 179.831 343.257 179.875 343.235 179.925C343.149 180.113 343.235 180.239 343.463 180.145C343.69 180.051 343.612 179.8 343.463 179.659C343.314 179.517 343.125 179.502 343.118 179.439Z" fill="#263238"/>
<path d="M344.434 182.206C344.325 182.206 344.23 181.908 344.23 181.547C344.23 181.187 344.325 180.896 344.434 180.896C344.544 180.896 344.638 181.187 344.638 181.547C344.638 181.908 344.552 182.206 344.434 182.206Z" fill="#263238"/>
<path d="M342.537 162.293C342.241 162.904 341.861 163.471 341.408 163.979C340.624 164.966 339.543 166.331 338.272 167.718C337.002 169.106 335.842 170.415 334.988 171.325C334.55 171.84 334.064 172.312 333.537 172.736C333.893 172.161 334.305 171.622 334.768 171.129C335.552 170.18 336.712 168.879 337.967 167.452L341.181 163.79C341.598 163.26 342.051 162.76 342.537 162.293Z" fill="#263238"/>
<path d="M351.341 209.207C351.341 209.317 351.106 209.356 350.871 209.301C350.636 209.247 350.471 209.105 350.494 208.996C350.518 208.886 350.737 208.847 350.965 208.902C351.192 208.956 351.365 209.098 351.341 209.207Z" fill="#263238"/>
<path d="M351.938 208.251C351.938 208.211 351.985 208.086 352.212 208.07C352.286 208.071 352.359 208.094 352.42 208.136C352.481 208.178 352.529 208.237 352.557 208.306C352.58 208.349 352.593 208.396 352.597 208.444C352.601 208.493 352.595 208.541 352.58 208.588C352.565 208.634 352.54 208.676 352.508 208.713C352.475 208.749 352.436 208.779 352.392 208.799H352.314C351.922 208.901 351.585 208.517 351.757 208.219C351.782 208.174 351.821 208.138 351.867 208.116C351.913 208.093 351.965 208.086 352.016 208.094C352.028 208.093 352.039 208.095 352.05 208.1C352.06 208.105 352.069 208.113 352.076 208.122C352.083 208.131 352.088 208.142 352.09 208.154C352.092 208.165 352.09 208.177 352.086 208.188C352.062 208.206 352.043 208.229 352.03 208.257C352.018 208.284 352.013 208.315 352.016 208.345C352.016 208.345 352.134 208.431 352.204 208.407C352.207 208.391 352.204 208.374 352.195 208.36C352.186 208.345 352.173 208.334 352.157 208.329C352.071 208.306 351.961 208.306 351.938 208.251Z" fill="#263238"/>
<path d="M285.212 180.456C284.766 178.975 279.144 175.933 279.991 175.109C281.089 174.028 285.714 178.543 286.13 178.896C286.545 179.249 287.055 178.645 286.663 178.347C286.098 177.916 280.25 173.275 281.324 172.209C281.92 171.613 282.892 172.812 282.892 172.812C282.892 172.812 288.051 177.571 288.544 177.046C289.038 176.521 286.098 173.62 285.04 172.718C283.982 171.817 283.989 170.946 284.758 170.805C285.275 170.703 288.584 173.4 289.603 174.325C290.622 175.251 293.405 177.822 293.037 175.415V175.305C292.613 172.953 293.037 170.986 293.586 170.515C293.701 170.4 293.85 170.323 294.011 170.296C294.172 170.269 294.338 170.293 294.484 170.365C294.631 170.436 294.752 170.552 294.83 170.696C294.908 170.839 294.939 171.004 294.918 171.166C294.942 171.282 294.942 171.402 294.918 171.519V171.691C294.895 172.513 294.95 173.334 295.083 174.145C295.191 174.874 295.422 175.579 295.765 176.231C296.165 177.015 296.549 177.61 296.863 178.136C300.618 180.205 311.429 185.67 322.256 186.501C324.216 186.65 334.134 173.824 334.134 173.824L343.864 183.381C342.546 185.631 342.084 186.148 335.475 195.188C324.695 209.935 290.787 185.513 290.787 185.513L290.473 185.356C287.897 184.099 285.394 182.696 282.978 181.154C280.062 179.108 280.234 178.841 280.524 178.528C281.183 177.704 285.667 181.977 285.212 180.456Z" fill="#FFBE9D"/>
</svg>
