<svg width="392" height="392" viewBox="0 0 392 392" fill="none" xmlns="http://www.w3.org/2000/svg">
<path d="M114.831 31.0391H45.4395V145.911H114.831V31.0391Z" fill="#E0E0E0"/>
<path d="M112.527 31.0391H43.1348V145.911H112.527V31.0391Z" fill="#EBEBEB"/>
<path d="M109.578 33.3672H46.0898V143.574H109.578V33.3672Z" fill="#FAFAFA"/>
<path d="M97.215 47.6914H58.1797V129.259H97.215V47.6914Z" fill="#EBEBEB"/>
<path d="M58.1787 100.391C58.0846 92.7702 64.9368 85.3301 72.4788 84.2717C76.0774 83.7621 79.9033 84.4755 83.2667 83.0957C89.2643 80.6339 91.1773 72.6606 97.2141 70.3008L97.4884 129.258H58.1787V100.391Z" fill="#E0E0E0"/>
<path d="M370.368 35.3438H303.814V104.72H370.368V35.3438Z" fill="#E0E0E0"/>
<path d="M365.86 35.3438H299.307V104.72H365.86V35.3438Z" fill="#FAFAFA"/>
<path d="M365.876 104.736H299.283V35.3203H365.876V104.736ZM299.322 104.696H365.837V35.3595H299.322V104.696Z" fill="#E0E0E0"/>
<path d="M356.915 44.6641H308.252V95.3889H356.915V44.6641Z" fill="#FAFAFA"/>
<path d="M308.252 95.7266C307.91 96.2382 307.507 96.7068 307.052 97.1221C306.268 97.9453 305.179 99.0507 303.956 100.258C302.733 101.465 301.604 102.54 300.78 103.3C300.36 103.748 299.886 104.143 299.369 104.476C299.714 103.966 300.116 103.498 300.569 103.08C301.353 102.296 302.435 101.152 303.665 99.9445C304.896 98.7371 306.017 97.6552 306.849 96.8947C307.268 96.451 307.739 96.0589 308.252 95.7266Z" fill="#E0E0E0"/>
<path d="M356.914 95.6016C357.422 95.9487 357.89 96.351 358.31 96.8011C359.094 97.5851 360.238 98.6748 361.446 99.9371C362.653 101.199 363.719 102.289 364.488 103.12C364.933 103.538 365.326 104.009 365.656 104.523C365.148 104.182 364.682 103.782 364.268 103.332C363.445 102.548 362.332 101.458 361.132 100.196C359.932 98.9336 358.843 97.8438 358.082 97.0128C357.636 96.5926 357.244 96.1185 356.914 95.6016Z" fill="#E0E0E0"/>
<path d="M356.781 44.8061C357.124 44.2944 357.526 43.8258 357.981 43.4105C358.765 42.6265 359.847 41.4741 361.07 40.2745C362.293 39.075 363.422 37.9931 364.253 37.2248C364.676 36.7867 365.146 36.3975 365.656 36.0645C365.314 36.5719 364.914 37.0377 364.464 37.4521C363.68 38.2753 362.591 39.3886 361.328 40.5881C360.066 41.7877 358.976 42.8774 358.145 43.6379C357.732 44.0733 357.275 44.4648 356.781 44.8061Z" fill="#E0E0E0"/>
<path d="M308.111 44.9237C307.599 44.5814 307.131 44.1787 306.715 43.7242C305.892 42.9402 304.787 41.8583 303.579 40.6352C302.372 39.4122 301.298 38.2832 300.537 37.4522C300.093 37.0309 299.698 36.5601 299.361 36.0488C299.872 36.3889 300.341 36.789 300.757 37.2405C301.541 38.0245 302.685 39.1143 303.893 40.3765C305.1 41.6387 306.182 42.7285 306.943 43.5595C307.384 43.9673 307.776 44.4251 308.111 44.9237Z" fill="#E0E0E0"/>
<path d="M356.782 95.3896C356.776 95.3087 356.776 95.2274 356.782 95.1466C356.782 94.9741 356.782 94.7389 356.782 94.4331C356.782 93.7981 356.782 92.8651 356.782 91.697C356.782 89.2979 356.782 85.8013 356.735 81.3638C356.735 72.4733 356.68 59.8195 356.641 44.6648L356.829 44.853H308.307L308.519 44.6334C308.519 63.2534 308.519 80.6974 308.519 95.3582L308.331 95.1779L343.47 95.272L353.333 95.319H355.951H356.861C356.788 95.3261 356.714 95.3261 356.641 95.319H355.935H353.356L343.533 95.3661L308.253 95.4602H308.064V95.272C308.064 80.5877 308.064 63.1672 308.064 44.5472V44.4531H308.292H356.814H357.002V44.6883C356.955 59.8979 356.923 72.5909 356.9 81.5363C356.9 85.9581 356.9 89.439 356.853 91.8302C356.853 93.0062 356.853 93.9078 356.853 94.535C356.853 94.8251 356.853 95.0525 356.853 95.2171C356.853 95.3818 356.782 95.3974 356.782 95.3896Z" fill="#E0E0E0"/>
<path d="M340.702 61.9121H324.465V78.1487H340.702V61.9121Z" fill="#EBEBEB"/>
<path d="M269.852 360.445C268.472 359.261 265.383 355.506 267.766 351.131C268.636 349.563 270.495 348.732 272.164 347.995C273.834 347.258 275.606 346.678 276.994 345.494C279.612 343.267 280.334 339.575 282.074 336.603C284.066 333.193 287.79 330.637 291.725 330.818C296.225 331.021 299.981 334.698 301.682 338.893C303.383 343.087 303.446 347.744 303.485 352.276C303.485 354.777 303.391 357.599 301.549 359.292C299.855 360.86 297.307 360.86 295.002 360.798L270.393 360.014" fill="#F5F5F5"/>
<path d="M316.93 292.77H252.203L263.861 362.287C264.102 363.737 264.749 365.088 265.727 366.185C266.706 367.281 267.975 368.077 269.388 368.48L269.616 368.543C269.804 368.59 269.992 368.653 270.188 368.692C270.622 368.777 271.063 368.827 271.505 368.841V368.912L271.819 368.857H300.67C301.197 368.855 301.722 368.803 302.238 368.7C303.922 368.439 305.475 367.633 306.657 366.405C307.839 365.177 308.587 363.596 308.784 361.903L314.406 314L314.657 312.095L316.875 293.13L316.93 292.77ZM304.715 337.12H298.075L298.749 316.948H306.44L304.715 337.12ZM307.067 316.948H313.434L311.082 337.12H305.366L307.067 316.948ZM288.095 359.488L287.726 341.95H297.299L296.711 359.48L288.095 359.488ZM277.769 341.95H287.06L287.467 359.48H279.102L277.769 341.95ZM278.491 359.48H270.698C269.953 354.776 268.989 348.598 267.946 341.95H277.126L278.491 359.48ZM277.393 337.12L275.825 316.948H286.487L286.942 337.12H277.393ZM287.585 337.12L287.122 316.948H298.098L297.432 337.12H287.585ZM287.013 312.103L286.582 293.42H298.875L298.255 312.103H287.013ZM286.37 312.103H275.449L273.998 293.42H285.946L286.37 312.103ZM274.798 312.103H263.242C262.834 309.524 262.458 307.085 262.097 304.882C260.89 297.332 260.435 294.487 260.184 293.42H273.355L274.798 312.103ZM275.174 316.948L276.75 337.12H267.185C266.864 335.074 266.542 333.004 266.213 330.935C265.468 326.168 264.716 321.409 264.01 316.948H275.174ZM266.558 337.12H260.286L256.899 316.948H263.352C264.347 323.173 265.437 330.111 266.558 337.12ZM267.342 341.958C268.299 348.026 269.232 354.008 270.094 359.488H264.089L261.07 341.95L267.342 341.958ZM297.377 359.488L297.965 341.958H304.355L302.857 359.488H297.377ZM298.945 312.103L299.565 293.42H308.494L306.926 312.103H298.945ZM259.612 293.42C259.871 294.769 261.047 302.123 262.63 312.103H256.131L252.995 293.42H259.612ZM308.494 359.488H303.492L304.974 341.95H310.533L308.494 359.488ZM314.053 312.103H307.538L309.106 293.42H316.217L314.053 312.103Z" fill="#E0E0E0"/>
<path d="M353.772 369.585C353.772 369.702 278.563 369.789 185.808 369.789C93.0529 369.789 17.8281 369.702 17.8281 369.585C17.8281 369.467 93.0216 369.381 185.808 369.381C278.594 369.381 353.772 369.475 353.772 369.585Z" fill="#263238"/>
<path d="M263.823 284.655L174.832 284.592C169.692 284.588 164.765 282.544 161.132 278.908C157.5 275.273 155.459 270.343 155.459 265.204V42.109C155.461 39.5596 155.966 37.0356 156.945 34.6816C157.923 32.3275 159.357 30.1896 161.163 28.3901C162.969 26.5907 165.112 25.1651 167.469 24.195C169.827 23.2248 172.353 22.7292 174.902 22.7364L263.894 22.7913C269.033 22.7954 273.961 24.84 277.594 28.4755C281.226 32.1111 283.267 37.0402 283.267 42.1796L283.22 265.267C283.221 267.814 282.72 270.336 281.745 272.689C280.771 275.043 279.342 277.181 277.54 278.981C275.739 280.782 273.6 282.21 271.247 283.184C268.893 284.157 266.371 284.657 263.823 284.655Z" fill="#455A64"/>
<path d="M263.801 30.6856H246.553C245.99 30.6978 245.436 30.8207 244.922 31.0472C244.407 31.2737 243.942 31.5994 243.553 32.0056C243.164 32.4119 242.859 32.8907 242.656 33.4149C242.452 33.939 242.354 34.4982 242.366 35.0603V38.1963C242.379 38.7585 242.28 39.3176 242.077 39.8418C241.873 40.3659 241.568 40.8448 241.179 41.2511C240.79 41.6573 240.325 41.983 239.811 42.2095C239.296 42.436 238.742 42.5588 238.18 42.5711H204.546C203.41 42.5443 202.331 42.0678 201.546 41.246C200.761 40.4243 200.334 39.3246 200.359 38.1885V35.0525C200.385 33.9164 199.958 32.8167 199.173 31.9949C198.388 31.1732 197.309 30.6967 196.173 30.6699H175.005C173.221 30.6679 171.455 31.0174 169.807 31.6985C168.158 32.3795 166.66 33.3789 165.399 34.6392C164.137 35.8996 163.136 37.3964 162.453 39.0439C161.77 40.6915 161.418 42.4575 161.418 44.241L161.379 261.997C161.379 265.596 162.807 269.047 165.351 271.593C167.894 274.139 171.343 275.572 174.942 275.576L263.754 275.623C265.537 275.625 267.304 275.275 268.952 274.594C270.6 273.913 272.098 272.914 273.36 271.654C274.622 270.393 275.623 268.896 276.306 267.249C276.989 265.601 277.34 263.835 277.34 262.052V44.2959C277.349 40.6959 275.927 37.2399 273.388 34.6877C270.849 32.1355 267.401 30.696 263.801 30.6856Z" fill="#FAFAFA"/>
<path d="M248.371 37.75H247.383V39.1298H248.371V37.75Z" fill="#263238"/>
<path d="M249.978 37.1387H248.99V39.1379H249.978V37.1387Z" fill="#263238"/>
<path d="M251.578 36.6758H250.59V39.1375H251.578V36.6758Z" fill="#263238"/>
<path d="M253.185 35.7832H252.197V39.1387H253.185V35.7832Z" fill="#263238"/>
<path d="M267.743 39.2006H262.796C262.702 39.2006 262.611 39.1637 262.544 39.0978C262.476 39.0318 262.438 38.9421 262.436 38.8478V36.386C262.436 36.2925 262.473 36.2027 262.539 36.1366C262.605 36.0704 262.695 36.0332 262.788 36.0332H267.743C267.763 36.0254 267.786 36.0254 267.806 36.0332C267.813 36.0563 267.813 36.0808 267.806 36.1038V36.8878H268.339C268.364 36.8878 268.388 36.8977 268.406 36.9154C268.423 36.933 268.433 36.9569 268.433 36.9819V38.1657C268.431 38.1893 268.42 38.2113 268.403 38.2272C268.386 38.2432 268.363 38.2521 268.339 38.252H267.806V39.036C267.828 39.0443 267.845 39.0609 267.855 39.0823C267.865 39.1036 267.865 39.1278 267.857 39.1496C267.849 39.1715 267.832 39.1891 267.811 39.1987C267.789 39.2082 267.765 39.2089 267.743 39.2006ZM267.649 36.2136H262.788C262.766 36.2136 262.743 36.218 262.722 36.2267C262.701 36.2354 262.682 36.2481 262.666 36.2641C262.65 36.2801 262.638 36.2991 262.629 36.32C262.62 36.341 262.616 36.3634 262.616 36.386V38.8478C262.616 38.8711 262.621 38.8942 262.63 38.9157C262.639 38.9371 262.652 38.9565 262.669 38.9726C262.686 38.9888 262.706 39.0013 262.728 39.0095C262.75 39.0177 262.773 39.0213 262.796 39.0203H267.649V38.2363C267.649 38.2113 267.659 38.1874 267.677 38.1698C267.694 38.1521 267.718 38.1422 267.743 38.1422H268.269V37.1152H267.743C267.731 37.1163 267.719 37.1148 267.708 37.111C267.696 37.1072 267.686 37.101 267.677 37.0929C267.668 37.0847 267.661 37.0749 267.656 37.0638C267.652 37.0528 267.649 37.0409 267.649 37.0289V36.2136Z" fill="#263238"/>
<path d="M263.023 38.6203V36.6211H267.249V37.5227V37.7187V38.6203H263.023Z" fill="#263238"/>
<path d="M257.936 39.013C257.934 38.918 257.896 38.8274 257.828 38.7602C257.761 38.693 257.671 38.6543 257.576 38.6523C257.48 38.6523 257.388 38.6903 257.321 38.758C257.253 38.8256 257.215 38.9173 257.215 39.013C257.214 39.0606 257.222 39.108 257.24 39.1523C257.258 39.1965 257.284 39.2367 257.318 39.2704C257.352 39.3041 257.392 39.3306 257.436 39.3484C257.481 39.3661 257.528 39.3747 257.576 39.3736C257.671 39.3736 257.763 39.3356 257.831 39.268C257.898 39.2004 257.936 39.1086 257.936 39.013Z" fill="#263238"/>
<path d="M256.305 38.1426L256.767 38.6051C256.869 38.4999 256.991 38.4161 257.125 38.3589C257.26 38.3018 257.405 38.2723 257.551 38.2723C257.698 38.2723 257.842 38.3018 257.977 38.3589C258.112 38.4161 258.234 38.4999 258.335 38.6051L258.798 38.1426C258.633 37.9781 258.438 37.8483 258.222 37.7608C258.007 37.6733 257.776 37.6298 257.543 37.633C257.08 37.6334 256.635 37.8165 256.305 38.1426Z" fill="#263238"/>
<path d="M257.544 36.5979C256.813 36.5891 256.108 36.8711 255.584 37.3819L256.039 37.8444C256.438 37.4485 256.978 37.2263 257.54 37.2263C258.102 37.2263 258.642 37.4485 259.041 37.8444L259.504 37.3819C258.979 36.8726 258.275 36.5908 257.544 36.5979Z" fill="#263238"/>
<path d="M254.799 36.6605L255.261 37.123C255.858 36.5265 256.668 36.1914 257.511 36.1914C258.355 36.1914 259.165 36.5265 259.762 37.123L260.224 36.6605C259.504 35.9423 258.528 35.5391 257.511 35.5391C256.494 35.5391 255.519 35.9423 254.799 36.6605Z" fill="#263238"/>
<path d="M225.305 57.7812H219.331C218.919 57.7812 218.586 58.1147 218.586 58.5261V62.5793C218.586 62.9907 218.919 63.3241 219.331 63.3241H225.305C225.716 63.3241 226.05 62.9907 226.05 62.5793V58.5261C226.05 58.1147 225.716 57.7812 225.305 57.7812Z" fill="#263238"/>
<path d="M220.233 58.1417H219.449V57.2323C219.429 56.8434 219.488 56.4544 219.623 56.089C219.758 55.7236 219.965 55.3895 220.233 55.1071C220.502 54.8246 220.824 54.5996 221.182 54.4459C221.54 54.2922 221.925 54.2129 222.315 54.2129C222.704 54.2129 223.09 54.2922 223.447 54.4459C223.805 54.5996 224.128 54.8246 224.396 55.1071C224.664 55.3895 224.872 55.7236 225.007 56.089C225.142 56.4544 225.201 56.8434 225.18 57.2323V57.8281H224.396V57.2323C224.414 56.9482 224.373 56.6635 224.276 56.3958C224.179 56.1281 224.029 55.8831 223.834 55.6757C223.639 55.4684 223.404 55.3032 223.142 55.1902C222.881 55.0773 222.599 55.019 222.315 55.019C222.03 55.019 221.749 55.0773 221.487 55.1902C221.226 55.3032 220.991 55.4684 220.796 55.6757C220.601 55.8831 220.45 56.1281 220.353 56.3958C220.257 56.6635 220.216 56.9482 220.233 57.2323V58.1417Z" fill="#263238"/>
<path d="M162.287 195.13C162.364 188.081 164.303 181.177 167.907 175.119C171.512 169.061 176.654 164.064 182.812 160.634C191.436 155.93 201.487 154.707 211.075 152.503C220.664 150.3 230.605 146.663 236.532 138.815C244.544 128.207 243.016 113.131 248.802 101.183C251.492 95.7882 255.573 91.2095 260.624 87.9197C265.676 84.6298 271.513 82.748 277.535 82.4688V264.757C277.535 267.695 276.368 270.512 274.29 272.59C272.213 274.667 269.395 275.835 266.457 275.835H173.381C171.925 275.836 170.483 275.55 169.138 274.994C167.792 274.437 166.57 273.622 165.54 272.593C164.509 271.564 163.692 270.343 163.134 268.998C162.576 267.654 162.288 266.212 162.287 264.757V195.13Z" fill="#EBEBEB"/>
<path d="M181.887 100.188C181.887 93.4302 185.43 89.4004 190.346 89.4004C195.262 89.4004 198.829 93.4302 198.829 100.188C198.829 106.946 195.254 110.984 190.346 110.984C185.438 110.984 181.887 106.946 181.887 100.188ZM196.587 100.188C196.587 94.5199 194.039 91.3996 190.315 91.3996C186.591 91.3996 184.043 94.5356 184.043 100.188C184.043 105.841 186.591 108.985 190.315 108.985C194.039 108.985 196.602 105.841 196.602 100.188H196.587Z" fill="#263238"/>
<path d="M217.277 100.008C217.277 107.221 213.357 110.984 207.579 110.984C205.828 111.059 204.089 110.661 202.545 109.832L203.423 108.075C204.673 108.797 206.105 109.143 207.547 109.071C212.126 109.071 215.066 106.131 215.066 100.369C215.066 99.8904 215.066 99.2789 214.972 98.6439C213.913 100.996 211.428 102.282 208.488 102.282C204.27 102.282 201.33 99.7963 201.33 95.9155C201.33 92.0347 204.466 89.4005 208.574 89.4005C214.211 89.377 217.277 93.297 217.277 100.008ZM214.274 95.7979C214.274 93.4459 212.337 91.2507 208.668 91.2507C205.603 91.2507 203.486 93.0383 203.486 95.8528C203.486 98.6674 205.548 100.431 208.817 100.431C212.087 100.431 214.274 98.4322 214.274 95.7979Z" fill="#263238"/>
<path d="M220.461 96.3696C220.451 96.1544 220.485 95.9396 220.562 95.7385C220.639 95.5374 220.757 95.3542 220.908 95.2005C221.058 95.0468 221.239 94.9257 221.439 94.845C221.638 94.7642 221.853 94.7254 222.068 94.731C222.283 94.73 222.496 94.7717 222.695 94.8537C222.894 94.9358 223.074 95.0566 223.226 95.2091C223.378 95.3615 223.498 95.5426 223.579 95.7419C223.66 95.9411 223.701 96.1545 223.698 96.3696C223.703 96.807 223.533 97.2282 223.228 97.5412C222.922 97.8541 222.505 98.0333 222.068 98.0395C221.852 98.0364 221.64 97.9907 221.442 97.9049C221.244 97.8191 221.065 97.695 220.916 97.5397C220.766 97.3845 220.649 97.2011 220.571 97.0002C220.493 96.7994 220.455 96.585 220.461 96.3696ZM220.461 109.282C220.451 109.067 220.485 108.852 220.562 108.651C220.639 108.45 220.757 108.267 220.908 108.113C221.058 107.959 221.239 107.838 221.439 107.757C221.638 107.677 221.853 107.638 222.068 107.643C222.283 107.642 222.496 107.684 222.695 107.766C222.894 107.848 223.074 107.969 223.226 108.122C223.378 108.274 223.498 108.455 223.579 108.654C223.66 108.854 223.701 109.067 223.698 109.282C223.703 109.719 223.533 110.141 223.228 110.454C222.922 110.767 222.505 110.946 222.068 110.952C221.852 110.949 221.64 110.903 221.442 110.817C221.244 110.732 221.065 110.608 220.916 110.452C220.766 110.297 220.649 110.114 220.571 109.913C220.493 109.712 220.455 109.497 220.461 109.282Z" fill="#263238"/>
<path d="M241.346 108.859V110.804H226.45V109.236L235.27 100.612C237.669 98.2596 238.123 96.8249 238.123 95.3667C238.123 92.9128 236.391 91.3996 233.153 91.3996C232.072 91.3318 230.991 91.508 229.988 91.9152C228.985 92.3223 228.086 92.95 227.359 93.7516L225.791 92.411C227.43 90.4745 230.064 89.3848 233.31 89.3848C237.614 89.3848 240.366 91.5643 240.366 95.108C240.366 97.1464 239.731 98.9652 236.877 101.748L229.664 108.804L241.346 108.859Z" fill="#263238"/>
<path d="M243.949 100.188C243.949 93.4302 247.493 89.4004 252.409 89.4004C257.324 89.4004 260.891 93.4302 260.891 100.188C260.891 106.946 257.316 110.984 252.409 110.984C247.501 110.984 243.949 106.946 243.949 100.188ZM258.649 100.188C258.649 94.5199 256.101 91.3996 252.377 91.3996C248.653 91.3996 246.105 94.5356 246.105 100.188C246.105 105.841 248.708 108.977 252.448 108.977C256.187 108.977 258.649 105.841 258.649 100.188Z" fill="#263238"/>
<path d="M198.127 73.242C199.905 64.9703 194.64 56.8235 186.369 55.0457C178.097 53.2678 169.95 58.5322 168.172 66.8039C166.394 75.0757 171.659 83.2225 179.93 85.0003C188.202 86.7782 196.349 81.5138 198.127 73.242Z" fill="#E0E0E0"/>
<path d="M100.077 191.893C98.9715 191.109 97.6073 190.779 96.3764 190.199C95.1456 189.619 93.9539 188.631 93.8363 187.251C93.6717 185.244 95.8825 183.731 96.0158 181.763C96.1961 178.933 92.3702 177.389 91.8136 174.613C91.351 172.308 93.3032 170.137 93.2248 167.785C93.1464 165.433 91.108 163.684 90.1829 161.513C88.019 156.511 92.0017 150.058 88.9833 145.519C88.0679 144.377 87.0439 143.327 85.9257 142.383C84.8909 141.348 83.9893 140.031 84.1147 138.534L78.4542 135.962C76.5569 133.061 72.2528 132.952 69.0462 134.19C65.8397 135.429 62.9702 137.648 59.6382 138.479C58.0075 138.879 58.2427 136.464 56.5963 136.801C54.4246 137.24 51.7669 139.772 51.1083 141.873C50.4497 144.124 49.9872 146.617 49.1875 148.828C48.3016 151.266 45.6909 152.967 45.44 155.554C45.1577 158.565 48.2702 161.042 48.2781 164.053C48.2781 167.306 44.6873 170.223 45.832 173.273C46.4905 175.013 48.4976 175.946 49.2032 177.671C50.1675 180.023 48.2467 182.673 48.4192 185.236C48.5917 187.8 50.7241 189.682 52.739 191.218C60.4112 197.207 68.9956 201.924 78.1641 205.189C82.139 206.553 86.3256 207.596 90.5121 207.22C94.6987 206.844 98.9088 204.868 101.104 201.246C102.899 198.306 102.884 193.908 100.077 191.893Z" fill="#263238"/>
<path d="M83.8864 137.114C83.3717 135.056 82.3181 133.172 80.834 131.655C79.3499 130.139 77.4888 129.045 75.4419 128.486C73.395 127.927 71.2363 127.924 69.1875 128.476C67.1387 129.028 65.2739 130.115 63.7846 131.626C62.5773 132.849 61.6208 134.347 60.1939 135.303C58.5789 136.393 58.3437 136.087 56.5405 136.785C54.7373 137.483 51.4209 142.524 51.4758 144.468L50.5742 152.982C50.6448 154.974 53.2085 156.118 55.0901 155.444C56.9717 154.77 58.2261 153.029 59.2296 151.305C60.2331 149.58 61.1504 147.714 62.7968 146.609C65.5016 144.703 69.1707 145.362 72.4086 146.021C75.6465 146.679 79.4019 147.157 81.9342 145.025C84.1137 143.151 84.5841 139.882 83.8864 137.114Z" fill="#263238"/>
<path d="M85.6754 149.267C85.3069 143.724 81.6221 136.934 76.1027 137.507L58.8547 141.905C58.0469 141.993 57.3015 142.381 56.7658 142.992C56.2302 143.603 55.9433 144.393 55.9618 145.205L57.8983 186.757H57.7728C57.7728 186.757 64.8288 201.614 76.1811 198.031C78.4391 197.318 76.385 191.712 76.8397 189.172H76.9495C76.9495 188.874 76.9495 188.592 76.9495 188.302C77.1726 186.407 77.1962 184.494 77.02 182.594C77.02 179.239 77.02 177.89 77.02 177.89C77.02 177.89 84.076 176.699 85.5421 167.463C86.3183 162.955 86.0752 155.421 85.6754 149.267Z" fill="#FFBE9D"/>
<path d="M84.2486 156.385C84.2528 156.695 84.1353 156.994 83.9213 157.218C83.7073 157.443 83.4138 157.574 83.1039 157.584C82.9533 157.596 82.8019 157.578 82.6585 157.53C82.5151 157.483 82.3825 157.407 82.2687 157.308C82.1548 157.209 82.0619 157.088 81.9953 156.952C81.9287 156.816 81.8898 156.669 81.8809 156.518C81.8786 156.209 81.9968 155.91 82.2104 155.687C82.424 155.463 82.7163 155.331 83.0255 155.319C83.1764 155.306 83.3282 155.323 83.4721 155.37C83.616 155.417 83.7489 155.493 83.863 155.592C83.9771 155.692 84.0701 155.813 84.1363 155.949C84.2025 156.086 84.2407 156.234 84.2486 156.385Z" fill="#263238"/>
<path d="M84.0448 153.186C83.9037 153.343 83.0021 152.684 81.6928 152.684C80.3835 152.684 79.4898 153.335 79.3408 153.178C79.1918 153.021 79.4192 152.825 79.8269 152.535C80.3786 152.15 81.0357 151.945 81.7085 151.947C82.3701 151.947 83.015 152.155 83.5509 152.543C83.9821 152.88 84.1232 153.115 84.0448 153.186Z" fill="#263238"/>
<path d="M72.1978 156.801C72.2021 157.109 72.0854 157.406 71.8729 157.629C71.6603 157.852 71.3688 157.982 71.061 157.992C70.9102 158.005 70.7583 157.988 70.6145 157.941C70.4706 157.894 70.3377 157.818 70.2236 157.719C70.1095 157.619 70.0165 157.498 69.9503 157.362C69.8841 157.225 69.8459 157.077 69.838 156.926C69.8337 156.618 69.9504 156.321 70.163 156.098C70.3755 155.875 70.667 155.745 70.9748 155.735C71.1256 155.722 71.2775 155.739 71.4214 155.786C71.5652 155.833 71.6982 155.909 71.8123 156.008C71.9264 156.108 72.0193 156.229 72.0856 156.365C72.1518 156.502 72.19 156.65 72.1978 156.801Z" fill="#263238"/>
<path d="M71.5155 153.454C71.3744 153.61 70.4728 152.944 69.1635 152.952C67.8542 152.96 66.9605 153.603 66.8115 153.446C66.6625 153.289 66.8899 153.093 67.2976 152.795C67.8514 152.415 68.5076 152.213 69.1792 152.215C69.8399 152.212 70.4847 152.418 71.0216 152.803C71.4528 153.109 71.5861 153.383 71.5155 153.454Z" fill="#263238"/>
<path d="M76.1656 162.899C76.836 162.683 77.5317 162.553 78.2353 162.515C78.5568 162.515 78.8704 162.421 78.9252 162.194C78.9478 161.858 78.8714 161.523 78.7057 161.229C78.3921 160.445 78.0707 159.622 77.7336 158.752C76.3929 155.232 75.3815 152.331 75.5619 152.276C75.7422 152.221 76.9103 155.036 78.251 158.548C78.5724 159.418 78.886 160.249 79.1761 161.041C79.3823 161.434 79.4434 161.886 79.3486 162.319C79.3015 162.434 79.2291 162.537 79.1368 162.619C79.0444 162.702 78.9346 162.763 78.8155 162.797C78.6358 162.843 78.4519 162.869 78.2667 162.876C77.5699 162.97 76.8642 162.978 76.1656 162.899Z" fill="#263238"/>
<path d="M77.0825 177.968C72.7331 178.044 68.4479 176.913 64.7031 174.699C64.7031 174.699 67.7137 181.034 76.957 180.187L77.0825 177.968Z" fill="#EB996E"/>
<path d="M75.6311 165.974C75.3889 165.667 75.0722 165.428 74.7113 165.278C74.3504 165.128 73.9572 165.074 73.5691 165.119C73.2882 165.145 73.0154 165.228 72.7675 165.363C72.5195 165.498 72.3015 165.681 72.1266 165.903C71.9551 166.115 71.8532 166.375 71.835 166.647C71.8168 166.92 71.883 167.191 72.0247 167.424C72.2328 167.65 72.5028 167.81 72.8011 167.884C73.0994 167.958 73.4128 167.942 73.7024 167.839C74.3026 167.627 74.8544 167.296 75.3253 166.867C75.4688 166.763 75.5912 166.633 75.686 166.483C75.7335 166.414 75.7589 166.332 75.7589 166.248C75.7589 166.164 75.7335 166.082 75.686 166.013" fill="#EB996E"/>
<path d="M72.4163 163.785C72.6202 163.785 72.628 165.157 73.8119 166.137C74.9957 167.117 76.4696 166.96 76.4853 167.156C76.501 167.352 76.156 167.423 75.5367 167.439C74.723 167.447 73.9322 167.17 73.3023 166.655C72.7013 166.163 72.3137 165.458 72.2203 164.687C72.1655 164.122 72.3223 163.777 72.4163 163.785Z" fill="#263238"/>
<path d="M72.127 151.218C72.0016 151.571 70.7237 151.407 69.2341 151.587C67.7445 151.767 66.5293 152.183 66.3254 151.877C66.2392 151.728 66.4509 151.399 66.937 151.093C67.5798 150.663 68.3166 150.394 69.0851 150.309C69.8508 150.219 70.627 150.31 71.3509 150.576C71.8605 150.787 72.127 151.054 72.127 151.218Z" fill="#263238"/>
<path d="M83.5649 149.5C83.3454 149.79 82.4673 149.5 81.4089 149.5C80.3505 149.5 79.4646 149.704 79.2529 149.398C79.1667 149.249 79.3078 148.959 79.692 148.685C80.2173 148.356 80.8284 148.19 81.4479 148.208C82.0675 148.227 82.6677 148.428 83.1729 148.787C83.5414 149.061 83.6669 149.359 83.5649 149.5Z" fill="#263238"/>
<path d="M75.7961 135.17L75.0121 134.166C69.6769 134.779 64.4496 136.114 59.4733 138.133C57.4819 138.917 55.4749 139.905 54.1107 141.567C52.2448 143.848 51.9469 147 51.7587 149.94C50.9747 161.151 50.2769 172.676 53.8049 183.362C54.6517 181.998 56.3137 181.386 57.8896 181.081C59.4654 180.775 61.1197 180.673 62.5936 179.944C63.3681 179.524 64.0468 178.947 64.5867 178.251C65.1265 177.554 65.5157 176.753 65.7296 175.898C66.1479 174.17 65.9453 172.349 65.1573 170.755C64.3027 168.976 62.8053 167.259 63.1502 165.322C63.4952 163.386 65.8629 162.139 66.4117 160.148C67.3603 156.706 62.4917 153.617 63.503 150.183C63.725 149.565 64.0711 148.998 64.52 148.518C64.969 148.038 65.5113 147.655 66.1137 147.392C67.2897 146.804 68.5833 146.475 69.775 145.918C71.7544 144.954 73.3918 143.407 74.4679 141.486C75.544 139.565 76.0075 137.361 75.7961 135.17Z" fill="#263238"/>
<path d="M122.429 205.588L111.625 222.397C112.043 223.01 112.611 223.505 113.276 223.835C113.94 224.164 114.679 224.317 115.42 224.278C118.022 224.169 121.597 217.677 122.021 216.368C122.444 215.059 121.872 213.789 122.256 212.91C122.64 212.032 122.491 209.633 122.491 209.633C122.436 209.774 124.828 206.576 122.429 205.588Z" fill="#FFBE9D"/>
<path d="M108.639 222.391L114.268 200.133C114.354 199.805 114.504 199.498 114.71 199.229C114.916 198.959 115.173 198.734 115.467 198.565L123.644 193.9C123.886 193.765 124.168 193.723 124.439 193.782C124.709 193.841 124.948 193.998 125.111 194.222C125.207 194.355 125.272 194.507 125.304 194.668C125.335 194.829 125.33 194.995 125.291 195.155L119.332 218.581L108.639 222.391Z" fill="#263238"/>
<path d="M105.8 239.638L118.869 215.499L113.945 209.125L95.5527 223.08L100.374 236.345L105.8 239.638Z" fill="#FFA448"/>
<path d="M119.027 220.735C119.14 220.412 119.224 220.079 119.278 219.74C119.364 218.8 119.271 217.853 119.003 216.949V216.894V216.839C119.118 216.656 119.192 216.451 119.22 216.238C119.248 216.024 119.231 215.807 119.168 215.6C118.988 215.135 118.667 214.738 118.251 214.463L118.109 214.369L118.203 214.22L119.685 212.01C119.822 211.833 119.938 211.641 120.03 211.437C120.09 211.245 120.073 211.037 119.983 210.857C119.772 210.441 119.459 210.085 119.074 209.822L118.886 209.689L119.035 209.516C119.434 209.062 119.881 208.607 120.328 208.144C121.093 207.357 121.813 206.527 122.484 205.659C122.788 205.261 123.05 204.832 123.268 204.381C123.37 204.18 123.437 203.962 123.464 203.738C123.464 203.535 123.386 203.425 123.268 203.401H123.221C122.969 203.375 122.715 203.416 122.484 203.519C122.217 203.617 121.955 203.73 121.7 203.856C121.222 204.115 120.775 204.381 120.367 204.64C119.583 205.173 118.839 205.675 118.266 206.09L116.926 207.063C116.776 207.194 116.61 207.305 116.432 207.392C116.554 207.235 116.696 207.095 116.855 206.976C117.145 206.718 117.576 206.357 118.133 205.91C118.69 205.463 119.379 204.946 120.195 204.389C120.61 204.107 121.049 203.825 121.543 203.55C121.796 203.41 122.058 203.287 122.327 203.182C122.631 203.033 122.975 202.986 123.307 203.048H123.26C123.428 203.072 123.581 203.161 123.683 203.296C123.786 203.431 123.831 203.601 123.809 203.77C123.784 204.042 123.709 204.308 123.59 204.554C123.361 205.034 123.082 205.488 122.759 205.91C122.085 206.799 121.357 207.644 120.579 208.442C120.132 208.905 119.685 209.36 119.285 209.807V209.501C119.736 209.81 120.098 210.232 120.336 210.724C120.457 210.993 120.474 211.298 120.383 211.578C120.281 211.811 120.149 212.03 119.991 212.229C119.458 213.013 118.948 213.75 118.47 214.44V214.189C118.942 214.514 119.299 214.981 119.489 215.522C119.562 215.77 119.58 216.03 119.544 216.286C119.507 216.541 119.416 216.786 119.278 217.004V216.894C119.528 217.835 119.579 218.817 119.427 219.779C119.38 220.037 119.299 220.288 119.183 220.524C119.089 220.665 119.042 220.743 119.027 220.735Z" fill="#EB996E"/>
<path d="M125.11 194.213C124.906 194.397 124.679 194.555 124.436 194.683C123.989 194.966 123.338 195.365 122.523 195.851L119.661 197.568L117.968 198.548C117.352 198.846 116.777 199.223 116.259 199.67C115.809 200.163 115.51 200.775 115.397 201.434C115.224 202.092 115.059 202.719 114.903 203.331L114.048 206.537C113.797 207.447 113.585 208.184 113.429 208.686C113.372 208.958 113.279 209.221 113.154 209.47C113.159 209.204 113.201 208.94 113.28 208.686C113.382 208.168 113.554 207.423 113.766 206.506C113.977 205.589 114.252 204.468 114.55 203.276C114.696 202.664 114.853 202.029 115.02 201.371C115.147 200.64 115.479 199.961 115.977 199.411C116.527 198.946 117.133 198.551 117.78 198.235L119.489 197.278L122.39 195.71C123.221 195.256 123.895 194.926 124.365 194.66C124.591 194.476 124.842 194.326 125.11 194.213Z" fill="#455A64"/>
<path d="M119.692 201.818C119.488 202.305 119.464 202.759 119.637 202.83C119.809 202.9 120.115 202.571 120.319 202.085C120.523 201.599 120.546 201.152 120.374 201.074C120.201 200.995 119.895 201.34 119.692 201.818Z" fill="white"/>
<path d="M78.9863 188.324C81.7969 189.336 84.3804 190.893 86.5893 192.904C88.7981 194.915 90.589 197.341 91.8596 200.045L109.406 237.379L124.521 243.51L111.193 247.344L99.3547 238.649L78.9863 188.324Z" fill="#FFA448"/>
<path d="M111.209 247.345L104.843 252.253L73.0754 219.576L54.918 186.773L57.0191 180.674L71.0605 186.522L76.086 193.955L77.2071 184.547L78.1087 185.809L79.5748 189.784C79.5748 189.784 93.3575 201.254 96.3367 210.34C98.7828 217.953 98.038 233.633 99.5668 237.867L111.209 247.345Z" fill="#FAFAFA"/>
<path d="M51.5157 186.349C51.304 186.984 37.9368 192.355 37.3018 197.035C36.6668 201.716 46.9058 237.905 46.9058 237.905L63.1424 252.252H104.843L91.6173 227.486C88.7664 222.145 85.1594 217.244 80.9079 212.935C76.9879 208.968 72.2839 204.06 69.8221 201.136C67.18 197.96 55.9767 183.104 55.9767 183.104L51.5157 186.349Z" fill="#FFA448"/>
<path d="M59.8809 187.831C60.6912 188.122 61.4776 188.475 62.2329 188.889C63.6676 189.595 65.6354 190.582 67.7993 191.703L70.261 192.989L69.9788 193.177C69.8846 191.714 69.9715 190.245 70.2375 188.803C70.3117 188.232 70.4675 187.675 70.7001 187.148C70.6552 187.716 70.582 188.281 70.4805 188.842C70.297 190.269 70.2576 191.711 70.3629 193.146V193.491L70.0572 193.334L67.6268 192.08C65.4629 190.959 63.5186 189.924 62.1388 189.155C61.3534 188.772 60.5986 188.329 59.8809 187.831Z" fill="#263238"/>
<path d="M92.0259 220.838C91.7761 220.503 91.5533 220.149 91.3595 219.78L89.6582 216.824C88.2313 214.323 86.2399 210.881 83.9977 207.11C81.7555 203.339 79.6622 199.96 78.1491 197.514L76.3537 194.613C76.1202 194.267 75.9156 193.903 75.7422 193.523C76.0351 193.832 76.2976 194.168 76.5262 194.527C76.9887 195.186 77.6395 196.15 78.4313 197.357C79.9993 199.764 82.1318 203.127 84.3897 206.906C86.6476 210.685 88.5841 214.15 89.9483 216.683C90.6382 217.953 91.1792 218.98 91.5163 219.701C91.7168 220.066 91.8872 220.446 92.0259 220.838Z" fill="#263238"/>
<g opacity="0.3">
<path d="M85.6048 246.066C88.0274 246.474 90.5127 246.85 92.9274 246.427C95.3421 246.004 97.702 244.444 98.4624 242.107C98.5824 241.345 98.8924 240.625 99.364 240.014C100.297 239.152 101.787 239.685 103.049 239.567C103.751 239.46 104.42 239.192 105.002 238.784C105.584 238.376 106.064 237.839 106.404 237.215C107.078 235.966 107.551 234.62 107.808 233.224C108.011 232.552 108.096 231.849 108.059 231.147C108.034 230.798 107.922 230.46 107.733 230.166C107.544 229.871 107.284 229.629 106.977 229.461C106.02 229.03 104.938 229.657 104.092 230.245C97.2159 235.2 90.9439 240.955 84.6719 246.678" fill="black"/>
</g>
<path d="M101.183 218.439C101.183 218.439 103.574 212.951 104.844 212.167C106.114 211.383 112.457 207.706 112.457 207.706L111.673 210.724L117.874 206.42C118.658 205.91 123.056 201.888 123.84 203.456C124.413 204.585 120.798 207.565 120.312 208.231C119.105 209.885 119.528 209.736 119.528 209.736C119.528 209.736 120.837 210.52 120.179 211.696C119.641 212.598 119.049 213.468 118.407 214.299C118.407 214.299 120.132 214.911 119.128 217.153C119.418 218.084 119.477 219.071 119.301 220.03C119.019 221.708 115.992 224.883 115.992 224.883L100.861 232.064L94.7773 221.747L101.183 218.439Z" fill="#FFBE9D"/>
<path d="M66.0507 208.121L75.7253 228.772L97.2147 219.458C97.2147 219.458 106.113 224.648 104.882 230.324L85.5175 246.176C83.7076 247.663 81.6145 248.767 79.3652 249.421C77.116 250.074 74.7574 250.264 72.4325 249.979C69.9381 249.674 67.54 248.829 65.405 247.503C63.2699 246.178 61.449 244.404 60.0688 242.303L46.0823 221.041L38.2423 208.254C36.9863 206.263 36.3474 203.945 36.406 201.591C36.4646 199.238 37.2181 196.954 38.5715 195.028C39.3107 193.989 40.2487 193.107 41.3312 192.433C44.8357 190.309 55.2159 189.383 66.0507 208.121Z" fill="#FFA448"/>
<path d="M113.624 209.328C112.658 210.161 111.607 210.888 110.488 211.5C109.435 212.225 108.31 212.842 107.133 213.342C108.106 212.52 109.156 211.792 110.269 211.171C111.325 210.449 112.449 209.832 113.624 209.328Z" fill="#EB996E"/>
<path d="M119.669 209.125C118.831 210.227 117.888 211.246 116.855 212.167C115.912 213.179 114.881 214.106 113.773 214.934C114.616 213.836 115.558 212.818 116.588 211.893C117.53 210.88 118.561 209.953 119.669 209.125Z" fill="#EB996E"/>
<path d="M118.862 213.781C118.529 214.465 118.084 215.088 117.545 215.624C116.761 216.572 115.977 217.294 115.93 217.192C116.266 216.506 116.713 215.88 117.255 215.341C117.7 214.736 118.243 214.209 118.862 213.781Z" fill="#EB996E"/>
<path d="M119.168 216.918C119.254 216.989 118.917 217.49 118.493 218.102C118.07 218.713 117.709 219.2 117.608 219.145C117.506 219.09 117.741 218.51 118.18 217.882C118.619 217.255 119.066 216.848 119.168 216.918Z" fill="#EB996E"/>
<path d="M82.2251 248.245C82.2251 248.245 82.2251 248.206 82.3192 248.151L82.625 247.892L83.8402 246.912L88.4814 243.243L105.055 230.276L104.985 230.409C104.993 229.334 104.788 228.268 104.381 227.273C103.916 226.231 103.318 225.253 102.601 224.365C101.034 222.514 99.1818 220.926 97.1133 219.661H97.2936L86.1843 224.49L75.8042 228.927L75.6317 228.998L75.5454 228.833C72.6995 223.228 70.0574 217.959 67.4075 213.381C66.0826 211.084 64.7733 208.959 63.5346 206.975C62.2958 204.992 61.1826 203.157 60.0144 201.574C58.2952 199.022 56.0091 196.902 53.3347 195.38C52.8722 195.106 52.441 194.894 52.0646 194.714C51.6883 194.533 51.3826 194.384 51.116 194.275L50.5358 194.016C50.4673 193.992 50.4015 193.96 50.3398 193.922C52.6659 194.719 54.8166 195.957 56.6746 197.567C58.0069 198.732 59.1988 200.047 60.2261 201.487C61.4021 203.055 62.5781 204.906 63.7933 206.881C65.0085 208.857 66.3726 210.974 67.7133 213.271C70.4102 217.85 73.0523 223.118 75.9139 228.716L75.6552 228.622L85.9962 224.122L97.1054 219.3L97.1995 219.261L97.2858 219.316C99.3923 220.611 101.277 222.236 102.868 224.129C103.601 225.05 104.214 226.058 104.695 227.132C105.114 228.19 105.324 229.319 105.314 230.456V230.535L105.243 230.59L88.5912 243.408L83.8872 246.999L82.6406 247.939L82.3114 248.175L82.2251 248.245Z" fill="#263238"/>
<path d="M74.4253 235.263C74.3077 235.216 74.9036 233.742 75.2093 231.837C75.5151 229.931 75.5229 228.34 75.6484 228.332C75.9147 229.509 75.9147 230.73 75.6484 231.907C75.4994 233.104 75.0812 234.251 74.4253 235.263Z" fill="#263238"/>
<path d="M192.439 295.922L203.674 309.995C203.674 309.995 221.753 303.307 224.058 305.706L197.566 328.497L179.166 307.329L192.439 295.922Z" fill="#FFA448"/>
<g opacity="0.6">
<path d="M194.494 315.89C194.305 316.186 194.233 316.541 194.291 316.887C194.349 317.233 194.533 317.546 194.808 317.764C195.097 317.964 195.451 318.045 195.798 317.991C196.146 317.937 196.459 317.752 196.674 317.474C196.872 317.158 196.946 316.78 196.882 316.412C196.819 316.045 196.621 315.713 196.329 315.482C196.005 315.307 195.625 315.264 195.27 315.362C194.915 315.46 194.612 315.691 194.423 316.008" fill="white"/>
</g>
<g opacity="0.6">
<path d="M197.567 328.497L195.795 326.286L221.871 305.26C221.871 305.26 223.494 304.758 224.074 305.706L197.567 328.497Z" fill="white"/>
</g>
<path d="M203.987 309.491C204.097 309.625 203.501 310.275 203.203 311.201C202.906 312.126 203.054 313.004 202.89 313.051C202.725 313.098 202.278 312.188 202.639 311.028C203 309.868 203.917 309.35 203.987 309.491Z" fill="#263238"/>
<path d="M207.759 308.254C207.892 308.356 207.524 309.038 207.555 309.986C207.586 310.935 207.955 311.594 207.822 311.703C207.688 311.813 206.975 311.147 206.959 309.994C206.944 308.842 207.649 308.113 207.759 308.254Z" fill="#263238"/>
<path d="M212.196 310.228C212.102 310.354 211.365 309.86 211.083 308.872C210.801 307.884 211.177 307.077 211.318 307.132C211.459 307.186 211.42 307.916 211.655 308.7C211.89 309.484 212.314 310.103 212.196 310.228Z" fill="#263238"/>
<path d="M201.071 306.543C201.118 306.708 200.373 307.045 199.683 307.719C198.993 308.394 198.625 309.115 198.46 309.068C198.296 309.021 198.46 308.08 199.244 307.296C200.028 306.512 201.047 306.41 201.071 306.543Z" fill="#263238"/>
<g opacity="0.3">
<path d="M194.667 298.713L196.666 301.222L183.542 312.292L181.645 310.112L194.667 298.713Z" fill="black"/>
</g>
<path d="M198.752 303.776C198.807 303.823 198.36 304.341 197.419 304.905C196.871 305.238 196.284 305.501 195.671 305.689C195.305 305.796 194.933 305.879 194.557 305.94C194.337 305.973 194.112 305.973 193.891 305.94C193.729 305.915 193.579 305.839 193.462 305.723C193.346 305.608 193.268 305.459 193.24 305.297C193.227 305.151 193.248 305.004 193.302 304.867C193.357 304.731 193.443 304.61 193.554 304.513C193.718 304.362 193.906 304.24 194.111 304.153C195.032 303.684 196.056 303.453 197.09 303.478C197.688 303.435 198.285 303.577 198.799 303.886C198.799 303.98 198.125 303.831 197.098 303.886C196.5 303.932 195.91 304.051 195.341 304.239C195.009 304.353 194.687 304.495 194.377 304.662C194.032 304.827 193.789 305.031 193.828 305.219C193.828 305.289 193.828 305.305 193.985 305.336C194.149 305.359 194.315 305.359 194.479 305.336C194.83 305.289 195.178 305.224 195.522 305.14C196.106 304.988 196.675 304.783 197.223 304.529C197.713 304.24 198.224 303.988 198.752 303.776Z" fill="#263238"/>
<path d="M198.744 304.105C198.744 304.16 198.062 303.917 197.294 303.118C196.58 302.364 196.089 301.428 195.875 300.413C195.796 300.176 195.78 299.923 195.828 299.679C195.876 299.434 195.987 299.206 196.149 299.017C196.267 298.916 196.414 298.852 196.569 298.833C196.724 298.815 196.881 298.844 197.019 298.915C197.221 299.011 197.409 299.135 197.576 299.284C197.976 299.629 198.303 300.05 198.538 300.522C198.774 300.994 198.913 301.509 198.948 302.036C199.026 303.165 198.619 303.784 198.564 303.753C198.601 303.197 198.601 302.639 198.564 302.083C198.47 301.505 198.247 300.956 197.913 300.476C197.724 300.195 197.494 299.943 197.231 299.731C196.949 299.488 196.651 299.347 196.565 299.464C196.491 299.59 196.445 299.729 196.43 299.874C196.415 300.019 196.431 300.165 196.478 300.303C196.539 300.644 196.637 300.978 196.768 301.299C196.984 301.861 197.28 302.389 197.646 302.867C198.242 303.659 198.799 304.019 198.744 304.105Z" fill="#263238"/>
<path d="M180.233 339.307L179.535 357.715C179.535 357.715 198.014 364.607 198.218 368.025L162.467 367.954L162.381 339.221L180.233 339.307Z" fill="#FFA448"/>
<g opacity="0.6">
<path d="M168.481 356.147C168.138 356.251 167.844 356.478 167.658 356.784C167.471 357.091 167.404 357.456 167.47 357.809C167.564 358.156 167.787 358.454 168.092 358.643C168.398 358.832 168.764 358.898 169.116 358.828C169.477 358.711 169.783 358.467 169.978 358.141C170.173 357.815 170.243 357.43 170.175 357.056C170.042 356.705 169.779 356.418 169.44 356.256C169.101 356.094 168.713 356.069 168.356 356.186" fill="white"/>
</g>
<g opacity="0.6">
<path d="M162.467 367.955L162.577 365.055L196.782 366.207C196.782 366.207 198.35 366.905 198.194 368.026L162.467 367.955Z" fill="white"/>
</g>
<path d="M180.115 357.504C180.115 357.677 179.237 357.755 178.374 358.288C177.512 358.822 177.057 359.574 176.893 359.504C176.728 359.433 176.994 358.43 178.053 357.771C179.111 357.112 180.154 357.379 180.115 357.504Z" fill="#263238"/>
<path d="M183.863 359.073C183.863 359.237 183.141 359.535 182.546 360.272C181.95 361.009 181.762 361.793 181.605 361.785C181.448 361.777 181.323 360.79 182.083 359.888C182.844 358.986 183.855 358.931 183.863 359.073Z" fill="#263238"/>
<path d="M185.98 363.589C185.824 363.589 185.581 362.75 186.035 361.793C186.49 360.837 187.298 360.461 187.376 360.61C187.454 360.759 186.937 361.26 186.592 362.052C186.247 362.844 186.153 363.573 185.98 363.589Z" fill="#263238"/>
<path d="M179.809 353.326C179.731 353.482 178.931 353.239 177.943 353.326C176.955 353.412 176.187 353.702 176.101 353.553C176.014 353.404 176.751 352.769 177.912 352.722C179.072 352.675 179.895 353.184 179.809 353.326Z" fill="#263238"/>
<g opacity="0.3">
<path d="M180.091 342.953L179.974 346.23L162.404 346.042L162.389 343.079L180.091 342.953Z" fill="black"/>
</g>
<path d="M179.88 349.602C179.296 349.768 178.677 349.768 178.092 349.602C177.062 349.414 176.078 349.031 175.192 348.473C174.989 348.363 174.806 348.22 174.651 348.05C174.541 347.924 174.474 347.766 174.46 347.6C174.446 347.433 174.485 347.267 174.572 347.124C174.663 347.001 174.781 346.901 174.917 346.832C175.053 346.762 175.203 346.726 175.356 346.725C175.582 346.724 175.806 346.756 176.023 346.819C177.054 347.07 178.006 347.577 178.79 348.293C179.613 349.077 179.896 349.712 179.833 349.743C179.77 349.774 179.355 349.257 178.516 348.622C178.032 348.258 177.505 347.956 176.948 347.72C176.616 347.583 176.272 347.475 175.921 347.399C175.544 347.297 175.223 347.297 175.137 347.462C175.051 347.626 175.098 347.556 175.176 347.665C175.294 347.786 175.429 347.889 175.576 347.971C175.876 348.173 176.191 348.354 176.517 348.512C177.071 348.789 177.652 349.013 178.249 349.179C178.801 349.285 179.346 349.426 179.88 349.602Z" fill="#263238"/>
<path d="M179.653 349.852C179.312 349.344 179.147 348.738 179.183 348.127C179.139 347.066 179.383 346.012 179.888 345.078C179.986 344.842 180.142 344.635 180.343 344.477C180.543 344.319 180.781 344.216 181.033 344.176C181.198 344.173 181.361 344.219 181.501 344.308C181.64 344.397 181.75 344.526 181.817 344.678C181.908 344.888 181.971 345.11 182.005 345.336C182.083 345.871 182.053 346.416 181.919 346.94C181.784 347.463 181.547 347.955 181.221 348.386C180.515 349.311 179.786 349.523 179.771 349.46C179.755 349.397 180.327 349.037 180.86 348.151C181.172 347.637 181.367 347.062 181.433 346.465C181.479 346.122 181.479 345.774 181.433 345.43C181.378 345.054 181.237 344.748 181.096 344.787C180.954 344.827 180.609 345.07 180.461 345.368C180.285 345.678 180.138 346.003 180.021 346.34C179.818 346.915 179.699 347.517 179.669 348.127C179.535 349.178 179.747 349.829 179.653 349.852Z" fill="#263238"/>
<path d="M162.107 252.252L197.481 299.261L180.931 313.475L163.903 291.201L162.107 252.252Z" fill="#263238"/>
<path d="M87.2031 254.502C87.2031 254.502 144.122 237.159 149.335 237.379C154.549 237.599 164.443 256.422 164.443 256.422L148.465 255.842C144.365 265.901 136.791 276.226 128.261 286.685L95.5919 285.164L87.2031 254.502Z" fill="#263238"/>
<path d="M133.727 240.798C133.727 240.908 127.91 242.742 120.665 244.898C113.421 247.054 107.518 248.709 107.486 248.599C107.455 248.489 113.296 246.655 120.548 244.506C127.8 242.358 133.696 240.688 133.727 240.798Z" fill="#263238"/>
<path d="M146.952 255.537H162.93C166.819 255.54 170.611 256.748 173.785 258.994C176.96 261.24 179.36 264.415 180.656 268.081C181.902 271.617 182.45 275.36 182.271 279.104L181.025 344.176H159.52L159.128 323.4L156.407 283.91L137.787 284.694L127.234 284.036L146.952 255.537Z" fill="#263238"/>
<path d="M147.43 255.217C147.359 255.68 147.257 256.139 147.124 256.589C146.817 257.832 146.44 259.057 145.996 260.258C145.345 262.041 144.559 263.77 143.644 265.432C142.503 267.471 141.191 269.409 139.724 271.226C137.015 274.458 134.114 277.523 131.037 280.407L128.277 283.064C127.953 283.404 127.602 283.716 127.227 283.997C127.514 283.627 127.826 283.276 128.16 282.947C128.779 282.288 129.728 281.379 130.833 280.203C133.843 277.271 136.703 274.188 139.402 270.967C142.035 267.699 144.165 264.054 145.721 260.156C146.286 258.651 146.717 257.412 146.968 256.55C147.086 256.094 147.24 255.648 147.43 255.217Z" fill="#455A64"/>
<path d="M166.991 255.976C166.02 255.979 165.049 255.932 164.083 255.835C162.295 255.733 159.818 255.663 157.089 255.718C154.361 255.773 151.884 255.937 150.088 256.055C149.125 256.166 148.157 256.215 147.188 256.204C147.441 256.116 147.704 256.06 147.971 256.039C148.465 255.961 149.187 255.867 150.08 255.765C151.868 255.577 154.345 255.365 157.136 255.31C159.491 255.254 161.847 255.335 164.192 255.553C165.086 255.631 165.807 255.733 166.309 255.812C166.542 255.842 166.771 255.897 166.991 255.976Z" fill="#455A64"/>
<path d="M159.425 332.259C159.388 332.081 159.367 331.9 159.362 331.718C159.362 331.319 159.315 330.809 159.276 330.15C159.213 328.747 159.127 326.803 159.025 324.427C158.814 319.598 158.523 312.926 158.061 305.564C157.598 298.202 157.05 291.538 156.65 286.748C156.454 284.396 156.297 282.436 156.187 281.041C156.14 280.398 156.109 279.88 156.077 279.473C156.055 279.29 156.055 279.106 156.077 278.924C156.118 279.102 156.147 279.283 156.164 279.465L156.352 281.033C156.501 282.42 156.697 284.357 156.948 286.725C157.418 291.538 158.006 298.202 158.476 305.541C158.947 312.879 159.182 319.59 159.323 324.427C159.37 326.779 159.417 328.747 159.449 330.15C159.449 330.793 159.449 331.311 159.449 331.718C159.461 331.899 159.453 332.08 159.425 332.259Z" fill="#263238"/>
<path d="M182.302 276.627C182.42 276.627 182.341 291.523 182.137 309.892C181.933 328.261 181.667 343.157 181.557 343.157C181.447 343.157 181.518 328.261 181.73 309.884C181.941 291.507 182.192 276.627 182.302 276.627Z" fill="#455A64"/>
<path d="M164.757 274.197C163.178 274.814 161.643 275.537 160.162 276.361C158.758 277.316 157.42 278.363 156.156 279.497C156.398 279.05 156.716 278.649 157.097 278.313C158.813 276.562 160.935 275.261 163.275 274.527C163.746 274.332 164.248 274.221 164.757 274.197Z" fill="#263238"/>
<g opacity="0.3">
<path d="M127.234 284.004C131.578 284.788 136.337 283.478 140.053 281.158C143.764 278.838 146.454 275.195 147.579 270.966C148.057 269.092 148.199 267.148 148.677 265.274C149.054 263.35 150.081 261.615 151.585 260.358C153.404 259.002 157.857 258.139 159.222 256.321C159.222 256.054 153.906 256.666 152.126 256.768C150.182 256.869 146.928 257.363 146.999 257.136C146.484 259.02 145.856 260.871 145.117 262.679C141.244 269.335 132.738 279.143 127.234 284.035" fill="black"/>
</g>
<path d="M38.541 330.018L44.5935 369.586H50.5911L47.6354 330.174L38.541 330.018Z" fill="#263238"/>
<path d="M145 330.174V369.586H151.335L153.695 330.018L145 330.174Z" fill="#263238"/>
<path d="M37.4666 207.76C37.4666 207.76 28.9915 208.097 26.3965 211.68C21.8258 217.952 24.3973 223.377 24.1386 225.227C23.8798 227.078 38.5406 330.017 38.5406 330.017H44.5774L153.663 331.028L158.932 318.304L156.407 283.878L127.235 284.004C127.235 284.004 115.286 249.712 104.844 247.422C97.7875 245.854 81.1589 246.419 71.1315 246.936C68.6818 247.063 66.2418 246.543 64.0574 245.426C61.8731 244.31 60.0215 242.638 58.6894 240.578L37.4666 207.76Z" fill="#455A64"/>
<path d="M134.18 325.973C134.18 325.973 133.577 326.051 132.416 326.106C131.256 326.161 129.547 326.2 127.336 326.216C122.906 326.279 116.485 326.294 108.52 326.286C92.5184 326.286 70.2136 326.153 45.0159 325.934H44.8512V325.777C44.3965 323.621 43.934 321.402 43.4636 319.152C42.9932 316.902 42.5463 314.597 42.0837 312.284C36.5957 284.358 33.397 258.768 31.6722 240.211C30.802 230.936 30.2845 223.41 29.9552 218.204C29.8141 215.617 29.6965 213.602 29.626 212.214C29.626 211.54 29.5711 211.023 29.5476 210.646C29.524 210.27 29.5476 210.113 29.5476 210.113C29.5476 210.113 29.5476 210.294 29.6024 210.646C29.6573 210.999 29.6652 211.532 29.7122 212.214C29.8063 213.594 29.9474 215.609 30.1199 218.196C30.4962 223.394 31.0607 230.913 31.9623 240.188C33.7106 258.721 36.9328 284.288 42.4052 312.198C42.8651 314.513 43.3251 316.8 43.785 319.058C44.2449 321.316 44.7075 323.524 45.1727 325.683L44.9767 325.526L108.481 326.02L127.297 326.067H132.377C132.957 326.067 133.388 326.02 133.686 326.02L134.18 325.973Z" fill="#263238"/>
<path d="M133.028 330.847C133.023 330.681 133.039 330.515 133.075 330.353C133.13 329.993 133.193 329.53 133.279 328.966C133.366 328.401 133.499 327.625 133.593 326.763C133.687 325.9 133.844 324.928 133.914 323.838C133.985 322.749 134.126 321.573 134.173 320.287C134.22 319.001 134.259 317.645 134.283 316.202C134.267 313.08 134.084 309.96 133.734 306.857C133.356 303.758 132.817 300.68 132.119 297.637C131.46 294.83 130.755 292.337 130.073 290.26C129.767 289.217 129.414 288.3 129.132 287.476C128.85 286.653 128.591 285.956 128.348 285.391L127.862 284.074C127.794 283.924 127.747 283.766 127.721 283.604C127.808 283.742 127.882 283.889 127.94 284.043L128.497 285.328C128.74 285.893 129.03 286.583 129.281 287.398C129.532 288.213 129.955 289.131 130.284 290.173C130.998 292.235 131.743 294.736 132.425 297.551C133.145 300.605 133.697 303.696 134.079 306.81C134.428 309.934 134.601 313.075 134.596 316.218C134.596 317.668 134.549 319.04 134.447 320.326C134.346 321.612 134.259 322.804 134.142 323.885C134.024 324.967 133.875 325.955 133.75 326.81C133.624 327.664 133.499 328.378 133.373 329.005C133.248 329.632 133.162 330.024 133.091 330.385C133.086 330.541 133.065 330.696 133.028 330.847Z" fill="#263238"/>
<path d="M53.0684 257.051C53.2023 256.914 53.3494 256.791 53.5074 256.682C53.8445 256.424 54.2914 256.094 54.8245 255.671L55.7888 254.958C56.1495 254.715 56.5728 254.479 57.004 254.213C57.9779 253.584 58.9914 253.018 60.0381 252.519L61.857 251.665C62.4842 251.351 63.182 251.124 63.8797 250.834C64.5775 250.544 65.3066 250.246 66.0749 250.003L68.4269 249.219C71.9793 248.173 75.6107 247.418 79.2853 246.961C82.9471 246.477 86.6384 246.252 90.3319 246.287C92.0332 246.287 93.6482 246.396 95.1613 246.451C96.6744 246.506 98.07 246.686 99.3479 246.867C101.363 247.126 103.363 247.495 105.338 247.972L106.906 248.411C107.093 248.457 107.277 248.517 107.454 248.592C107.261 248.576 107.069 248.542 106.882 248.49L105.267 248.121C103.872 247.831 101.825 247.447 99.2773 247.157C98.0072 246.992 96.6039 246.914 95.1064 246.788C93.609 246.663 91.9704 246.624 90.2927 246.663C86.6226 246.654 82.956 246.887 79.3167 247.361C75.6715 247.817 72.0673 248.556 68.5367 249.572L66.1847 250.301C65.4007 250.536 64.7029 250.85 63.9973 251.085C63.2917 251.32 62.6018 251.586 61.9746 251.869C61.3474 252.151 60.7359 252.449 60.1557 252.723C59.1109 253.207 58.0952 253.752 57.1138 254.354C56.6748 254.605 56.2592 254.832 55.8829 255.06L54.9108 255.749L53.5544 256.69C53.4036 256.825 53.2409 256.946 53.0684 257.051Z" fill="#263238"/>
<path d="M117.922 262.641C117.922 262.641 117.922 262.727 117.843 262.899C117.765 263.072 117.71 263.315 117.577 263.644C117.17 264.573 116.629 265.437 115.969 266.208C114.904 267.417 113.626 268.422 112.198 269.171C111.305 269.629 110.377 270.014 109.423 270.324C108.342 270.646 107.235 270.871 106.115 270.998C103.546 271.218 100.959 271.07 98.4313 270.559C95.6952 270.073 92.8492 269.281 89.8073 268.56C86.6803 267.734 83.4612 267.307 80.2268 267.29C78.5258 267.314 76.8367 267.578 75.2092 268.074C73.5355 268.59 71.9609 269.385 70.5523 270.426C67.8103 272.553 65.5004 275.185 63.7472 278.18C61.9518 281.025 60.5328 283.965 59.0432 286.686C57.6646 289.287 56.0198 291.739 54.1353 294.001C52.4875 295.998 50.432 297.621 48.1064 298.76C46.1755 299.69 44.0709 300.206 41.9284 300.273C40.3163 300.312 38.7139 300.012 37.2244 299.395C36.6762 299.166 36.1511 298.885 35.6564 298.556C35.2488 298.25 34.8724 297.983 34.6529 297.772L34.112 297.199C33.9865 297.066 33.9316 296.996 33.9316 296.996C33.9316 296.996 34.01 297.05 34.1355 297.168L34.7078 297.709C34.9665 297.928 35.3193 298.179 35.7192 298.493C36.2171 298.801 36.7419 299.063 37.2872 299.277C38.7611 299.855 40.3386 300.122 41.9206 300.061C44.0214 299.985 46.0841 299.478 47.9809 298.571C50.2586 297.437 52.2705 295.834 53.8844 293.867C55.7409 291.604 57.3592 289.155 58.7139 286.56C60.2113 283.848 61.6304 280.9 63.4179 278.023C65.1983 274.992 67.5429 272.331 70.3249 270.183C71.769 269.119 73.3799 268.303 75.0916 267.768C76.7587 267.27 78.487 267.006 80.2268 266.984C83.4965 267.005 86.7501 267.442 89.9092 268.285C92.9276 269.022 95.7657 269.853 98.4705 270.324C100.971 270.834 103.53 270.995 106.075 270.802C107.177 270.687 108.265 270.475 109.329 270.167C110.274 269.873 111.195 269.503 112.081 269.062C113.493 268.339 114.765 267.37 115.836 266.2C116.737 265.147 117.444 263.942 117.922 262.641Z" fill="white"/>
<path d="M157.794 312.816L157.449 312.902L156.438 313.106C155.905 313.237 155.381 313.402 154.87 313.6C154.535 313.72 154.207 313.861 153.89 314.023C153.518 314.185 153.156 314.371 152.808 314.58C150.995 315.624 149.309 316.873 147.782 318.304C145.964 319.95 144.019 321.965 141.636 323.949C140.397 325.005 139.045 325.923 137.606 326.685C136.837 327.091 136.038 327.437 135.215 327.72L133.921 328.072C133.479 328.172 133.031 328.248 132.581 328.3C130.694 328.529 128.782 328.434 126.928 328.017C124.971 327.559 123.08 326.856 121.299 325.924C117.519 323.888 114.021 321.365 110.895 318.421C107.602 315.434 104.239 312.275 100.319 309.688C98.3987 308.398 96.3195 307.362 94.1333 306.606C92.0109 305.885 89.7707 305.574 87.532 305.689C85.3722 305.838 83.2523 306.347 81.26 307.194C79.343 308.009 77.4947 308.976 75.7328 310.087C72.2676 312.228 69.1159 314.517 65.9093 316.265C58.5664 320.216 50.1797 321.793 41.9032 320.781C40.1204 320.577 38.358 320.223 36.6348 319.723C36.7534 319.734 36.8712 319.752 36.9876 319.778L37.9989 319.997C38.8848 320.185 40.2098 320.428 41.9189 320.624C46.7665 321.16 51.6708 320.823 56.3994 319.629C59.6567 318.801 62.7965 317.565 65.7447 315.952C68.8807 314.203 72.0637 311.914 75.5368 309.75C77.313 308.625 79.1771 307.644 81.1111 306.818C83.1415 305.943 85.3037 305.413 87.5085 305.25C89.7975 305.128 92.0887 305.445 94.2588 306.183C96.4789 306.946 98.588 308.001 100.531 309.319C104.498 311.93 107.869 315.105 111.154 318.092C114.252 321.017 117.717 323.526 121.464 325.556C123.212 326.508 125.074 327.233 127.006 327.712C128.818 328.129 130.688 328.229 132.534 328.01C132.976 327.961 133.416 327.887 133.851 327.79L135.121 327.461C135.929 327.182 136.715 326.844 137.473 326.449C138.899 325.708 140.238 324.808 141.463 323.768C143.815 321.816 145.807 319.848 147.641 318.186C149.179 316.742 150.882 315.484 152.714 314.439C153.069 314.233 153.439 314.052 153.819 313.898C154.14 313.733 154.473 313.595 154.815 313.482C155.347 313.298 155.889 313.144 156.438 313.02L157.457 312.855L157.794 312.816Z" fill="white"/>
<path d="M48.686 227.141C48.66 227.478 48.5888 227.81 48.4743 228.128C48.2131 229.017 47.861 229.876 47.4238 230.692C45.9993 233.426 43.7707 235.658 41.0385 237.087C38.3063 238.515 35.2019 239.072 32.1436 238.681C31.2261 238.574 30.3222 238.372 29.4467 238.077C29.1175 237.988 28.8013 237.856 28.5059 237.685C29.7105 238.01 30.9366 238.248 32.175 238.399C35.1703 238.706 38.1898 238.126 40.8587 236.733C43.5277 235.339 45.7287 233.192 47.1886 230.559C47.7647 229.455 48.265 228.313 48.686 227.141Z" fill="white"/>
<path d="M294.039 124.123H145.816C142.811 124.123 140.375 126.559 140.375 129.564V169.689C140.375 172.694 142.811 175.13 145.816 175.13H294.039C297.044 175.13 299.48 172.694 299.48 169.689V129.564C299.48 126.559 297.044 124.123 294.039 124.123Z" fill="white"/>
<path d="M294 175.129C294.353 175.106 294.703 175.064 295.051 175.004C296.07 174.797 297.007 174.298 297.748 173.569C298.299 173.044 298.727 172.405 299.002 171.695C299.322 170.834 299.453 169.915 299.387 168.998C299.387 166.999 299.387 164.686 299.387 162.091C299.387 156.886 299.387 150.527 299.387 143.15C299.387 139.457 299.387 135.506 299.387 131.319C299.455 130.27 299.392 129.217 299.198 128.183C298.921 127.131 298.325 126.19 297.493 125.489C296.661 124.788 295.633 124.36 294.549 124.263C293.444 124.216 292.276 124.263 291.115 124.263L145.824 124.326C144.969 124.327 144.126 124.537 143.371 124.938C142.618 125.337 141.972 125.913 141.489 126.615C141.015 127.319 140.714 128.125 140.611 128.967C140.54 129.798 140.611 130.708 140.611 131.57V142.005C140.611 148.915 140.611 155.71 140.611 162.389V167.383C140.611 168.214 140.611 169.046 140.611 169.861C140.643 170.655 140.852 171.431 141.222 172.134C141.593 172.828 142.115 173.43 142.748 173.897C143.381 174.364 144.111 174.683 144.884 174.831C145.664 174.918 146.451 174.947 147.236 174.918H168.56L233.86 174.965L277.881 175.027L289.853 175.067H292.989H294.047C294.047 175.067 293.695 175.067 292.989 175.067H289.853H277.881L233.86 175.129L168.56 175.176H147.267C146.448 175.211 145.627 175.179 144.813 175.082C143.548 174.855 142.399 174.202 141.557 173.23C140.715 172.259 140.232 171.028 140.188 169.743C140.187 168.904 140.188 168.089 140.188 167.258V131.429C140.188 130.543 140.188 129.704 140.227 128.779C140.329 127.866 140.653 126.993 141.171 126.234C141.689 125.475 142.385 124.855 143.198 124.428C144.012 123.996 144.919 123.77 145.84 123.77L291.092 123.832C292.26 123.832 293.397 123.832 294.549 123.832C295.687 123.936 296.765 124.387 297.638 125.123C298.512 125.859 299.138 126.845 299.434 127.948C299.574 128.477 299.637 129.024 299.622 129.571V131.139C299.622 135.326 299.622 139.277 299.622 142.97C299.622 150.347 299.622 156.705 299.622 161.911C299.622 164.506 299.622 166.819 299.622 168.818C299.687 169.749 299.548 170.683 299.214 171.554C298.869 172.398 298.319 173.142 297.614 173.719C296.909 174.297 296.071 174.69 295.176 174.863C294.917 174.91 294.655 174.939 294.392 174.949L294 175.129Z" fill="#263238"/>
<path d="M288.018 134.589C287.966 134.589 287.915 134.57 287.877 134.534C287.841 134.496 287.82 134.445 287.82 134.393C287.82 134.34 287.841 134.29 287.877 134.252L291.797 130.496C291.835 130.46 291.886 130.439 291.938 130.439C291.991 130.439 292.041 130.46 292.079 130.496C292.115 130.533 292.135 130.582 292.135 130.633C292.135 130.685 292.115 130.734 292.079 130.771L288.159 134.526C288.142 134.546 288.12 134.562 288.095 134.572C288.071 134.583 288.045 134.589 288.018 134.589Z" fill="#263238"/>
<path d="M291.923 134.604C291.898 134.605 291.873 134.6 291.85 134.591C291.827 134.581 291.807 134.567 291.79 134.549L287.909 130.762C287.89 130.744 287.875 130.723 287.865 130.7C287.855 130.676 287.85 130.651 287.85 130.625C287.85 130.599 287.855 130.574 287.865 130.55C287.875 130.527 287.89 130.505 287.909 130.488C287.946 130.452 287.995 130.432 288.046 130.432C288.098 130.432 288.147 130.452 288.183 130.488L292.103 134.282C292.139 134.319 292.159 134.368 292.159 134.419C292.159 134.471 292.139 134.52 292.103 134.557C292.08 134.579 292.051 134.596 292.019 134.604C291.988 134.612 291.955 134.612 291.923 134.604Z" fill="#263238"/>
<path d="M174.66 159.537L173.092 157.271C172.128 155.906 171.61 154.277 171.61 152.606V147.51C171.61 145.524 170.898 143.604 169.604 142.098C168.309 140.592 166.518 139.6 164.554 139.302V136.871C164.554 136.574 164.436 136.289 164.226 136.078C164.016 135.868 163.73 135.75 163.433 135.75C163.286 135.75 163.141 135.779 163.005 135.835C162.87 135.892 162.747 135.975 162.643 136.079C162.54 136.183 162.458 136.307 162.402 136.443C162.347 136.579 162.319 136.724 162.32 136.871V139.223C160.298 139.463 158.435 140.436 157.083 141.957C155.73 143.479 154.983 145.443 154.982 147.479V152.755C154.98 154.569 154.37 156.33 153.249 157.757L151.877 159.505L174.66 159.537Z" fill="#FFA448"/>
<path d="M162.062 163.236C162.682 163.487 163.36 163.56 164.019 163.446C164.679 163.333 165.293 163.037 165.793 162.593C166.222 162.198 166.546 161.702 166.734 161.151L160.094 161.104C160.256 161.576 160.514 162.01 160.853 162.377C161.192 162.744 161.604 163.037 162.062 163.236Z" fill="#FFA448"/>
<path d="M264.209 141.354C264.209 141.464 246.389 141.558 224.405 141.558C202.422 141.558 184.602 141.464 184.602 141.354C184.602 141.244 202.422 141.15 224.405 141.15C246.389 141.15 264.209 141.244 264.209 141.354Z" fill="#263238"/>
<path d="M282.931 150.991C282.931 151.101 260.908 151.195 233.751 151.195C206.593 151.195 184.562 151.101 184.562 150.991C184.562 150.881 206.577 150.787 233.751 150.787C260.924 150.787 282.931 150.873 282.931 150.991Z" fill="#E0E0E0"/>
<path d="M282.931 156.8C282.931 156.909 260.908 157.003 233.751 157.003C206.593 157.003 184.562 156.909 184.562 156.8C184.562 156.69 206.577 156.596 233.751 156.596C260.924 156.596 282.931 156.643 282.931 156.8Z" fill="#E0E0E0"/>
<path d="M268.583 183.096H170.152C167.147 183.096 164.711 185.532 164.711 188.537V212.7C164.711 215.704 167.147 218.14 170.152 218.14H268.583C271.588 218.14 274.024 215.704 274.024 212.7V188.537C274.024 185.532 271.588 183.096 268.583 183.096Z" fill="#FAFAFA"/>
<path d="M268.583 218.139C268.583 218.139 268.826 218.139 269.297 218.061C269.995 217.969 270.667 217.737 271.272 217.379C272.079 216.908 272.749 216.235 273.218 215.427C273.687 214.619 273.937 213.703 273.946 212.769V210.268C273.946 206.724 273.946 202.428 273.907 197.387C273.907 194.878 273.907 192.189 273.907 189.343C273.944 188.633 273.886 187.921 273.734 187.226C273.557 186.521 273.234 185.862 272.785 185.29C272.326 184.693 271.744 184.203 271.078 183.851C270.413 183.499 269.68 183.295 268.928 183.251L170.144 183.298C168.983 183.297 167.854 183.681 166.935 184.391C166.015 185.1 165.357 186.095 165.064 187.218C164.926 187.78 164.871 188.358 164.899 188.935V190.715C164.899 191.899 164.899 193.067 164.899 194.251V211.499C164.899 212.063 164.899 212.636 164.899 213.169C164.957 213.708 165.092 214.236 165.299 214.737C165.726 215.723 166.443 216.555 167.355 217.124C168.266 217.693 169.33 217.97 170.403 217.92H183.237L227.635 217.959L257.576 218.03L265.714 218.069H267.831H268.552C268.552 218.069 268.301 218.069 267.831 218.069H265.714H257.576L227.635 218.131L183.237 218.179H170.434C169.281 218.232 168.139 217.933 167.159 217.323C166.179 216.712 165.407 215.819 164.946 214.76C164.728 214.223 164.586 213.659 164.523 213.083C164.476 212.487 164.523 211.938 164.523 211.373V188.943C164.494 188.331 164.555 187.719 164.703 187.124C165.016 185.907 165.725 184.829 166.719 184.061C167.713 183.293 168.935 182.878 170.191 182.883L268.975 182.953C270.153 183.029 271.277 183.477 272.184 184.232C273.092 184.987 273.736 186.011 274.024 187.156C274.181 187.871 274.239 188.604 274.197 189.335C274.197 192.181 274.197 194.87 274.197 197.379C274.197 202.397 274.197 206.716 274.197 210.26C274.197 211.138 274.197 211.977 274.197 212.761C274.187 213.505 274.024 214.239 273.718 214.917C273.237 215.979 272.433 216.863 271.421 217.442C270.804 217.795 270.121 218.019 269.414 218.1C269.139 218.136 268.861 218.149 268.583 218.139Z" fill="#263238"/>
<path d="M266.154 190.348C266.127 190.347 266.101 190.341 266.077 190.331C266.052 190.32 266.031 190.304 266.013 190.285C265.994 190.267 265.979 190.246 265.969 190.222C265.958 190.199 265.953 190.173 265.953 190.148C265.953 190.122 265.958 190.096 265.969 190.073C265.979 190.049 265.994 190.028 266.013 190.01L268.702 187.431C268.72 187.412 268.742 187.397 268.766 187.387C268.79 187.376 268.816 187.371 268.843 187.371C268.869 187.371 268.895 187.376 268.919 187.387C268.944 187.397 268.966 187.412 268.984 187.431C269.02 187.468 269.04 187.517 269.04 187.568C269.04 187.62 269.02 187.669 268.984 187.705L266.287 190.285C266.27 190.304 266.25 190.32 266.227 190.33C266.204 190.341 266.179 190.347 266.154 190.348Z" fill="#263238"/>
<path d="M268.834 190.354C268.782 190.355 268.731 190.335 268.693 190.299L266.027 187.696C265.999 187.659 265.985 187.612 265.989 187.565C265.992 187.518 266.012 187.474 266.046 187.44C266.079 187.407 266.123 187.387 266.17 187.383C266.217 187.38 266.264 187.394 266.302 187.422L268.967 190.025C269.003 190.062 269.024 190.111 269.024 190.162C269.024 190.213 269.003 190.263 268.967 190.299C268.931 190.333 268.884 190.353 268.834 190.354Z" fill="#263238"/>
<path d="M188.262 207.423L187.164 205.855C186.504 204.915 186.149 203.796 186.145 202.648V199.136C186.144 197.774 185.656 196.457 184.769 195.423C183.882 194.389 182.654 193.707 181.308 193.499V191.829C181.308 191.621 181.225 191.422 181.078 191.275C180.931 191.128 180.732 191.045 180.524 191.045C180.316 191.045 180.117 191.128 179.97 191.275C179.823 191.422 179.74 191.621 179.74 191.829V193.475C178.351 193.639 177.071 194.306 176.142 195.351C175.212 196.396 174.699 197.745 174.699 199.144V202.766C174.7 204.011 174.283 205.22 173.515 206.2L172.566 207.407L188.262 207.423Z" fill="#455A64"/>
<path d="M179.606 209.97C180.032 210.141 180.498 210.19 180.95 210.113C181.403 210.035 181.825 209.834 182.17 209.531C182.466 209.259 182.687 208.916 182.813 208.535H178.25C178.367 208.854 178.547 209.145 178.781 209.392C179.014 209.639 179.295 209.835 179.606 209.97Z" fill="#455A64"/>
<path d="M249.768 194.932C249.768 195.042 237.522 195.136 222.414 195.136C207.307 195.136 195.068 195.042 195.068 194.932C195.068 194.823 207.314 194.729 222.414 194.729C237.514 194.729 249.768 194.815 249.768 194.932Z" fill="#263238"/>
<path d="M262.639 201.55C262.639 201.667 247.508 201.753 228.849 201.753C210.19 201.753 195.051 201.667 195.051 201.55C195.051 201.432 210.174 201.346 228.849 201.346C247.524 201.346 262.639 201.44 262.639 201.55Z" fill="#E0E0E0"/>
<path d="M262.639 205.516C262.639 205.626 247.508 205.72 228.849 205.72C210.19 205.72 195.051 205.626 195.051 205.516C195.051 205.407 210.174 205.312 228.849 205.312C247.524 205.312 262.639 205.407 262.639 205.516Z" fill="#E0E0E0"/>
<path d="M268.168 223.588H170.56C167.555 223.588 165.119 226.024 165.119 229.029V252.925C165.119 255.93 167.555 258.366 170.56 258.366H268.168C271.173 258.366 273.609 255.93 273.609 252.925V229.029C273.609 226.024 271.173 223.588 268.168 223.588Z" fill="#FAFAFA"/>
<path d="M268.168 258.375C268.168 258.375 268.411 258.375 268.873 258.304C269.566 258.21 270.232 257.978 270.833 257.622C271.82 257.055 272.602 256.19 273.068 255.152C273.357 254.494 273.514 253.786 273.53 253.067V250.59C273.53 247.077 273.53 242.789 273.53 237.81C273.53 235.317 273.53 232.652 273.53 229.829C273.571 229.124 273.513 228.417 273.358 227.728C273.184 227.03 272.867 226.375 272.425 225.807C271.971 225.213 271.396 224.722 270.738 224.368C270.079 224.014 269.353 223.804 268.607 223.753L170.607 223.792C169.449 223.8 168.327 224.188 167.412 224.896C166.496 225.604 165.84 226.594 165.542 227.712C165.399 228.268 165.338 228.841 165.362 229.414V234.682C165.362 239.35 165.362 243.939 165.362 248.449V251.813C165.362 252.369 165.362 252.942 165.362 253.467C165.416 254.006 165.548 254.534 165.754 255.035C166.174 256.015 166.882 256.844 167.783 257.413C168.685 257.983 169.737 258.266 170.803 258.226H183.535L227.588 258.265L257.294 258.336L265.369 258.375H267.47H268.183C268.183 258.375 267.94 258.375 267.47 258.375H265.369L257.294 258.414L227.588 258.477L183.535 258.524H170.787C169.645 258.562 168.517 258.255 167.551 257.644C166.585 257.033 165.825 256.146 165.37 255.098C165.151 254.564 165.008 254.001 164.946 253.428C164.946 252.847 164.946 252.299 164.946 251.734C164.946 250.621 164.946 249.5 164.946 248.371V229.382C164.922 228.775 164.988 228.167 165.142 227.579C165.468 226.374 166.183 225.309 167.175 224.551C168.167 223.793 169.381 223.383 170.63 223.385L268.63 223.471C269.415 223.526 270.18 223.749 270.872 224.123C271.564 224.498 272.168 225.016 272.644 225.643C273.102 226.245 273.435 226.933 273.624 227.665C273.774 228.376 273.832 229.104 273.797 229.829C273.797 232.652 273.797 235.317 273.797 237.81C273.797 242.789 273.797 247.077 273.758 250.59C273.758 251.46 273.758 252.291 273.758 253.067C273.731 254.013 273.46 254.937 272.971 255.747C272.482 256.558 271.791 257.228 270.967 257.693C270.352 258.044 269.671 258.266 268.967 258.343C268.702 258.376 268.435 258.386 268.168 258.375Z" fill="#263238"/>
<path d="M265.777 230.793C265.75 230.793 265.724 230.787 265.7 230.777C265.675 230.766 265.654 230.75 265.636 230.731C265.617 230.713 265.602 230.692 265.592 230.668C265.581 230.645 265.576 230.619 265.576 230.594C265.576 230.568 265.581 230.542 265.592 230.519C265.602 230.495 265.617 230.474 265.636 230.456L268.309 227.893C268.347 227.856 268.398 227.836 268.45 227.836C268.503 227.836 268.553 227.856 268.591 227.893C268.627 227.929 268.647 227.979 268.647 228.03C268.647 228.081 268.627 228.13 268.591 228.167L265.918 230.731C265.9 230.751 265.879 230.767 265.854 230.778C265.83 230.789 265.803 230.794 265.777 230.793Z" fill="#263238"/>
<path d="M268.458 230.8C268.406 230.801 268.355 230.781 268.317 230.746L265.675 228.143C265.637 228.106 265.616 228.056 265.615 228.004C265.615 227.952 265.635 227.902 265.671 227.864C265.707 227.827 265.757 227.805 265.809 227.805C265.861 227.804 265.912 227.824 265.949 227.86L268.591 230.448C268.627 230.484 268.647 230.533 268.647 230.585C268.647 230.636 268.627 230.685 268.591 230.722C268.559 230.765 268.511 230.793 268.458 230.8Z" fill="#263238"/>
<path d="M188.498 247.745L187.377 246.177C186.717 245.246 186.364 244.134 186.365 242.993V239.528C186.365 238.174 185.88 236.865 184.998 235.837C184.117 234.809 182.897 234.13 181.559 233.923V232.268C181.559 232.06 181.477 231.861 181.33 231.714C181.183 231.567 180.983 231.484 180.775 231.484C180.568 231.484 180.368 231.567 180.221 231.714C180.074 231.861 179.991 232.06 179.991 232.268V233.899C178.615 234.064 177.346 234.728 176.426 235.765C175.505 236.803 174.997 238.141 174.997 239.528V243.127C174.997 244.363 174.583 245.564 173.821 246.537L172.951 247.745H188.498Z" fill="#E0E0E0"/>
<path d="M179.905 250.269C180.329 250.437 180.791 250.485 181.241 250.408C181.691 250.33 182.11 250.13 182.453 249.83C182.745 249.559 182.963 249.219 183.088 248.842H178.564C178.678 249.159 178.856 249.449 179.087 249.694C179.317 249.94 179.596 250.135 179.905 250.269Z" fill="#E0E0E0"/>
<path d="M249.532 235.341C249.532 235.458 237.38 235.544 222.39 235.544C207.4 235.544 195.248 235.458 195.248 235.341C195.248 235.223 207.4 235.137 222.39 235.137C237.38 235.137 249.532 235.199 249.532 235.341Z" fill="#263238"/>
<path d="M262.327 241.911C262.327 242.028 247.306 242.115 228.788 242.115C210.269 242.115 195.248 242.028 195.248 241.911C195.248 241.793 210.262 241.707 228.788 241.707C247.313 241.707 262.327 241.801 262.327 241.911Z" fill="#E0E0E0"/>
<path d="M262.327 245.846C262.327 245.956 247.306 246.05 228.788 246.05C210.269 246.05 195.248 245.956 195.248 245.846C195.248 245.737 210.262 245.643 228.788 245.643C247.313 245.643 262.327 245.737 262.327 245.846Z" fill="#E0E0E0"/>
<path d="M348.456 213.82C340.342 218.03 334.117 225.267 329.64 233.232C325.164 241.198 322.279 249.955 319.448 258.634L316.924 303.408C326.371 287.336 333.952 268.449 335.999 249.931L329.727 249.367C333.944 248.724 337.48 245.674 339.73 242.052C341.98 238.43 343.141 234.259 344.27 230.151L336.587 231.28C342.64 227.202 346.891 220.949 348.456 213.82Z" fill="#455A64"/>
<path d="M348.456 213.82C340.342 218.03 334.117 225.267 329.64 233.232C325.164 241.198 322.279 249.955 319.448 258.634L316.924 303.408C326.371 287.336 333.952 268.449 335.999 249.931L329.727 249.367C333.944 248.724 337.48 245.674 339.73 242.052C341.98 238.43 343.141 234.259 344.27 230.151L336.587 231.28C342.64 227.202 346.891 220.949 348.456 213.82Z" fill="#FFA448"/>
<g opacity="0.3">
<path d="M348.456 213.82C340.342 218.03 334.117 225.267 329.64 233.232C325.164 241.198 322.279 249.955 319.448 258.634L316.924 303.408C326.371 287.336 333.952 268.449 335.999 249.931L329.727 249.367C333.944 248.724 337.48 245.674 339.73 242.052C341.98 238.43 343.141 234.259 344.27 230.151L336.587 231.28C342.64 227.202 346.891 220.949 348.456 213.82Z" fill="black"/>
</g>
<path d="M315.529 313.905C315.529 313.905 295.028 289.374 295.263 265.948H303.55C303.55 265.948 294.549 260.036 295.263 256.72C295.976 253.404 296.212 240.868 296.212 240.868L303.785 242.765C303.785 242.765 298.109 239.927 297.395 235.427C296.682 230.927 299.05 210.111 299.05 210.111C299.05 210.111 308.277 219.817 311.115 229.751C313.953 239.684 321.409 251.279 319.222 281.565C317.035 311.851 315.529 313.905 315.529 313.905Z" fill="#FFA448"/>
<path d="M325.916 316.218C325.916 316.218 348.126 301.424 353.058 282.545L346.401 280.734C346.401 280.734 354.931 277.943 355.08 275.128C355.229 272.314 357.785 262.177 357.785 262.177L351.286 262.044C351.286 262.044 356.468 261.001 358.028 257.543C359.588 254.086 362.207 236.83 362.207 236.83C362.207 236.83 352.666 242.608 348.213 249.978C343.759 257.347 335.229 265.031 330.361 289.86C325.492 314.689 325.916 316.218 325.916 316.218Z" fill="#FFA448"/>
<path d="M304.646 231.508C304.684 231.587 304.711 231.672 304.725 231.759C304.772 231.955 304.835 232.206 304.905 232.543C305.062 233.233 305.282 234.213 305.564 235.451C305.846 236.69 306.183 238.266 306.544 240.069C306.904 241.872 307.328 243.926 307.751 246.2C308.629 250.747 309.562 256.188 310.511 262.241C311.459 268.293 312.361 274.965 313.184 281.99C314.007 289.014 314.611 295.725 315.089 301.833C315.568 307.94 315.873 313.451 316.062 318.077C316.171 320.39 316.226 322.483 316.281 324.349C316.336 326.215 316.375 327.775 316.383 329.053C316.391 330.331 316.383 331.327 316.383 332.032V332.816C316.39 332.905 316.39 332.994 316.383 333.083C316.369 332.995 316.369 332.905 316.383 332.816C316.383 332.62 316.383 332.369 316.383 332.032C316.383 331.319 316.32 330.323 316.273 329.045C316.226 327.767 316.179 326.168 316.101 324.341C316.022 322.515 315.944 320.421 315.811 318.069C315.591 313.444 315.223 307.94 314.752 301.84C314.282 295.741 313.615 289.038 312.808 282.013C312 274.988 311.083 268.332 310.174 262.28C309.264 256.227 308.347 250.786 307.508 246.231C307.108 243.958 306.724 241.896 306.363 240.093C306.003 238.289 305.721 236.729 305.462 235.459C305.203 234.189 305.023 233.233 304.882 232.535C304.827 232.221 304.78 231.97 304.748 231.751C304.707 231.673 304.672 231.592 304.646 231.508Z" fill="#263238"/>
<path d="M312.683 328.927C312.683 328.927 293.922 307.65 288.104 294.784L292.495 292.91C289.312 293.436 286.042 292.064 283.573 289.986C281.103 287.908 279.284 285.172 277.505 282.475L283.298 281.495C277.977 279.973 273.446 276.461 270.645 271.688C277.481 272.816 283.667 276.572 288.763 281.26C292.806 285.151 296.481 289.408 299.739 293.977C301.375 296.174 302.801 298.52 303.996 300.986C307.148 307.501 312.69 321.111 312.683 328.927Z" fill="#FFA448"/>
<path d="M353.356 249.217C353.336 249.294 353.307 249.367 353.27 249.437L352.987 250.056C352.713 250.621 352.329 251.412 351.851 252.408C350.847 254.454 349.42 257.426 347.703 261.118C344.254 268.496 339.714 278.79 335.23 290.377C330.745 301.965 327.186 312.643 324.771 320.42C323.564 324.34 322.615 327.476 321.98 329.656C321.667 330.722 321.416 331.561 321.235 332.164L321.024 332.815C321.006 332.891 320.98 332.965 320.945 333.035C320.95 332.958 320.963 332.881 320.985 332.807C321.024 332.635 321.079 332.415 321.149 332.141C321.306 331.529 321.533 330.683 321.816 329.609C322.404 327.406 323.305 324.23 324.473 320.334C326.825 312.494 330.338 301.824 334.814 290.22C339.291 278.617 343.901 268.331 347.421 260.985C349.177 257.308 350.643 254.352 351.694 252.361C352.211 251.373 352.611 250.589 352.909 250.009L353.23 249.405C353.309 249.311 353.348 249.209 353.356 249.217Z" fill="#263238"/>
<path d="M314.275 338.053C314.225 337.928 314.193 337.796 314.181 337.661C314.126 337.348 314.063 336.979 313.992 336.532C313.844 335.552 313.6 334.133 313.256 332.393C312.911 330.652 312.432 328.598 311.813 326.333C311.194 324.067 310.402 321.629 309.461 319.088C308.52 316.548 307.454 314.196 306.443 312.087C305.431 309.978 304.412 308.12 303.518 306.599C302.624 305.078 301.88 303.84 301.339 303.001L300.735 302.029C300.654 301.921 300.591 301.802 300.547 301.676C300.547 301.676 300.649 301.77 300.806 301.982L301.48 302.907C302.068 303.691 302.86 304.922 303.785 306.435C304.71 307.948 305.745 309.814 306.803 311.923C307.862 314.032 308.904 316.407 309.869 318.979C310.833 321.55 311.593 324.004 312.221 326.278C312.848 328.551 313.271 330.629 313.577 332.385C313.883 334.141 314.087 335.568 314.173 336.556C314.22 337.011 314.251 337.387 314.283 337.701C314.297 337.818 314.294 337.937 314.275 338.053Z" fill="#263238"/>
<path d="M339.033 333.043H297.975V341.416H339.033V333.043Z" fill="#455A64"/>
<path d="M301.887 341.416L306.324 369.585H331.13L335.269 341.416H301.887Z" fill="#455A64"/>
<path d="M336.508 341.417C336.508 341.542 328.739 341.636 319.166 341.636C309.594 341.636 301.816 341.542 301.816 341.417C301.816 341.291 309.586 341.197 319.166 341.197C328.747 341.197 336.508 341.299 336.508 341.417Z" fill="#263238"/>
<path d="M95.35 133.35L96.2045 123.221C91.2785 119.947 87.7553 114.948 86.3276 109.208C84.8998 103.468 85.6708 97.4017 88.4889 92.2012C91.3071 87.0008 95.9685 83.0426 101.557 81.1046C107.145 79.1667 113.257 79.3892 118.689 81.7284C124.122 84.0677 128.483 88.3544 130.916 93.746C133.348 99.1377 133.676 105.244 131.835 110.865C129.993 116.486 126.116 121.215 120.965 124.122C115.814 127.03 109.761 127.905 103.997 126.576L95.35 133.35Z" fill="white"/>
<path d="M95.3505 133.351L104.061 126.64L104.147 126.569L104.045 126.522L103.99 126.656C105.841 127.085 107.735 127.295 109.635 127.283C111.897 127.255 114.143 126.907 116.307 126.248C117.506 125.886 118.671 125.419 119.788 124.852C120.352 124.547 120.948 124.257 121.52 123.935L123.214 122.822C128.115 119.257 131.478 113.963 132.622 108.012C133.302 104.705 133.259 101.29 132.496 98.0005C131.638 94.557 130.032 91.3449 127.792 88.5925C125.474 85.695 122.499 83.3918 119.113 81.8736L117.789 81.317C117.349 81.121 116.879 81.0112 116.432 80.8622C115.985 80.7133 115.531 80.5486 115.068 80.4624L113.68 80.1645C113.221 80.0584 112.755 79.9876 112.285 79.9528L110.889 79.7882H109.494C109.032 79.7607 108.568 79.7607 108.106 79.7882C104.491 79.9932 100.968 81.0058 97.7965 82.7517C94.7906 84.3926 92.1834 86.6759 90.1604 89.4392C86.5393 94.4134 84.9599 100.585 85.7465 106.687C86.1279 109.261 86.8998 111.762 88.0357 114.104C89.0392 116.127 90.3306 117.994 91.8695 119.647C93.1499 121.023 94.5895 122.241 96.158 123.277V123.214C95.6562 129.69 95.374 132.857 95.374 133.351C95.421 132.857 95.7111 129.698 96.2991 123.23V123.19C94.7497 122.149 93.3263 120.93 92.0576 119.56C90.5409 117.908 89.2684 116.046 88.2788 114.033C87.1644 111.709 86.4084 109.23 86.0365 106.679C85.2719 100.637 86.8453 94.5316 90.4348 89.6117C92.4422 86.8862 95.0218 84.6331 97.9925 83.0104C101.129 81.2894 104.612 80.2929 108.185 80.0939C108.641 80.0665 109.1 80.0665 109.557 80.0939H110.936L112.316 80.2586C112.778 80.2946 113.237 80.3653 113.688 80.4702L115.06 80.7603C115.523 80.8466 115.954 81.0269 116.409 81.1523C116.863 81.2778 117.318 81.411 117.749 81.607L119.051 82.1558C122.396 83.6548 125.336 85.9284 127.628 88.7885C129.831 91.5189 131.405 94.7018 132.238 98.1102C133.011 101.342 133.083 104.703 132.449 107.965C131.301 113.862 127.955 119.103 123.088 122.626L121.418 123.731C120.846 124.061 120.258 124.343 119.701 124.649C118.594 125.212 117.44 125.679 116.252 126.044C114.11 126.708 111.885 127.061 109.643 127.095C107.755 127.119 105.871 126.921 104.029 126.507L103.982 126.64V126.515C98.4865 130.874 95.7581 133.03 95.3505 133.351Z" fill="#263238"/>
<path d="M105.965 91.4772L106.694 105.244C106.725 105.787 106.953 106.3 107.336 106.687C107.718 107.074 108.229 107.308 108.772 107.345C109.339 107.382 109.898 107.2 110.336 106.837C110.773 106.474 111.055 105.957 111.124 105.393L112.794 91.5791C112.822 91.3327 112.799 91.0829 112.724 90.8462C112.649 90.6096 112.525 90.3915 112.36 90.2063C112.195 90.0211 111.992 89.873 111.765 89.7718C111.539 89.6706 111.293 89.6186 111.045 89.6191H107.69C107.452 89.6207 107.218 89.6709 107 89.7666C106.783 89.8623 106.587 90.0014 106.426 90.1755C106.264 90.3495 106.14 90.5548 106.061 90.7787C105.981 91.0026 105.949 91.2403 105.965 91.4772Z" fill="#FFA448"/>
<path d="M112.372 114.269C112.163 114.899 111.771 115.452 111.247 115.86C110.724 116.267 110.09 116.51 109.428 116.558C108.766 116.606 108.105 116.456 107.528 116.128C106.951 115.799 106.485 115.307 106.187 114.714C105.89 114.12 105.776 113.452 105.858 112.793C105.941 112.135 106.217 111.516 106.651 111.014C107.086 110.512 107.66 110.151 108.3 109.975C108.94 109.799 109.618 109.818 110.247 110.027C111.091 110.308 111.789 110.913 112.188 111.708C112.586 112.503 112.652 113.424 112.372 114.269Z" fill="#FFA448"/>
</svg>
