<svg width="392" height="392" viewBox="0 0 392 392" fill="none" xmlns="http://www.w3.org/2000/svg">
<path d="M25.8719 143.409C25.8719 143.409 20.9876 145.384 26.6559 155.765C32.3242 166.145 36.1502 171.249 36.1502 171.249C36.1502 171.249 37.1615 173.663 35.1153 174.095C33.069 174.526 28.5297 173.922 27.683 176.447C26.8362 178.971 28.757 181.488 32.6535 183.55C36.55 185.612 44.9153 190.425 45.6758 190.864C46.4362 191.303 47.1732 192.432 45.8326 192.934C44.4919 193.436 34.3391 194.776 35.2564 199.551C36.1737 204.326 47.965 208.285 49.2508 208.74C50.5366 209.194 50.8188 209.727 50.7639 210.425C50.709 211.123 47.2202 211.248 44.3508 211.742C41.4814 212.236 38.2356 213.31 38.9961 216.031C39.7566 218.751 46.8361 224.302 63.6842 225.509L71.5242 225.564L75.6246 218.83C83.4646 203.887 82.5316 194.941 80.6265 192.864C78.7214 190.786 76.1028 192.965 74.1585 195.145C72.2142 197.324 70.2934 200.178 69.6505 199.849C69.0076 199.52 68.7332 199.002 69.0233 197.669C69.3134 196.337 72.1593 184.24 68.6313 180.931C65.1033 177.623 58.5647 185.541 57.4122 186.419C56.2598 187.297 55.7188 186.051 55.7423 185.188C55.7658 184.326 56.103 174.659 56.4166 170.292C56.7302 165.925 55.7188 162.962 53.0218 162.319C50.3249 161.676 48.5295 165.87 47.0791 167.376C45.6287 168.881 44.1156 166.741 44.1156 166.741C44.1156 166.741 41.7871 160.798 35.962 150.528C30.1369 140.257 25.77 143.472 25.77 143.472" fill="#F7F7F7"/>
<path d="M71.9467 227.407C67.7053 219.849 60.3749 206.286 54.0323 194.675C47.6897 183.064 41.9273 172.566 37.7173 164.984C35.6161 161.198 33.907 158.14 32.7232 156.008L31.359 153.569L31.0141 152.934C30.9357 152.785 30.9043 152.707 30.9043 152.707L31.0376 152.919L31.4061 153.546L32.8016 155.961C34.0089 158.062 35.7416 161.119 37.8584 164.898C42.1077 172.456 47.8857 182.93 54.2361 194.557C60.5865 206.184 67.8934 219.747 72.127 227.36" fill="#F7F7F7"/>
<path d="M33.9707 177.56C34.158 177.588 34.3418 177.635 34.5195 177.701C34.8723 177.803 35.3741 177.967 35.9934 178.171C37.2243 178.594 38.9177 179.214 40.768 179.927L45.472 181.785L46.9067 182.334C47.0888 182.392 47.2648 182.469 47.432 182.561C47.2419 182.539 47.0552 182.494 46.8753 182.428C46.5304 182.318 46.0286 182.162 45.4093 181.942C44.1784 181.511 42.4928 180.876 40.6425 180.155L35.8915 178.336L34.4489 177.787C34.2808 177.731 34.1202 177.655 33.9707 177.56Z" fill="#F7F7F7"/>
<path d="M47.9888 182.045C47.9261 182.045 49.0551 178.477 50.5055 174.134C51.9559 169.791 53.1789 166.294 53.2416 166.294C53.3043 166.294 52.1832 169.861 50.7328 174.212C49.2824 178.564 48.0594 182.068 47.9888 182.045Z" fill="#F7F7F7"/>
<path d="M56.9336 200.312C57.0171 200.137 57.1196 199.971 57.2394 199.818L58.1331 198.525C58.9171 197.435 59.9285 195.914 61.0104 194.205C62.0923 192.496 63.0253 190.912 63.6838 189.759L64.4678 188.395C64.5537 188.222 64.6589 188.059 64.7814 187.909C64.7185 188.091 64.6398 188.267 64.5462 188.434C64.3894 188.772 64.1386 189.218 63.825 189.838C63.2056 191.014 62.257 192.613 61.2064 194.33C60.1558 196.047 59.0582 197.56 58.2664 198.626C57.8744 199.16 57.5451 199.591 57.3099 199.881C57.2013 200.038 57.0751 200.183 56.9336 200.312Z" fill="#F7F7F7"/>
<path d="M43.3633 199.049C43.5404 199.029 43.7193 199.029 43.8964 199.049L45.3468 199.128C46.5777 199.198 48.2711 199.324 50.137 199.473C52.003 199.622 53.6964 199.771 54.9194 199.888L56.3698 200.045C56.5476 200.054 56.7239 200.083 56.8951 200.131C56.7186 200.16 56.5385 200.16 56.362 200.131L54.9116 200.053C53.6807 199.974 51.9873 199.857 50.1214 199.708C48.2554 199.559 46.562 199.41 45.339 199.285L43.9042 199.136C43.7211 199.129 43.5395 199.1 43.3633 199.049Z" fill="#F7F7F7"/>
<path d="M49.2031 216.18C49.4327 216.16 49.6635 216.16 49.893 216.18L51.7511 216.274C53.3191 216.368 55.4986 216.502 57.8977 216.674C60.2967 216.847 62.4606 217.011 64.0286 217.137L65.8866 217.309C66.1162 217.322 66.3443 217.353 66.5687 217.403C66.3418 217.424 66.1135 217.424 65.8866 217.403L64.0207 217.309C62.4527 217.223 60.2732 217.082 57.882 216.917C55.4908 216.753 53.3113 216.58 51.7433 216.447L49.8852 216.282C49.6551 216.27 49.4267 216.236 49.2031 216.18Z" fill="#F7F7F7"/>
<path d="M66.1621 217.261C66.2635 217.038 66.387 216.825 66.5306 216.626C66.8128 216.195 67.1735 215.623 67.6125 214.941C68.5219 213.522 69.7607 211.554 71.0778 209.343C72.3949 207.132 73.5317 205.101 74.3471 203.628C74.7391 202.914 75.0683 202.326 75.3192 201.879C75.4256 201.657 75.5515 201.444 75.6956 201.244C75.6159 201.477 75.5162 201.703 75.3976 201.918C75.1938 202.342 74.888 202.953 74.5039 203.706C73.7199 205.203 72.6066 207.25 71.2895 209.468C69.9724 211.687 68.7023 213.639 67.7536 215.035C67.2832 215.732 66.8912 216.297 66.6168 216.681C66.4793 216.885 66.3273 217.079 66.1621 217.261Z" fill="#F7F7F7"/>
<path d="M237.026 129.454C224.655 118.658 223.487 100.979 225.697 85.432C226.066 82.8369 226.074 80.0616 227.563 77.9056C229.053 75.7496 232.103 74.503 234.321 75.8515C236.156 76.9726 236.752 79.3168 237.638 81.2925C238.818 83.9304 240.721 86.1808 243.126 87.784C244.694 88.8189 246.685 89.5715 248.418 88.8424C250.77 87.8467 251.397 84.7734 251.663 82.1784C252.15 77.3489 252.638 72.5195 253.13 67.6901C253.396 65.095 253.671 62.4529 254.745 60.0774C255.819 57.7019 257.841 55.6165 260.374 55.1931C262.906 54.7697 265.807 56.5181 266.058 59.1131C266.036 60.1946 265.945 61.2736 265.783 62.3432C265.736 63.4329 266.113 64.6952 267.1 65.0793C268.088 65.4635 269.217 64.8755 270.072 64.2013C273.027 61.8493 275.207 58.7133 277.261 55.5302C279.315 52.3472 281.33 49.1093 284.066 46.5221C286.802 43.9349 290.401 42.0297 294.133 42.2179C297.865 42.4061 301.565 45.1265 302.114 48.8662C302.663 52.6059 300.13 56.0947 297.496 58.7995C293.584 62.8194 289.11 66.2523 284.215 68.9915C283.279 69.3831 282.493 70.0645 281.973 70.9358C281.189 72.6057 282.671 74.4952 284.325 75.2478C286.191 76.0945 288.308 76.1259 290.299 76.5806C292.29 77.0353 294.384 78.1486 294.94 80.1478C295.724 82.9153 293.208 85.4477 290.832 87.0313C286.074 90.2005 280.808 92.5288 275.262 93.9149C273.278 94.4088 271.209 94.8008 269.531 95.9768C267.853 97.1528 266.669 99.3715 267.398 101.3C268.127 103.229 270.448 104.068 272.487 103.911C274.525 103.754 276.407 102.868 278.406 102.343C282.106 101.386 286.677 102.123 288.598 105.479C289.876 107.666 289.703 110.496 288.692 112.825C287.565 115.104 285.995 117.135 284.074 118.799C277.7 124.964 269.807 129.33 261.197 131.453C252.628 133.428 244.898 133.374 237.011 129.493" fill="#F7F7F7"/>
<path d="M242.107 120.109C245.615 111.888 249.591 103.875 254.016 96.1103L257.458 89.9794C258.595 87.9723 259.724 85.981 260.939 84.0994C263.293 80.495 265.842 77.022 268.575 73.6957C271.17 70.497 273.742 67.5648 276.164 64.8365C278.587 62.1082 280.915 59.6229 283.126 57.4355C286.592 53.9713 290.327 50.7886 294.298 47.9178C295.702 46.8986 296.815 46.1459 297.575 45.6442L298.446 45.0797C298.542 45.0128 298.644 44.9551 298.751 44.9072L298.469 45.1267L297.63 45.7304C296.886 46.2557 295.788 47.0319 294.408 48.0824C290.491 51.0061 286.799 54.219 283.362 57.6943C281.174 59.8895 278.877 62.3983 276.462 65.1266C274.048 67.8549 271.492 70.8027 268.92 73.9936C266.207 77.3137 263.676 80.7788 261.339 84.3738C260.124 86.2475 258.987 88.2232 257.874 90.2381L254.432 96.3611C250.016 104.111 246.037 112.102 242.515 120.297" fill="#F7F7F7"/>
<path d="M261.072 84.0915C260.987 83.7211 260.942 83.3426 260.939 82.9626C260.876 82.2334 260.829 81.175 260.782 79.8658C260.696 77.2472 260.696 73.5938 260.72 69.6346C260.743 65.6754 260.68 62.0298 260.555 59.4426C260.492 58.1411 260.437 57.0906 260.382 56.3536C260.341 55.9758 260.341 55.5946 260.382 55.2168C260.501 55.5799 260.572 55.9567 260.594 56.3379C260.704 57.0592 260.814 58.1176 260.916 59.419C261.135 62.0376 261.237 65.691 261.221 69.6581C261.206 73.6251 261.166 77.161 261.151 79.8501V82.9861C261.161 83.3562 261.134 83.7265 261.072 84.0915Z" fill="#F7F7F7"/>
<path d="M295.051 81.4569C294.605 81.5042 294.156 81.5042 293.71 81.4569C292.848 81.4569 291.593 81.4098 290.057 81.4569C286.968 81.4569 282.703 81.6058 278.007 81.9821C273.31 82.3585 269.077 82.8837 266.027 83.3541C264.498 83.5737 263.267 83.7853 262.413 83.9343C261.976 84.0369 261.529 84.0947 261.08 84.1068C261.502 83.9479 261.938 83.8272 262.382 83.7461C263.22 83.5501 264.451 83.2836 265.972 83.0092C269.022 82.4604 273.263 81.8802 277.975 81.4961C281.993 81.1644 286.026 81.0362 290.057 81.1119C291.625 81.1119 292.856 81.2295 293.718 81.3001C294.166 81.311 294.612 81.3635 295.051 81.4569Z" fill="#F7F7F7"/>
<path d="M242.586 119.536C242.503 119.402 242.44 119.257 242.398 119.105C242.28 118.768 242.139 118.321 241.958 117.843C241.582 116.737 241.08 115.13 240.485 113.139C239.285 109.148 237.811 103.59 236.267 97.4589C234.722 91.3281 233.287 85.6989 232.182 81.7241C231.633 79.7797 231.186 78.1725 230.849 77.0201L230.496 75.6559C230.444 75.5095 230.412 75.3564 230.402 75.2012C230.485 75.3355 230.548 75.4806 230.59 75.6324C230.708 75.9695 230.849 76.4164 231.03 76.8946C231.406 77.9922 231.908 79.6073 232.503 81.5986C233.703 85.5892 235.177 91.1477 236.729 97.2786C238.282 103.409 239.701 108.999 240.806 113.013C241.355 114.958 241.802 116.565 242.139 117.717L242.492 119.011C242.551 119.18 242.583 119.357 242.586 119.536Z" fill="#F7F7F7"/>
<path d="M288.379 110.042C288.232 110.106 288.076 110.151 287.917 110.175L286.584 110.473L281.684 111.492C277.537 112.362 271.837 113.624 265.534 115.028C259.23 116.431 253.507 117.639 249.344 118.423C247.266 118.815 245.581 119.112 244.413 119.293L243.064 119.497C242.908 119.534 242.746 119.547 242.586 119.536C242.734 119.472 242.889 119.427 243.048 119.403L244.373 119.112L249.281 118.085C253.421 117.223 259.128 115.961 265.432 114.55C271.735 113.138 277.458 111.939 281.613 111.155C283.699 110.763 285.384 110.465 286.553 110.285L287.901 110.081C288.058 110.048 288.219 110.035 288.379 110.042Z" fill="#F7F7F7"/>
<path d="M316.492 162.006H361.376C361.376 162.006 357.401 154.785 345.853 155.836C334.822 156.839 334.258 152.284 328.652 151.72C323.046 151.155 318.366 155.459 316.492 162.006Z" fill="#F7F7F7"/>
<path d="M47.4941 57.2316H116.369C116.369 57.2316 110.277 46.138 92.5114 47.753C75.5849 49.321 74.7225 42.265 66.1141 41.434C57.5058 40.6029 50.3636 47.1729 47.4941 57.2316Z" fill="#F7F7F7"/>
<path d="M317.842 323.368H373.796C373.796 323.368 368.849 314.141 354.447 315.528C340.688 316.806 339.99 310.989 332.997 310.275C326.003 309.562 320.17 315.011 317.842 323.368Z" fill="#F7F7F7"/>
<path d="M83.6445 80.5246H118.979C118.979 80.5246 115.843 74.8406 106.757 75.6717C98.0701 76.4557 97.6311 72.8728 93.2172 72.4338C88.8033 71.9947 85.1185 75.3738 83.6445 80.5246Z" fill="#F7F7F7"/>
<path d="M300.178 338.554H335.505C335.505 338.554 332.369 332.87 323.282 333.693C314.603 334.477 314.156 330.894 309.743 330.455C305.329 330.016 301.644 333.403 300.178 338.554Z" fill="#F7F7F7"/>
<path d="M322.654 243.205C322.467 242.567 322.409 241.898 322.482 241.237C322.427 240.578 322.504 239.914 322.709 239.285C322.907 239.918 322.968 240.586 322.889 241.245C322.948 241.908 322.868 242.575 322.654 243.205Z" fill="#F7F7F7"/>
<path d="M322.223 251.029C322.043 249.717 322.139 248.382 322.505 247.109C322.685 248.421 322.589 249.757 322.223 251.029Z" fill="#F7F7F7"/>
<path d="M321.29 258.814C321.176 258.161 321.195 257.492 321.345 256.847C321.369 256.183 321.523 255.53 321.8 254.926C321.923 255.581 321.905 256.254 321.745 256.901C321.724 257.563 321.57 258.214 321.29 258.814Z" fill="#F7F7F7"/>
<path d="M319.918 266.56C319.843 265.9 319.902 265.23 320.091 264.593C320.151 263.933 320.346 263.293 320.663 262.711C320.738 263.369 320.679 264.036 320.491 264.671C320.431 265.333 320.236 265.976 319.918 266.56Z" fill="#F7F7F7"/>
<path d="M318.1 274.157C318.151 272.838 318.48 271.546 319.064 270.362C319.012 271.681 318.684 272.974 318.1 274.157Z" fill="#F7F7F7"/>
<path d="M315.826 281.66C315.825 280.996 315.961 280.339 316.226 279.731C316.362 279.083 316.629 278.469 317.01 277.928C317.011 278.591 316.875 279.248 316.61 279.856C316.479 280.506 316.212 281.12 315.826 281.66Z" fill="#F7F7F7"/>
<path d="M313.113 289.014C313.156 288.353 313.332 287.707 313.631 287.117C313.801 286.475 314.106 285.876 314.524 285.36C314.481 286.024 314.305 286.671 314.007 287.265C313.832 287.903 313.528 288.498 313.113 289.014Z" fill="#F7F7F7"/>
<path d="M309.971 296.195C310.052 295.537 310.265 294.902 310.598 294.329C310.815 293.702 311.153 293.124 311.594 292.628C311.517 293.289 311.303 293.927 310.966 294.502C310.753 295.128 310.414 295.704 309.971 296.195Z" fill="#F7F7F7"/>
<path d="M306.402 303.181C306.527 302.53 306.777 301.909 307.139 301.354C307.649 300.398 308.135 299.661 308.237 299.716C308.12 300.369 307.869 300.991 307.5 301.542C306.998 302.499 306.543 303.236 306.402 303.181Z" fill="#F7F7F7"/>
<path d="M302.436 309.938C302.594 309.294 302.882 308.688 303.282 308.159C303.839 307.234 304.372 306.528 304.474 306.591C304.314 307.235 304.026 307.84 303.627 308.37C303.063 309.296 302.53 310.001 302.436 309.938Z" fill="#F7F7F7"/>
<path d="M298.076 316.454C298.278 315.821 298.6 315.232 299.025 314.721C299.636 313.835 300.209 313.153 300.303 313.232C300.109 313.864 299.789 314.451 299.362 314.957C298.743 315.85 298.17 316.517 298.076 316.454Z" fill="#F7F7F7"/>
<path d="M293.35 322.703C293.579 322.08 293.934 321.512 294.392 321.033C295.059 320.178 295.67 319.543 295.756 319.614C295.843 319.684 295.38 320.398 294.714 321.284C294.047 322.17 293.436 322.773 293.35 322.703Z" fill="#F7F7F7"/>
<path d="M288.261 328.661C288.175 328.583 288.685 327.877 289.398 327.093C290.112 326.309 290.762 325.682 290.849 325.752C290.935 325.823 290.425 326.536 289.704 327.36C288.983 328.183 288.34 328.732 288.261 328.661Z" fill="#F7F7F7"/>
<path d="M282.828 334.305C282.749 334.227 283.298 333.521 284.059 332.737C284.819 331.953 285.501 331.413 285.587 331.491C285.674 331.569 285.117 332.275 284.349 333.059C283.58 333.843 282.906 334.384 282.828 334.305Z" fill="#F7F7F7"/>
<path d="M277.081 339.629C277.003 339.543 277.599 338.892 278.398 338.171C279.198 337.449 279.919 336.924 279.966 337.01C280.013 337.096 279.457 337.747 278.649 338.469C277.842 339.19 277.152 339.715 277.081 339.629Z" fill="#F7F7F7"/>
<path d="M271.029 344.607C270.958 344.513 271.585 343.902 272.432 343.227C272.907 342.766 273.47 342.403 274.086 342.161C274.165 342.247 273.53 342.867 272.683 343.541C272.211 344.006 271.648 344.369 271.029 344.607Z" fill="#F7F7F7"/>
<path d="M264.694 349.217C264.631 349.123 265.297 348.543 266.175 347.923C266.675 347.487 267.26 347.159 267.892 346.959C267.963 347.053 267.296 347.633 266.411 348.253C265.91 348.689 265.326 349.017 264.694 349.217Z" fill="#F7F7F7"/>
<path d="M258.107 353.451C258.045 353.357 258.742 352.816 259.675 352.243C260.203 351.842 260.806 351.549 261.447 351.381C261.51 351.483 260.812 352.016 259.879 352.588C259.355 352.996 258.752 353.289 258.107 353.451Z" fill="#F7F7F7"/>
<path d="M251.278 357.293C251.223 357.191 251.953 356.697 252.901 356.18C253.446 355.793 254.065 355.526 254.72 355.396C254.258 355.871 253.707 356.249 253.097 356.509C252.551 356.893 251.932 357.159 251.278 357.293Z" fill="#F7F7F7"/>
<path d="M244.23 360.719C244.719 360.272 245.292 359.928 245.916 359.707C246.487 359.364 247.122 359.143 247.782 359.057C247.293 359.508 246.717 359.855 246.089 360.076C245.521 360.417 244.888 360.636 244.23 360.719Z" fill="#F7F7F7"/>
<path d="M236.996 363.729C237.51 363.306 238.105 362.994 238.744 362.811C239.334 362.507 239.98 362.326 240.642 362.278C240.125 362.696 239.531 363.008 238.893 363.196C238.303 363.499 237.658 363.68 236.996 363.729Z" fill="#F7F7F7"/>
<path d="M229.594 366.301C230.133 365.922 230.744 365.655 231.389 365.517C231.995 365.241 232.652 365.097 233.318 365.094C232.175 365.757 230.907 366.176 229.594 366.325V366.301Z" fill="#F7F7F7"/>
<path d="M222.061 368.434C222.617 368.075 223.242 367.835 223.895 367.728C224.519 367.496 225.183 367.392 225.847 367.422C225.286 367.778 224.66 368.017 224.005 368.128C223.384 368.359 222.723 368.463 222.061 368.434Z" fill="#F7F7F7"/>
<path d="M214.4 370.111C214.982 369.79 215.622 369.59 216.282 369.523C216.915 369.325 217.582 369.258 218.242 369.327C217.662 369.652 217.022 369.854 216.36 369.923C215.726 370.116 215.06 370.18 214.4 370.111Z" fill="#F7F7F7"/>
<path d="M206.662 371.334C207.25 371.045 207.89 370.875 208.544 370.832C209.188 370.677 209.857 370.651 210.512 370.754C209.273 371.214 207.949 371.404 206.631 371.311L206.662 371.334Z" fill="#F7F7F7"/>
<path d="M198.861 372.102C199.476 371.852 200.134 371.727 200.798 371.734C201.45 371.613 202.12 371.629 202.766 371.781C202.151 372.031 201.492 372.153 200.829 372.141C200.178 372.267 199.507 372.254 198.861 372.102Z" fill="#F7F7F7"/>
<path d="M191.029 372.4C191.655 372.179 192.32 372.094 192.981 372.149C193.641 372.066 194.31 372.117 194.949 372.298C194.321 372.518 193.653 372.606 192.989 372.557C192.332 372.636 191.666 372.582 191.029 372.4Z" fill="#F7F7F7"/>
<path d="M183.189 372.275C183.828 372.089 184.499 372.041 185.157 372.134C185.819 372.09 186.483 372.181 187.109 372.4C185.808 372.631 184.473 372.588 183.189 372.275Z" fill="#F7F7F7"/>
<path d="M175.373 371.671C176.023 371.542 176.691 371.542 177.341 371.671C178.006 371.666 178.665 371.797 179.277 372.055C178.626 372.189 177.953 372.189 177.302 372.055C176.639 372.062 175.982 371.932 175.373 371.671Z" fill="#F7F7F7"/>
<path d="M167.604 370.62C168.921 370.54 170.24 370.737 171.476 371.2C170.822 371.308 170.152 371.278 169.509 371.114C168.847 371.08 168.199 370.912 167.604 370.62Z" fill="#F7F7F7"/>
<path d="M159.936 369.107C160.596 369.043 161.262 369.113 161.896 369.311C162.556 369.38 163.195 369.588 163.769 369.922C162.451 369.925 161.147 369.658 159.936 369.138V369.107Z" fill="#F7F7F7"/>
<path d="M152.322 367.14C153.641 367.218 154.929 367.573 156.101 368.182C155.438 368.207 154.777 368.098 154.157 367.861C153.503 367.748 152.878 367.503 152.322 367.14Z" fill="#F7F7F7"/>
<path d="M144.859 364.732C145.523 364.742 146.177 364.888 146.78 365.164C147.426 365.32 148.036 365.599 148.576 365.987C147.912 365.977 147.258 365.83 146.655 365.556C146.008 365.402 145.398 365.122 144.859 364.732Z" fill="#F7F7F7"/>
<path d="M137.561 361.879C138.221 361.932 138.864 362.118 139.45 362.428C140.089 362.615 140.681 362.932 141.19 363.361C139.89 363.127 138.653 362.622 137.561 361.879Z" fill="#F7F7F7"/>
<path d="M130.442 358.602C131.724 358.918 132.928 359.494 133.978 360.295C133.321 360.202 132.689 359.978 132.12 359.636C131.14 359.166 130.387 358.703 130.442 358.602Z" fill="#F7F7F7"/>
<path d="M123.526 354.909C124.176 355.047 124.792 355.314 125.337 355.693C125.947 355.953 126.496 356.334 126.952 356.814C126.301 356.681 125.685 356.414 125.141 356.03C124.193 355.513 123.471 355.011 123.526 354.909Z" fill="#F7F7F7"/>
<path d="M116.816 350.816C117.458 350.985 118.059 351.284 118.58 351.694C119.498 352.275 120.188 352.816 120.148 352.918C119.505 352.741 118.904 352.435 118.384 352.016C117.475 351.459 116.816 350.91 116.816 350.816Z" fill="#F7F7F7"/>
<path d="M110.409 346.34C111.035 346.548 111.614 346.878 112.111 347.312C112.989 347.939 113.679 348.527 113.585 348.621C112.954 348.416 112.372 348.082 111.876 347.641C110.997 347.014 110.339 346.434 110.409 346.34Z" fill="#F7F7F7"/>
<path d="M104.271 341.495C104.891 341.734 105.455 342.1 105.925 342.569C106.764 343.251 107.384 343.878 107.321 343.965C106.702 343.724 106.139 343.358 105.667 342.891C104.804 342.209 104.177 341.581 104.271 341.495Z" fill="#F7F7F7"/>
<path d="M98.3846 336.336C98.9802 336.616 99.5134 337.014 99.9526 337.504C100.737 338.233 101.332 338.892 101.262 338.978C101.191 339.064 100.478 338.539 99.6939 337.81C98.9099 337.081 98.314 336.375 98.3846 336.336Z" fill="#F7F7F7"/>
<path d="M92.8406 330.762C93.4213 331.081 93.935 331.51 94.3538 332.024C95.1378 332.808 95.6552 333.49 95.569 333.592C95.4827 333.694 94.785 333.114 94.0559 332.338C93.3267 331.561 92.7544 330.848 92.8406 330.762Z" fill="#F7F7F7"/>
<path d="M87.619 324.921C87.7131 324.843 88.356 325.446 89.0616 326.262C89.5379 326.723 89.9211 327.271 90.1905 327.877C90.1043 327.955 89.4614 327.351 88.748 326.536C88.0345 325.721 87.5328 324.991 87.619 324.921Z" fill="#F7F7F7"/>
<path d="M82.7581 318.775C82.8522 318.712 83.4558 319.347 84.1144 320.209C84.5686 320.694 84.9206 321.264 85.1493 321.887C85.0552 321.95 84.4515 321.315 83.793 320.453C83.1344 319.59 82.664 318.845 82.7581 318.775Z" fill="#F7F7F7"/>
<path d="M78.2656 312.361C78.3597 312.299 78.9242 312.973 79.5279 313.867C79.9552 314.374 80.2729 314.964 80.4608 315.599C80.3746 315.67 79.8023 314.996 79.1907 314.094C78.7675 313.586 78.4527 312.996 78.2656 312.361Z" fill="#F7F7F7"/>
<path d="M74.1504 305.69C74.2523 305.635 74.7776 306.34 75.3342 307.258C75.7126 307.795 75.9792 308.403 76.1182 309.045C76.0241 309.1 75.4989 308.394 74.9422 307.477C74.5598 306.941 74.2903 306.333 74.1504 305.69Z" fill="#F7F7F7"/>
<path d="M70.4414 298.798C70.5433 298.743 71.0294 299.48 71.5233 300.436C71.8846 300.993 72.1299 301.617 72.2446 302.271C72.1427 302.326 71.6566 301.589 71.1627 300.625C70.7983 300.072 70.5526 299.45 70.4414 298.798Z" fill="#F7F7F7"/>
<path d="M67.1406 291.688C67.9049 292.758 68.4388 293.975 68.7086 295.263C68.6067 295.317 68.1598 294.549 67.7208 293.561C67.4039 292.982 67.2066 292.345 67.1406 291.688Z" fill="#F7F7F7"/>
<path d="M64.2871 284.396C64.6881 284.922 64.9812 285.521 65.1495 286.16C65.4434 286.755 65.6141 287.403 65.6513 288.066C65.2406 287.544 64.9418 286.944 64.7732 286.302C64.4803 285.707 64.3148 285.058 64.2871 284.396Z" fill="#F7F7F7"/>
<path d="M61.8342 276.948C62.2147 277.493 62.4814 278.109 62.6182 278.759C62.8789 279.371 63.0097 280.031 63.0024 280.696C62.6236 280.15 62.3571 279.534 62.2184 278.885C61.9584 278.273 61.8276 277.613 61.8342 276.948Z" fill="#F7F7F7"/>
<path d="M59.8433 269.375C60.196 269.937 60.4258 270.568 60.5175 271.225C60.7395 271.851 60.8303 272.515 60.784 273.177C60.4368 272.613 60.2099 271.983 60.1176 271.327C59.8959 270.701 59.8026 270.038 59.8433 269.375Z" fill="#F7F7F7"/>
<path d="M58.3058 261.684C58.6204 262.271 58.8099 262.917 58.8624 263.581C59.0462 264.217 59.0995 264.884 59.0192 265.541C58.7063 264.956 58.5168 264.313 58.4626 263.651C58.2788 263.013 58.2255 262.343 58.3058 261.684Z" fill="#F7F7F7"/>
<path d="M57.232 253.922C57.5125 254.524 57.6647 255.178 57.6788 255.843C57.8113 256.492 57.8113 257.161 57.6788 257.811C57.2412 256.553 57.0756 255.217 57.1928 253.891L57.232 253.922Z" fill="#F7F7F7"/>
<path d="M56.6042 246.113C56.8423 246.73 56.9543 247.389 56.9335 248.05C57.0446 248.707 57.0179 249.379 56.8551 250.025C56.6164 249.406 56.5044 248.745 56.5258 248.081C56.4181 247.427 56.4447 246.757 56.6042 246.113Z" fill="#F7F7F7"/>
<path d="M56.4477 238.273C56.6468 238.906 56.7187 239.573 56.6594 240.233C56.7334 240.892 56.672 241.559 56.4791 242.193C56.2747 241.562 56.1975 240.895 56.2517 240.233C56.178 239.574 56.2448 238.906 56.4477 238.273Z" fill="#F7F7F7"/>
<path d="M56.7211 230.441C56.8865 231.084 56.9212 231.753 56.823 232.409C56.8566 233.072 56.7525 233.734 56.5173 234.354C56.3525 233.711 56.3179 233.042 56.4154 232.386C56.379 231.723 56.4832 231.061 56.7211 230.441Z" fill="#F7F7F7"/>
<path d="M57.4589 222.656C57.5976 223.305 57.5976 223.976 57.4589 224.624C57.45 225.288 57.3087 225.944 57.0433 226.553C56.9081 225.231 57.0524 223.895 57.4667 222.633L57.4589 222.656Z" fill="#F7F7F7"/>
<path d="M58.6596 214.887C58.7557 215.544 58.7129 216.215 58.5342 216.855C58.4882 217.51 58.3123 218.149 58.0168 218.736C57.9207 218.079 57.9635 217.408 58.1422 216.768C58.1866 216.113 58.3625 215.473 58.6596 214.887Z" fill="#F7F7F7"/>
<path d="M60.3209 207.219C60.2957 208.542 59.9939 209.845 59.435 211.045C59.383 210.382 59.4657 209.715 59.6781 209.085C59.7623 208.425 59.9811 207.79 60.3209 207.219Z" fill="#F7F7F7"/>
<path d="M62.4217 199.669C62.3125 200.985 61.9364 202.266 61.3162 203.432C61.2981 202.769 61.4182 202.11 61.6691 201.496C61.7954 200.843 62.0513 200.221 62.4217 199.669Z" fill="#F7F7F7"/>
<path d="M64.9695 192.261C64.9481 192.924 64.7878 193.576 64.4991 194.174C64.3334 194.815 64.043 195.417 63.6445 195.946C63.666 195.282 63.8262 194.63 64.1149 194.033C64.2785 193.391 64.5691 192.788 64.9695 192.261Z" fill="#F7F7F7"/>
<path d="M67.9566 185.024C67.8921 185.684 67.6947 186.324 67.3764 186.906C67.1714 187.539 66.8437 188.125 66.4121 188.631C66.4773 187.97 66.6774 187.33 67.0001 186.749C67.1958 186.114 67.5216 185.527 67.9566 185.024Z" fill="#F7F7F7"/>
<path d="M71.344 177.968C71.0052 179.245 70.4074 180.438 69.5879 181.473C69.691 180.817 69.9285 180.19 70.2857 179.631C70.7953 178.643 71.2656 177.898 71.344 177.968Z" fill="#F7F7F7"/>
<path d="M75.1846 171.108C75.0521 171.755 74.785 172.367 74.4006 172.904C73.8596 173.837 73.3422 174.558 73.2402 174.472C73.3811 173.825 73.6474 173.212 74.0242 172.668C74.573 171.759 75.0905 171.046 75.1846 171.108Z" fill="#F7F7F7"/>
<path d="M79.404 164.499C79.2232 165.138 78.9138 165.733 78.4946 166.247C77.8988 167.149 77.3421 167.815 77.248 167.768C77.4323 167.131 77.7414 166.537 78.1575 166.02C78.7533 165.118 79.31 164.436 79.404 164.499Z" fill="#F7F7F7"/>
<path d="M83.9971 158.149C83.7843 158.777 83.4425 159.354 82.9936 159.843C82.3429 160.705 81.747 161.356 81.653 161.293C81.5589 161.23 82.0136 160.509 82.6643 159.599C83.315 158.69 83.8874 158.079 83.9971 158.149Z" fill="#F7F7F7"/>
<path d="M88.96 152.096C89.0463 152.174 88.5445 152.88 87.8546 153.727C87.1647 154.573 86.5218 155.169 86.4356 155.099C86.3493 155.028 86.8432 154.315 87.541 153.468C88.2388 152.621 88.8738 152.01 88.96 152.096Z" fill="#F7F7F7"/>
<path d="M94.2593 146.318C94.3455 146.396 93.8045 147.102 93.0597 147.886C92.3149 148.67 91.6485 149.242 91.5701 149.171C91.4917 149.101 92.0249 148.387 92.7697 147.603C93.5145 146.819 94.1809 146.239 94.2593 146.318Z" fill="#F7F7F7"/>
<path d="M99.8961 140.87C99.9745 140.956 99.3943 141.654 98.6103 142.359C97.8263 143.065 97.1207 143.629 97.0423 143.551C96.9639 143.472 97.5363 142.806 98.3281 142.061C99.1199 141.316 99.8177 140.783 99.8961 140.87Z" fill="#F7F7F7"/>
<path d="M105.84 135.766C105.911 135.852 105.292 136.487 104.468 137.177C104.001 137.649 103.444 138.022 102.83 138.274C102.759 138.188 103.371 137.553 104.202 136.863C104.666 136.388 105.224 136.014 105.84 135.766Z" fill="#F7F7F7"/>
<path d="M112.065 131.015C112.136 131.109 111.485 131.697 110.615 132.34C110.121 132.782 109.546 133.123 108.921 133.343C108.851 133.257 109.501 132.661 110.372 132.01C110.861 131.565 111.438 131.226 112.065 131.015Z" fill="#F7F7F7"/>
<path d="M118.564 126.64C118.627 126.734 117.937 127.29 117.036 127.878C116.519 128.293 115.925 128.6 115.287 128.78C115.224 128.686 115.907 128.129 116.816 127.533C117.329 127.116 117.925 126.811 118.564 126.64Z" fill="#F7F7F7"/>
<path d="M125.307 122.649C125.362 122.751 124.648 123.261 123.739 123.802C123.197 124.182 122.583 124.449 121.936 124.586C122.377 124.102 122.91 123.711 123.504 123.433C124.045 123.052 124.658 122.785 125.307 122.649Z" fill="#F7F7F7"/>
<path d="M132.276 119.066C131.798 119.525 131.233 119.882 130.614 120.117C130.052 120.473 129.422 120.708 128.764 120.807C129.241 120.348 129.807 119.991 130.426 119.756C130.988 119.401 131.618 119.166 132.276 119.066Z" fill="#F7F7F7"/>
<path d="M139.442 115.898C138.939 116.332 138.352 116.658 137.718 116.855C137.138 117.176 136.496 117.371 135.836 117.427C136.34 116.996 136.927 116.673 137.561 116.479C138.143 116.161 138.783 115.964 139.442 115.898Z" fill="#F7F7F7"/>
<path d="M146.781 113.163C146.256 113.568 145.652 113.86 145.009 114.018C144.408 114.298 143.758 114.455 143.096 114.48C143.621 114.078 144.225 113.79 144.868 113.633C145.467 113.35 146.118 113.19 146.781 113.163Z" fill="#F7F7F7"/>
<path d="M154.275 110.873C153.722 111.24 153.101 111.491 152.448 111.61C151.834 111.861 151.175 111.981 150.512 111.963C151.675 111.338 152.958 110.967 154.275 110.873Z" fill="#F7F7F7"/>
<path d="M161.888 109.023C160.69 109.575 159.39 109.872 158.07 109.893C158.64 109.552 159.276 109.335 159.936 109.258C160.564 109.046 161.228 108.966 161.888 109.023Z" fill="#F7F7F7"/>
<path d="M169.603 107.627C168.374 108.11 167.057 108.329 165.738 108.27C166.329 107.968 166.974 107.79 167.636 107.745C168.277 107.575 168.946 107.535 169.603 107.627Z" fill="#F7F7F7"/>
<path d="M177.387 106.694C176.123 107.103 174.788 107.242 173.467 107.102C174.075 106.837 174.732 106.699 175.395 106.694C176.052 106.552 176.731 106.552 177.387 106.694Z" fill="#F7F7F7"/>
<path d="M185.213 106.208C184.591 106.445 183.925 106.546 183.261 106.506C182.604 106.599 181.935 106.562 181.293 106.397C181.915 106.16 182.581 106.059 183.245 106.099C183.902 106.006 184.571 106.043 185.213 106.208Z" fill="#F7F7F7"/>
<path d="M193.045 106.185C192.411 106.378 191.744 106.439 191.085 106.365C190.423 106.42 189.757 106.342 189.125 106.138C190.421 105.882 191.756 105.898 193.045 106.185Z" fill="#F7F7F7"/>
<path d="M200.875 106.624C199.563 106.801 198.229 106.707 196.955 106.349C197.6 106.195 198.269 106.171 198.923 106.279C199.591 106.257 200.255 106.374 200.875 106.624Z" fill="#F7F7F7"/>
<path d="M208.67 107.502C208.015 107.616 207.343 107.6 206.694 107.455C206.032 107.434 205.382 107.279 204.781 107C206.109 106.89 207.444 107.061 208.701 107.502H208.67Z" fill="#F7F7F7"/>
<path d="M216.385 108.843C215.062 108.869 213.749 108.621 212.527 108.113C213.188 108.034 213.857 108.09 214.495 108.278C215.157 108.337 215.799 108.529 216.385 108.843Z" fill="#F7F7F7"/>
<path d="M224.019 110.638C222.698 110.595 221.401 110.268 220.217 109.682C221.537 109.735 222.831 110.061 224.019 110.638Z" fill="#F7F7F7"/>
<path d="M231.531 112.896C230.214 112.77 228.94 112.367 227.791 111.712C228.451 111.717 229.104 111.853 229.712 112.112C230.366 112.244 230.986 112.511 231.531 112.896Z" fill="#F7F7F7"/>
<path d="M238.892 115.577C238.229 115.535 237.582 115.362 236.987 115.068C236.346 114.894 235.748 114.59 235.23 114.174C235.893 114.216 236.541 114.389 237.136 114.683C237.777 114.856 238.375 115.161 238.892 115.577Z" fill="#F7F7F7"/>
<path d="M246.081 118.698C245.424 118.617 244.79 118.406 244.215 118.079C243.586 117.866 243.007 117.527 242.514 117.083C243.171 117.161 243.806 117.372 244.38 117.702C245.391 118.149 246.175 118.596 246.081 118.698Z" fill="#F7F7F7"/>
<path d="M253.083 122.234C252.428 122.12 251.804 121.872 251.249 121.505C250.292 121.003 249.555 120.517 249.61 120.415C250.262 120.531 250.884 120.779 251.437 121.144C252.052 121.395 252.612 121.766 253.083 122.234Z" fill="#F7F7F7"/>
<path d="M259.85 126.177C259.205 126.027 258.599 125.744 258.07 125.346C257.145 124.789 256.439 124.256 256.502 124.154C257.147 124.314 257.754 124.599 258.289 124.993C259.207 125.55 259.912 126.083 259.85 126.177Z" fill="#F7F7F7"/>
<path d="M266.38 130.52C265.746 130.324 265.157 130.004 264.647 129.58C263.761 128.968 263.079 128.396 263.15 128.302C263.785 128.495 264.374 128.815 264.882 129.243C265.776 129.854 266.442 130.426 266.38 130.52Z" fill="#F7F7F7"/>
<path d="M272.643 135.232C272.021 134.999 271.45 134.644 270.965 134.189C270.119 133.523 269.476 132.919 269.546 132.825C270.168 133.056 270.736 133.411 271.216 133.868C272.047 134.534 272.714 135.138 272.643 135.232Z" fill="#F7F7F7"/>
<path d="M278.617 140.336C278.538 140.422 277.833 139.913 277.01 139.199C276.186 138.486 275.591 137.843 275.669 137.757C275.747 137.67 276.453 138.18 277.276 138.893C278.099 139.607 278.695 140.218 278.617 140.336Z" fill="#F7F7F7"/>
<path d="M284.285 145.707C284.207 145.785 283.501 145.236 282.717 144.483C282.205 144.062 281.779 143.546 281.463 142.963C281.541 142.884 282.247 143.433 283.031 144.193C283.815 144.954 284.364 145.628 284.285 145.707Z" fill="#F7F7F7"/>
<path d="M289.624 151.438C289.538 151.516 288.887 150.928 288.158 150.128C287.429 149.329 286.911 148.615 286.998 148.56C287.084 148.505 287.735 149.07 288.464 149.877C289.193 150.685 289.71 151.367 289.624 151.438Z" fill="#F7F7F7"/>
<path d="M294.628 157.474C294.534 157.545 293.914 156.918 293.24 156.079C292.774 155.605 292.409 155.043 292.166 154.425C292.26 154.346 292.879 154.973 293.554 155.82C294.019 156.294 294.385 156.856 294.628 157.474Z" fill="#F7F7F7"/>
<path d="M299.26 163.794C299.166 163.856 298.578 163.19 297.958 162.312C297.522 161.814 297.191 161.233 296.986 160.603C297.08 160.532 297.661 161.191 298.288 162.077C298.721 162.58 299.051 163.163 299.26 163.794Z" fill="#F7F7F7"/>
<path d="M303.509 170.371C303.415 170.426 302.874 169.728 302.302 168.803C301.896 168.277 301.6 167.674 301.432 167.031C301.526 166.969 302.075 167.666 302.647 168.599C303.056 169.122 303.35 169.726 303.509 170.371Z" fill="#F7F7F7"/>
<path d="M307.374 177.184C307.272 177.239 306.77 176.51 306.253 175.561C305.872 175.016 305.606 174.4 305.469 173.75C305.571 173.695 306.072 174.416 306.59 175.365C306.972 175.912 307.239 176.531 307.374 177.184Z" fill="#F7F7F7"/>
<path d="M310.824 184.24C310.374 183.753 310.027 183.179 309.805 182.554C309.462 181.987 309.24 181.354 309.154 180.696C309.604 181.184 309.951 181.757 310.174 182.382C310.519 182.948 310.741 183.582 310.824 184.24Z" fill="#F7F7F7"/>
<path d="M313.859 191.438C313.436 190.927 313.124 190.334 312.941 189.697C312.629 189.113 312.444 188.469 312.4 187.808C312.819 188.321 313.131 188.912 313.318 189.548C313.629 190.133 313.813 190.777 313.859 191.438Z" fill="#F7F7F7"/>
<path d="M316.453 198.83C316.077 198.292 315.81 197.685 315.669 197.043C315.399 196.435 315.255 195.779 315.246 195.114C315.622 195.656 315.888 196.266 316.03 196.91C316.305 197.513 316.449 198.167 316.453 198.83Z" fill="#F7F7F7"/>
<path d="M318.609 206.365C318.011 205.189 317.664 203.903 317.59 202.586C318.188 203.761 318.535 205.048 318.609 206.365Z" fill="#F7F7F7"/>
<path d="M320.319 214.032C319.8 212.818 319.533 211.511 319.535 210.19C319.864 210.769 320.07 211.41 320.139 212.072C320.332 212.706 320.393 213.373 320.319 214.032Z" fill="#F7F7F7"/>
<path d="M321.574 221.755C321.278 221.159 321.113 220.507 321.088 219.842C320.928 219.198 320.899 218.529 321.002 217.874C321.462 219.127 321.657 220.462 321.574 221.794V221.755Z" fill="#F7F7F7"/>
<path d="M322.366 229.548C322.106 228.939 321.978 228.281 321.989 227.619C321.858 226.967 321.858 226.296 321.989 225.644C322.249 226.256 322.377 226.915 322.366 227.58C322.498 228.229 322.498 228.899 322.366 229.548Z" fill="#F7F7F7"/>
<path d="M322.701 237.38C322.477 236.755 322.389 236.089 322.442 235.428C322.359 234.772 322.407 234.105 322.584 233.468C322.809 234.092 322.9 234.758 322.85 235.42C322.934 236.077 322.883 236.743 322.701 237.38Z" fill="#F7F7F7"/>
<path d="M312.133 244.725C312.203 243.322 312.243 241.934 312.25 240.539C312.258 239.143 312.25 237.607 312.25 236.148C312.25 237.607 312.29 239.073 312.25 240.539C312.211 242.005 312.203 243.322 312.133 244.725Z" fill="#263238"/>
<path opacity="0.5" d="M298.641 260.178C297.857 257.308 297.998 254.298 297.622 251.358C297.418 249.79 296.94 248.057 295.615 247.179C294.737 246.599 293.616 246.497 292.659 246.05C289.218 244.482 288.967 239.292 285.792 237.246C284.754 236.678 283.635 236.271 282.475 236.039C277.999 234.839 273.514 232.589 271.17 228.598C270.386 227.305 269.884 225.839 268.865 224.733C267.846 223.628 266.082 222.954 264.804 223.753C265.494 225.815 266.152 227.869 266.819 229.908C267.438 231.766 268.057 233.679 269.32 235.153C270.582 236.627 272.644 237.638 274.51 237.081C275.1 236.789 275.758 236.661 276.415 236.713C276.868 236.879 277.244 237.205 277.473 237.63C279.559 240.766 278.093 245.172 275.262 247.634C272.432 250.096 268.669 251.013 265.07 251.883C263.792 252.304 262.424 252.369 261.111 252.071C258.798 251.287 257.905 248.512 257.544 246.082C256.76 240.711 256.76 235.012 254.236 230.206C253.412 228.692 252.323 227.258 251.938 225.572C251.539 223.753 251.985 221.754 251.154 220.084C250.323 218.414 248.16 217.081 248.285 215.137C248.379 213.781 249.665 212.785 250.982 212.354C252.299 211.923 253.702 211.962 255.051 211.625C255.576 211.484 256.188 211.201 256.29 210.668C256.399 209.884 255.333 209.375 255.153 208.583C254.973 207.791 255.937 207.015 256.431 206.231C257.497 204.459 255.811 202.272 254.016 201.229C252.221 200.186 250.041 199.3 249.422 197.309C249.227 196.376 249.153 195.422 249.202 194.471C249.1 192.08 247.713 189.587 245.423 188.857C243.134 188.128 240.202 189.853 240.249 192.252C240.249 193.569 241.104 194.714 241.456 195.976C241.809 197.238 241.409 198.995 240.124 199.198C238.015 199.52 236.611 195.553 234.737 196.572C235.082 199.042 235.42 201.503 235.765 203.981C232.919 204.945 230.096 202.044 229.367 199.112C228.638 196.18 229.046 193.044 228.081 190.198C227.117 187.352 223.777 184.828 221.198 186.38C220.594 189.783 224.906 191.821 226.505 194.871C227.658 197.082 226.976 200.296 224.663 201.26C222.35 202.225 219.316 199.528 220.461 197.34C220.869 196.556 221.637 196 221.841 195.145C222.076 194.079 221.292 193.083 220.571 192.276C219.442 190.99 218.305 189.728 217.176 188.465C216.494 187.596 215.643 186.874 214.675 186.341C212.135 185.188 209.187 186.952 207.431 189.116C205.675 191.28 204.491 193.969 202.264 195.67C199.058 198.148 193.75 197.56 191.57 194.157C189.391 190.755 191.57 185.306 195.561 184.749C197.082 184.553 198.917 184.859 199.873 183.683C201.551 181.59 198.125 178.117 199.787 176C201.065 174.377 203.636 175.576 205.682 175.263C207.729 174.949 209.085 173.146 210.488 171.625C211.892 170.104 213.891 168.685 215.827 169.414C215.728 168.215 215.975 167.012 216.541 165.949C217.215 164.945 218.783 164.467 219.638 165.298C218.43 166.772 219.277 169.218 220.869 170.237C222.46 171.257 224.491 171.39 226.404 171.453C228.317 171.515 230.778 171.147 231.209 169.281C231.351 168.677 231.209 167.987 231.531 167.446C232.683 165.322 236.384 169.014 238.242 167.446C239.3 166.662 238.524 164.82 237.285 164.31C236.047 163.801 234.667 164.083 233.365 163.934C232.064 163.785 230.559 162.884 230.692 161.582C230.825 160.281 232.393 159.575 232.73 158.328C233.295 156.212 229.72 155.122 228.183 156.69C226.647 158.258 226.756 160.72 226.827 162.907C226.897 165.094 226.756 167.611 224.961 168.912C224.138 169.838 222.468 169.046 222.052 167.885C221.637 166.725 221.935 165.439 222.013 164.208C222.092 162.978 221.754 161.504 220.61 161.01C219.826 160.657 218.877 160.931 218.015 160.924C214.612 160.845 212.911 156.22 214.432 153.146C215.953 150.073 219.261 148.442 222.444 147.266C224.796 146.388 227.595 145.698 229.555 147.172C230.473 147.878 231.029 148.936 231.907 149.657C233.475 150.904 235.6 150.841 237.536 151.155C240.595 151.705 243.37 153.295 245.392 155.655C246.176 156.564 246.756 158.007 245.949 158.838C245.141 159.669 242.946 159.622 243.142 160.861C243.685 161.1 244.272 161.221 244.864 161.217C245.457 161.213 246.043 161.084 246.582 160.839C247.122 160.593 247.603 160.236 247.995 159.791C248.387 159.347 248.681 158.824 248.857 158.258C249.377 158.594 249.798 159.06 250.08 159.611C250.363 160.161 250.495 160.776 250.465 161.394C251.182 160.896 251.995 160.553 252.852 160.388C253.709 160.222 254.591 160.237 255.441 160.432C256.292 160.627 257.093 160.997 257.793 161.519C258.492 162.041 259.075 162.703 259.504 163.464C259.817 164.343 260.281 165.16 260.876 165.878C261.574 166.49 262.954 166.435 263.181 165.541C263.247 165.255 263.247 164.957 263.181 164.671C262.907 163.299 262.617 161.943 262.342 160.586C264.263 159.889 266.16 161.692 267.14 163.479C270.77 170.143 274.502 167 280.696 168.897C284.89 170.167 286.38 173.193 288.316 176.862C294.259 188.16 302.844 197.96 308.041 209.618C308.564 210.836 309.061 212.064 309.531 213.303C309.461 212.997 309.406 212.699 309.327 212.393C307.699 205.075 305.384 197.927 302.412 191.045C301.78 189.587 301.127 188.139 300.452 186.701C300.029 185.816 299.59 184.914 299.151 184.044C298.586 182.899 297.983 181.794 297.379 180.688C296.901 179.794 296.415 178.916 295.913 178.062C295.568 177.458 295.207 176.862 294.839 176.259C294.47 175.655 294.055 174.91 293.6 174.236L292.26 172.135C292.125 171.91 291.978 171.693 291.821 171.484C291.358 170.755 290.856 170.034 290.354 169.312C290.323 169.228 290.272 169.153 290.205 169.093C290.08 168.897 289.931 168.701 289.782 168.505C289.382 167.893 288.935 167.297 288.512 166.709C287.806 165.745 287.085 164.781 286.333 163.848C285.729 163.064 285.094 162.28 284.443 161.496C283.792 160.712 283.306 160.116 282.718 159.442C282.13 158.768 281.574 158.117 280.986 157.466C280.272 156.682 279.551 155.898 278.798 155.067C276.736 152.864 274.596 150.747 272.369 148.74C271.821 148.231 271.28 147.737 270.723 147.251C270.166 146.764 269.594 146.263 269.03 145.784C268.465 145.306 267.901 144.82 267.313 144.358C266.725 143.895 266.16 143.409 265.58 142.954C265 142.5 264.647 142.209 264.169 141.864C263.935 141.667 263.692 141.481 263.44 141.308C262.436 140.524 261.409 139.74 260.374 139.058C259.857 138.689 259.339 138.321 258.806 137.968C258.148 137.498 257.466 137.051 256.784 136.62C256.689 136.541 256.587 136.473 256.478 136.416C255.866 136.016 255.263 135.632 254.628 135.224C253.749 134.691 252.864 134.15 251.978 133.656C250.966 133.06 249.955 132.464 248.912 131.9C247.869 131.335 246.623 130.645 245.455 130.065C244.287 129.485 243.103 128.881 241.903 128.317C240.704 127.752 239.504 127.227 238.289 126.694C235.89 125.659 233.436 124.695 230.959 123.809L230.825 123.754C229.877 123.417 228.92 123.088 227.964 122.79C227.905 122.757 227.841 122.734 227.776 122.719C227.368 122.586 226.937 122.445 226.505 122.319C224.718 121.747 222.915 121.237 221.08 120.751C220.861 120.683 220.639 120.625 220.414 120.579C219.889 120.422 219.355 120.304 218.807 120.171C217.599 119.873 216.376 119.599 215.145 119.348C213.914 119.097 212.566 118.815 211.272 118.564C209.979 118.313 208.552 118.094 207.188 117.898C203.576 117.375 199.978 117.017 196.392 116.824C195.537 116.761 194.706 116.722 193.86 116.698C193.013 116.675 192.104 116.635 191.225 116.628C190.347 116.62 189.461 116.628 188.599 116.628C187.737 116.628 186.843 116.628 185.957 116.675C185.212 116.675 184.444 116.675 183.691 116.761C181.831 116.85 179.988 116.975 178.164 117.137C177.309 117.208 176.455 117.302 175.593 117.412C174.73 117.521 173.876 117.615 173.037 117.733C171.618 117.921 170.23 118.148 168.842 118.384L165.455 119.011H165.377C164.225 119.238 163.111 119.489 161.974 119.756H161.794C160.751 119.999 159.717 120.257 158.697 120.54C157.412 120.861 156.141 121.23 154.895 121.598C153.829 121.912 152.778 122.233 151.759 122.578C150.74 122.923 149.532 123.315 148.435 123.707L148.317 123.746C147.259 124.123 146.2 124.53 145.181 124.938C144.162 125.346 143.041 125.785 141.967 126.255C140.963 126.678 139.983 127.102 138.995 127.549C138.619 127.713 138.258 127.894 137.874 128.074C136.832 128.552 135.812 129.054 134.738 129.571C133.468 130.191 132.237 130.857 131.006 131.524C129.917 132.112 128.85 132.723 127.8 133.335C121.71 136.874 115.937 140.932 110.544 145.463C108.647 147.031 106.844 148.662 105.056 150.324C103.559 151.759 102.093 153.209 100.673 154.73C100.987 154.73 101.301 154.73 101.606 154.73C103.355 154.848 105.174 155.169 106.844 154.644C108.412 154.142 109.588 152.997 111.03 152.292C114.715 150.394 120.258 150.724 121.74 146.874C122.241 145.573 122.092 144.06 122.774 142.844C124.06 140.579 127.322 140.696 129.893 141.112C130.991 141.269 132.245 141.606 132.614 142.68C132.701 143.058 132.707 143.451 132.631 143.832C132.555 144.213 132.4 144.574 132.175 144.891C129.917 149.173 126.254 152.547 121.802 154.448C118.165 156.016 113.578 156.949 112.104 160.618C112.379 161.974 114.738 162.186 114.731 163.589C114.731 164.687 113.249 165.04 112.606 165.941C111.673 167.235 113.1 169.187 114.707 169.344C116.314 169.5 117.804 168.56 119.137 167.627C123.104 164.883 127.275 161.919 129.211 157.49C129.995 155.663 130.544 153.46 132.261 152.417C132.784 152.152 133.361 152.011 133.947 152.006C134.534 152.001 135.113 152.132 135.64 152.389C136.167 152.646 136.628 153.021 136.986 153.486C137.343 153.951 137.588 154.492 137.702 155.067C139.348 154.44 141.802 154.15 142.359 155.851C142.449 156.463 142.473 157.084 142.429 157.701C142.57 160.234 145.769 161.833 145.761 164.365C145.761 167.282 141.841 168.23 138.933 168.285C136.283 168.285 133.633 168.34 130.975 168.387C129.819 168.304 128.66 168.501 127.596 168.96C127.07 169.208 126.645 169.629 126.391 170.152C126.137 170.675 126.07 171.27 126.201 171.837C126.514 172.406 126.899 172.933 127.345 173.405C129.188 175.867 126.773 180.045 123.723 179.677C122.68 179.559 121.716 179.034 120.689 178.846C117.631 178.266 114.801 180.618 112.943 183.119C111.085 185.62 109.548 188.552 106.828 190.041C102.437 192.448 95.7108 190.77 93.1314 195.067C92.0965 196.799 92.1984 198.932 92.222 200.955C92.2455 202.977 92.0573 205.172 90.654 206.639C89.2506 208.105 86.2792 208.003 85.6912 206.074C85.5223 205.21 85.6123 204.316 85.95 203.503C86.8176 200.727 87.6774 197.949 88.5293 195.169C89.1644 193.099 89.7916 190.778 88.7959 188.897C87.3925 186.223 83.4412 185.886 80.8932 187.501C78.3452 189.116 76.9732 192.017 75.9304 194.824C75.1464 196.909 74.1743 199.873 72.6298 202.154C71.8458 204.506 71.2029 206.858 70.5992 209.257C69.9956 211.656 69.4624 214.181 69.0312 216.697C69.4178 216.459 69.7895 216.197 70.1445 215.913C71.5322 214.839 74.7388 209.908 76.5576 212.816C76.7766 213.197 76.8646 213.638 76.8079 214.073C76.7512 214.508 76.5531 214.912 76.244 215.223C75.46 216.007 74.0724 216.007 73.4216 216.854C72.6376 217.881 73.304 219.394 74.2056 220.272C75.1072 221.15 76.3381 221.84 76.9183 222.977C78.0237 225.196 76.244 228.057 77.3103 230.315C78.2276 232.252 80.705 232.73 82.7983 233.263L83.5117 233.491C84.7191 229.343 87.1965 226.192 93.1471 225.721C101.363 225.063 110.865 233.169 114.48 239.833C118.502 247.265 119.497 257.081 126.655 261.566C131.783 264.764 139.693 265.023 141.551 270.77C143.237 275.921 138.305 280.719 136.902 285.948C135.993 289.413 136.636 293.075 136.4 296.626C136.165 300.178 134.503 304.168 131.077 305.18C129.18 305.728 126.945 305.305 125.307 306.442C122.398 308.496 123.739 313.796 120.869 315.85C119.842 316.563 118.517 316.689 117.373 317.088C111.203 319.158 110.136 327.633 111.955 333.882C112.026 334.109 112.096 334.313 112.159 334.54C129.357 348.519 150.021 357.576 171.955 360.749C191.82 363.652 212.094 361.611 230.982 354.807C234.956 353.371 238.852 351.731 242.656 349.891C248.519 347.078 254.146 343.795 259.481 340.075C263.172 337.516 266.717 334.749 270.096 331.788C272.448 329.734 274.745 327.571 276.956 325.344C278.077 324.192 279.19 323.039 280.249 321.832C288.144 313.2 294.746 303.468 299.849 292.941C302.97 286.545 305.515 279.883 307.453 273.036C308.237 270.354 308.904 267.634 309.5 264.874C308.772 265.448 307.938 265.873 307.047 266.124C306.155 266.376 305.222 266.449 304.302 266.34C301.472 265.823 299.425 263.032 298.641 260.178Z" fill="#FFA448"/>
<path d="M233.983 306.787C230.275 310.935 228.895 316.595 227.264 321.911C225.634 327.226 223.344 332.808 218.64 335.788C213.936 338.767 206.292 337.442 204.717 332.103C203.854 329.21 204.96 326.097 204.717 323.087C204.379 319.167 201.784 315.803 200.875 311.977C200.091 308.708 200.593 305.298 200.969 301.958C203.055 283.738 201.369 264.153 190.934 249.069C189.656 247.211 188.159 245.369 186.089 244.491C184.843 243.982 183.476 243.846 182.155 244.097C180.833 244.349 179.612 244.979 178.641 245.91C177.465 247.078 176.704 248.677 175.332 249.61C172.345 251.641 167.986 249.25 166.669 245.886C165.352 242.523 166.152 238.744 166.959 235.224C167.973 230.854 168.979 226.488 169.978 222.123C170.503 219.842 171.122 217.419 172.894 215.851C175.411 213.664 179.291 214.111 182.216 212.511C186.05 210.426 187.226 205.549 189.946 202.131C192.667 198.713 199.73 198.125 200.138 202.468C209.593 188.058 222.231 213.335 231.976 212.982C234.807 212.872 237.684 211.939 240.404 212.731C245.202 214.126 246.951 219.889 247.946 224.789C249.593 232.922 251.242 241.052 252.893 249.179C253.521 252.276 254.407 255.749 257.166 257.301C259.275 258.493 261.964 258.203 264.097 259.348C269.742 262.382 266.449 271.468 261.055 274.926C255.661 278.383 248.527 280.037 245.391 285.619C243.039 289.829 243.642 295.247 241.157 299.386C239.393 302.342 236.288 304.192 233.983 306.787Z" fill="#263238"/>
<path d="M255.867 315.098C253.868 315.098 251.696 313.788 250.026 314.878C249.046 315.513 248.67 316.728 248.168 317.779C247.511 319.274 246.332 320.478 244.852 321.166C244.108 321.493 243.286 321.597 242.485 321.466C241.683 321.335 240.937 320.975 240.336 320.429C239.769 319.851 239.451 319.074 239.451 318.265C239.451 317.456 239.769 316.679 240.336 316.101C240.945 315.689 241.576 315.31 242.225 314.964C245.173 312.887 244.052 308.073 246.451 305.439C247.87 303.871 249.955 302.405 251.484 300.852C252.66 299.653 253.178 298.642 255.036 298.548C263.166 298.132 264.365 315.168 255.867 315.098Z" fill="#263238"/>
<path d="M79.4026 255.929C79.5202 252.393 81.1744 249.084 81.7546 245.58C82.1466 243.157 82.3426 240.578 82.6562 238.132C80.5901 237.74 78.5661 237.152 76.6115 236.376C76.1867 236.259 75.8154 235.998 75.561 235.639C75.4107 235.213 75.3889 234.752 75.4983 234.314C75.7413 231.562 73.3658 229.375 71.2019 227.665C70.1261 226.763 68.9596 225.975 67.721 225.313C67.721 225.604 67.6426 225.87 67.6191 226.16C66.1785 239.395 66.9068 252.776 69.7751 265.776C71.0546 271.559 72.7659 277.238 74.8946 282.765C75.7648 285.117 76.7605 287.508 77.8189 289.821C79.1282 292.698 80.5237 295.529 82.0682 298.28C83.4872 300.922 85.0317 303.517 86.6938 306.034C88.9544 309.518 91.3932 312.884 94.0007 316.116C96.3108 319.001 98.7543 321.774 101.331 324.435C97.2778 305.681 93.6635 286.614 84.5143 269.837C82.0839 265.462 79.2458 260.931 79.4026 255.929Z" fill="#F7F7F7"/>
<path d="M68.5216 219.521C68.404 220.25 68.2707 220.971 68.161 221.7C68.2707 220.987 68.404 220.305 68.5216 219.521Z" fill="#263238"/>
<g opacity="0.6">
<path d="M107.408 330.354C108.333 331.193 109.266 332.017 110.223 332.824C109.251 332.017 108.318 331.193 107.408 330.354Z" fill="#263238"/>
</g>
<path d="M261.072 274.941C266.466 271.484 269.759 262.397 264.114 259.363C261.982 258.219 259.293 258.509 257.184 257.317C254.424 255.749 253.538 252.292 252.911 249.195C251.264 241.062 249.615 232.932 247.964 224.804C246.968 219.904 245.22 214.142 240.422 212.747C237.701 211.963 234.824 212.888 231.994 212.997C222.249 213.35 209.611 188.074 200.156 202.484C199.756 198.141 192.7 198.729 189.964 202.147C187.227 205.565 186.044 210.442 182.233 212.527C179.309 214.095 175.428 213.68 172.912 215.867C171.14 217.435 170.56 219.842 169.995 222.139C168.992 226.503 167.985 230.87 166.977 235.24C166.193 238.76 165.409 242.531 166.687 245.902C167.964 249.273 172.363 251.656 175.35 249.626C176.722 248.693 177.482 247.094 178.658 245.925C179.63 244.994 180.85 244.365 182.172 244.113C183.494 243.861 184.86 243.998 186.106 244.506C188.176 245.384 189.673 247.227 190.951 249.085C201.386 264.169 203.072 283.753 200.987 301.974C200.61 305.313 200.116 308.724 200.892 311.993C201.802 315.819 204.397 319.182 204.734 323.102C204.993 326.113 203.887 329.225 204.734 332.118C206.302 337.457 213.962 338.782 218.658 335.803C223.354 332.824 225.643 327.25 227.282 321.926C228.92 316.603 230.292 310.95 234.001 306.803C236.306 304.232 239.41 302.358 241.19 299.402C243.675 295.263 243.056 289.845 245.424 285.635C248.528 280.037 255.639 278.391 261.072 274.941Z" fill="#F7F7F7"/>
<g opacity="0.6">
<path d="M68.9919 216.682C68.9449 216.909 68.89 217.113 68.8587 217.348C68.9057 217.113 68.9919 216.909 68.9919 216.682Z" fill="#263238"/>
</g>
<path d="M83.5358 233.46L82.8224 233.233C80.7213 232.699 78.2438 232.221 77.3344 230.285C76.2681 228.027 78.0478 225.165 76.9424 222.946C76.3622 221.786 75.1627 221.143 74.2297 220.242C73.2968 219.34 72.6147 217.85 73.4457 216.823C74.0965 215.961 75.4685 215.961 76.2681 215.193C76.5783 214.882 76.7766 214.477 76.8319 214.042C76.8873 213.606 76.7965 213.164 76.5739 212.786C74.7629 209.877 71.5563 214.809 70.1686 215.883C69.8136 216.166 69.4419 216.428 69.0553 216.667C69.0083 216.894 68.9534 217.098 68.9221 217.333C68.7888 218.046 68.6869 218.783 68.5693 219.52C68.4517 220.257 68.3184 220.971 68.2086 221.7C68.1224 222.296 68.0597 222.892 67.9813 223.487C67.9029 224.083 67.8166 224.679 67.7539 225.267C68.9925 225.929 70.1591 226.717 71.2349 227.619C73.3987 229.328 75.7742 231.539 75.5312 234.267C75.4218 234.706 75.4436 235.166 75.5939 235.592C75.8483 235.952 76.2196 236.213 76.6445 236.329C78.5991 237.105 80.6231 237.693 82.6891 238.086" fill="#F7F7F7"/>
<path d="M82.6407 238.133C82.3271 240.579 82.1311 243.158 81.7391 245.581C81.1746 249.085 79.5204 252.394 79.3871 255.929C79.2303 260.931 82.0684 265.463 84.4752 269.853C93.6245 286.631 97.2388 305.698 101.292 324.451C102.382 325.611 103.495 326.717 104.632 327.799C105.526 328.671 106.432 329.523 107.352 330.354C108.277 331.193 109.21 332.017 110.167 332.824C110.825 333.389 111.492 333.937 112.182 334.486C112.119 334.259 112.049 334.055 111.978 333.828C110.159 327.556 111.194 319.104 117.395 317.034C118.571 316.634 119.865 316.509 120.892 315.796C123.793 313.741 122.421 308.442 125.329 306.388C126.968 305.251 129.202 305.674 131.1 305.125C134.526 304.114 136.157 300.147 136.423 296.572C136.69 292.997 136.015 289.359 136.925 285.894C138.328 280.665 143.26 275.866 141.574 270.716C139.677 264.969 131.766 264.71 126.678 261.511C119.52 257.043 118.524 247.211 114.502 239.779C110.888 233.138 101.386 225.032 93.1698 225.667C87.2192 226.137 84.7418 229.289 83.5344 233.436" fill="#F7F7F7"/>
<path d="M80.9078 187.462C83.4558 185.847 87.4072 186.185 88.8106 188.858C89.8062 190.771 89.179 193.092 88.544 195.13C87.6868 197.905 86.827 200.683 85.9646 203.464C85.627 204.277 85.537 205.171 85.7059 206.035C86.2939 207.964 89.3045 208.05 90.6686 206.6C92.0328 205.149 92.2366 202.923 92.2366 200.916C92.2366 198.909 92.1112 196.761 93.1461 195.028C95.7254 190.732 102.452 192.409 106.843 190.003C109.563 188.513 111.108 185.581 112.958 183.08C114.808 180.579 117.662 178.227 120.704 178.807C121.731 178.995 122.695 179.521 123.738 179.638C126.788 179.975 129.226 175.797 127.36 173.366C126.913 172.894 126.529 172.367 126.215 171.798C126.084 171.231 126.152 170.637 126.405 170.113C126.659 169.59 127.085 169.169 127.611 168.921C128.675 168.462 129.834 168.266 130.99 168.349C133.648 168.301 136.297 168.278 138.947 168.247C141.88 168.247 145.76 167.267 145.776 164.327C145.776 161.794 142.585 160.195 142.444 157.663C142.487 157.045 142.464 156.425 142.373 155.812C141.817 154.119 139.363 154.409 137.716 155.028C137.603 154.453 137.358 153.912 137 153.447C136.643 152.983 136.182 152.607 135.655 152.35C135.128 152.094 134.548 151.963 133.962 151.967C133.376 151.972 132.798 152.113 132.276 152.378C130.559 153.421 130.041 155.624 129.226 157.451C127.289 161.881 123.118 164.844 119.151 167.588C117.819 168.497 116.329 169.454 114.722 169.305C113.115 169.156 111.688 167.196 112.621 165.902C113.264 165.009 114.73 164.656 114.745 163.55C114.745 162.178 112.393 161.935 112.119 160.579C113.593 156.91 118.179 155.961 121.817 154.409C126.276 152.51 129.945 149.132 132.205 144.844C132.43 144.528 132.586 144.167 132.661 143.786C132.737 143.405 132.731 143.012 132.644 142.633C132.283 141.598 131.021 141.261 129.924 141.065C127.352 140.65 124.091 140.532 122.805 142.798C122.123 144.013 122.272 145.526 121.77 146.828C120.288 150.693 114.714 150.348 111.06 152.245C109.618 152.974 108.418 154.119 106.874 154.597C105.204 155.122 103.385 154.801 101.637 154.683C101.331 154.683 101.017 154.683 100.704 154.683C99.4338 156.001 98.195 157.357 96.9955 158.737C95.796 160.117 94.6435 161.528 93.4832 162.962C88.0675 169.759 83.3994 177.119 79.5594 184.914C78.1952 187.651 76.9486 190.449 75.7962 193.311C74.6437 196.173 73.601 199.089 72.6602 202.061C74.2282 199.779 75.1846 196.816 75.9608 194.73C76.9957 191.978 78.399 189.077 80.9078 187.462Z" fill="#F7F7F7"/>
<g opacity="0.6">
<path d="M309.5 213.326C309.855 214.952 310.174 216.577 310.456 218.203C310.174 216.572 309.855 214.946 309.5 213.326Z" fill="#263238"/>
</g>
<path d="M311.192 255.161C311.435 253.413 311.639 251.672 311.788 249.932C311.937 248.191 312.062 246.458 312.133 244.726C312.203 243.322 312.243 241.935 312.251 240.539C312.258 239.144 312.251 237.607 312.251 236.149C312.153 231.793 311.818 227.446 311.247 223.127C311.027 221.48 310.777 219.834 310.463 218.203C310.149 216.572 309.859 214.95 309.507 213.327C309.057 212.088 308.56 210.86 308.017 209.642C302.819 197.984 294.234 188.184 288.291 176.886C286.355 173.217 284.865 170.191 280.671 168.921C274.477 167.024 270.746 170.167 267.116 163.503C266.136 161.716 264.238 159.913 262.318 160.61C262.592 161.967 262.882 163.323 263.156 164.695C263.223 164.981 263.223 165.279 263.156 165.565C262.929 166.459 261.549 166.514 260.851 165.902C260.262 165.175 259.806 164.35 259.503 163.464C259.074 162.706 258.492 162.046 257.793 161.526C257.095 161.005 256.296 160.636 255.447 160.441C254.598 160.246 253.718 160.23 252.863 160.395C252.007 160.559 251.196 160.899 250.479 161.394C250.51 160.777 250.377 160.162 250.095 159.611C249.813 159.061 249.391 158.594 248.872 158.258C248.696 158.825 248.402 159.347 248.01 159.792C247.618 160.237 247.136 160.593 246.597 160.839C246.057 161.085 245.472 161.214 244.879 161.218C244.286 161.222 243.699 161.1 243.157 160.861C242.961 159.638 245.093 159.732 245.963 158.839C246.834 157.945 246.151 156.565 245.407 155.656C243.379 153.31 240.605 151.734 237.551 151.195C235.615 150.881 233.466 150.944 231.922 149.697C231.028 148.976 230.471 147.918 229.57 147.212C227.61 145.699 224.78 146.428 222.459 147.306C219.276 148.513 215.944 150.128 214.447 153.186C212.949 156.244 214.627 160.885 218.029 160.963C218.892 160.963 219.833 160.697 220.624 161.05C221.769 161.543 222.106 163.01 222.028 164.248C221.949 165.487 221.62 166.765 222.067 167.925C222.514 169.086 224.152 169.877 224.976 168.952C226.771 167.682 226.936 165.142 226.842 162.947C226.747 160.752 226.677 158.29 228.198 156.73C229.719 155.17 233.31 156.251 232.745 158.368C232.408 159.615 230.832 160.328 230.707 161.622C230.581 162.915 232.071 163.856 233.38 163.974C234.689 164.091 236.093 163.841 237.3 164.35C238.507 164.86 239.315 166.663 238.257 167.486C236.399 169.054 232.698 165.369 231.546 167.486C231.232 168.027 231.365 168.717 231.224 169.321C230.793 171.187 228.331 171.532 226.418 171.492C224.505 171.453 222.498 171.336 220.883 170.277C219.268 169.219 218.445 166.812 219.652 165.338C218.798 164.507 217.23 164.985 216.555 165.989C215.99 167.051 215.742 168.254 215.842 169.454C213.906 168.725 211.875 170.152 210.503 171.665C209.131 173.178 207.72 174.989 205.697 175.303C203.674 175.616 201.079 174.417 199.801 176.04C198.139 178.156 201.565 181.63 199.888 183.723C198.931 184.899 197.097 184.593 195.576 184.789C191.554 185.322 189.39 190.779 191.585 194.197C193.78 197.615 199.072 198.188 202.279 195.71C204.505 194.009 205.697 191.335 207.445 189.156C209.194 186.976 212.149 185.236 214.69 186.381C215.658 186.913 216.508 187.636 217.191 188.505C218.319 189.767 219.456 191.03 220.585 192.315C221.306 193.099 222.091 194.119 221.855 195.185C221.651 196.039 220.883 196.612 220.475 197.38C219.331 199.591 222.381 202.28 224.678 201.3C226.975 200.32 227.673 197.121 226.52 194.91C224.952 191.861 220.609 189.822 221.212 186.42C223.792 184.852 227.139 187.368 228.096 190.238C229.052 193.107 228.645 196.243 229.382 199.152C230.119 202.061 232.933 204.985 235.779 204.021C235.434 201.543 235.097 199.081 234.752 196.612C236.626 195.593 238.029 199.56 240.138 199.238C241.424 199.034 241.832 197.286 241.471 196.016C241.11 194.746 240.303 193.609 240.264 192.292C240.217 189.893 243.133 188.176 245.438 188.897C247.743 189.619 249.115 192.119 249.217 194.511C249.167 195.462 249.241 196.416 249.436 197.349C250.056 199.317 252.259 200.21 254.031 201.269C255.802 202.327 257.512 204.499 256.445 206.271C255.967 207.055 254.987 207.705 255.167 208.623C255.348 209.54 256.414 209.901 256.304 210.708C256.202 211.241 255.591 211.492 255.066 211.665C253.717 212.002 252.314 211.97 250.997 212.394C249.679 212.817 248.394 213.821 248.3 215.177C248.174 217.121 250.322 218.376 251.169 220.124C252.016 221.872 251.545 223.793 251.953 225.612C252.337 227.298 253.427 228.748 254.25 230.245C256.806 235.051 256.751 240.751 257.559 246.121C257.919 248.552 258.813 251.327 261.126 252.111C262.438 252.409 263.807 252.344 265.085 251.923C268.715 251.053 272.502 250.112 275.277 247.674C278.052 245.235 279.573 240.774 277.488 237.67C277.259 237.245 276.883 236.919 276.43 236.753C275.773 236.701 275.115 236.828 274.524 237.121C272.659 237.678 270.604 236.698 269.334 235.192C268.064 233.687 267.453 231.806 266.833 229.947C266.167 227.909 265.508 225.855 264.819 223.793C266.096 223.009 267.845 223.66 268.88 224.773C269.915 225.886 270.408 227.345 271.185 228.638C273.537 232.629 278.013 234.91 282.49 236.078C283.65 236.311 284.768 236.718 285.806 237.286C288.981 239.332 289.232 244.491 292.674 246.09C293.631 246.537 294.752 246.639 295.63 247.219C296.955 248.097 297.433 249.814 297.637 251.398C298.013 254.338 297.856 257.348 298.656 260.218C299.456 263.087 301.486 265.863 304.403 266.325C305.323 266.434 306.256 266.361 307.147 266.109C308.039 265.857 308.873 265.433 309.601 264.859C310.142 262.233 310.62 259.59 311.004 256.901C311.075 256.282 311.153 255.725 311.192 255.161Z" fill="#F7F7F7"/>
<path d="M255.028 298.548C253.17 298.642 252.676 299.653 251.476 300.852C249.948 302.42 247.862 303.887 246.443 305.439C244.044 308.073 245.165 312.887 242.217 314.964C241.568 315.31 240.937 315.689 240.328 316.101C239.761 316.679 239.443 317.456 239.443 318.265C239.443 319.074 239.761 319.851 240.328 320.429C240.929 320.975 241.675 321.335 242.477 321.466C243.278 321.597 244.1 321.493 244.844 321.166C246.324 320.478 247.503 319.274 248.16 317.779C248.662 316.728 249.038 315.513 250.018 314.878C251.688 313.788 253.86 315.09 255.859 315.098C264.365 315.168 263.166 298.132 255.028 298.548Z" fill="#F7F7F7"/>
<path d="M261.072 275.129C266.466 271.671 269.759 262.585 264.114 259.551C261.982 258.406 259.293 258.696 257.184 257.504C254.424 255.936 253.538 252.479 252.911 249.382C251.264 241.25 249.615 233.119 247.964 224.992C246.968 220.092 245.22 214.33 240.422 212.934C237.701 212.15 234.824 213.075 231.994 213.185C222.249 213.538 209.611 188.262 200.156 202.671C199.756 198.328 192.7 198.916 189.964 202.334C187.227 205.753 186.044 210.629 182.233 212.715C179.309 214.283 175.428 213.867 172.912 216.054C171.14 217.622 170.56 220.029 169.995 222.326C168.992 226.691 167.985 231.058 166.977 235.427C166.193 238.947 165.409 242.718 166.687 246.089C167.964 249.461 172.363 251.844 175.35 249.813C176.722 248.88 177.482 247.281 178.658 246.113C179.63 245.182 180.85 244.552 182.172 244.301C183.494 244.049 184.86 244.185 186.106 244.694C188.176 245.572 189.673 247.414 190.951 249.272C201.386 264.357 203.072 283.941 200.987 302.161C200.61 305.501 200.116 308.911 200.892 312.181C201.802 316.007 204.397 319.37 204.734 323.29C204.993 326.3 203.887 329.413 204.734 332.306C206.302 337.645 213.962 338.97 218.658 335.991C223.354 333.012 225.643 327.437 227.282 322.114C228.92 316.791 230.292 311.138 234.001 306.991C236.306 304.419 239.41 302.545 241.19 299.59C243.675 295.45 243.056 290.033 245.424 285.823C248.528 280.225 255.639 278.578 261.072 275.129Z" fill="#FFA448"/>
<path d="M101.309 324.639C102.398 325.799 103.512 326.904 104.648 327.986C105.542 328.859 106.449 329.711 107.369 330.542C108.294 331.381 109.227 332.204 110.184 333.012C110.842 333.576 111.508 334.125 112.198 334.674C112.136 334.446 112.065 334.243 111.995 334.015C110.176 327.743 111.211 319.292 117.412 317.222C118.588 316.822 119.882 316.697 120.909 315.983C123.809 313.929 122.437 308.629 125.346 306.575C126.985 305.438 129.219 305.862 131.116 305.313C134.542 304.302 136.173 300.335 136.44 296.76C136.706 293.184 136.032 289.547 136.941 286.081C138.345 280.852 143.276 276.054 141.591 270.903C139.693 265.156 131.783 264.898 126.695 261.699C119.537 257.23 118.541 247.399 114.519 239.967C110.905 233.326 101.403 225.22 93.1864 225.855C87.2358 226.325 84.7584 229.477 83.551 233.624L82.8376 233.397C80.7365 232.864 78.259 232.385 77.3496 230.449C76.2834 228.191 78.063 225.329 76.9576 223.111C76.3775 221.95 75.1779 221.307 74.245 220.406C73.312 219.504 72.6299 218.015 73.461 216.988C74.1117 216.125 75.4837 216.125 76.2834 215.357C76.5935 215.046 76.7918 214.641 76.8472 214.206C76.9025 213.77 76.8117 213.328 76.5891 212.95C74.7781 210.041 71.5715 214.973 70.1838 216.047C69.8289 216.33 69.4571 216.592 69.0706 216.831C69.0235 217.058 68.9686 217.262 68.9373 217.497C68.804 218.211 68.7021 218.948 68.5845 219.684C68.4669 220.421 68.3336 221.135 68.2238 221.864C68.1376 222.46 68.0749 223.056 67.9965 223.652C67.9181 224.247 67.8318 224.843 67.7691 225.431C67.7691 225.721 67.6907 225.988 67.6672 226.278C66.2035 239.533 66.9159 252.939 69.7762 265.964C71.0557 271.747 72.767 277.426 74.8957 282.953C75.7659 285.305 76.7616 287.696 77.82 290.009C79.1293 292.887 80.5248 295.717 82.0693 298.469C83.4883 301.111 85.0328 303.706 86.6949 306.222C88.9555 309.707 91.3943 313.072 94.0018 316.305C96.312 319.19 98.7554 321.963 101.332 324.623" fill="#FFA448"/>
<path d="M80.9078 187.462C83.4558 185.847 87.4072 186.185 88.8106 188.858C89.8062 190.771 89.179 193.092 88.544 195.13C87.6868 197.905 86.827 200.683 85.9646 203.464C85.627 204.277 85.537 205.171 85.7059 206.035C86.2939 207.964 89.3045 208.05 90.6686 206.6C92.0328 205.149 92.2366 202.923 92.2366 200.916C92.2366 198.909 92.1112 196.761 93.1461 195.028C95.7254 190.732 102.452 192.409 106.843 190.003C109.563 188.513 111.108 185.581 112.958 183.08C114.808 180.579 117.662 178.227 120.704 178.807C121.731 178.995 122.695 179.521 123.738 179.638C126.788 179.975 129.226 175.797 127.36 173.366C126.913 172.894 126.529 172.367 126.215 171.798C126.084 171.231 126.152 170.637 126.405 170.113C126.659 169.59 127.085 169.169 127.611 168.921C128.675 168.462 129.834 168.266 130.99 168.349C133.648 168.301 136.297 168.278 138.947 168.247C141.88 168.247 145.76 167.267 145.776 164.327C145.776 161.794 142.585 160.195 142.444 157.663C142.487 157.045 142.464 156.425 142.373 155.812C141.817 154.119 139.363 154.409 137.716 155.028C137.603 154.453 137.358 153.912 137 153.447C136.643 152.983 136.182 152.607 135.655 152.35C135.128 152.094 134.548 151.963 133.962 151.967C133.376 151.972 132.798 152.113 132.276 152.378C130.559 153.421 130.041 155.624 129.226 157.451C127.289 161.881 123.118 164.844 119.151 167.588C117.819 168.497 116.329 169.454 114.722 169.305C113.115 169.156 111.688 167.196 112.621 165.902C113.264 165.009 114.73 164.656 114.745 163.55C114.745 162.178 112.393 161.935 112.119 160.579C113.593 156.91 118.179 155.961 121.817 154.409C126.276 152.51 129.945 149.132 132.205 144.844C132.43 144.528 132.586 144.167 132.661 143.786C132.737 143.405 132.731 143.012 132.644 142.633C132.283 141.598 131.021 141.261 129.924 141.065C127.352 140.65 124.091 140.532 122.805 142.798C122.123 144.013 122.272 145.526 121.77 146.828C120.288 150.693 114.714 150.348 111.06 152.245C109.618 152.974 108.418 154.119 106.874 154.597C105.204 155.122 103.385 154.801 101.637 154.683C101.331 154.683 101.017 154.683 100.704 154.683C99.4338 156.001 98.195 157.357 96.9955 158.737C95.796 160.117 94.6435 161.528 93.4832 162.962C88.0675 169.759 83.3994 177.119 79.5594 184.914C78.1952 187.651 76.9486 190.449 75.7962 193.311C74.6437 196.173 73.601 199.089 72.6602 202.061C74.2282 199.779 75.1846 196.816 75.9608 194.73C76.9957 191.978 78.399 189.077 80.9078 187.462Z" fill="#FFA448"/>
<path d="M311.192 255.349C311.435 253.6 311.639 251.86 311.788 250.119C311.937 248.379 312.062 246.646 312.133 244.914C312.203 243.51 312.243 242.123 312.25 240.727C312.258 239.332 312.25 237.795 312.25 236.337C312.153 231.981 311.818 227.634 311.247 223.315C311.027 221.668 310.777 220.022 310.463 218.391C310.149 216.76 309.859 215.137 309.506 213.515C309.057 212.276 308.56 211.048 308.017 209.83C302.819 198.172 294.234 188.372 288.291 177.074C286.355 173.405 284.865 170.379 280.671 169.109C274.477 167.211 270.745 170.355 267.116 163.691C266.136 161.904 264.238 160.101 262.317 160.798C262.592 162.155 262.882 163.511 263.156 164.883C263.223 165.169 263.223 165.467 263.156 165.753C262.929 166.647 261.549 166.702 260.851 166.09C260.262 165.363 259.806 164.538 259.503 163.652C259.074 162.894 258.492 162.234 257.793 161.713C257.095 161.193 256.296 160.824 255.447 160.629C254.598 160.434 253.718 160.418 252.863 160.583C252.007 160.747 251.196 161.087 250.479 161.582C250.51 160.965 250.377 160.35 250.095 159.799C249.813 159.249 249.391 158.782 248.872 158.446C248.696 159.012 248.402 159.535 248.01 159.98C247.618 160.424 247.136 160.781 246.597 161.027C246.057 161.273 245.472 161.402 244.879 161.406C244.286 161.409 243.699 161.288 243.157 161.049C242.961 159.826 245.093 159.92 245.963 159.027C246.833 158.133 246.151 156.753 245.407 155.843C243.379 153.497 240.604 151.922 237.551 151.383C235.614 151.069 233.466 151.132 231.922 149.885C231.028 149.164 230.471 148.105 229.57 147.4C227.61 145.887 228.362 149.093 226.042 149.979C222.859 151.186 221.134 151.547 219.629 154.605C219.328 155.217 219.066 155.849 218.845 156.494C218.537 157.327 218.525 158.24 218.811 159.081C219.096 159.921 219.662 160.639 220.413 161.112L220.648 161.237C221.793 161.731 222.13 163.197 222.051 164.436C221.973 165.675 221.644 166.953 222.09 168.113C222.537 169.273 224.176 170.065 224.999 169.14C226.794 167.87 226.959 165.33 226.865 163.135C226.771 160.939 226.7 158.478 228.221 156.918C229.742 155.357 233.333 156.439 232.769 158.556C232.431 159.803 230.856 160.516 230.73 161.81C230.605 163.103 232.094 164.044 233.404 164.162C234.713 164.279 236.116 164.028 237.324 164.538C238.531 165.048 239.338 166.851 238.28 167.674C236.422 169.242 232.721 165.557 231.569 167.674C231.255 168.215 231.389 168.905 231.248 169.509C230.816 171.374 228.355 171.719 226.442 171.68C224.529 171.641 222.522 171.523 220.907 170.465C219.292 169.407 218.468 167 219.676 165.526C218.821 164.695 217.253 165.173 216.579 166.177C216.013 167.239 215.766 168.442 215.865 169.642C213.929 168.913 211.898 170.34 210.526 171.853C209.154 173.366 207.743 175.177 205.721 175.491C203.698 175.804 201.103 174.605 199.825 176.227C198.163 178.344 201.589 181.817 199.911 183.911C198.955 185.087 197.12 184.781 195.599 184.977C191.577 185.51 189.413 190.967 191.609 194.385C193.804 197.803 199.096 198.375 202.302 195.898C204.529 194.197 205.721 191.523 207.469 189.344C209.217 187.164 212.173 185.424 214.713 186.568C215.681 187.101 216.532 187.824 217.214 188.693C218.343 189.955 219.48 191.218 220.609 192.503C221.33 193.287 222.114 194.307 221.879 195.373C221.675 196.227 220.907 196.8 220.499 197.568C219.354 199.779 222.404 202.468 224.701 201.488C226.998 200.508 227.696 197.309 226.544 195.098C224.976 192.049 220.632 190.01 221.236 186.608C223.815 185.04 227.163 187.556 228.119 190.426C229.076 193.295 228.668 196.431 229.405 199.34C230.142 202.248 232.957 205.173 235.803 204.208C235.458 201.731 235.121 199.269 234.776 196.8C236.649 195.78 238.053 199.747 240.162 199.426C241.447 199.222 241.855 197.474 241.494 196.204C241.134 194.934 240.326 193.797 240.287 192.48C240.24 190.081 243.157 188.364 245.461 189.085C247.766 189.806 249.138 192.307 249.24 194.699C249.191 195.65 249.265 196.604 249.46 197.537C250.079 199.504 252.282 200.398 254.054 201.457C255.826 202.515 257.535 204.687 256.469 206.459C255.991 207.243 255.011 207.893 255.191 208.811C255.371 209.728 256.437 210.088 256.328 210.896C256.226 211.429 255.614 211.68 255.089 211.852C253.741 212.19 252.337 212.158 251.02 212.582C249.703 213.005 248.417 214.008 248.323 215.365C248.198 217.309 250.346 218.563 251.193 220.312C252.039 222.06 251.569 223.981 251.977 225.8C252.361 227.485 253.45 228.936 254.274 230.433C256.829 235.239 256.775 240.939 257.582 246.309C257.943 248.74 258.837 251.515 261.149 252.299C262.462 252.597 263.83 252.532 265.109 252.111C268.738 251.241 272.525 250.3 275.301 247.862C278.076 245.423 279.597 240.962 277.511 237.858C277.282 237.433 276.906 237.107 276.453 236.94C275.796 236.889 275.138 237.016 274.548 237.309C272.682 237.866 270.628 236.886 269.358 235.38C268.088 233.875 267.476 231.993 266.857 230.135C266.19 228.097 265.532 226.043 264.842 223.981C266.12 223.197 267.868 223.848 268.903 224.961C269.938 226.074 270.432 227.532 271.208 228.826C273.56 232.817 278.037 235.098 282.513 236.266C283.673 236.499 284.792 236.906 285.83 237.474C289.005 239.52 289.256 244.679 292.697 246.278C293.654 246.725 294.775 246.827 295.653 247.407C296.978 248.285 297.456 250.002 297.66 251.586C298.037 254.526 297.88 257.536 298.679 260.406C299.479 263.275 301.51 266.05 304.426 266.513C305.346 266.622 306.279 266.548 307.171 266.297C308.063 266.045 308.896 265.621 309.624 265.047C310.165 262.42 310.643 259.778 311.027 257.089C311.074 256.47 311.153 255.913 311.192 255.349Z" fill="#FFA448"/>
<g opacity="0.3">
<path d="M255.028 298.735C253.17 298.829 252.676 299.84 251.476 301.04C249.948 302.608 247.862 304.074 246.443 305.626C244.044 308.261 245.165 313.074 242.217 315.152C241.568 315.497 240.937 315.877 240.328 316.289C239.761 316.866 239.443 317.643 239.443 318.453C239.443 319.262 239.761 320.039 240.328 320.616C240.929 321.162 241.675 321.523 242.477 321.653C243.278 321.784 244.1 321.68 244.844 321.353C246.324 320.665 247.503 319.461 248.16 317.967C248.662 316.916 249.038 315.701 250.018 315.066C251.688 313.976 253.86 315.277 255.859 315.285C264.365 315.356 263.166 298.319 255.028 298.735Z" fill="white"/>
</g>
<path d="M84.9704 121.701C83.3503 121.201 81.6333 121.101 79.9662 121.41C78.2992 121.718 76.7317 122.426 75.3977 123.472C75.3977 123.472 68.9454 128.404 71.4777 135.64C72.4343 138.294 74.3086 140.519 76.7619 141.912C77.6866 142.449 78.6638 142.891 79.6784 143.229C83.1907 144.366 93.3984 146.969 93.3984 146.969L94.5195 146.106C94.4332 142.97 92.9515 133.562 92.4262 130.552C91.7284 126.828 89.0628 122.916 84.9704 121.701ZM87.3224 136.832C86.2327 137.666 84.9199 138.159 83.5502 138.247C82.1804 138.336 80.8153 138.016 79.6273 137.328C78.4394 136.641 77.4821 135.616 76.8766 134.384C76.2711 133.153 76.0445 131.769 76.2255 130.408C76.4066 129.048 76.9871 127.771 77.8937 126.741C78.8003 125.71 79.9922 124.972 81.3186 124.619C82.645 124.265 84.0463 124.314 85.3453 124.757C86.6442 125.201 87.7824 126.02 88.616 127.11C89.1699 127.833 89.5759 128.658 89.8106 129.538C90.0454 130.418 90.1044 131.336 89.9843 132.239C89.8642 133.142 89.5672 134.012 89.1105 134.8C88.6537 135.588 88.0461 136.279 87.3224 136.832Z" fill="#F7F7F7"/>
<path opacity="0.4" d="M84.9704 121.701C83.3503 121.201 81.6333 121.101 79.9662 121.41C78.2992 121.718 76.7317 122.426 75.3977 123.472C75.3977 123.472 68.9454 128.404 71.4777 135.64C72.4343 138.294 74.3086 140.519 76.7619 141.912C77.6866 142.449 78.6638 142.891 79.6784 143.229C83.1907 144.366 93.3984 146.969 93.3984 146.969L94.5195 146.106C94.4332 142.97 92.9515 133.562 92.4262 130.552C91.7284 126.828 89.0628 122.916 84.9704 121.701ZM87.3224 136.832C86.2327 137.666 84.9199 138.159 83.5502 138.247C82.1804 138.336 80.8153 138.016 79.6273 137.328C78.4394 136.641 77.4821 135.616 76.8766 134.384C76.2711 133.153 76.0445 131.769 76.2255 130.408C76.4066 129.048 76.9871 127.771 77.8937 126.741C78.8003 125.71 79.9922 124.972 81.3186 124.619C82.645 124.265 84.0463 124.314 85.3453 124.757C86.6442 125.201 87.7824 126.02 88.616 127.11C89.1699 127.833 89.5759 128.658 89.8106 129.538C90.0454 130.418 90.1044 131.336 89.9843 132.239C89.8642 133.142 89.5672 134.012 89.1105 134.8C88.6537 135.588 88.0461 136.279 87.3224 136.832Z" fill="#F7F7F7"/>
<path d="M86.1383 120.877C84.5195 120.378 82.8037 120.278 81.1379 120.586C79.4721 120.895 77.9059 121.603 76.5735 122.649C76.5735 122.649 70.1212 127.58 72.6535 134.817C73.6101 137.471 75.4843 139.696 77.9377 141.089C78.8627 141.631 79.843 142.072 80.862 142.406C84.3665 143.543 94.5741 146.146 94.5741 146.146C94.5741 146.146 94.2605 133.327 93.602 129.729C92.8885 126.005 90.2308 122.1 86.1383 120.877ZM87.3613 136.871C86.64 137.435 85.8135 137.849 84.9302 138.089C84.0469 138.329 83.1246 138.391 82.2171 138.271C81.3096 138.15 80.4353 137.85 79.6453 137.387C78.8553 136.925 78.1655 136.31 77.6162 135.577C76.7816 134.488 76.2889 133.175 76.2005 131.805C76.1121 130.435 76.4319 129.07 77.1196 127.882C77.8072 126.694 78.8317 125.737 80.0635 125.132C81.2953 124.526 82.6791 124.299 84.0397 124.48C85.4003 124.662 86.6766 125.242 87.7072 126.149C88.7378 127.055 89.4763 128.247 89.8294 129.573C90.1825 130.9 90.1342 132.301 89.6907 133.6C89.2472 134.899 88.4284 136.037 87.3378 136.871H87.3613Z" fill="#F7F7F7"/>
<path d="M78.8935 125.809C77.7624 126.686 76.9296 127.891 76.5087 129.259C76.0878 130.627 76.0992 132.091 76.5415 133.453C76.2479 132.188 76.3763 130.863 76.9072 129.678C77.438 128.494 78.342 127.516 79.481 126.893C80.6201 126.271 81.9316 126.039 83.2151 126.232C84.4986 126.425 85.6835 127.033 86.5888 127.964C87.4941 128.894 88.07 130.095 88.2285 131.383C88.3869 132.671 88.1193 133.976 87.4664 135.098C86.8135 136.22 85.8113 137.097 84.613 137.595C83.4146 138.094 82.0859 138.186 80.83 137.859C81.9631 138.261 83.1812 138.361 84.3648 138.15C85.5485 137.94 86.657 137.425 87.5819 136.657C88.5067 135.889 89.2161 134.893 89.6405 133.768C90.0649 132.644 90.1897 131.428 90.0027 130.24C89.8157 129.052 89.3233 127.934 88.5738 126.994C87.8243 126.054 86.8434 125.325 85.7273 124.878C84.6112 124.431 83.3981 124.282 82.207 124.445C81.0158 124.608 79.8876 125.078 78.9327 125.809H78.8935Z" fill="#F7F7F7"/>
<path opacity="0.4" d="M78.8935 125.809C77.7624 126.686 76.9296 127.891 76.5087 129.259C76.0878 130.627 76.0992 132.091 76.5415 133.453C76.2479 132.188 76.3763 130.863 76.9072 129.678C77.438 128.494 78.342 127.516 79.481 126.893C80.6201 126.271 81.9316 126.039 83.2151 126.232C84.4986 126.425 85.6835 127.033 86.5888 127.964C87.4941 128.894 88.07 130.095 88.2285 131.383C88.3869 132.671 88.1193 133.976 87.4664 135.098C86.8135 136.22 85.8113 137.097 84.613 137.595C83.4146 138.094 82.0859 138.186 80.83 137.859C81.9631 138.261 83.1812 138.361 84.3648 138.15C85.5485 137.94 86.657 137.425 87.5819 136.657C88.5067 135.889 89.2161 134.893 89.6405 133.768C90.0649 132.644 90.1897 131.428 90.0027 130.24C89.8157 129.052 89.3233 127.934 88.5738 126.994C87.8243 126.054 86.8434 125.325 85.7273 124.878C84.6112 124.431 83.3981 124.282 82.207 124.445C81.0158 124.608 79.8876 125.078 78.9327 125.809H78.8935Z" fill="#F7F7F7"/>
<path d="M346.614 216.831C347.804 215.624 348.685 214.146 349.179 212.524C349.673 210.902 349.767 209.184 349.452 207.518C349.452 207.518 348.048 199.521 340.467 198.407C337.669 198.028 334.828 198.668 332.463 200.211C331.556 200.778 330.712 201.44 329.946 202.186C327.327 204.781 320.311 212.637 320.311 212.637L320.554 214.04C323.36 215.397 332.439 218.454 335.324 219.34C338.962 220.454 343.65 219.897 346.614 216.831ZM332.102 211.939C331.865 210.588 332.035 209.196 332.589 207.941C333.143 206.686 334.056 205.623 335.214 204.887C336.372 204.151 337.722 203.775 339.094 203.806C340.466 203.837 341.798 204.275 342.921 205.062C344.044 205.85 344.909 206.954 345.405 208.233C345.901 209.512 346.007 210.91 345.709 212.249C345.411 213.588 344.723 214.809 343.731 215.757C342.74 216.706 341.489 217.339 340.138 217.576C339.24 217.735 338.32 217.715 337.429 217.518C336.539 217.32 335.697 216.949 334.95 216.426C334.203 215.902 333.568 215.236 333.079 214.466C332.59 213.696 332.258 212.838 332.102 211.939Z" fill="#F7F7F7"/>
<path opacity="0.4" d="M346.614 216.831C347.804 215.624 348.685 214.146 349.179 212.524C349.673 210.902 349.767 209.184 349.452 207.518C349.452 207.518 348.048 199.521 340.467 198.407C337.669 198.028 334.828 198.668 332.463 200.211C331.556 200.778 330.712 201.44 329.946 202.186C327.327 204.781 320.311 212.637 320.311 212.637L320.554 214.04C323.36 215.397 332.439 218.454 335.324 219.34C338.962 220.454 343.65 219.897 346.614 216.831ZM332.102 211.939C331.865 210.588 332.035 209.196 332.589 207.941C333.143 206.686 334.056 205.623 335.214 204.887C336.372 204.151 337.722 203.775 339.094 203.806C340.466 203.837 341.798 204.275 342.921 205.062C344.044 205.85 344.909 206.954 345.405 208.233C345.901 209.512 346.007 210.91 345.709 212.249C345.411 213.588 344.723 214.809 343.731 215.757C342.74 216.706 341.489 217.339 340.138 217.576C339.24 217.735 338.32 217.715 337.429 217.518C336.539 217.32 335.697 216.949 334.95 216.426C334.203 215.902 333.568 215.236 333.079 214.466C332.59 213.696 332.258 212.838 332.102 211.939Z" fill="#F7F7F7"/>
<path d="M346.809 218.242C348.001 217.036 348.883 215.56 349.38 213.94C349.877 212.319 349.974 210.602 349.663 208.936C349.663 208.936 348.252 200.931 340.678 199.826C337.879 199.451 335.037 200.087 332.666 201.621C331.762 202.192 330.921 202.857 330.157 203.605C327.515 206.192 320.498 214.032 320.498 214.032C320.498 214.032 332.023 219.661 335.519 220.735C339.149 221.872 343.838 221.315 346.809 218.242ZM332.046 211.97C331.808 210.618 331.976 209.227 332.529 207.971C333.082 206.715 333.995 205.651 335.152 204.913C336.31 204.176 337.66 203.799 339.032 203.829C340.404 203.859 341.736 204.296 342.86 205.083C343.984 205.87 344.85 206.973 345.347 208.252C345.844 209.531 345.95 210.929 345.653 212.269C345.356 213.609 344.668 214.83 343.676 215.779C342.685 216.728 341.434 217.361 340.082 217.599C339.184 217.763 338.262 217.748 337.37 217.552C336.477 217.357 335.633 216.986 334.885 216.462C334.137 215.937 333.501 215.269 333.014 214.497C332.527 213.724 332.198 212.863 332.046 211.962V211.97Z" fill="#F7F7F7"/>
<path d="M345.744 209.54C345.495 208.129 344.815 206.829 343.797 205.819C342.78 204.81 341.474 204.141 340.06 203.903C341.318 204.226 342.435 204.952 343.241 205.97C344.048 206.988 344.498 208.242 344.524 209.54C344.55 210.838 344.15 212.109 343.386 213.159C342.621 214.208 341.534 214.978 340.29 215.351C339.047 215.725 337.715 215.68 336.499 215.225C335.283 214.77 334.249 213.928 333.557 212.83C332.864 211.732 332.55 210.437 332.662 209.144C332.775 207.85 333.308 206.629 334.18 205.667C333.301 206.487 332.649 207.522 332.29 208.669C331.93 209.817 331.875 211.038 332.13 212.213C332.385 213.389 332.941 214.477 333.743 215.373C334.546 216.269 335.567 216.94 336.708 217.322C337.848 217.704 339.068 217.783 340.248 217.551C341.428 217.32 342.527 216.785 343.439 216.001C344.35 215.216 345.041 214.208 345.446 213.075C345.85 211.943 345.953 210.725 345.744 209.54Z" fill="#F7F7F7"/>
<path opacity="0.4" d="M345.744 209.54C345.495 208.129 344.815 206.829 343.797 205.819C342.78 204.81 341.474 204.141 340.06 203.903C341.318 204.226 342.435 204.952 343.241 205.97C344.048 206.988 344.498 208.242 344.524 209.54C344.55 210.838 344.15 212.109 343.386 213.159C342.621 214.208 341.534 214.978 340.29 215.351C339.047 215.725 337.715 215.68 336.499 215.225C335.283 214.77 334.249 213.928 333.557 212.83C332.864 211.732 332.55 210.437 332.662 209.144C332.775 207.85 333.308 206.629 334.18 205.667C333.301 206.487 332.649 207.522 332.29 208.669C331.93 209.817 331.875 211.038 332.13 212.213C332.385 213.389 332.941 214.477 333.743 215.373C334.546 216.269 335.567 216.94 336.708 217.322C337.848 217.704 339.068 217.783 340.248 217.551C341.428 217.32 342.527 216.785 343.439 216.001C344.35 215.216 345.041 214.208 345.446 213.075C345.85 211.943 345.953 210.725 345.744 209.54Z" fill="#F7F7F7"/>
<path d="M63.4094 337.904C63.1816 339.586 63.3651 341.297 63.944 342.892C64.523 344.487 65.4802 345.918 66.7336 347.062C66.7336 347.062 72.6606 352.612 79.3795 348.943C81.8489 347.559 83.7383 345.333 84.7029 342.671C85.0738 341.67 85.3366 340.632 85.4869 339.574C86.0278 335.929 86.9138 325.462 86.9138 325.462L85.8789 324.49C82.8213 325.094 73.7269 328.097 70.8888 329.124C67.353 330.433 63.9347 333.694 63.4094 337.904ZM77.9448 333.099C78.9474 334.036 79.6494 335.25 79.9619 336.587C80.2745 337.923 80.1835 339.323 79.7005 340.608C79.2175 341.893 78.3642 343.005 77.2486 343.805C76.133 344.605 74.8052 345.056 73.4332 345.101C72.0612 345.146 70.7067 344.783 69.5411 344.058C68.3755 343.333 67.4511 342.279 66.885 341.028C66.3188 339.777 66.1363 338.387 66.3606 337.033C66.5848 335.679 67.2058 334.421 68.1448 333.42C69.4056 332.082 71.1458 331.3 72.9832 331.244C74.8206 331.188 76.605 331.863 77.9448 333.122V333.099Z" fill="#FFA448"/>
<path d="M62.4055 336.916C62.1777 338.596 62.3612 340.306 62.9402 341.9C63.5192 343.494 64.4764 344.923 65.7297 346.065C65.7297 346.065 71.6567 351.616 78.3756 347.955C80.8473 346.573 82.7375 344.346 83.699 341.683C84.0726 340.669 84.3355 339.617 84.483 338.547C85.0239 334.901 85.9099 324.435 85.9099 324.435C85.9099 324.435 73.3188 326.849 69.8849 328.096C66.3491 329.413 62.9308 332.674 62.4055 336.916ZM77.9758 333.074C78.9784 334.012 79.6804 335.226 79.9929 336.562C80.3055 337.899 80.2145 339.298 79.7315 340.583C79.2485 341.868 78.3952 342.981 77.2796 343.781C76.164 344.581 74.8362 345.032 73.4642 345.077C72.0922 345.122 70.7377 344.759 69.5721 344.034C68.4065 343.309 67.4821 342.254 66.9159 341.004C66.3498 339.753 66.1673 338.363 66.3916 337.009C66.6158 335.654 67.2367 334.397 68.1758 333.396C68.7951 332.726 69.5413 332.186 70.3709 331.807C71.2005 331.428 72.097 331.218 73.0086 331.188C73.9202 331.158 74.8287 331.309 75.6813 331.633C76.534 331.957 77.3139 332.447 77.9758 333.074Z" fill="#FFA448"/>
<path d="M68.467 343.251C69.5132 344.229 70.8367 344.861 72.2559 345.057C73.6752 345.254 75.1204 345.006 76.3932 344.348C75.1937 344.844 73.8647 344.934 72.6093 344.604C71.3539 344.274 70.2411 343.542 69.4411 342.519C68.641 341.497 68.1978 340.241 68.179 338.943C68.1602 337.645 68.5669 336.377 69.3371 335.331C70.1072 334.286 71.1983 333.522 72.4436 333.156C73.6889 332.789 75.02 332.841 76.2334 333.302C77.4467 333.764 78.4756 334.61 79.1628 335.711C79.85 336.812 80.1577 338.108 80.0388 339.401C80.2497 338.217 80.1492 336.999 79.7473 335.865C79.3454 334.732 78.6558 333.723 77.7462 332.936C76.8365 332.15 75.7381 331.613 74.5585 331.379C73.379 331.145 72.1589 331.221 71.0178 331.601C69.8768 331.98 68.854 332.65 68.0497 333.544C67.2454 334.438 66.6873 335.526 66.4301 336.7C66.1729 337.875 66.2254 339.097 66.5825 340.245C66.9396 341.393 67.589 342.429 68.467 343.251Z" fill="#FFA448"/>
<path d="M302.715 139.711C302.878 138.519 302.749 137.306 302.339 136.175C301.93 135.044 301.251 134.03 300.363 133.219C300.363 133.219 296.153 129.299 291.378 131.879C289.631 132.857 288.29 134.428 287.599 136.308C287.328 137.02 287.134 137.759 287.019 138.511C286.635 141.099 286 148.547 286 148.547L286.737 149.237C288.909 148.805 295.361 146.681 297.384 145.952C299.916 145.034 302.346 142.721 302.715 139.711ZM292.397 143.129C291.686 142.464 291.189 141.603 290.967 140.655C290.745 139.707 290.809 138.715 291.152 137.803C291.494 136.892 292.098 136.102 292.889 135.534C293.68 134.966 294.622 134.646 295.595 134.613C296.568 134.58 297.529 134.836 298.356 135.35C299.183 135.863 299.84 136.61 300.243 137.496C300.646 138.382 300.777 139.368 300.62 140.329C300.462 141.29 300.024 142.182 299.359 142.894C298.467 143.847 297.232 144.407 295.927 144.451C294.622 144.495 293.353 144.02 292.397 143.129Z" fill="#FFA448"/>
<path d="M303.428 140.433C303.591 139.241 303.462 138.028 303.052 136.897C302.643 135.766 301.964 134.752 301.076 133.941C301.076 133.941 296.866 130.021 292.091 132.6C290.339 133.581 288.998 135.158 288.312 137.046C288.041 137.757 287.847 138.496 287.732 139.249C287.348 141.836 286.713 149.284 286.713 149.284C286.713 149.284 295.658 147.567 298.097 146.689C300.535 145.811 303.051 143.443 303.428 140.433ZM292.373 143.161C291.896 142.722 291.512 142.192 291.242 141.602C290.972 141.013 290.822 140.376 290.801 139.728C290.779 139.08 290.887 138.434 291.118 137.828C291.349 137.222 291.699 136.668 292.146 136.199C292.812 135.489 293.673 134.992 294.622 134.771C295.57 134.55 296.562 134.616 297.474 134.959C298.385 135.302 299.174 135.908 299.741 136.699C300.307 137.491 300.627 138.433 300.659 139.406C300.691 140.379 300.433 141.339 299.919 142.166C299.405 142.993 298.657 143.649 297.77 144.051C296.884 144.453 295.898 144.583 294.937 144.424C293.976 144.266 293.084 143.826 292.373 143.161Z" fill="#FFA448"/>
<path d="M299.488 136.095C298.746 135.399 297.806 134.949 296.798 134.809C295.79 134.668 294.763 134.844 293.859 135.311C294.71 134.959 295.653 134.895 296.544 135.129C297.435 135.363 298.225 135.883 298.793 136.608C299.361 137.334 299.676 138.225 299.689 139.147C299.703 140.068 299.414 140.968 298.868 141.71C298.321 142.452 297.547 142.994 296.663 143.254C295.779 143.515 294.835 143.478 293.973 143.151C293.112 142.824 292.382 142.224 291.894 141.442C291.406 140.661 291.187 139.741 291.271 138.823C291.122 139.663 291.193 140.527 291.479 141.331C291.764 142.135 292.253 142.851 292.898 143.409C293.543 143.967 294.322 144.348 295.159 144.515C295.995 144.681 296.861 144.627 297.67 144.358C298.48 144.089 299.206 143.615 299.777 142.981C300.348 142.347 300.744 141.576 300.927 140.743C301.111 139.91 301.074 139.044 300.822 138.229C300.57 137.414 300.11 136.679 299.488 136.095Z" fill="#FFA448"/>
<path d="M154.738 292.503H183.817C183.817 292.503 181.245 287.799 173.758 288.505C166.608 289.155 166.247 286.2 162.61 285.839C158.972 285.478 155.953 288.262 154.738 292.503Z" fill="white"/>
<path d="M174.73 267.274H217.764C217.764 267.274 213.962 260.351 202.868 261.355C192.284 262.319 191.751 257.952 186.404 257.435C181.057 256.917 176.526 261.002 174.73 267.274Z" fill="white"/>
<path d="M118.916 202.947H147.069C147.069 202.947 144.576 198.423 137.332 199.082C130.409 199.709 130.057 196.847 126.544 196.502C123.032 196.157 120.092 198.847 118.916 202.947Z" fill="white"/>
</svg>
