<svg width="25" height="24" viewBox="0 0 25 24" fill="none" xmlns="http://www.w3.org/2000/svg">
<path d="M12.4998 0.0441895C5.87253 0.0441895 0.5 5.41672 0.5 12.0439C0.5 17.6714 4.37448 22.3935 9.6011 23.6904V15.7111H7.12675V12.0439H9.6011V10.4638C9.6011 6.37958 11.4495 4.4865 15.4594 4.4865C16.2197 4.4865 17.5315 4.63578 18.0681 4.78457V8.10851C17.7849 8.07875 17.2929 8.06387 16.6819 8.06387C14.7144 8.06387 13.9541 8.80929 13.9541 10.747V12.0439H17.8737L17.2003 15.7111H13.9541V23.9559C19.8959 23.2383 24.5 18.1792 24.5 12.0439C24.4995 5.41672 19.127 0.0441895 12.4998 0.0441895Z" fill="#282828"/>
</svg>
