<svg width="24" height="26" viewBox="0 0 24 26" fill="none" xmlns="http://www.w3.org/2000/svg">
<path d="M12.2441 10.7737V15.5159H18.8342C18.5448 17.0409 17.6764 18.3323 16.374 19.2005L20.348 22.2841C22.6635 20.1468 23.9993 17.0076 23.9993 13.2785C23.9993 12.4102 23.9214 11.5752 23.7766 10.7738L12.2441 10.7737Z" fill="#282828"/>
<path d="M5.38338 15.3307L4.48708 16.0168L1.31445 18.488C3.32931 22.4843 7.45892 25.2451 12.2456 25.2451C15.5516 25.2451 18.3234 24.1541 20.3495 22.284L16.3754 19.2005C15.2845 19.9352 13.893 20.3805 12.2456 20.3805C9.06188 20.3805 6.35693 18.2321 5.38839 15.3378L5.38338 15.3307Z" fill="#282828"/>
<path d="M1.31346 7.51208C0.478619 9.15953 0 11.0186 0 13C0 14.9814 0.478619 16.8405 1.31346 18.4879C1.31346 18.499 5.38779 15.3265 5.38779 15.3265C5.14289 14.5918 4.99813 13.8126 4.99813 12.9999C4.99813 12.1872 5.14289 11.408 5.38779 10.6733L1.31346 7.51208Z" fill="#282828"/>
<path d="M12.2458 5.63075C14.0492 5.63075 15.6522 6.25412 16.9323 7.45637L20.4388 3.94989C18.3126 1.96845 15.552 0.755005 12.2458 0.755005C7.45917 0.755005 3.32931 3.50457 1.31445 7.51204L5.38865 10.6735C6.35706 7.77918 9.06214 5.63075 12.2458 5.63075Z" fill="#282828"/>
</svg>
