<svg width="208" height="91" viewBox="0 0 208 91" fill="none" xmlns="http://www.w3.org/2000/svg">
<path d="M45.918 17.9683C47.5782 18.4965 48.7976 19.6643 49.5986 21.2524L49.7373 21.5298C50.4109 22.9262 50.7382 24.4459 50.7383 26.062C50.7383 27.635 50.3902 29.1649 49.7158 30.6362L49.7041 30.6616C48.9764 32.183 47.8339 33.4322 46.3516 34.4204L46.3086 34.4478C44.6794 35.4659 42.618 35.8901 40.2812 35.8901C39.2016 35.8901 37.9024 35.8052 36.3984 35.644L36.3643 35.6401L36.3301 35.6353C35.4071 35.4985 34.4377 35.3631 33.4229 35.2261C32.9394 37.9971 32.4351 41.2078 31.9131 44.8608L31.9141 44.8618C31.3411 49.1851 30.8455 53.8528 30.4277 58.8657C30.0634 63.866 29.8288 68.946 29.7246 74.105L29.7109 74.77L29.2529 75.2534C28.1255 76.4434 26.7749 77.3221 25.2227 77.8843L25.2236 77.8853C25.2199 77.8867 25.2157 77.8868 25.2119 77.8882C25.2087 77.8894 25.2054 77.8919 25.2021 77.8931L25.2012 77.8921C23.7782 78.4231 22.3488 78.7026 20.9209 78.7026C18.9814 78.7026 17.2009 78.1969 15.6377 77.1548L15.623 77.145L15.6094 77.1353C13.8497 75.9111 13.073 74.0549 13.1406 71.8911V71.8833L13.1855 70.7534C13.3016 68.0837 13.4981 65.1771 13.7754 62.0347L13.7773 62.022L13.7783 62.0093C14.1471 58.4268 14.568 54.7924 15.042 51.106C15.5148 47.376 15.9879 43.8027 16.4609 40.3862L16.4629 40.3735L16.4648 40.3599C16.875 37.694 17.2554 35.2525 17.6016 33.0347C17.5268 33.0289 17.4523 33.0225 17.3779 33.0171L16.7275 32.9751C15.8624 32.9242 15.0832 32.8989 14.3887 32.8989C12.2921 32.8989 10.4335 33.099 8.80176 33.4829C7.31226 33.8456 6.10351 34.4635 5.12988 35.3101L2.2793 37.7886V34.0112C2.2793 30.6329 2.54543 27.7974 3.12012 25.5562L3.12305 25.5415L3.12695 25.5269C3.78777 23.1241 5.01804 21.1976 6.92578 19.9712L6.9375 19.9634L6.94824 19.9565C8.8615 18.769 11.438 18.2808 14.4668 18.2808C16.6582 18.2808 19.0701 18.4727 21.6963 18.8472C24.3231 19.1625 26.9757 19.5039 29.6543 19.8716L30.624 19.9976C32.8653 20.2714 34.9554 20.4057 36.8965 20.4058C38.6776 20.4058 40.2128 20.2327 41.5166 19.9067L41.5303 19.9028L41.9814 19.7798C42.984 19.472 43.6434 19.0242 44.0742 18.5073L44.8154 17.6177L45.918 17.9683Z" fill="#3AA078" stroke="white" stroke-width="3.44237"/>
<path d="M67.8984 37.3949C71.79 37.3949 75.113 38.0085 77.7646 39.3529H77.7656C80.3186 40.6053 82.3063 42.2951 83.6104 44.4652L83.8486 44.8549C85.0043 46.8174 85.5938 48.94 85.5938 51.1957C85.5937 53.6114 84.9624 55.9505 83.7471 58.1957L83.748 58.1967C82.5552 60.4829 80.8431 62.3861 78.6445 63.9008L78.6377 63.9056C77.2841 64.8286 75.7845 65.5028 74.1543 65.9447C74.304 66.1621 74.4506 66.3842 74.5889 66.6146H74.5879C75.1002 67.4357 75.6221 68.3378 76.1514 69.3207L76.6885 70.3412L76.6943 70.351L76.6992 70.3607C77.2673 71.4969 77.9374 72.5964 78.7119 73.6586C79.2032 74.3025 79.8265 74.6244 80.7705 74.6244C81.2071 74.6244 81.4402 74.5301 81.5713 74.4457C81.7447 74.285 82.0032 73.942 82.2744 73.264L82.9697 71.5277L84.6426 72.3636L85.0381 72.5619L85.6758 72.8812L85.9014 73.557L85.9951 73.85C86.1938 74.5068 86.3223 75.1636 86.375 75.8177C86.4684 76.4842 86.5185 77.1233 86.5186 77.7318C86.5186 80.8431 85.6452 83.575 83.8213 85.8158L83.8154 85.8236L83.8086 85.8314C81.9392 88.0746 79.4733 89.2229 76.5459 89.223C74.7148 89.223 73.0359 88.7735 71.5771 87.8197L71.5449 87.7992L71.5127 87.7767C70.2336 86.8557 69.1286 85.6916 68.1904 84.309L68.1777 84.2914L68.167 84.2738C67.3182 82.9535 66.5693 81.5239 65.918 79.9886L65.9053 79.9603L65.8945 79.931C65.3232 78.4368 64.7742 77.0086 64.2471 75.6469L64.2393 75.6283L64.2324 75.6088C63.4586 73.4593 62.7502 71.5938 62.1094 70.0092C61.7443 71.7071 61.4233 73.3665 61.1455 74.9867C60.6764 77.9798 60.3749 81.3337 60.2451 85.0531L60.2197 85.7592L59.7061 86.2445C58.7601 87.1379 57.6774 87.8247 56.4688 88.3011L56.4697 88.3021C56.4653 88.3039 56.4605 88.3052 56.4561 88.307C56.4524 88.3084 56.449 88.3105 56.4453 88.3119L56.4443 88.3109C55.284 88.7821 54.082 89.0248 52.8477 89.0248C50.8713 89.0248 49.1034 88.3325 47.6113 87.0062L47.5986 86.9945L47.5859 86.9818C45.8872 85.4089 45.251 83.0016 45.251 80.2406C45.251 78.313 45.5396 76.1944 46.0908 73.8978L46.2988 73.0531C46.7946 71.0748 47.3749 69.0486 48.04 66.975L48.0449 66.9603L48.0498 66.9467C48.8451 64.6051 49.6407 62.3291 50.4365 60.1185L50.999 58.5267C51.5353 56.9829 51.9966 55.5666 52.3838 54.2767L52.5615 53.6439C52.8806 52.4608 53.0444 51.5402 53.0908 50.8549C52.7769 51.0756 52.3881 51.4132 51.9287 51.9066L51.9189 51.9174L51.9082 51.9281C50.8641 53.0109 49.7391 54.6069 48.5479 56.7767L47.8564 58.0355L46.0986 57.4496L44.9219 57.057V55.8168C44.9219 52.9198 45.5515 50.2724 46.8525 47.9203L47.0957 47.4945C48.2531 45.5294 49.7482 43.8425 51.5713 42.4418L51.9668 42.1459C54.12 40.5679 56.5689 39.3853 59.2949 38.5863L59.3018 38.5844L59.8203 38.4398C62.4186 37.7416 65.1132 37.3949 67.8984 37.3949ZM65.5908 48.5052C65.5831 50.4804 65.4944 52.3985 65.3213 54.2592C65.2448 55.3452 65.1449 56.3455 65.0225 57.2572C66.2338 57.2258 67.1985 56.9445 67.9766 56.4681C68.9622 55.8465 69.6523 55.1368 70.1084 54.3549L70.1133 54.3461L70.1191 54.3363C70.6456 53.4588 70.8633 52.6607 70.8633 51.9213C70.8632 51.0629 70.5541 50.3135 69.8096 49.6L69.7832 49.5746L69.7578 49.5482C69.2191 48.986 68.1171 48.4945 65.9834 48.4945C65.8584 48.4945 65.7276 48.498 65.5908 48.5052Z" fill="#9AC7F0" stroke="white" stroke-width="3.44237"/>
<path d="M110.646 37.3949C112.134 37.3949 113.507 37.829 114.718 38.6849L114.719 38.684C114.725 38.6884 114.731 38.6942 114.737 38.6986C114.741 38.7012 114.745 38.7028 114.749 38.7054L114.748 38.7064C116.178 39.6959 117.002 41.2666 117.409 43.099L117.507 43.5375L117.378 43.9672C117.125 44.8088 116.715 46.339 116.143 48.5844L116.141 48.5922C115.719 50.2137 115.271 52.124 114.796 54.3256L114.312 56.6254C113.658 59.8082 113.025 63.3254 112.412 67.1771C111.848 71.0004 111.391 75.0012 111.042 79.1801C111.042 79.1833 111.042 79.1866 111.042 79.1898C111.042 79.1915 111.041 79.1931 111.041 79.1947C110.996 79.9541 110.93 80.8375 110.843 81.8422V81.848L109.128 81.6927L110.842 81.848C110.756 82.788 110.692 83.7515 110.649 84.7377L110.622 85.3676L110.195 85.8304C109.489 86.5956 108.515 87.2742 107.373 87.8929L107.349 87.9066L107.323 87.9193C106.036 88.5628 104.673 88.8929 103.253 88.8929C101.485 88.8929 99.9531 88.1438 98.709 86.8431L98.6826 86.8158L98.6572 86.7865C97.2907 85.2246 96.8457 82.7203 96.8457 79.8441V78.4945L96.8555 78.3998C96.8989 78.0085 96.9111 77.8046 96.9111 77.7318V77.6459L96.9199 77.5609C97.0974 75.7865 97.3407 73.5968 97.6494 70.9945L97.6504 70.9818L97.6523 70.9691C98.006 68.3164 98.404 65.5547 98.8457 62.684C99.2865 59.7745 99.7269 56.9742 100.168 54.2836L100.171 54.2699L100.173 54.2562C100.658 51.5649 101.1 49.2216 101.499 47.2279C101.893 45.2143 102.244 43.7145 102.555 42.8334L102.558 42.8236L102.562 42.8138C103.182 41.1229 104.295 39.7868 105.844 38.8422V38.8412C107.354 37.9038 108.963 37.3949 110.646 37.3949Z" fill="#EA6137" stroke="white" stroke-width="3.44237"/>
<path d="M143.564 17.8882C147.515 17.8882 151.008 18.4842 153.996 19.7368C156.929 20.9224 159.377 22.581 161.289 24.7378H161.288C163.202 26.8473 164.616 29.2707 165.525 31.9937L165.688 32.4927C166.479 34.9936 166.871 37.6108 166.871 40.3364C166.871 43.8476 166.238 47.3648 164.989 50.8804L164.988 50.8794C163.78 54.3598 162.016 57.5618 159.7 60.48L159.701 60.481C157.395 63.3985 154.57 65.7501 151.241 67.5317L151.233 67.5366C147.881 69.3084 144.146 70.1782 140.065 70.1782C138.447 70.1782 136.817 70.0148 135.177 69.6909L134.473 69.5425C132.559 69.112 130.774 68.4382 129.126 67.5171L129.1 67.5024L129.073 67.4868C127.416 66.4823 126.044 65.1894 124.977 63.6138L124.958 63.5874L124.941 63.5601C123.864 61.8356 123.359 59.8356 123.359 57.6313V57.0366C123.359 56.7096 123.392 56.3598 123.443 56.0015C123.589 54.719 123.891 53.181 124.335 51.4048L124.34 51.3853L124.346 51.3657L124.726 50.0103C125.118 48.6341 125.546 47.1969 126.012 45.6997L126.916 42.7573C127.212 41.7823 127.502 40.813 127.787 39.8491L127.792 39.8315L127.798 39.8149C128.405 37.9053 128.901 36.1801 129.286 34.6382C129.542 33.5852 129.697 32.7253 129.772 32.0425C129.744 32.0674 129.715 32.0924 129.686 32.1187L129.311 32.4673C128.339 33.4012 127.114 35.0638 125.642 37.5757L124.937 38.7798L123.217 38.2065L122.04 37.814V36.5737C122.04 32.7501 122.892 29.3799 124.682 26.5454L124.687 26.5386L125.036 26.0112C126.83 23.4171 129.267 21.4419 132.299 20.0845C135.559 18.6005 139.33 17.8882 143.564 17.8882ZM142.368 29.9702C142.508 30.9206 142.579 31.89 142.579 32.8774C142.579 35.0143 142.369 37.1886 141.955 39.3989C141.598 41.5392 141.174 43.6163 140.682 45.6294C140.246 47.5914 139.831 49.4247 139.438 51.1294C139.104 52.7588 138.948 54.1515 138.948 55.3208C138.948 56.4625 139.189 57.1443 139.48 57.5474L139.532 57.6099C139.687 57.7699 140.096 58.022 141.188 58.022C142.593 58.022 143.825 57.626 144.936 56.8276C146.182 55.9194 147.286 54.7097 148.237 53.1646L148.59 52.5679C149.388 51.1568 150.021 49.613 150.486 47.9312C151.019 45.9631 151.282 44.0044 151.282 42.0522C151.282 39.75 150.879 37.6137 150.085 35.6284L150.08 35.6147L150.074 35.6011C149.401 33.8306 148.343 32.3941 146.882 31.2612L146.584 31.0386C145.474 30.2385 144.067 29.691 142.307 29.4526C142.329 29.6246 142.351 29.7969 142.368 29.9702Z" fill="#FAC03C" stroke="white" stroke-width="3.44237"/>
<path d="M192.646 37.3949C195.51 37.3949 197.955 37.7524 199.878 38.5717L199.879 38.5707C201.762 39.314 203.301 40.3739 204.301 41.8441H204.3C205.231 43.1688 205.721 44.6479 205.721 46.2445C205.721 48.0291 205.159 49.7493 204.14 51.3812L204.126 51.4027C203.064 53.049 201.552 54.3548 199.669 55.349L199.67 55.35C197.904 56.3043 195.841 56.7843 193.538 56.8636C194.356 57.2219 195.062 57.7982 195.596 58.6244H195.597C196.415 59.8512 196.81 61.2444 196.81 62.7474C196.81 64.5397 196.243 66.2181 195.186 67.7513L195.184 67.7504C193.994 69.5416 192.179 70.4095 190.006 70.4095C188.289 70.4095 186.503 69.7435 184.686 68.6293C183.252 69.901 182.684 71.2164 182.684 72.5834C182.684 74.0133 183.101 74.8335 183.711 75.35C184.49 75.9724 185.532 76.3411 186.969 76.3412C188.821 76.3412 191.034 75.7025 193.645 74.2543C196.153 72.8199 198.435 70.6613 200.471 67.7113L201.405 66.3568L202.8 67.2289L203.328 67.559L204.164 68.0814L204.136 69.0677C204.042 72.3532 203.359 75.3131 202.04 77.9066L202.041 77.9076C200.796 80.3974 199.132 82.5028 197.048 84.2025L197.049 84.2035C195.04 85.8778 192.788 87.1465 190.305 88.0062L190.29 88.0111L190.276 88.015C187.818 88.8188 185.305 89.223 182.744 89.223C179.601 89.223 176.853 88.6608 174.593 87.4281L174.58 87.4213L174.567 87.4135C172.527 86.2541 170.922 84.7505 169.824 82.8861L169.611 82.5092L169.606 82.5004L169.603 82.4926C168.546 80.481 168.02 78.3136 168.02 76.016C168.02 73.9817 168.417 71.9828 169.198 70.0297L169.351 69.6625C170.132 67.8371 171.235 66.1721 172.645 64.6713L172.653 64.6615L172.663 64.6517C173.597 63.6885 174.641 62.8508 175.788 62.1361C174.835 61.2559 174.035 60.2759 173.402 59.1918L173.389 59.1683L173.375 59.1429C172.366 57.2767 171.848 55.3024 171.848 53.2416C171.848 50.5529 172.734 47.9938 174.399 45.5931L174.726 45.141C176.4 42.9076 178.713 41.0993 181.588 39.684L182.186 39.4027C185.203 38.044 188.707 37.3949 192.646 37.3949ZM190.93 47.8344C190.489 47.8344 189.873 47.9986 189.048 48.5336C188.428 48.9588 187.863 49.552 187.364 50.3529L187.153 50.7113C186.657 51.6043 186.38 52.6941 186.38 54.0345C186.38 54.691 186.484 55.4874 186.721 56.4379L186.81 56.7592C186.884 57.0072 186.971 57.2565 187.068 57.5082C187.505 57.2961 187.934 57.1169 188.354 56.974L188.716 56.847C189.348 56.6375 189.975 56.4945 190.59 56.4359L191.215 54.6019C191.89 52.6182 192.179 51.1041 192.179 50.0072C192.179 48.9696 191.981 48.485 191.838 48.2797L191.781 48.2084C191.533 47.9408 191.284 47.8344 190.93 47.8344Z" fill="#09679C" stroke="white" stroke-width="3.44237"/>
<path d="M117.006 24.3549L117.188 25.1068V25.8881C117.188 28.5547 115.576 30.844 113.273 31.8363C113.585 31.4474 113.823 30.9997 113.969 30.5131L115.13 26.6215C115.503 26.4704 115.847 26.2466 116.137 25.9564C116.595 25.4986 116.886 24.9086 116.984 24.2767L117.006 24.3549ZM104.73 23.8119C104.73 24.5155 104.975 25.1942 105.417 25.7338L105.619 25.9564C105.99 26.3271 106.447 26.5895 106.943 26.7289L106.481 28.2767C106.222 29.1469 106.275 30.0766 106.623 30.9066C105.168 29.7193 104.239 27.9123 104.239 25.8881V25.1029L104.421 24.3549C104.5 24.0297 104.605 23.7143 104.73 23.4105V23.8119ZM110.796 19.4154C111.305 19.4217 111.798 19.4848 112.27 19.601L112.573 19.6761L112.732 19.6566L113.638 20.1097L113.643 20.1117L113.672 20.0521L113.854 20.7123L114.49 20.6302C114.761 20.8255 115.017 21.0401 115.255 21.2738L114.017 22.6693C114.014 22.6725 114.011 22.6737 114.011 22.6742L114.009 22.6761C114.007 22.677 114.003 22.6779 113.998 22.6781C113.993 22.6783 113.988 22.6778 113.986 22.6771L113.984 22.6752C113.984 22.6746 113.981 22.6739 113.979 22.6713L113.866 22.5648L110.96 19.8011V23.8119C110.96 24.5156 111.204 25.1941 111.646 25.7338L111.848 25.9564C112.416 26.5251 113.188 26.8441 113.992 26.8441C114.06 26.8441 114.127 26.8379 114.194 26.8334L111.413 28.557C110.876 28.8895 110.181 28.7427 109.82 28.2416L109.752 28.1371V28.1361L109.624 27.9125L108.886 26.6263C109.173 26.5117 109.444 26.3558 109.686 26.1576L109.907 25.9564C110.476 25.3877 110.796 24.6161 110.796 23.8119V19.4154ZM113.992 23.4027C114.074 23.4027 114.153 23.4265 114.22 23.4711L114.282 23.5219L114.333 23.5844C114.378 23.6512 114.402 23.7303 114.402 23.8119H113.582C113.582 23.7033 113.625 23.5987 113.702 23.5219L113.765 23.4711C113.832 23.4264 113.911 23.4027 113.992 23.4027ZM107.787 22.6693L107.78 22.6761C107.778 22.677 107.774 22.6779 107.769 22.6781C107.764 22.6783 107.76 22.6778 107.758 22.6771L107.756 22.6752C107.755 22.6748 107.753 22.674 107.75 22.6713L107.638 22.5648L106.226 21.222C107.382 20.1099 108.95 19.4229 110.678 19.4135L107.787 22.6693ZM107.764 23.4027C107.845 23.4028 107.924 23.4267 107.99 23.4711L108.053 23.5219L108.104 23.5844C108.149 23.6512 108.173 23.7304 108.173 23.8119H107.354C107.354 23.7033 107.397 23.5987 107.474 23.5219L107.536 23.4711C107.603 23.4266 107.682 23.4027 107.764 23.4027Z" fill="#48A0FF" stroke="white" stroke-width="3.44237"/>
<path fill-rule="evenodd" clip-rule="evenodd" d="M114.11 17.162C114.942 18.1143 114.639 18.82 113.996 19.2985L114.001 19.3006L113.988 19.3047C113.786 19.4533 113.552 19.5799 113.31 19.6849L114.437 19.5404C116.094 20.5277 117.326 22.1542 117.793 24.0797C117.859 24.0639 117.928 24.0553 117.999 24.0553C118.482 24.0553 118.873 24.4467 118.873 24.9295C118.873 25.4123 118.482 25.8038 117.999 25.8038C117.999 29.8274 114.737 33.0892 110.713 33.0892C106.69 33.0892 103.428 29.8274 103.428 25.8038C102.945 25.8038 102.554 25.4123 102.554 24.9295C102.554 24.4467 102.945 24.0553 103.428 24.0553C103.499 24.0553 103.567 24.0638 103.633 24.0796C104.408 20.8882 107.284 18.5183 110.713 18.5183C111.316 18.5183 111.902 18.5917 112.462 18.7298C113.356 18.6232 113.926 17.6703 114.11 17.162ZM108.417 28.3649C108.27 28.8586 108.325 29.3906 108.57 29.844C108.815 30.2973 109.23 30.6348 109.723 30.7822C110.217 30.9297 110.749 30.8749 111.202 30.6301C111.656 30.3852 111.993 29.9703 112.141 29.4766C110.896 30.2475 109.26 29.8337 108.532 28.5637L108.417 28.3649ZM109.256 23.9581C108.673 24.615 107.662 24.658 107.025 24.0529L106.925 23.9581C106.925 24.2673 107.048 24.5638 107.266 24.7824C107.485 25.001 107.781 25.1238 108.091 25.1238C108.4 25.1238 108.696 25.001 108.915 24.7824C109.134 24.5638 109.256 24.2673 109.256 23.9581ZM114.793 23.9581C114.21 24.615 113.198 24.658 112.562 24.0529L112.462 23.9581C112.462 24.2673 112.585 24.5638 112.803 24.7824C113.022 25.001 113.318 25.1238 113.628 25.1238C113.937 25.1238 114.233 25.001 114.452 24.7824C114.67 24.5638 114.793 24.2673 114.793 23.9581Z" fill="#EA6137"/>
</svg>
