<svg width="392" height="392" viewBox="0 0 392 392" fill="none" xmlns="http://www.w3.org/2000/svg">
<path d="M25.8719 143.41C25.8719 143.41 20.9876 145.385 26.6559 155.766C32.3242 166.146 36.1502 171.25 36.1502 171.25C36.1502 171.25 37.1615 173.664 35.1153 174.096C33.069 174.527 28.5297 173.923 27.683 176.448C26.8362 178.972 28.757 181.489 32.6535 183.551C36.55 185.612 44.9153 190.426 45.6758 190.865C46.4362 191.304 47.1732 192.433 45.8326 192.935C44.4919 193.437 34.3391 194.777 35.2564 199.552C36.1737 204.327 47.965 208.286 49.2508 208.74C50.5366 209.195 50.8188 209.728 50.7639 210.426C50.709 211.124 47.2202 211.249 44.3508 211.743C41.4814 212.237 38.2356 213.311 38.9961 216.032C39.7566 218.752 46.8361 224.303 63.6842 225.51L71.5242 225.565L75.6246 218.831C83.4646 203.888 82.5316 194.942 80.6265 192.864C78.7214 190.787 76.1028 192.966 74.1585 195.146C72.2142 197.325 70.2934 200.179 69.6505 199.85C69.0076 199.521 68.7332 199.003 69.0233 197.67C69.3134 196.338 72.1593 184.24 68.6313 180.932C65.1033 177.624 58.5647 185.542 57.4122 186.42C56.2598 187.298 55.7188 186.052 55.7423 185.189C55.7658 184.327 56.103 174.66 56.4166 170.293C56.7302 165.926 55.7188 162.963 53.0218 162.32C50.3249 161.677 48.5295 165.871 47.0791 167.377C45.6287 168.882 44.1156 166.742 44.1156 166.742C44.1156 166.742 41.7871 160.799 35.962 150.528C30.1369 140.258 25.77 143.472 25.77 143.472" fill="#F7F7F7"/>
<path d="M71.9477 227.408C67.7062 219.85 60.3758 206.287 54.0333 194.676C47.6907 183.064 41.9283 172.567 37.7182 164.985C35.6171 161.199 33.908 158.141 32.7242 156.009L31.36 153.57L31.015 152.935C30.9366 152.786 30.9053 152.708 30.9053 152.708L31.0386 152.92L31.407 153.547L32.8026 155.962C34.0099 158.063 35.7426 161.12 37.8594 164.899C42.1086 172.457 47.8867 182.931 54.2371 194.558C60.5875 206.185 67.8944 219.748 72.128 227.36" fill="#F7F7F7"/>
<path d="M33.9707 177.561C34.158 177.589 34.3418 177.636 34.5195 177.702C34.8723 177.804 35.3741 177.968 35.9934 178.172C37.2243 178.595 38.9177 179.215 40.768 179.928L45.472 181.786L46.9067 182.335C47.0888 182.393 47.2648 182.47 47.432 182.562C47.2419 182.54 47.0552 182.495 46.8753 182.429C46.5304 182.319 46.0286 182.163 45.4093 181.943C44.1784 181.512 42.4928 180.877 40.6425 180.156L35.8915 178.337L34.4489 177.788C34.2808 177.732 34.1202 177.656 33.9707 177.561Z" fill="#F7F7F7"/>
<path d="M47.9878 182.045C47.9251 182.045 49.0541 178.477 50.5045 174.134C51.9549 169.791 53.1779 166.294 53.2406 166.294C53.3034 166.294 52.1822 169.861 50.7318 174.212C49.2814 178.564 48.0584 182.068 47.9878 182.045Z" fill="#F7F7F7"/>
<path d="M56.9346 200.312C57.0181 200.137 57.1206 199.971 57.2403 199.818L58.1341 198.525C58.9181 197.435 59.9294 195.914 61.0114 194.205C62.0933 192.496 63.0263 190.912 63.6848 189.759L64.4688 188.395C64.5547 188.222 64.6599 188.059 64.7824 187.909C64.7195 188.091 64.6408 188.267 64.5472 188.434C64.3904 188.772 64.1395 189.218 63.8259 189.838C63.2066 191.014 62.2579 192.613 61.2074 194.33C60.1568 196.047 59.0592 197.56 58.2674 198.626C57.8754 199.16 57.5461 199.591 57.3109 199.881C57.2023 200.038 57.076 200.183 56.9346 200.312Z" fill="#F7F7F7"/>
<path d="M43.3623 199.05C43.5394 199.03 43.7183 199.03 43.8954 199.05L45.3458 199.129C46.5767 199.199 48.2701 199.325 50.1361 199.474C52.002 199.623 53.6954 199.772 54.9185 199.889L56.3689 200.046C56.5467 200.055 56.7229 200.084 56.8941 200.132C56.7176 200.161 56.5376 200.161 56.361 200.132L54.9106 200.054C53.6797 199.975 51.9863 199.858 50.1204 199.709C48.2545 199.56 46.561 199.411 45.338 199.286L43.9033 199.137C43.7201 199.129 43.5385 199.101 43.3623 199.05Z" fill="#F7F7F7"/>
<path d="M49.2041 216.18C49.4336 216.16 49.6645 216.16 49.894 216.18L51.7521 216.274C53.3201 216.368 55.4996 216.502 57.8987 216.674C60.2977 216.847 62.4615 217.011 64.0295 217.137L65.8876 217.309C66.1172 217.322 66.3453 217.353 66.5697 217.403C66.3428 217.424 66.1145 217.424 65.8876 217.403L64.0217 217.309C62.4537 217.223 60.2742 217.082 57.883 216.917C55.4918 216.753 53.3123 216.58 51.7443 216.447L49.8862 216.282C49.6561 216.27 49.4277 216.236 49.2041 216.18Z" fill="#F7F7F7"/>
<path d="M66.1611 217.262C66.2626 217.039 66.386 216.826 66.5296 216.627C66.8119 216.196 67.1725 215.624 67.6115 214.942C68.521 213.523 69.7597 211.555 71.0768 209.344C72.3939 207.133 73.5307 205.102 74.3461 203.628C74.7381 202.915 75.0674 202.327 75.3183 201.88C75.4246 201.658 75.5505 201.445 75.6946 201.245C75.6149 201.478 75.5152 201.704 75.3967 201.919C75.1928 202.343 74.8871 202.954 74.5029 203.707C73.7189 205.204 72.6056 207.251 71.2885 209.469C69.9714 211.688 68.7013 213.64 67.7527 215.036C67.2823 215.733 66.8903 216.298 66.6159 216.682C66.4783 216.886 66.3263 217.08 66.1611 217.262Z" fill="#F7F7F7"/>
<path d="M237.026 129.454C224.655 118.658 223.487 100.979 225.697 85.4325C226.066 82.8374 226.074 80.0621 227.563 77.9061C229.053 75.7501 232.103 74.5035 234.321 75.852C236.156 76.9731 236.752 79.3173 237.638 81.2929C238.818 83.9309 240.721 86.1813 243.126 87.7845C244.694 88.8193 246.685 89.572 248.418 88.8429C250.77 87.8472 251.397 84.7739 251.663 82.1789C252.15 77.3494 252.638 72.52 253.13 67.6905C253.396 65.0955 253.671 62.4534 254.745 60.0779C255.819 57.7024 257.841 55.6169 260.374 55.1936C262.906 54.7702 265.807 56.5185 266.058 59.1136C266.036 60.1951 265.945 61.2741 265.783 62.3437C265.736 63.4334 266.113 64.6957 267.1 65.0798C268.088 65.464 269.217 64.876 270.072 64.2017C273.027 61.8497 275.207 58.7137 277.261 55.5307C279.315 52.3477 281.33 49.1097 284.066 46.5225C286.802 43.9353 290.401 42.0302 294.133 42.2184C297.865 42.4065 301.565 45.127 302.114 48.8667C302.663 52.6064 300.13 56.0952 297.496 58.8C293.584 62.8199 289.11 66.2528 284.215 68.992C283.279 69.3836 282.493 70.065 281.973 70.9363C281.189 72.6062 282.671 74.4957 284.325 75.2483C286.191 76.095 288.308 76.1264 290.299 76.5811C292.29 77.0358 294.384 78.1491 294.94 80.1483C295.724 82.9158 293.208 85.4481 290.832 87.0318C286.074 90.201 280.808 92.5293 275.262 93.9153C273.278 94.4093 271.209 94.8013 269.531 95.9773C267.853 97.1533 266.669 99.372 267.398 101.301C268.127 103.229 270.448 104.068 272.487 103.911C274.525 103.755 276.407 102.869 278.406 102.343C282.106 101.387 286.677 102.124 288.598 105.479C289.876 107.667 289.703 110.497 288.692 112.825C287.565 115.104 285.995 117.135 284.074 118.799C277.7 124.965 269.807 129.331 261.197 131.453C252.628 133.429 244.898 133.374 237.011 129.493" fill="#F7F7F7"/>
<path d="M242.106 120.109C245.614 111.888 249.59 103.876 254.015 96.1108L257.457 89.9799C258.594 87.9728 259.723 85.9815 260.938 84.0999C263.292 80.4955 265.841 77.0225 268.574 73.6962C271.169 70.4975 273.741 67.5653 276.163 64.837C278.586 62.1087 280.914 59.6234 283.125 57.436C286.591 53.9718 290.326 50.7891 294.297 47.9183C295.701 46.8991 296.814 46.1464 297.574 45.6447L298.445 45.0802C298.541 45.0133 298.643 44.9556 298.75 44.9077L298.468 45.1272L297.629 45.7309C296.885 46.2562 295.787 47.0324 294.407 48.0829C290.49 51.0065 286.798 54.2195 283.361 57.6948C281.173 59.89 278.876 62.3988 276.461 65.1271C274.047 67.8554 271.491 70.8032 268.919 73.9941C266.206 77.3142 263.675 80.7793 261.338 84.3743C260.123 86.248 258.986 88.2237 257.873 90.2386L254.431 96.3616C250.015 104.111 246.036 112.102 242.514 120.297" fill="#F7F7F7"/>
<path d="M261.071 84.092C260.986 83.7216 260.942 83.3431 260.938 82.963C260.875 82.2339 260.828 81.1755 260.781 79.8662C260.695 77.2477 260.695 73.5942 260.719 69.635C260.742 65.6758 260.679 62.0302 260.554 59.443C260.491 58.1416 260.436 57.091 260.381 56.3541C260.34 55.9763 260.34 55.5951 260.381 55.2173C260.5 55.5803 260.571 55.9572 260.593 56.3384C260.703 57.0597 260.813 58.1181 260.915 59.4195C261.134 62.0381 261.236 65.6915 261.22 69.6586C261.205 73.6256 261.165 77.1614 261.15 79.8506V82.9866C261.16 83.3567 261.133 83.727 261.071 84.092Z" fill="#F7F7F7"/>
<path d="M295.051 81.4578C294.605 81.5052 294.156 81.5052 293.71 81.4578C292.848 81.4578 291.593 81.4108 290.057 81.4578C286.968 81.4578 282.703 81.6068 278.007 81.9831C273.31 82.3594 269.077 82.8847 266.027 83.3551C264.498 83.5746 263.267 83.7863 262.413 83.9353C261.976 84.0379 261.529 84.0957 261.08 84.1078C261.502 83.9489 261.938 83.8282 262.382 83.7471C263.22 83.5511 264.451 83.2846 265.972 83.0102C269.022 82.4614 273.263 81.8812 277.975 81.497C281.993 81.1654 286.026 81.0372 290.057 81.1129C291.625 81.1129 292.856 81.2305 293.718 81.301C294.166 81.312 294.612 81.3645 295.051 81.4578Z" fill="#F7F7F7"/>
<path d="M242.585 119.536C242.502 119.402 242.439 119.257 242.397 119.105C242.279 118.768 242.138 118.321 241.958 117.843C241.581 116.737 241.079 115.13 240.484 113.139C239.284 109.148 237.81 103.59 236.266 97.4589C234.721 91.3281 233.286 85.6989 232.181 81.7241C231.632 79.7797 231.185 78.1725 230.848 77.0201L230.495 75.6559C230.443 75.5095 230.411 75.3564 230.401 75.2012C230.484 75.3355 230.547 75.4806 230.59 75.6324C230.707 75.9695 230.848 76.4164 231.029 76.8946C231.405 77.9922 231.907 79.6073 232.502 81.5986C233.702 85.5892 235.176 91.1477 236.728 97.2786C238.281 103.409 239.7 108.999 240.805 113.013C241.354 114.958 241.801 116.565 242.138 117.717L242.491 119.011C242.55 119.18 242.582 119.357 242.585 119.536Z" fill="#F7F7F7"/>
<path d="M288.378 110.043C288.231 110.107 288.075 110.152 287.916 110.176L286.583 110.474L281.683 111.493C277.536 112.363 271.836 113.625 265.533 115.029C259.229 116.432 253.506 117.64 249.343 118.424C247.265 118.816 245.58 119.113 244.412 119.294L243.063 119.498C242.907 119.535 242.745 119.548 242.585 119.537C242.733 119.473 242.888 119.428 243.048 119.404L244.372 119.113L249.28 118.086C253.42 117.224 259.127 115.962 265.431 114.551C271.734 113.139 277.457 111.94 281.612 111.156C283.698 110.764 285.384 110.466 286.552 110.286L287.9 110.082C288.057 110.049 288.218 110.036 288.378 110.043Z" fill="#F7F7F7"/>
<path d="M316.492 162.006H361.376C361.376 162.006 357.401 154.785 345.853 155.836C334.822 156.839 334.258 152.284 328.652 151.72C323.046 151.155 318.366 155.459 316.492 162.006Z" fill="#F7F7F7"/>
<path d="M47.4951 57.2321H116.37C116.37 57.2321 110.278 46.1385 92.5124 47.7535C75.5858 49.3215 74.7234 42.2655 66.1151 41.4345C57.5068 40.6034 50.3646 47.1733 47.4951 57.2321Z" fill="#F7F7F7"/>
<path d="M317.842 323.368H373.796C373.796 323.368 368.849 314.141 354.447 315.528C340.688 316.806 339.99 310.989 332.997 310.275C326.003 309.562 320.17 315.011 317.842 323.368Z" fill="#F7F7F7"/>
<path d="M83.6445 80.5246H118.979C118.979 80.5246 115.843 74.8406 106.757 75.6717C98.0701 76.4557 97.6311 72.8728 93.2172 72.4338C88.8033 71.9947 85.1185 75.3738 83.6445 80.5246Z" fill="#F7F7F7"/>
<path d="M300.178 338.555H335.505C335.505 338.555 332.369 332.871 323.282 333.694C314.603 334.478 314.156 330.895 309.743 330.456C305.329 330.017 301.644 333.404 300.178 338.555Z" fill="#F7F7F7"/>
<path d="M322.656 243.205C322.469 242.567 322.411 241.898 322.483 241.237C322.429 240.578 322.506 239.914 322.711 239.285C322.908 239.918 322.97 240.586 322.891 241.245C322.95 241.908 322.87 242.575 322.656 243.205Z" fill="#F7F7F7"/>
<path d="M322.225 251.029C322.045 249.717 322.141 248.382 322.507 247.109C322.687 248.421 322.591 249.757 322.225 251.029Z" fill="#F7F7F7"/>
<path d="M321.291 258.814C321.177 258.161 321.196 257.492 321.346 256.847C321.37 256.183 321.524 255.53 321.801 254.926C321.924 255.581 321.906 256.254 321.746 256.901C321.725 257.563 321.571 258.214 321.291 258.814Z" fill="#F7F7F7"/>
<path d="M319.919 266.56C319.844 265.9 319.903 265.23 320.092 264.593C320.152 263.933 320.347 263.293 320.664 262.711C320.739 263.369 320.68 264.036 320.492 264.671C320.432 265.333 320.237 265.976 319.919 266.56Z" fill="#F7F7F7"/>
<path d="M318.102 274.157C318.153 272.838 318.482 271.546 319.066 270.362C319.014 271.681 318.686 272.974 318.102 274.157Z" fill="#F7F7F7"/>
<path d="M315.827 281.66C315.826 280.996 315.962 280.339 316.227 279.731C316.363 279.083 316.63 278.469 317.011 277.928C317.012 278.591 316.876 279.248 316.611 279.856C316.48 280.506 316.213 281.12 315.827 281.66Z" fill="#F7F7F7"/>
<path d="M313.114 289.014C313.157 288.353 313.333 287.707 313.632 287.117C313.802 286.475 314.107 285.876 314.525 285.36C314.482 286.024 314.306 286.671 314.008 287.265C313.833 287.903 313.529 288.498 313.114 289.014Z" fill="#F7F7F7"/>
<path d="M309.971 296.195C310.052 295.537 310.265 294.902 310.598 294.329C310.815 293.702 311.153 293.124 311.594 292.628C311.517 293.289 311.303 293.927 310.966 294.502C310.753 295.128 310.414 295.704 309.971 296.195Z" fill="#F7F7F7"/>
<path d="M306.404 303.181C306.529 302.53 306.779 301.909 307.141 301.354C307.651 300.398 308.137 299.661 308.239 299.716C308.122 300.369 307.871 300.991 307.502 301.542C307 302.499 306.545 303.236 306.404 303.181Z" fill="#F7F7F7"/>
<path d="M302.437 309.938C302.595 309.294 302.883 308.688 303.283 308.159C303.84 307.234 304.373 306.528 304.475 306.591C304.315 307.235 304.027 307.84 303.628 308.37C303.064 309.296 302.531 310.001 302.437 309.938Z" fill="#F7F7F7"/>
<path d="M298.078 316.454C298.28 315.821 298.602 315.232 299.027 314.721C299.638 313.835 300.211 313.153 300.305 313.232C300.111 313.864 299.791 314.451 299.364 314.957C298.745 315.85 298.172 316.517 298.078 316.454Z" fill="#F7F7F7"/>
<path d="M293.35 322.703C293.579 322.08 293.934 321.512 294.392 321.033C295.059 320.178 295.67 319.543 295.756 319.614C295.843 319.684 295.38 320.398 294.714 321.284C294.047 322.17 293.436 322.773 293.35 322.703Z" fill="#F7F7F7"/>
<path d="M288.261 328.661C288.175 328.583 288.685 327.877 289.398 327.093C290.112 326.309 290.762 325.682 290.849 325.752C290.935 325.823 290.425 326.536 289.704 327.36C288.983 328.183 288.34 328.732 288.261 328.661Z" fill="#F7F7F7"/>
<path d="M282.829 334.305C282.75 334.227 283.299 333.521 284.06 332.737C284.82 331.953 285.502 331.413 285.588 331.491C285.675 331.569 285.118 332.275 284.35 333.059C283.581 333.843 282.907 334.384 282.829 334.305Z" fill="#F7F7F7"/>
<path d="M277.082 339.629C277.004 339.543 277.6 338.892 278.399 338.171C279.199 337.449 279.92 336.924 279.967 337.01C280.014 337.096 279.458 337.747 278.65 338.469C277.843 339.19 277.153 339.715 277.082 339.629Z" fill="#F7F7F7"/>
<path d="M271.03 344.607C270.959 344.513 271.586 343.902 272.433 343.227C272.908 342.766 273.471 342.403 274.087 342.161C274.166 342.247 273.531 342.867 272.684 343.541C272.212 344.006 271.648 344.369 271.03 344.607Z" fill="#F7F7F7"/>
<path d="M264.695 349.217C264.633 349.123 265.299 348.543 266.177 347.923C266.677 347.487 267.262 347.159 267.894 346.959C267.965 347.053 267.298 347.633 266.412 348.253C265.912 348.689 265.328 349.017 264.695 349.217Z" fill="#F7F7F7"/>
<path d="M258.109 353.451C258.047 353.357 258.744 352.816 259.677 352.243C260.205 351.842 260.808 351.549 261.449 351.381C261.512 351.483 260.814 352.016 259.881 352.588C259.357 352.996 258.754 353.289 258.109 353.451Z" fill="#F7F7F7"/>
<path d="M251.28 357.293C251.225 357.191 251.954 356.697 252.903 356.18C253.447 355.793 254.067 355.526 254.722 355.396C254.26 355.871 253.709 356.249 253.099 356.509C252.553 356.893 251.934 357.159 251.28 357.293Z" fill="#F7F7F7"/>
<path d="M244.232 360.719C244.721 360.272 245.294 359.928 245.918 359.707C246.489 359.364 247.124 359.143 247.784 359.057C247.295 359.508 246.718 359.855 246.091 360.076C245.523 360.417 244.89 360.636 244.232 360.719Z" fill="#F7F7F7"/>
<path d="M236.996 363.729C237.51 363.306 238.105 362.994 238.744 362.811C239.334 362.507 239.98 362.326 240.642 362.278C240.125 362.696 239.531 363.008 238.893 363.196C238.303 363.499 237.658 363.68 236.996 363.729Z" fill="#F7F7F7"/>
<path d="M229.595 366.301C230.134 365.922 230.745 365.655 231.39 365.517C231.996 365.241 232.653 365.097 233.319 365.094C232.176 365.757 230.908 366.176 229.595 366.325V366.301Z" fill="#F7F7F7"/>
<path d="M222.062 368.434C222.618 368.075 223.243 367.835 223.896 367.728C224.52 367.496 225.184 367.392 225.848 367.422C225.287 367.778 224.661 368.017 224.006 368.128C223.385 368.359 222.724 368.463 222.062 368.434Z" fill="#F7F7F7"/>
<path d="M214.401 370.111C214.983 369.79 215.623 369.59 216.283 369.523C216.916 369.325 217.583 369.258 218.243 369.327C217.663 369.652 217.023 369.854 216.361 369.923C215.727 370.116 215.061 370.18 214.401 370.111Z" fill="#F7F7F7"/>
<path d="M206.663 371.334C207.251 371.045 207.891 370.875 208.545 370.832C209.189 370.677 209.858 370.651 210.513 370.754C209.273 371.214 207.95 371.404 206.632 371.311L206.663 371.334Z" fill="#F7F7F7"/>
<path d="M198.862 372.102C199.477 371.852 200.135 371.727 200.799 371.734C201.451 371.613 202.121 371.629 202.767 371.781C202.152 372.031 201.493 372.153 200.83 372.141C200.179 372.267 199.508 372.254 198.862 372.102Z" fill="#F7F7F7"/>
<path d="M191.03 372.4C191.656 372.179 192.321 372.094 192.982 372.149C193.642 372.066 194.311 372.117 194.95 372.298C194.322 372.518 193.654 372.606 192.99 372.557C192.333 372.636 191.667 372.582 191.03 372.4Z" fill="#F7F7F7"/>
<path d="M183.19 372.275C183.829 372.089 184.5 372.041 185.158 372.134C185.82 372.09 186.484 372.181 187.11 372.4C185.809 372.631 184.474 372.588 183.19 372.275Z" fill="#F7F7F7"/>
<path d="M175.374 371.671C176.024 371.542 176.692 371.542 177.342 371.671C178.007 371.666 178.666 371.797 179.278 372.055C178.627 372.189 177.954 372.189 177.303 372.055C176.64 372.062 175.983 371.932 175.374 371.671Z" fill="#F7F7F7"/>
<path d="M167.604 370.62C168.922 370.54 170.241 370.737 171.477 371.2C170.823 371.308 170.153 371.278 169.51 371.114C168.848 371.08 168.2 370.912 167.604 370.62Z" fill="#F7F7F7"/>
<path d="M159.937 369.107C160.597 369.043 161.263 369.113 161.897 369.311C162.557 369.38 163.196 369.588 163.77 369.922C162.452 369.925 161.148 369.658 159.937 369.138V369.107Z" fill="#F7F7F7"/>
<path d="M152.324 367.14C153.643 367.218 154.931 367.573 156.103 368.182C155.44 368.207 154.779 368.098 154.159 367.861C153.504 367.748 152.88 367.503 152.324 367.14Z" fill="#F7F7F7"/>
<path d="M144.86 364.732C145.524 364.742 146.178 364.888 146.781 365.164C147.427 365.32 148.037 365.599 148.577 365.987C147.913 365.977 147.259 365.83 146.656 365.556C146.009 365.402 145.399 365.122 144.86 364.732Z" fill="#F7F7F7"/>
<path d="M137.562 361.879C138.222 361.932 138.865 362.118 139.451 362.428C140.09 362.615 140.682 362.932 141.191 363.361C139.891 363.127 138.654 362.622 137.562 361.879Z" fill="#F7F7F7"/>
<path d="M130.442 358.602C131.724 358.918 132.928 359.494 133.978 360.295C133.321 360.202 132.689 359.978 132.12 359.636C131.14 359.166 130.387 358.703 130.442 358.602Z" fill="#F7F7F7"/>
<path d="M123.528 354.909C124.178 355.047 124.794 355.314 125.339 355.693C125.949 355.953 126.498 356.334 126.954 356.814C126.303 356.681 125.687 356.414 125.143 356.03C124.195 355.513 123.473 355.011 123.528 354.909Z" fill="#F7F7F7"/>
<path d="M116.816 350.816C117.458 350.985 118.059 351.284 118.58 351.694C119.498 352.275 120.188 352.816 120.148 352.918C119.505 352.741 118.904 352.435 118.384 352.016C117.475 351.459 116.816 350.91 116.816 350.816Z" fill="#F7F7F7"/>
<path d="M110.411 346.34C111.037 346.548 111.616 346.878 112.113 347.312C112.991 347.939 113.681 348.527 113.587 348.621C112.955 348.416 112.374 348.082 111.878 347.641C110.999 347.014 110.341 346.434 110.411 346.34Z" fill="#F7F7F7"/>
<path d="M104.273 341.495C104.893 341.734 105.456 342.1 105.927 342.569C106.766 343.251 107.385 343.878 107.323 343.965C106.704 343.724 106.141 343.358 105.669 342.891C104.806 342.209 104.179 341.581 104.273 341.495Z" fill="#F7F7F7"/>
<path d="M98.3846 336.336C98.9802 336.616 99.5134 337.014 99.9526 337.504C100.737 338.233 101.332 338.892 101.262 338.978C101.191 339.064 100.478 338.539 99.6939 337.81C98.9099 337.081 98.314 336.375 98.3846 336.336Z" fill="#F7F7F7"/>
<path d="M92.8426 330.762C93.4233 331.081 93.937 331.51 94.3557 332.024C95.1397 332.808 95.6572 333.49 95.5709 333.592C95.4847 333.694 94.7869 333.114 94.0578 332.338C93.3287 331.561 92.7564 330.848 92.8426 330.762Z" fill="#F7F7F7"/>
<path d="M87.621 324.921C87.715 324.843 88.3579 325.446 89.0635 326.262C89.5398 326.723 89.9231 327.271 90.1925 327.877C90.1062 327.955 89.4634 327.351 88.7499 326.536C88.0365 325.721 87.5347 324.991 87.621 324.921Z" fill="#F7F7F7"/>
<path d="M82.76 318.775C82.8541 318.712 83.4578 319.347 84.1164 320.209C84.5705 320.694 84.9225 321.264 85.1512 321.887C85.0572 321.95 84.4535 321.315 83.7949 320.453C83.1364 319.59 82.666 318.845 82.76 318.775Z" fill="#F7F7F7"/>
<path d="M78.2676 312.361C78.3617 312.299 78.9261 312.973 79.5298 313.867C79.9572 314.374 80.2748 314.964 80.4628 315.599C80.3765 315.67 79.8042 314.996 79.1927 314.094C78.7695 313.586 78.4546 312.996 78.2676 312.361Z" fill="#F7F7F7"/>
<path d="M74.1514 305.69C74.2533 305.635 74.7786 306.34 75.3352 307.258C75.7136 307.795 75.9802 308.403 76.1192 309.045C76.0251 309.1 75.4998 308.394 74.9432 307.477C74.5607 306.941 74.2913 306.333 74.1514 305.69Z" fill="#F7F7F7"/>
<path d="M70.4424 298.798C70.5443 298.743 71.0304 299.48 71.5243 300.436C71.8856 300.993 72.1309 301.617 72.2456 302.271C72.1437 302.326 71.6576 301.589 71.1637 300.625C70.7992 300.072 70.5536 299.45 70.4424 298.798Z" fill="#F7F7F7"/>
<path d="M67.1426 291.688C67.9068 292.758 68.4408 293.975 68.7106 295.263C68.6087 295.317 68.1618 294.549 67.7227 293.561C67.4058 292.982 67.2085 292.345 67.1426 291.688Z" fill="#F7F7F7"/>
<path d="M64.2891 284.396C64.6901 284.922 64.9832 285.521 65.1515 286.16C65.4454 286.755 65.616 287.403 65.6532 288.066C65.2426 287.544 64.9437 286.944 64.7751 286.302C64.4823 285.707 64.3167 285.058 64.2891 284.396Z" fill="#F7F7F7"/>
<path d="M61.8352 276.948C62.2157 277.493 62.4824 278.109 62.6192 278.759C62.8799 279.371 63.0107 280.031 63.0034 280.696C62.6245 280.15 62.358 279.534 62.2194 278.885C61.9593 278.273 61.8285 277.613 61.8352 276.948Z" fill="#F7F7F7"/>
<path d="M59.8433 269.375C60.196 269.937 60.4258 270.568 60.5175 271.225C60.7395 271.851 60.8303 272.515 60.784 273.177C60.4368 272.613 60.2099 271.983 60.1176 271.327C59.8959 270.701 59.8026 270.038 59.8433 269.375Z" fill="#F7F7F7"/>
<path d="M58.3068 261.684C58.6214 262.271 58.8109 262.917 58.8634 263.581C59.0471 264.217 59.1005 264.884 59.0202 265.541C58.7072 264.956 58.5178 264.313 58.4636 263.651C58.2798 263.013 58.2265 262.343 58.3068 261.684Z" fill="#F7F7F7"/>
<path d="M57.2329 253.922C57.5135 254.524 57.6657 255.178 57.6798 255.843C57.8122 256.492 57.8122 257.161 57.6798 257.811C57.2422 256.553 57.0765 255.217 57.1937 253.891L57.2329 253.922Z" fill="#F7F7F7"/>
<path d="M56.6062 246.113C56.8443 246.73 56.9562 247.389 56.9355 248.05C57.0465 248.707 57.0198 249.379 56.8571 250.025C56.6183 249.406 56.5064 248.745 56.5278 248.081C56.42 247.427 56.4467 246.757 56.6062 246.113Z" fill="#F7F7F7"/>
<path d="M56.4487 238.273C56.6478 238.906 56.7197 239.573 56.6604 240.233C56.7344 240.892 56.673 241.559 56.4801 242.193C56.2757 241.562 56.1985 240.895 56.2527 240.233C56.179 239.574 56.2458 238.906 56.4487 238.273Z" fill="#F7F7F7"/>
<path d="M56.7231 230.441C56.8885 231.084 56.9231 231.753 56.825 232.409C56.8585 233.072 56.7544 233.734 56.5192 234.354C56.3545 233.711 56.3198 233.042 56.4173 232.386C56.381 231.723 56.4852 231.061 56.7231 230.441Z" fill="#F7F7F7"/>
<path d="M57.4598 222.656C57.5986 223.305 57.5986 223.976 57.4598 224.624C57.451 225.288 57.3097 225.944 57.0443 226.553C56.9091 225.231 57.0533 223.895 57.4677 222.633L57.4598 222.656Z" fill="#F7F7F7"/>
<path d="M58.6596 214.887C58.7557 215.544 58.7129 216.215 58.5342 216.855C58.4882 217.51 58.3123 218.149 58.0168 218.736C57.9207 218.079 57.9635 217.408 58.1422 216.768C58.1866 216.113 58.3625 215.473 58.6596 214.887Z" fill="#F7F7F7"/>
<path d="M60.3219 207.219C60.2967 208.542 59.9949 209.845 59.436 211.045C59.384 210.382 59.4667 209.715 59.679 209.085C59.7633 208.425 59.9821 207.79 60.3219 207.219Z" fill="#F7F7F7"/>
<path d="M62.4227 199.669C62.3135 200.985 61.9373 202.266 61.3172 203.432C61.299 202.769 61.4192 202.11 61.67 201.496C61.7964 200.843 62.0523 200.221 62.4227 199.669Z" fill="#F7F7F7"/>
<path d="M64.9705 192.261C64.949 192.924 64.7888 193.576 64.5001 194.174C64.3343 194.815 64.044 195.417 63.6455 195.946C63.6669 195.282 63.8272 194.63 64.1159 194.033C64.2795 193.391 64.5701 192.788 64.9705 192.261Z" fill="#F7F7F7"/>
<path d="M67.9576 185.024C67.8931 185.684 67.6957 186.324 67.3774 186.906C67.1723 187.539 66.8447 188.125 66.4131 188.631C66.4783 187.97 66.6784 187.33 67.0011 186.749C67.1968 186.114 67.5226 185.527 67.9576 185.024Z" fill="#F7F7F7"/>
<path d="M71.345 177.968C71.0062 179.245 70.4084 180.438 69.5889 181.473C69.692 180.817 69.9295 180.19 70.2866 179.631C70.7962 178.643 71.2666 177.898 71.345 177.968Z" fill="#F7F7F7"/>
<path d="M75.1865 171.108C75.0541 171.755 74.7869 172.367 74.4025 172.904C73.8616 173.837 73.3441 174.558 73.2422 174.472C73.383 173.825 73.6494 173.212 74.0262 172.668C74.575 171.759 75.0924 171.046 75.1865 171.108Z" fill="#F7F7F7"/>
<path d="M79.404 164.499C79.2232 165.138 78.9138 165.733 78.4946 166.247C77.8988 167.149 77.3421 167.815 77.248 167.768C77.4323 167.131 77.7414 166.537 78.1575 166.02C78.7533 165.118 79.31 164.436 79.404 164.499Z" fill="#F7F7F7"/>
<path d="M83.9981 158.149C83.7853 158.777 83.4434 159.354 82.9946 159.843C82.3438 160.705 81.748 161.356 81.6539 161.293C81.5598 161.23 82.0146 160.509 82.6653 159.599C83.316 158.69 83.8883 158.079 83.9981 158.149Z" fill="#F7F7F7"/>
<path d="M88.961 152.096C89.0473 152.174 88.5455 152.88 87.8556 153.727C87.1657 154.573 86.5228 155.169 86.4365 155.099C86.3503 155.028 86.8442 154.315 87.542 153.468C88.2397 152.621 88.8748 152.01 88.961 152.096Z" fill="#F7F7F7"/>
<path d="M94.2612 146.318C94.3475 146.396 93.8065 147.102 93.0617 147.886C92.3169 148.67 91.6505 149.242 91.5721 149.171C91.4937 149.101 92.0268 148.387 92.7716 147.603C93.5164 146.819 94.1828 146.239 94.2612 146.318Z" fill="#F7F7F7"/>
<path d="M99.8981 140.87C99.9765 140.956 99.3963 141.654 98.6123 142.359C97.8283 143.065 97.1227 143.629 97.0443 143.551C96.9659 143.472 97.5382 142.806 98.3301 142.061C99.1219 141.316 99.8197 140.783 99.8981 140.87Z" fill="#F7F7F7"/>
<path d="M105.841 135.766C105.912 135.852 105.292 136.487 104.469 137.177C104.002 137.649 103.445 138.022 102.831 138.274C102.76 138.188 103.372 137.553 104.203 136.863C104.667 136.388 105.225 136.014 105.841 135.766Z" fill="#F7F7F7"/>
<path d="M112.065 131.015C112.136 131.109 111.485 131.697 110.615 132.34C110.121 132.782 109.546 133.123 108.921 133.343C108.851 133.257 109.501 132.661 110.372 132.01C110.861 131.565 111.438 131.226 112.065 131.015Z" fill="#F7F7F7"/>
<path d="M118.565 126.64C118.628 126.734 117.938 127.29 117.036 127.878C116.52 128.293 115.926 128.6 115.288 128.78C115.225 128.686 115.908 128.129 116.817 127.533C117.33 127.116 117.926 126.811 118.565 126.64Z" fill="#F7F7F7"/>
<path d="M125.308 122.649C125.363 122.751 124.649 123.261 123.74 123.802C123.198 124.182 122.584 124.449 121.937 124.586C122.378 124.102 122.911 123.711 123.505 123.433C124.046 123.052 124.659 122.785 125.308 122.649Z" fill="#F7F7F7"/>
<path d="M132.277 119.066C131.799 119.525 131.234 119.882 130.615 120.117C130.053 120.473 129.423 120.708 128.765 120.807C129.242 120.348 129.808 119.991 130.427 119.756C130.989 119.401 131.619 119.166 132.277 119.066Z" fill="#F7F7F7"/>
<path d="M139.442 115.898C138.939 116.332 138.352 116.658 137.718 116.855C137.138 117.176 136.496 117.371 135.836 117.427C136.34 116.996 136.927 116.673 137.561 116.479C138.143 116.161 138.783 115.964 139.442 115.898Z" fill="#F7F7F7"/>
<path d="M146.781 113.163C146.256 113.568 145.652 113.86 145.009 114.018C144.408 114.298 143.758 114.455 143.096 114.48C143.621 114.078 144.225 113.79 144.868 113.633C145.467 113.35 146.118 113.19 146.781 113.163Z" fill="#F7F7F7"/>
<path d="M154.277 110.873C153.724 111.24 153.103 111.491 152.45 111.61C151.836 111.861 151.177 111.981 150.514 111.963C151.677 111.338 152.96 110.967 154.277 110.873Z" fill="#F7F7F7"/>
<path d="M161.889 109.023C160.691 109.575 159.391 109.872 158.071 109.893C158.641 109.552 159.277 109.335 159.937 109.258C160.565 109.046 161.229 108.966 161.889 109.023Z" fill="#F7F7F7"/>
<path d="M169.603 107.627C168.374 108.11 167.057 108.329 165.738 108.27C166.329 107.968 166.974 107.79 167.636 107.745C168.277 107.575 168.946 107.535 169.603 107.627Z" fill="#F7F7F7"/>
<path d="M177.389 106.694C176.125 107.103 174.79 107.242 173.469 107.102C174.077 106.837 174.734 106.699 175.397 106.694C176.054 106.552 176.733 106.552 177.389 106.694Z" fill="#F7F7F7"/>
<path d="M185.213 106.208C184.591 106.445 183.925 106.546 183.261 106.506C182.604 106.599 181.935 106.562 181.293 106.397C181.915 106.16 182.581 106.059 183.245 106.099C183.902 106.006 184.571 106.043 185.213 106.208Z" fill="#F7F7F7"/>
<path d="M193.045 106.185C192.411 106.378 191.744 106.439 191.085 106.365C190.423 106.42 189.757 106.342 189.125 106.138C190.421 105.882 191.756 105.898 193.045 106.185Z" fill="#F7F7F7"/>
<path d="M200.877 106.624C199.565 106.801 198.231 106.707 196.957 106.349C197.602 106.195 198.271 106.171 198.925 106.279C199.592 106.257 200.257 106.374 200.877 106.624Z" fill="#F7F7F7"/>
<path d="M208.67 107.502C208.015 107.616 207.343 107.6 206.694 107.455C206.032 107.434 205.382 107.279 204.781 107C206.109 106.89 207.444 107.061 208.701 107.502H208.67Z" fill="#F7F7F7"/>
<path d="M216.385 108.843C215.062 108.869 213.749 108.621 212.527 108.113C213.188 108.034 213.857 108.09 214.495 108.278C215.157 108.337 215.799 108.529 216.385 108.843Z" fill="#F7F7F7"/>
<path d="M224.02 110.638C222.699 110.595 221.402 110.268 220.218 109.682C221.538 109.735 222.832 110.061 224.02 110.638Z" fill="#F7F7F7"/>
<path d="M231.532 112.896C230.215 112.77 228.941 112.367 227.792 111.712C228.452 111.717 229.105 111.853 229.713 112.112C230.367 112.244 230.987 112.511 231.532 112.896Z" fill="#F7F7F7"/>
<path d="M238.894 115.577C238.231 115.535 237.584 115.362 236.989 115.068C236.348 114.894 235.75 114.59 235.232 114.174C235.895 114.216 236.542 114.389 237.138 114.683C237.779 114.856 238.377 115.161 238.894 115.577Z" fill="#F7F7F7"/>
<path d="M246.083 118.698C245.426 118.617 244.792 118.406 244.217 118.079C243.588 117.866 243.009 117.527 242.516 117.083C243.173 117.161 243.808 117.372 244.382 117.702C245.393 118.149 246.177 118.596 246.083 118.698Z" fill="#F7F7F7"/>
<path d="M253.083 122.234C252.428 122.12 251.804 121.872 251.249 121.505C250.292 121.003 249.555 120.517 249.61 120.415C250.262 120.531 250.884 120.779 251.437 121.144C252.052 121.395 252.612 121.766 253.083 122.234Z" fill="#F7F7F7"/>
<path d="M259.85 126.177C259.205 126.027 258.599 125.744 258.07 125.346C257.145 124.789 256.439 124.256 256.502 124.154C257.147 124.314 257.754 124.599 258.289 124.993C259.207 125.55 259.912 126.083 259.85 126.177Z" fill="#F7F7F7"/>
<path d="M266.381 130.52C265.747 130.324 265.158 130.004 264.648 129.58C263.762 128.968 263.08 128.396 263.151 128.302C263.786 128.495 264.375 128.815 264.883 129.243C265.777 129.854 266.443 130.426 266.381 130.52Z" fill="#F7F7F7"/>
<path d="M272.645 135.232C272.023 134.999 271.452 134.644 270.967 134.189C270.121 133.523 269.478 132.919 269.548 132.825C270.17 133.056 270.738 133.411 271.218 133.868C272.049 134.534 272.716 135.138 272.645 135.232Z" fill="#F7F7F7"/>
<path d="M278.619 140.336C278.54 140.422 277.835 139.913 277.012 139.199C276.188 138.486 275.593 137.843 275.671 137.757C275.749 137.67 276.455 138.18 277.278 138.893C278.101 139.607 278.697 140.218 278.619 140.336Z" fill="#F7F7F7"/>
<path d="M284.287 145.707C284.209 145.785 283.503 145.236 282.719 144.483C282.207 144.062 281.781 143.546 281.465 142.963C281.543 142.884 282.249 143.433 283.033 144.193C283.817 144.954 284.366 145.628 284.287 145.707Z" fill="#F7F7F7"/>
<path d="M289.626 151.438C289.54 151.516 288.889 150.928 288.16 150.128C287.431 149.329 286.913 148.615 287 148.56C287.086 148.505 287.737 149.07 288.466 149.877C289.195 150.685 289.712 151.367 289.626 151.438Z" fill="#F7F7F7"/>
<path d="M294.628 157.474C294.534 157.545 293.914 156.918 293.24 156.079C292.774 155.605 292.409 155.043 292.166 154.425C292.26 154.346 292.879 154.973 293.554 155.82C294.019 156.294 294.385 156.856 294.628 157.474Z" fill="#F7F7F7"/>
<path d="M299.261 163.794C299.167 163.856 298.579 163.19 297.959 162.312C297.523 161.814 297.192 161.233 296.987 160.603C297.081 160.532 297.662 161.191 298.289 162.077C298.722 162.58 299.052 163.163 299.261 163.794Z" fill="#F7F7F7"/>
<path d="M303.511 170.371C303.417 170.426 302.876 169.728 302.304 168.803C301.898 168.277 301.602 167.674 301.434 167.031C301.528 166.969 302.076 167.666 302.649 168.599C303.058 169.122 303.352 169.726 303.511 170.371Z" fill="#F7F7F7"/>
<path d="M307.376 177.184C307.274 177.239 306.772 176.51 306.255 175.561C305.874 175.016 305.608 174.4 305.471 173.75C305.573 173.695 306.074 174.416 306.592 175.365C306.974 175.912 307.241 176.531 307.376 177.184Z" fill="#F7F7F7"/>
<path d="M310.825 184.24C310.375 183.753 310.028 183.179 309.806 182.554C309.463 181.987 309.241 181.354 309.155 180.696C309.605 181.184 309.952 181.757 310.174 182.382C310.52 182.948 310.742 183.582 310.825 184.24Z" fill="#F7F7F7"/>
<path d="M313.86 191.438C313.437 190.927 313.125 190.334 312.942 189.697C312.63 189.113 312.445 188.469 312.401 187.808C312.82 188.321 313.132 188.912 313.319 189.548C313.63 190.133 313.814 190.777 313.86 191.438Z" fill="#F7F7F7"/>
<path d="M316.454 198.83C316.078 198.292 315.811 197.685 315.67 197.043C315.4 196.435 315.256 195.779 315.247 195.114C315.623 195.656 315.889 196.266 316.031 196.91C316.306 197.513 316.45 198.167 316.454 198.83Z" fill="#F7F7F7"/>
<path d="M318.61 206.365C318.012 205.189 317.665 203.903 317.591 202.586C318.189 203.761 318.536 205.048 318.61 206.365Z" fill="#F7F7F7"/>
<path d="M320.32 214.032C319.801 212.818 319.534 211.511 319.536 210.19C319.865 210.769 320.071 211.41 320.14 212.072C320.333 212.706 320.394 213.373 320.32 214.032Z" fill="#F7F7F7"/>
<path d="M321.574 221.755C321.278 221.159 321.113 220.507 321.088 219.842C320.928 219.198 320.899 218.529 321.002 217.874C321.462 219.127 321.657 220.462 321.574 221.794V221.755Z" fill="#F7F7F7"/>
<path d="M322.366 229.548C322.106 228.939 321.978 228.281 321.989 227.619C321.858 226.967 321.858 226.296 321.989 225.644C322.249 226.256 322.377 226.915 322.366 227.58C322.498 228.229 322.498 228.899 322.366 229.548Z" fill="#F7F7F7"/>
<path d="M322.703 237.38C322.479 236.755 322.39 236.089 322.444 235.428C322.361 234.772 322.409 234.105 322.586 233.468C322.811 234.092 322.902 234.758 322.852 235.42C322.936 236.077 322.885 236.743 322.703 237.38Z" fill="#F7F7F7"/>
<path d="M312.135 244.725C312.205 243.322 312.245 241.934 312.252 240.539C312.26 239.143 312.252 237.607 312.252 236.148C312.252 237.607 312.292 239.073 312.252 240.539C312.213 242.005 312.205 243.322 312.135 244.725Z" fill="#263238"/>
<path opacity="0.5" d="M298.642 260.178C297.858 257.308 297.999 254.298 297.623 251.358C297.419 249.79 296.941 248.057 295.616 247.179C294.738 246.599 293.617 246.497 292.66 246.05C289.219 244.482 288.968 239.292 285.793 237.246C284.755 236.678 283.636 236.271 282.476 236.039C278 234.839 273.515 232.589 271.171 228.598C270.387 227.305 269.885 225.839 268.866 224.733C267.847 223.628 266.083 222.954 264.805 223.753C265.495 225.815 266.153 227.869 266.82 229.908C267.439 231.766 268.058 233.679 269.321 235.153C270.583 236.627 272.645 237.638 274.511 237.081C275.101 236.789 275.759 236.661 276.416 236.713C276.869 236.879 277.245 237.205 277.474 237.63C279.56 240.766 278.094 245.172 275.263 247.634C272.433 250.096 268.67 251.013 265.071 251.883C263.793 252.304 262.425 252.369 261.112 252.071C258.799 251.287 257.906 248.512 257.545 246.082C256.761 240.711 256.761 235.012 254.237 230.206C253.413 228.692 252.324 227.258 251.939 225.572C251.54 223.753 251.986 221.754 251.155 220.084C250.324 218.414 248.161 217.081 248.286 215.137C248.38 213.781 249.666 212.785 250.983 212.354C252.3 211.923 253.703 211.962 255.052 211.625C255.577 211.484 256.189 211.201 256.291 210.668C256.4 209.884 255.334 209.375 255.154 208.583C254.974 207.791 255.938 207.015 256.432 206.231C257.498 204.459 255.812 202.272 254.017 201.229C252.222 200.186 250.042 199.3 249.423 197.309C249.228 196.376 249.154 195.422 249.203 194.471C249.101 192.08 247.714 189.587 245.424 188.857C243.135 188.128 240.203 189.853 240.25 192.252C240.25 193.569 241.105 194.714 241.457 195.976C241.81 197.238 241.41 198.995 240.125 199.198C238.016 199.52 236.612 195.553 234.738 196.572C235.083 199.042 235.421 201.503 235.766 203.981C232.92 204.945 230.097 202.044 229.368 199.112C228.639 196.18 229.047 193.044 228.082 190.198C227.118 187.352 223.778 184.828 221.199 186.38C220.595 189.783 224.907 191.821 226.506 194.871C227.659 197.082 226.977 200.296 224.664 201.26C222.351 202.225 219.317 199.528 220.462 197.34C220.87 196.556 221.638 196 221.842 195.145C222.077 194.079 221.293 193.083 220.572 192.276C219.443 190.99 218.306 189.728 217.177 188.465C216.495 187.596 215.644 186.874 214.676 186.341C212.136 185.188 209.188 186.952 207.432 189.116C205.676 191.28 204.492 193.969 202.265 195.67C199.059 198.148 193.751 197.56 191.571 194.157C189.392 190.755 191.571 185.306 195.562 184.749C197.083 184.553 198.917 184.859 199.874 183.683C201.552 181.59 198.126 178.117 199.788 176C201.066 174.377 203.637 175.576 205.683 175.263C207.73 174.949 209.086 173.146 210.489 171.625C211.893 170.104 213.892 168.685 215.828 169.414C215.729 168.215 215.976 167.012 216.542 165.949C217.216 164.945 218.784 164.467 219.639 165.298C218.431 166.772 219.278 169.218 220.87 170.237C222.461 171.257 224.492 171.39 226.405 171.453C228.318 171.515 230.779 171.147 231.21 169.281C231.352 168.677 231.21 167.987 231.532 167.446C232.684 165.322 236.385 169.014 238.243 167.446C239.301 166.662 238.525 164.82 237.286 164.31C236.048 163.801 234.668 164.083 233.366 163.934C232.065 163.785 230.56 162.884 230.693 161.582C230.826 160.281 232.394 159.575 232.731 158.328C233.296 156.212 229.721 155.122 228.184 156.69C226.648 158.258 226.757 160.72 226.828 162.907C226.898 165.094 226.757 167.611 224.962 168.912C224.139 169.838 222.469 169.046 222.053 167.885C221.638 166.725 221.936 165.439 222.014 164.208C222.093 162.978 221.755 161.504 220.611 161.01C219.827 160.657 218.878 160.931 218.016 160.924C214.613 160.845 212.912 156.22 214.433 153.146C215.954 150.073 219.262 148.442 222.445 147.266C224.797 146.388 227.596 145.698 229.556 147.172C230.473 147.878 231.03 148.936 231.908 149.657C233.476 150.904 235.601 150.841 237.537 151.155C240.596 151.705 243.371 153.295 245.393 155.655C246.177 156.564 246.757 158.007 245.95 158.838C245.142 159.669 242.947 159.622 243.143 160.861C243.686 161.1 244.273 161.221 244.865 161.217C245.458 161.213 246.044 161.084 246.583 160.839C247.123 160.593 247.604 160.236 247.996 159.791C248.388 159.347 248.682 158.824 248.858 158.258C249.378 158.594 249.799 159.06 250.081 159.611C250.364 160.161 250.496 160.776 250.465 161.394C251.182 160.896 251.995 160.553 252.852 160.388C253.709 160.222 254.592 160.237 255.442 160.432C256.293 160.627 257.094 160.997 257.794 161.519C258.493 162.041 259.076 162.703 259.505 163.464C259.818 164.343 260.282 165.16 260.877 165.878C261.575 166.49 262.955 166.435 263.182 165.541C263.248 165.255 263.248 164.957 263.182 164.671C262.908 163.299 262.617 161.943 262.343 160.586C264.264 159.889 266.161 161.692 267.141 163.479C270.771 170.143 274.503 167 280.697 168.897C284.891 170.167 286.381 173.193 288.317 176.862C294.26 188.16 302.845 197.96 308.042 209.618C308.565 210.836 309.062 212.064 309.532 213.303C309.462 212.997 309.407 212.699 309.328 212.393C307.7 205.075 305.385 197.927 302.413 191.045C301.781 189.587 301.128 188.139 300.453 186.701C300.03 185.816 299.591 184.914 299.152 184.044C298.587 182.899 297.984 181.794 297.38 180.688C296.902 179.794 296.416 178.916 295.914 178.062C295.569 177.458 295.208 176.862 294.84 176.259C294.471 175.655 294.056 174.91 293.601 174.236L292.261 172.135C292.126 171.91 291.979 171.693 291.821 171.484C291.359 170.755 290.857 170.034 290.355 169.312C290.324 169.228 290.273 169.153 290.206 169.093C290.081 168.897 289.932 168.701 289.783 168.505C289.383 167.893 288.936 167.297 288.513 166.709C287.807 165.745 287.086 164.781 286.333 163.848C285.73 163.064 285.095 162.28 284.444 161.496C283.793 160.712 283.307 160.116 282.719 159.442C282.131 158.768 281.575 158.117 280.987 157.466C280.273 156.682 279.552 155.898 278.799 155.067C276.737 152.864 274.597 150.747 272.37 148.74C271.822 148.231 271.281 147.737 270.724 147.251C270.167 146.764 269.595 146.263 269.031 145.784C268.466 145.306 267.902 144.82 267.314 144.358C266.726 143.895 266.161 143.409 265.581 142.954C265.001 142.5 264.648 142.209 264.17 141.864C263.936 141.667 263.693 141.481 263.441 141.308C262.437 140.524 261.41 139.74 260.375 139.058C259.858 138.689 259.34 138.321 258.807 137.968C258.149 137.498 257.467 137.051 256.785 136.62C256.69 136.541 256.588 136.473 256.479 136.416C255.867 136.016 255.264 135.632 254.629 135.224C253.75 134.691 252.865 134.15 251.979 133.656C250.967 133.06 249.956 132.464 248.913 131.9C247.87 131.335 246.624 130.645 245.456 130.065C244.288 129.485 243.104 128.881 241.904 128.317C240.705 127.752 239.505 127.227 238.29 126.694C235.891 125.659 233.437 124.695 230.96 123.809L230.826 123.754C229.878 123.417 228.921 123.088 227.965 122.79C227.906 122.757 227.842 122.734 227.777 122.719C227.369 122.586 226.938 122.445 226.506 122.319C224.719 121.747 222.916 121.237 221.081 120.751C220.862 120.683 220.64 120.625 220.415 120.579C219.89 120.422 219.356 120.304 218.808 120.171C217.6 119.873 216.377 119.599 215.146 119.348C213.915 119.097 212.567 118.815 211.273 118.564C209.98 118.313 208.553 118.094 207.189 117.898C203.577 117.375 199.979 117.017 196.393 116.824C195.538 116.761 194.707 116.722 193.861 116.698C193.014 116.675 192.105 116.635 191.226 116.628C190.348 116.62 189.462 116.628 188.6 116.628C187.738 116.628 186.844 116.628 185.958 116.675C185.213 116.675 184.445 116.675 183.692 116.761C181.832 116.85 179.989 116.975 178.165 117.137C177.31 117.208 176.456 117.302 175.594 117.412C174.731 117.521 173.877 117.615 173.038 117.733C171.619 117.921 170.231 118.148 168.843 118.384L165.456 119.011H165.378C164.226 119.238 163.112 119.489 161.975 119.756H161.795C160.752 119.999 159.717 120.257 158.698 120.54C157.413 120.861 156.142 121.23 154.896 121.598C153.83 121.912 152.779 122.233 151.76 122.578C150.741 122.923 149.533 123.315 148.436 123.707L148.318 123.746C147.26 124.123 146.201 124.53 145.182 124.938C144.163 125.346 143.042 125.785 141.968 126.255C140.964 126.678 139.984 127.102 138.996 127.549C138.62 127.713 138.259 127.894 137.875 128.074C136.833 128.552 135.813 129.054 134.739 129.571C133.469 130.191 132.238 130.857 131.007 131.524C129.918 132.112 128.851 132.723 127.801 133.335C121.711 136.874 115.938 140.932 110.545 145.463C108.648 147.031 106.845 148.662 105.057 150.324C103.56 151.759 102.094 153.209 100.674 154.73C100.988 154.73 101.302 154.73 101.607 154.73C103.356 154.848 105.175 155.169 106.845 154.644C108.413 154.142 109.589 152.997 111.031 152.292C114.716 150.394 120.259 150.724 121.741 146.874C122.242 145.573 122.093 144.06 122.775 142.844C124.061 140.579 127.323 140.696 129.894 141.112C130.992 141.269 132.246 141.606 132.615 142.68C132.702 143.058 132.708 143.451 132.632 143.832C132.556 144.213 132.401 144.574 132.176 144.891C129.918 149.173 126.255 152.547 121.803 154.448C118.166 156.016 113.579 156.949 112.105 160.618C112.38 161.974 114.739 162.186 114.732 163.589C114.732 164.687 113.25 165.04 112.607 165.941C111.674 167.235 113.101 169.187 114.708 169.344C116.315 169.5 117.805 168.56 119.138 167.627C123.105 164.883 127.276 161.919 129.212 157.49C129.996 155.663 130.545 153.46 132.262 152.417C132.785 152.152 133.362 152.011 133.948 152.006C134.535 152.001 135.114 152.132 135.641 152.389C136.168 152.646 136.629 153.021 136.987 153.486C137.344 153.951 137.589 154.492 137.703 155.067C139.349 154.44 141.803 154.15 142.36 155.851C142.45 156.463 142.474 157.084 142.43 157.701C142.571 160.234 145.77 161.833 145.762 164.365C145.762 167.282 141.842 168.23 138.934 168.285C136.284 168.285 133.634 168.34 130.976 168.387C129.82 168.304 128.661 168.501 127.597 168.96C127.071 169.208 126.646 169.629 126.392 170.152C126.138 170.675 126.071 171.27 126.202 171.837C126.515 172.406 126.9 172.933 127.346 173.405C129.189 175.867 126.774 180.045 123.724 179.677C122.681 179.559 121.717 179.034 120.69 178.846C117.632 178.266 114.802 180.618 112.944 183.119C111.086 185.62 109.549 188.552 106.829 190.041C102.438 192.448 95.7117 190.77 93.1324 195.067C92.0975 196.799 92.1994 198.932 92.2229 200.955C92.2465 202.977 92.0583 205.172 90.6549 206.639C89.2516 208.105 86.2802 208.003 85.6922 206.074C85.5233 205.21 85.6133 204.316 85.9509 203.503C86.8186 200.727 87.6784 197.949 88.5303 195.169C89.1653 193.099 89.7925 190.778 88.7969 188.897C87.3935 186.223 83.4421 185.886 80.8941 187.501C78.3461 189.116 76.9741 192.017 75.9314 194.824C75.1474 196.909 74.1753 199.873 72.6308 202.154C71.8468 204.506 71.2039 206.858 70.6002 209.257C69.9965 211.656 69.4634 214.181 69.0322 216.697C69.4187 216.459 69.7905 216.197 70.1455 215.913C71.5332 214.839 74.7397 209.908 76.5586 212.816C76.7776 213.197 76.8656 213.638 76.8089 214.073C76.7522 214.508 76.5541 214.912 76.245 215.223C75.461 216.007 74.0733 216.007 73.4226 216.854C72.6386 217.881 73.305 219.394 74.2066 220.272C75.1082 221.15 76.3391 221.84 76.9193 222.977C78.0247 225.196 76.245 228.057 77.3113 230.315C78.2285 232.252 80.706 232.73 82.7993 233.263L83.5127 233.491C84.7201 229.343 87.1975 226.192 93.1481 225.721C101.364 225.063 110.866 233.169 114.481 239.833C118.503 247.265 119.498 257.081 126.656 261.566C131.784 264.764 139.694 265.023 141.552 270.77C143.238 275.921 138.306 280.719 136.903 285.948C135.994 289.413 136.637 293.075 136.401 296.626C136.166 300.178 134.504 304.168 131.078 305.18C129.181 305.728 126.946 305.305 125.308 306.442C122.399 308.496 123.74 313.796 120.87 315.85C119.843 316.563 118.518 316.689 117.374 317.088C111.204 319.158 110.137 327.633 111.956 333.882C112.027 334.109 112.097 334.313 112.16 334.54C129.358 348.519 150.022 357.576 171.956 360.749C191.821 363.652 212.095 361.611 230.983 354.807C234.957 353.371 238.853 351.731 242.657 349.891C248.52 347.078 254.147 343.795 259.482 340.075C263.173 337.516 266.718 334.749 270.097 331.788C272.449 329.734 274.746 327.571 276.957 325.344C278.078 324.192 279.191 323.039 280.25 321.832C288.145 313.2 294.747 303.468 299.85 292.941C302.971 286.545 305.516 279.883 307.454 273.036C308.238 270.354 308.905 267.634 309.501 264.874C308.773 265.448 307.939 265.873 307.048 266.124C306.156 266.376 305.223 266.449 304.303 266.34C301.473 265.823 299.426 263.032 298.642 260.178Z" fill="#FFA448"/>
<path d="M233.985 306.787C230.277 310.935 228.897 316.595 227.266 321.911C225.636 327.226 223.346 332.808 218.642 335.788C213.938 338.767 206.294 337.442 204.719 332.103C203.856 329.21 204.962 326.097 204.719 323.087C204.381 319.167 201.786 315.803 200.877 311.977C200.093 308.708 200.595 305.298 200.971 301.958C203.056 283.738 201.371 264.153 190.936 249.069C189.658 247.211 188.16 245.369 186.091 244.491C184.845 243.982 183.478 243.846 182.157 244.097C180.835 244.349 179.614 244.979 178.643 245.91C177.467 247.078 176.706 248.677 175.334 249.61C172.347 251.641 167.988 249.25 166.671 245.886C165.354 242.523 166.154 238.744 166.961 235.224C167.975 230.854 168.981 226.488 169.98 222.123C170.505 219.842 171.124 217.419 172.896 215.851C175.413 213.664 179.293 214.111 182.218 212.511C186.052 210.426 187.228 205.549 189.948 202.131C192.668 198.713 199.732 198.125 200.14 202.468C209.595 188.058 222.233 213.335 231.978 212.982C234.808 212.872 237.686 211.939 240.406 212.731C245.204 214.126 246.953 219.889 247.948 224.789C249.595 232.922 251.244 241.052 252.895 249.179C253.523 252.276 254.408 255.749 257.168 257.301C259.277 258.493 261.966 258.203 264.099 259.348C269.744 262.382 266.451 271.468 261.057 274.926C255.663 278.383 248.528 280.037 245.392 285.619C243.04 289.829 243.644 295.247 241.159 299.386C239.395 302.342 236.29 304.192 233.985 306.787Z" fill="#263238"/>
<path d="M255.867 315.098C253.868 315.098 251.696 313.788 250.026 314.878C249.046 315.513 248.67 316.728 248.168 317.779C247.511 319.274 246.332 320.478 244.852 321.166C244.108 321.493 243.286 321.597 242.485 321.466C241.683 321.335 240.937 320.975 240.336 320.429C239.769 319.851 239.451 319.074 239.451 318.265C239.451 317.456 239.769 316.679 240.336 316.101C240.945 315.689 241.576 315.31 242.225 314.964C245.173 312.887 244.052 308.073 246.451 305.439C247.87 303.871 249.955 302.405 251.484 300.852C252.66 299.653 253.178 298.642 255.036 298.548C263.166 298.132 264.365 315.168 255.867 315.098Z" fill="#263238"/>
<path d="M79.4036 255.929C79.5212 252.393 81.1754 249.084 81.7556 245.58C82.1476 243.157 82.3436 240.578 82.6572 238.132C80.5911 237.74 78.5671 237.152 76.6125 236.376C76.1876 236.259 75.8164 235.998 75.562 235.639C75.4117 235.213 75.3899 234.752 75.4992 234.314C75.7423 231.562 73.3668 229.375 71.2029 227.665C70.1271 226.763 68.9605 225.975 67.722 225.313C67.722 225.604 67.6436 225.87 67.62 226.16C66.1795 239.395 66.9077 252.776 69.776 265.776C71.0556 271.559 72.7669 277.238 74.8956 282.765C75.7658 285.117 76.7615 287.508 77.8199 289.821C79.1292 292.698 80.5247 295.529 82.0692 298.28C83.4882 300.922 85.0327 303.517 86.6948 306.034C88.9553 309.518 91.3942 312.884 94.0016 316.116C96.3118 319.001 98.7553 321.774 101.332 324.435C97.2788 305.681 93.6645 286.614 84.5152 269.837C82.0848 265.462 79.2468 260.931 79.4036 255.929Z" fill="#F7F7F7"/>
<path d="M68.5226 219.521C68.405 220.25 68.2717 220.971 68.1619 221.7C68.2717 220.987 68.405 220.305 68.5226 219.521Z" fill="#263238"/>
<g opacity="0.6">
<path d="M107.409 330.354C108.334 331.193 109.267 332.017 110.224 332.824C109.252 332.017 108.319 331.193 107.409 330.354Z" fill="#263238"/>
</g>
<path d="M261.073 274.941C266.467 271.484 269.76 262.397 264.115 259.363C261.983 258.219 259.294 258.509 257.185 257.317C254.425 255.749 253.539 252.292 252.912 249.195C251.265 241.062 249.616 232.932 247.965 224.804C246.969 219.904 245.221 214.142 240.423 212.747C237.702 211.963 234.825 212.888 231.995 212.997C222.25 213.35 209.612 188.074 200.156 202.484C199.757 198.141 192.701 198.729 189.964 202.147C187.228 205.565 186.044 210.442 182.234 212.527C179.31 214.095 175.429 213.68 172.912 215.867C171.141 217.435 170.56 219.842 169.996 222.139C168.992 226.503 167.986 230.87 166.978 235.24C166.194 238.76 165.41 242.531 166.688 245.902C167.965 249.273 172.364 251.656 175.351 249.626C176.723 248.693 177.483 247.094 178.659 245.925C179.631 244.994 180.851 244.365 182.173 244.113C183.495 243.861 184.861 243.998 186.107 244.506C188.177 245.384 189.674 247.227 190.952 249.085C201.387 264.169 203.073 283.753 200.988 301.974C200.611 305.313 200.117 308.724 200.893 311.993C201.803 315.819 204.398 319.182 204.735 323.102C204.994 326.113 203.888 329.225 204.735 332.118C206.303 337.457 213.963 338.782 218.659 335.803C223.355 332.824 225.644 327.25 227.283 321.926C228.921 316.603 230.293 310.95 234.002 306.803C236.307 304.232 239.411 302.358 241.191 299.402C243.676 295.263 243.057 289.845 245.425 285.635C248.529 280.037 255.64 278.391 261.073 274.941Z" fill="#F7F7F7"/>
<g opacity="0.6">
<path d="M68.9929 216.682C68.9459 216.909 68.891 217.113 68.8596 217.348C68.9067 217.113 68.9929 216.909 68.9929 216.682Z" fill="#263238"/>
</g>
<path d="M83.5358 233.46L82.8224 233.233C80.7213 232.699 78.2438 232.221 77.3344 230.285C76.2681 228.027 78.0478 225.165 76.9424 222.946C76.3622 221.786 75.1627 221.143 74.2297 220.242C73.2968 219.34 72.6147 217.85 73.4457 216.823C74.0965 215.961 75.4685 215.961 76.2681 215.193C76.5783 214.882 76.7766 214.477 76.8319 214.042C76.8873 213.606 76.7965 213.164 76.5739 212.786C74.7629 209.877 71.5563 214.809 70.1686 215.883C69.8136 216.166 69.4419 216.428 69.0553 216.667C69.0083 216.894 68.9534 217.098 68.9221 217.333C68.7888 218.046 68.6869 218.783 68.5693 219.52C68.4517 220.257 68.3184 220.971 68.2086 221.7C68.1224 222.296 68.0597 222.892 67.9813 223.487C67.9029 224.083 67.8166 224.679 67.7539 225.267C68.9925 225.929 70.1591 226.717 71.2349 227.619C73.3987 229.328 75.7742 231.539 75.5312 234.267C75.4218 234.706 75.4436 235.166 75.5939 235.592C75.8483 235.952 76.2196 236.213 76.6445 236.329C78.5991 237.105 80.6231 237.693 82.6891 238.086" fill="#F7F7F7"/>
<path d="M82.6417 238.133C82.3281 240.579 82.1321 243.158 81.7401 245.581C81.1756 249.085 79.5213 252.394 79.3881 255.929C79.2313 260.931 82.0693 265.463 84.4762 269.853C93.6255 286.631 97.2397 305.698 101.293 324.451C102.383 325.611 103.496 326.717 104.633 327.799C105.527 328.671 106.433 329.523 107.353 330.354C108.278 331.193 109.211 332.017 110.168 332.824C110.826 333.389 111.493 333.937 112.183 334.486C112.12 334.259 112.049 334.055 111.979 333.828C110.16 327.556 111.195 319.104 117.396 317.034C118.572 316.634 119.866 316.509 120.893 315.796C123.794 313.741 122.422 308.442 125.33 306.388C126.969 305.251 129.203 305.674 131.101 305.125C134.527 304.114 136.157 300.147 136.424 296.572C136.691 292.997 136.016 289.359 136.926 285.894C138.329 280.665 143.261 275.866 141.575 270.716C139.678 264.969 131.767 264.71 126.679 261.511C119.521 257.043 118.525 247.211 114.503 239.779C110.889 233.138 101.387 225.032 93.1708 225.667C87.2202 226.137 84.7428 229.289 83.5354 233.436" fill="#F7F7F7"/>
<path d="M80.9088 187.462C83.4568 185.847 87.4082 186.185 88.8115 188.858C89.8072 190.771 89.18 193.092 88.545 195.13C87.6878 197.905 86.828 200.683 85.9656 203.464C85.628 204.277 85.538 205.171 85.7069 206.035C86.2949 207.964 89.3055 208.05 90.6696 206.6C92.0338 205.149 92.2376 202.923 92.2376 200.916C92.2376 198.909 92.1122 196.761 93.1471 195.028C95.7264 190.732 102.453 192.409 106.844 190.003C109.564 188.513 111.108 185.581 112.959 183.08C114.809 180.579 117.663 178.227 120.705 178.807C121.732 178.995 122.696 179.521 123.739 179.638C126.788 179.975 129.227 175.797 127.361 173.366C126.914 172.894 126.53 172.367 126.216 171.798C126.085 171.231 126.152 170.637 126.406 170.113C126.66 169.59 127.086 169.169 127.612 168.921C128.676 168.462 129.835 168.266 130.991 168.349C133.648 168.301 136.298 168.278 138.948 168.247C141.88 168.247 145.761 167.267 145.777 164.327C145.777 161.794 142.586 160.195 142.445 157.663C142.488 157.045 142.465 156.425 142.374 155.812C141.818 154.119 139.364 154.409 137.717 155.028C137.604 154.453 137.359 153.912 137.001 153.447C136.644 152.983 136.183 152.607 135.656 152.35C135.129 152.094 134.549 151.963 133.963 151.967C133.377 151.972 132.799 152.113 132.276 152.378C130.56 153.421 130.042 155.624 129.227 157.451C127.29 161.881 123.119 164.844 119.152 167.588C117.82 168.497 116.33 169.454 114.723 169.305C113.116 169.156 111.689 167.196 112.622 165.902C113.264 165.009 114.731 164.656 114.746 163.55C114.746 162.178 112.394 161.935 112.12 160.579C113.594 156.91 118.18 155.961 121.818 154.409C126.277 152.51 129.946 149.132 132.206 144.844C132.431 144.528 132.587 144.167 132.662 143.786C132.738 143.405 132.732 143.012 132.645 142.633C132.284 141.598 131.022 141.261 129.924 141.065C127.353 140.65 124.092 140.532 122.806 142.798C122.124 144.013 122.273 145.526 121.771 146.828C120.289 150.693 114.715 150.348 111.061 152.245C109.619 152.974 108.419 154.119 106.875 154.597C105.205 155.122 103.386 154.801 101.638 154.683C101.332 154.683 101.018 154.683 100.705 154.683C99.4347 156.001 98.196 157.357 96.9965 158.737C95.797 160.117 94.6445 161.528 93.4842 162.962C88.0685 169.759 83.4003 177.119 79.5603 184.914C78.1962 187.651 76.9496 190.449 75.7971 193.311C74.6447 196.173 73.6019 199.089 72.6611 202.061C74.2291 199.779 75.1856 196.816 75.9618 194.73C76.9967 191.978 78.4 189.077 80.9088 187.462Z" fill="#F7F7F7"/>
<g opacity="0.6">
<path d="M309.5 213.326C309.855 214.952 310.174 216.577 310.456 218.203C310.174 216.572 309.855 214.946 309.5 213.326Z" fill="#263238"/>
</g>
<path d="M311.194 255.161C311.437 253.413 311.641 251.672 311.79 249.932C311.939 248.191 312.064 246.458 312.135 244.726C312.205 243.322 312.245 241.935 312.252 240.539C312.26 239.144 312.252 237.607 312.252 236.149C312.155 231.793 311.82 227.446 311.249 223.127C311.029 221.48 310.779 219.834 310.465 218.203C310.151 216.572 309.861 214.95 309.508 213.327C309.059 212.088 308.562 210.86 308.019 209.642C302.821 197.984 294.236 188.184 288.293 176.886C286.357 173.217 284.867 170.191 280.673 168.921C274.479 167.024 270.747 170.167 267.118 163.503C266.138 161.716 264.24 159.913 262.319 160.61C262.594 161.967 262.884 163.323 263.158 164.695C263.225 164.981 263.225 165.279 263.158 165.565C262.931 166.459 261.551 166.514 260.853 165.903C260.264 165.175 259.808 164.35 259.505 163.464C259.076 162.706 258.494 162.046 257.795 161.526C257.097 161.005 256.298 160.636 255.449 160.441C254.6 160.246 253.72 160.23 252.865 160.395C252.009 160.559 251.198 160.899 250.481 161.394C250.512 160.777 250.379 160.162 250.097 159.611C249.815 159.061 249.393 158.594 248.874 158.258C248.698 158.825 248.404 159.347 248.012 159.792C247.62 160.237 247.138 160.593 246.599 160.839C246.059 161.085 245.474 161.214 244.881 161.218C244.288 161.222 243.701 161.1 243.159 160.861C242.963 159.638 245.095 159.732 245.965 158.839C246.836 157.945 246.153 156.565 245.409 155.656C243.381 153.31 240.607 151.734 237.553 151.195C235.616 150.881 233.468 150.944 231.924 149.697C231.03 148.976 230.473 147.918 229.572 147.212C227.612 145.699 224.782 146.428 222.461 147.306C219.278 148.513 215.946 150.128 214.448 153.186C212.951 156.244 214.629 160.885 218.031 160.963C218.894 160.963 219.835 160.697 220.626 161.05C221.771 161.543 222.108 163.01 222.03 164.248C221.951 165.487 221.622 166.765 222.069 167.925C222.516 169.086 224.154 169.877 224.978 168.952C226.773 167.682 226.938 165.142 226.843 162.947C226.749 160.752 226.679 158.29 228.2 156.73C229.721 155.17 233.311 156.251 232.747 158.368C232.41 159.615 230.834 160.328 230.709 161.622C230.583 162.915 232.073 163.856 233.382 163.974C234.691 164.091 236.095 163.841 237.302 164.35C238.509 164.86 239.317 166.663 238.259 167.486C236.4 169.054 232.7 165.369 231.548 167.486C231.234 168.027 231.367 168.717 231.226 169.321C230.795 171.187 228.333 171.532 226.42 171.492C224.507 171.453 222.5 171.336 220.885 170.277C219.27 169.219 218.447 166.812 219.654 165.338C218.8 164.507 217.232 164.985 216.557 165.989C215.992 167.051 215.744 168.254 215.844 169.454C213.908 168.725 211.877 170.152 210.505 171.665C209.133 173.178 207.722 174.989 205.699 175.303C203.676 175.616 201.081 174.417 199.803 176.04C198.141 178.156 201.567 181.63 199.89 183.723C198.933 184.899 197.099 184.593 195.578 184.789C191.556 185.322 189.392 190.779 191.587 194.197C193.782 197.615 199.074 198.188 202.281 195.71C204.507 194.009 205.699 191.335 207.447 189.156C209.196 186.976 212.151 185.236 214.691 186.381C215.66 186.913 216.51 187.636 217.192 188.505C218.321 189.767 219.458 191.03 220.587 192.315C221.308 193.099 222.092 194.119 221.857 195.185C221.653 196.039 220.885 196.612 220.477 197.38C219.333 199.591 222.383 202.28 224.68 201.3C226.977 200.32 227.675 197.121 226.522 194.91C224.954 191.861 220.611 189.822 221.214 186.42C223.794 184.852 227.141 187.368 228.098 190.238C229.054 193.107 228.647 196.243 229.384 199.152C230.121 202.061 232.935 204.985 235.781 204.021C235.436 201.543 235.099 199.081 234.754 196.612C236.628 195.593 238.031 199.56 240.14 199.238C241.426 199.034 241.834 197.286 241.473 196.016C241.112 194.746 240.305 193.609 240.266 192.292C240.219 189.893 243.135 188.176 245.44 188.897C247.745 189.618 249.117 192.119 249.219 194.511C249.169 195.462 249.243 196.416 249.438 197.349C250.058 199.317 252.261 200.21 254.033 201.269C255.804 202.327 257.514 204.499 256.447 206.271C255.969 207.055 254.989 207.705 255.169 208.623C255.35 209.54 256.416 209.901 256.306 210.708C256.204 211.241 255.593 211.492 255.067 211.665C253.719 212.002 252.316 211.97 250.999 212.394C249.681 212.817 248.396 213.821 248.302 215.177C248.176 217.121 250.324 218.376 251.171 220.124C252.018 221.872 251.547 223.793 251.955 225.612C252.339 227.298 253.429 228.748 254.252 230.245C256.808 235.051 256.753 240.751 257.561 246.121C257.921 248.552 258.815 251.327 261.128 252.111C262.44 252.409 263.809 252.344 265.087 251.923C268.717 251.053 272.504 250.112 275.279 247.674C278.054 245.235 279.575 240.774 277.49 237.67C277.261 237.245 276.884 236.919 276.431 236.753C275.775 236.701 275.116 236.828 274.526 237.121C272.66 237.678 270.606 236.698 269.336 235.192C268.066 233.687 267.455 231.806 266.835 229.947C266.169 227.909 265.51 225.855 264.82 223.793C266.098 223.009 267.847 223.66 268.882 224.773C269.916 225.886 270.41 227.345 271.187 228.638C273.539 232.629 278.015 234.91 282.492 236.078C283.652 236.311 284.77 236.718 285.808 237.286C288.983 239.332 289.234 244.491 292.676 246.09C293.632 246.537 294.754 246.639 295.632 247.219C296.957 248.097 297.435 249.814 297.639 251.398C298.015 254.338 297.858 257.348 298.658 260.218C299.458 263.087 301.488 265.863 304.405 266.325C305.325 266.434 306.258 266.361 307.149 266.109C308.041 265.857 308.875 265.433 309.603 264.859C310.143 262.233 310.622 259.59 311.006 256.901C311.076 256.282 311.155 255.725 311.194 255.161Z" fill="#F7F7F7"/>
<path d="M255.028 298.548C253.17 298.642 252.676 299.653 251.476 300.852C249.948 302.42 247.862 303.887 246.443 305.439C244.044 308.073 245.165 312.887 242.217 314.964C241.568 315.31 240.937 315.689 240.328 316.101C239.761 316.679 239.443 317.456 239.443 318.265C239.443 319.074 239.761 319.851 240.328 320.429C240.929 320.975 241.675 321.335 242.477 321.466C243.278 321.597 244.1 321.493 244.844 321.166C246.324 320.478 247.503 319.274 248.16 317.779C248.662 316.728 249.038 315.513 250.018 314.878C251.688 313.788 253.86 315.09 255.859 315.098C264.365 315.168 263.166 298.132 255.028 298.548Z" fill="#F7F7F7"/>
<path d="M261.073 275.129C266.467 271.671 269.76 262.585 264.115 259.551C261.983 258.406 259.294 258.696 257.185 257.504C254.425 255.936 253.539 252.479 252.912 249.382C251.265 241.25 249.616 233.119 247.965 224.992C246.969 220.092 245.221 214.33 240.423 212.934C237.702 212.15 234.825 213.075 231.995 213.185C222.25 213.538 209.612 188.262 200.156 202.671C199.757 198.328 192.701 198.916 189.964 202.334C187.228 205.753 186.044 210.629 182.234 212.715C179.31 214.283 175.429 213.867 172.912 216.054C171.141 217.622 170.56 220.029 169.996 222.326C168.992 226.691 167.986 231.058 166.978 235.427C166.194 238.947 165.41 242.718 166.688 246.089C167.965 249.461 172.364 251.844 175.351 249.813C176.723 248.88 177.483 247.281 178.659 246.113C179.631 245.182 180.851 244.552 182.173 244.301C183.495 244.049 184.861 244.185 186.107 244.694C188.177 245.572 189.674 247.414 190.952 249.272C201.387 264.357 203.073 283.941 200.988 302.161C200.611 305.501 200.117 308.911 200.893 312.181C201.803 316.007 204.398 319.37 204.735 323.29C204.994 326.3 203.888 329.413 204.735 332.306C206.303 337.645 213.963 338.97 218.659 335.991C223.355 333.012 225.644 327.437 227.283 322.114C228.921 316.791 230.293 311.138 234.002 306.991C236.307 304.419 239.411 302.545 241.191 299.59C243.676 295.45 243.057 290.033 245.425 285.823C248.529 280.225 255.64 278.578 261.073 275.129Z" fill="#FFA448"/>
<path d="M101.31 324.639C102.399 325.799 103.513 326.904 104.649 327.986C105.543 328.859 106.45 329.711 107.37 330.542C108.295 331.381 109.228 332.204 110.184 333.012C110.843 333.576 111.509 334.125 112.199 334.674C112.137 334.446 112.066 334.243 111.996 334.015C110.177 327.743 111.212 319.292 117.413 317.222C118.589 316.822 119.883 316.697 120.91 315.983C123.81 313.929 122.438 308.629 125.347 306.575C126.986 305.438 129.22 305.862 131.117 305.313C134.543 304.302 136.174 300.335 136.441 296.76C136.707 293.184 136.033 289.547 136.942 286.081C138.346 280.852 143.277 276.054 141.592 270.903C139.694 265.156 131.784 264.898 126.696 261.699C119.538 257.23 118.542 247.399 114.52 239.967C110.906 233.326 101.404 225.22 93.1874 225.855C87.2368 226.325 84.7594 229.477 83.552 233.624L82.8386 233.397C80.7375 232.864 78.26 232.385 77.3506 230.449C76.2843 228.191 78.064 225.329 76.9586 223.111C76.3784 221.95 75.1789 221.307 74.2459 220.406C73.313 219.504 72.6309 218.015 73.4619 216.988C74.1127 216.125 75.4847 216.125 76.2843 215.357C76.5945 215.046 76.7928 214.641 76.8481 214.206C76.9035 213.77 76.8127 213.328 76.5901 212.95C74.7791 210.041 71.5725 214.973 70.1848 216.047C69.8298 216.33 69.4581 216.592 69.0715 216.831C69.0245 217.058 68.9696 217.262 68.9383 217.497C68.805 218.211 68.7031 218.948 68.5855 219.684C68.4679 220.421 68.3346 221.135 68.2248 221.864C68.1386 222.46 68.0759 223.056 67.9975 223.652C67.9191 224.247 67.8328 224.843 67.7701 225.431C67.7701 225.721 67.6917 225.988 67.6682 226.278C66.2045 239.533 66.9169 252.939 69.7771 265.964C71.0567 271.747 72.768 277.426 74.8967 282.953C75.7669 285.305 76.7626 287.696 77.821 290.009C79.1303 292.887 80.5258 295.717 82.0703 298.469C83.4893 301.111 85.0338 303.706 86.6959 306.222C88.9565 309.707 91.3953 313.072 94.0027 316.305C96.3129 319.19 98.7564 321.963 101.333 324.623" fill="#FFA448"/>
<path d="M80.9088 187.462C83.4568 185.847 87.4082 186.185 88.8115 188.858C89.8072 190.771 89.18 193.092 88.545 195.13C87.6878 197.905 86.828 200.683 85.9656 203.464C85.628 204.277 85.538 205.171 85.7069 206.035C86.2949 207.964 89.3055 208.05 90.6696 206.6C92.0338 205.149 92.2376 202.923 92.2376 200.916C92.2376 198.909 92.1122 196.761 93.1471 195.028C95.7264 190.732 102.453 192.409 106.844 190.003C109.564 188.513 111.108 185.581 112.959 183.08C114.809 180.579 117.663 178.227 120.705 178.807C121.732 178.995 122.696 179.521 123.739 179.638C126.788 179.975 129.227 175.797 127.361 173.366C126.914 172.894 126.53 172.367 126.216 171.798C126.085 171.231 126.152 170.637 126.406 170.113C126.66 169.59 127.086 169.169 127.612 168.921C128.676 168.462 129.835 168.266 130.991 168.349C133.648 168.301 136.298 168.278 138.948 168.247C141.88 168.247 145.761 167.267 145.777 164.327C145.777 161.794 142.586 160.195 142.445 157.663C142.488 157.045 142.465 156.425 142.374 155.812C141.818 154.119 139.364 154.409 137.717 155.028C137.604 154.453 137.359 153.912 137.001 153.447C136.644 152.983 136.183 152.607 135.656 152.35C135.129 152.094 134.549 151.963 133.963 151.967C133.377 151.972 132.799 152.113 132.276 152.378C130.56 153.421 130.042 155.624 129.227 157.451C127.29 161.881 123.119 164.844 119.152 167.588C117.82 168.497 116.33 169.454 114.723 169.305C113.116 169.156 111.689 167.196 112.622 165.902C113.264 165.009 114.731 164.656 114.746 163.55C114.746 162.178 112.394 161.935 112.12 160.579C113.594 156.91 118.18 155.961 121.818 154.409C126.277 152.51 129.946 149.132 132.206 144.844C132.431 144.528 132.587 144.167 132.662 143.786C132.738 143.405 132.732 143.012 132.645 142.633C132.284 141.598 131.022 141.261 129.924 141.065C127.353 140.65 124.092 140.532 122.806 142.798C122.124 144.013 122.273 145.526 121.771 146.828C120.289 150.693 114.715 150.348 111.061 152.245C109.619 152.974 108.419 154.119 106.875 154.597C105.205 155.122 103.386 154.801 101.638 154.683C101.332 154.683 101.018 154.683 100.705 154.683C99.4347 156.001 98.196 157.357 96.9965 158.737C95.797 160.117 94.6445 161.528 93.4842 162.962C88.0685 169.759 83.4003 177.119 79.5603 184.914C78.1962 187.651 76.9496 190.449 75.7971 193.311C74.6447 196.173 73.6019 199.089 72.6611 202.061C74.2291 199.779 75.1856 196.816 75.9618 194.73C76.9967 191.978 78.4 189.077 80.9088 187.462Z" fill="#FFA448"/>
<path d="M311.194 255.349C311.437 253.6 311.641 251.86 311.79 250.119C311.939 248.379 312.064 246.646 312.135 244.914C312.205 243.51 312.245 242.123 312.252 240.727C312.26 239.332 312.252 237.795 312.252 236.337C312.155 231.981 311.82 227.634 311.249 223.315C311.029 221.668 310.778 220.022 310.465 218.391C310.151 216.76 309.861 215.137 309.508 213.515C309.059 212.276 308.562 211.048 308.019 209.83C302.821 198.172 294.236 188.372 288.293 177.074C286.357 173.405 284.867 170.379 280.673 169.109C274.479 167.211 270.747 170.355 267.117 163.691C266.137 161.904 264.24 160.101 262.319 160.798C262.594 162.155 262.884 163.511 263.158 164.883C263.225 165.169 263.225 165.467 263.158 165.753C262.931 166.647 261.551 166.702 260.853 166.09C260.264 165.363 259.808 164.538 259.505 163.652C259.076 162.894 258.494 162.234 257.795 161.713C257.097 161.193 256.298 160.824 255.449 160.629C254.6 160.434 253.72 160.418 252.865 160.583C252.009 160.747 251.198 161.087 250.481 161.582C250.512 160.965 250.379 160.35 250.097 159.799C249.815 159.249 249.393 158.782 248.874 158.446C248.698 159.012 248.404 159.535 248.012 159.98C247.62 160.424 247.138 160.781 246.599 161.027C246.059 161.273 245.474 161.402 244.881 161.406C244.288 161.409 243.701 161.288 243.158 161.049C242.962 159.826 245.095 159.92 245.965 159.027C246.835 158.133 246.153 156.753 245.409 155.843C243.381 153.497 240.606 151.922 237.553 151.383C235.616 151.069 233.468 151.132 231.924 149.885C231.03 149.164 230.473 148.105 229.572 147.4C227.612 145.887 228.364 149.093 226.044 149.979C222.861 151.186 221.136 151.547 219.631 154.605C219.33 155.217 219.068 155.849 218.847 156.494C218.539 157.327 218.527 158.24 218.813 159.081C219.098 159.921 219.664 160.639 220.415 161.112L220.65 161.237C221.794 161.731 222.132 163.197 222.053 164.436C221.975 165.675 221.646 166.953 222.092 168.113C222.539 169.273 224.178 170.065 225.001 169.14C226.796 167.87 226.961 165.33 226.867 163.135C226.773 160.939 226.702 158.478 228.223 156.918C229.744 155.357 233.335 156.439 232.77 158.556C232.433 159.803 230.857 160.516 230.732 161.81C230.607 163.103 232.096 164.044 233.405 164.162C234.715 164.279 236.118 164.028 237.325 164.538C238.533 165.048 239.34 166.851 238.282 167.674C236.424 169.242 232.723 165.557 231.571 167.674C231.257 168.215 231.391 168.905 231.249 169.509C230.818 171.374 228.357 171.719 226.444 171.68C224.531 171.641 222.524 171.523 220.909 170.465C219.293 169.407 218.47 167 219.678 165.526C218.823 164.695 217.255 165.173 216.581 166.177C216.015 167.239 215.768 168.442 215.867 169.642C213.931 168.913 211.9 170.34 210.528 171.853C209.156 173.366 207.745 175.177 205.722 175.491C203.7 175.804 201.105 174.605 199.827 176.227C198.165 178.344 201.591 181.817 199.913 183.911C198.957 185.087 197.122 184.781 195.601 184.977C191.579 185.51 189.415 190.967 191.61 194.385C193.806 197.803 199.098 198.375 202.304 195.898C204.531 194.197 205.722 191.523 207.471 189.344C209.219 187.164 212.175 185.424 214.715 186.568C215.683 187.101 216.534 187.824 217.216 188.693C218.345 189.955 219.482 191.218 220.611 192.503C221.332 193.287 222.116 194.307 221.881 195.373C221.677 196.227 220.909 196.8 220.501 197.568C219.356 199.779 222.406 202.468 224.703 201.488C227 200.508 227.698 197.309 226.545 195.098C224.977 192.049 220.634 190.01 221.238 186.608C223.817 185.04 227.165 187.556 228.121 190.426C229.078 193.295 228.67 196.431 229.407 199.34C230.144 202.248 232.959 205.173 235.805 204.208C235.46 201.731 235.122 199.269 234.777 196.8C236.651 195.78 238.055 199.747 240.164 199.426C241.449 199.222 241.857 197.474 241.496 196.204C241.136 194.934 240.328 193.797 240.289 192.48C240.242 190.081 243.158 188.364 245.463 189.085C247.768 189.806 249.14 192.307 249.242 194.699C249.193 195.65 249.267 196.604 249.462 197.537C250.081 199.504 252.284 200.398 254.056 201.457C255.828 202.515 257.537 204.687 256.471 206.459C255.993 207.243 255.013 207.893 255.193 208.811C255.373 209.728 256.439 210.088 256.33 210.896C256.228 211.429 255.616 211.68 255.091 211.852C253.742 212.19 252.339 212.158 251.022 212.582C249.705 213.005 248.419 214.008 248.325 215.365C248.2 217.309 250.348 218.563 251.194 220.312C252.041 222.06 251.571 223.981 251.978 225.8C252.363 227.485 253.452 228.936 254.276 230.433C256.831 235.239 256.777 240.939 257.584 246.309C257.945 248.74 258.838 251.515 261.151 252.299C262.464 252.597 263.832 252.532 265.11 252.111C268.74 251.241 272.527 250.3 275.302 247.862C278.078 245.423 279.599 240.962 277.513 237.858C277.284 237.433 276.908 237.107 276.455 236.94C275.798 236.889 275.14 237.016 274.55 237.309C272.684 237.866 270.63 236.886 269.36 235.38C268.09 233.875 267.478 231.993 266.859 230.135C266.192 228.097 265.534 226.043 264.844 223.981C266.122 223.197 267.87 223.848 268.905 224.961C269.94 226.074 270.434 227.532 271.21 228.826C273.562 232.817 278.039 235.098 282.515 236.266C283.675 236.499 284.794 236.906 285.832 237.474C289.007 239.52 289.258 244.679 292.699 246.278C293.656 246.725 294.777 246.827 295.655 247.407C296.98 248.285 297.458 250.002 297.662 251.586C298.038 254.526 297.882 257.536 298.681 260.406C299.481 263.275 301.512 266.05 304.428 266.513C305.348 266.622 306.281 266.548 307.173 266.297C308.065 266.045 308.898 265.621 309.626 265.047C310.167 262.42 310.645 259.778 311.029 257.089C311.076 256.47 311.155 255.913 311.194 255.349Z" fill="#FFA448"/>
<g opacity="0.3">
<path d="M255.028 298.735C253.17 298.829 252.676 299.84 251.476 301.04C249.948 302.608 247.862 304.074 246.443 305.626C244.044 308.261 245.165 313.074 242.217 315.152C241.568 315.497 240.937 315.877 240.328 316.289C239.761 316.866 239.443 317.643 239.443 318.453C239.443 319.262 239.761 320.039 240.328 320.616C240.929 321.162 241.675 321.523 242.477 321.653C243.278 321.784 244.1 321.68 244.844 321.353C246.324 320.665 247.503 319.461 248.16 317.967C248.662 316.916 249.038 315.701 250.018 315.066C251.688 313.976 253.86 315.277 255.859 315.285C264.365 315.356 263.166 298.319 255.028 298.735Z" fill="white"/>
</g>
<path d="M84.9713 121.701C83.3512 121.201 81.6343 121.101 79.9672 121.41C78.3001 121.718 76.7326 122.426 75.3987 123.472C75.3987 123.472 68.9464 128.404 71.4787 135.64C72.4353 138.294 74.3095 140.519 76.7629 141.912C77.6876 142.449 78.6648 142.891 79.6793 143.229C83.1916 144.366 93.3993 146.969 93.3993 146.969L94.5204 146.106C94.4342 142.97 92.9524 133.562 92.4272 130.552C91.7294 126.828 89.0638 122.916 84.9713 121.701ZM87.3233 136.832C86.2337 137.666 84.9209 138.159 83.5512 138.247C82.1814 138.336 80.8162 138.016 79.6283 137.328C78.4404 136.641 77.4831 135.616 76.8776 134.384C76.272 133.153 76.0455 131.769 76.2265 130.408C76.4076 129.048 76.9881 127.771 77.8947 126.741C78.8012 125.71 79.9931 124.972 81.3195 124.619C82.6459 124.265 84.0473 124.314 85.3462 124.757C86.6452 125.201 87.7834 126.02 88.6169 127.11C89.1709 127.833 89.5768 128.658 89.8116 129.538C90.0464 130.418 90.1054 131.336 89.9853 132.239C89.8651 133.142 89.5682 134.012 89.1114 134.8C88.6547 135.588 88.0471 136.279 87.3233 136.832Z" fill="#F7F7F7"/>
<path opacity="0.4" d="M84.9713 121.701C83.3512 121.201 81.6343 121.101 79.9672 121.41C78.3001 121.718 76.7326 122.426 75.3987 123.472C75.3987 123.472 68.9464 128.404 71.4787 135.64C72.4353 138.294 74.3095 140.519 76.7629 141.912C77.6876 142.449 78.6648 142.891 79.6793 143.229C83.1916 144.366 93.3993 146.969 93.3993 146.969L94.5204 146.106C94.4342 142.97 92.9524 133.562 92.4272 130.552C91.7294 126.828 89.0638 122.916 84.9713 121.701ZM87.3233 136.832C86.2337 137.666 84.9209 138.159 83.5512 138.247C82.1814 138.336 80.8162 138.016 79.6283 137.328C78.4404 136.641 77.4831 135.616 76.8776 134.384C76.272 133.153 76.0455 131.769 76.2265 130.408C76.4076 129.048 76.9881 127.771 77.8947 126.741C78.8012 125.71 79.9931 124.972 81.3195 124.619C82.6459 124.265 84.0473 124.314 85.3462 124.757C86.6452 125.201 87.7834 126.02 88.6169 127.11C89.1709 127.833 89.5768 128.658 89.8116 129.538C90.0464 130.418 90.1054 131.336 89.9853 132.239C89.8651 133.142 89.5682 134.012 89.1114 134.8C88.6547 135.588 88.0471 136.279 87.3233 136.832Z" fill="#F7F7F7"/>
<path d="M86.1393 120.877C84.5205 120.378 82.8047 120.278 81.1389 120.586C79.4731 120.895 77.9069 121.603 76.5745 122.649C76.5745 122.649 70.1222 127.58 72.6545 134.817C73.6111 137.471 75.4853 139.696 77.9386 141.089C78.8636 141.631 79.844 142.072 80.863 142.406C84.3674 143.543 94.5751 146.146 94.5751 146.146C94.5751 146.146 94.2615 133.327 93.603 129.729C92.8895 126.005 90.2318 122.1 86.1393 120.877ZM87.3623 136.871C86.641 137.435 85.8145 137.849 84.9312 138.089C84.0479 138.329 83.1255 138.391 82.2181 138.271C81.3106 138.15 80.4363 137.85 79.6463 137.387C78.8563 136.925 78.1665 136.31 77.6172 135.577C76.7826 134.488 76.2899 133.175 76.2015 131.805C76.1131 130.435 76.4329 129.07 77.1206 127.882C77.8082 126.694 78.8327 125.737 80.0645 125.132C81.2963 124.526 82.6801 124.299 84.0407 124.48C85.4013 124.662 86.6776 125.242 87.7082 126.149C88.7388 127.055 89.4773 128.247 89.8304 129.573C90.1835 130.9 90.1352 132.301 89.6917 133.6C89.2482 134.899 88.4293 136.037 87.3388 136.871H87.3623Z" fill="#F7F7F7"/>
<path d="M78.8945 125.809C77.7634 126.686 76.9306 127.891 76.5097 129.259C76.0887 130.627 76.1002 132.091 76.5425 133.453C76.2489 132.188 76.3773 130.863 76.9081 129.678C77.4389 128.494 78.343 127.516 79.482 126.893C80.6211 126.271 81.9326 126.039 83.216 126.232C84.4995 126.425 85.6845 127.033 86.5898 127.964C87.4951 128.894 88.071 130.095 88.2294 131.383C88.3879 132.671 88.1203 133.976 87.4674 135.098C86.8145 136.22 85.8123 137.097 84.6139 137.595C83.4155 138.094 82.0869 138.186 80.831 137.859C81.9641 138.261 83.1822 138.361 84.3658 138.15C85.5494 137.94 86.658 137.425 87.5829 136.657C88.5077 135.889 89.2171 134.893 89.6415 133.768C90.0658 132.644 90.1906 131.428 90.0037 130.24C89.8167 129.052 89.3243 127.934 88.5748 126.994C87.8253 126.054 86.8444 125.325 85.7283 124.878C84.6121 124.431 83.3991 124.282 82.2079 124.445C81.0168 124.608 79.8885 125.078 78.9337 125.809H78.8945Z" fill="#F7F7F7"/>
<path opacity="0.4" d="M78.8945 125.809C77.7634 126.686 76.9306 127.891 76.5097 129.259C76.0887 130.627 76.1002 132.091 76.5425 133.453C76.2489 132.188 76.3773 130.863 76.9081 129.678C77.4389 128.494 78.343 127.516 79.482 126.893C80.6211 126.271 81.9326 126.039 83.216 126.232C84.4995 126.425 85.6845 127.033 86.5898 127.964C87.4951 128.894 88.071 130.095 88.2294 131.383C88.3879 132.671 88.1203 133.976 87.4674 135.098C86.8145 136.22 85.8123 137.097 84.6139 137.595C83.4155 138.094 82.0869 138.186 80.831 137.859C81.9641 138.261 83.1822 138.361 84.3658 138.15C85.5494 137.94 86.658 137.425 87.5829 136.657C88.5077 135.889 89.2171 134.893 89.6415 133.768C90.0658 132.644 90.1906 131.428 90.0037 130.24C89.8167 129.052 89.3243 127.934 88.5748 126.994C87.8253 126.054 86.8444 125.325 85.7283 124.878C84.6121 124.431 83.3991 124.282 82.2079 124.445C81.0168 124.608 79.8885 125.078 78.9337 125.809H78.8945Z" fill="#F7F7F7"/>
<path d="M346.615 216.831C347.805 215.624 348.686 214.146 349.18 212.524C349.674 210.902 349.768 209.184 349.453 207.518C349.453 207.518 348.049 199.521 340.468 198.407C337.67 198.028 334.829 198.668 332.464 200.211C331.557 200.778 330.713 201.44 329.947 202.186C327.328 204.781 320.312 212.637 320.312 212.637L320.555 214.04C323.361 215.397 332.44 218.454 335.325 219.34C338.963 220.454 343.651 219.897 346.615 216.831ZM332.103 211.939C331.866 210.588 332.036 209.196 332.59 207.941C333.144 206.686 334.057 205.623 335.215 204.887C336.373 204.151 337.723 203.775 339.095 203.806C340.467 203.837 341.799 204.275 342.922 205.062C344.045 205.85 344.91 206.954 345.406 208.233C345.902 209.512 346.008 210.91 345.71 212.249C345.412 213.588 344.724 214.809 343.732 215.757C342.741 216.706 341.49 217.339 340.139 217.576C339.241 217.735 338.32 217.715 337.43 217.518C336.54 217.32 335.697 216.949 334.951 216.426C334.204 215.902 333.569 215.236 333.08 214.466C332.591 213.696 332.259 212.838 332.103 211.939Z" fill="#F7F7F7"/>
<path opacity="0.4" d="M346.615 216.831C347.805 215.624 348.686 214.146 349.18 212.524C349.674 210.902 349.768 209.184 349.453 207.518C349.453 207.518 348.049 199.521 340.468 198.407C337.67 198.028 334.829 198.668 332.464 200.211C331.557 200.778 330.713 201.44 329.947 202.186C327.328 204.781 320.312 212.637 320.312 212.637L320.555 214.04C323.361 215.397 332.44 218.454 335.325 219.34C338.963 220.454 343.651 219.897 346.615 216.831ZM332.103 211.939C331.866 210.588 332.036 209.196 332.59 207.941C333.144 206.686 334.057 205.623 335.215 204.887C336.373 204.151 337.723 203.775 339.095 203.806C340.467 203.837 341.799 204.275 342.922 205.062C344.045 205.85 344.91 206.954 345.406 208.233C345.902 209.512 346.008 210.91 345.71 212.249C345.412 213.588 344.724 214.809 343.732 215.757C342.741 216.706 341.49 217.339 340.139 217.576C339.241 217.735 338.32 217.715 337.43 217.518C336.54 217.32 335.697 216.949 334.951 216.426C334.204 215.902 333.569 215.236 333.08 214.466C332.591 213.696 332.259 212.838 332.103 211.939Z" fill="#F7F7F7"/>
<path d="M346.811 218.242C348.003 217.036 348.885 215.56 349.382 213.94C349.879 212.319 349.976 210.602 349.665 208.936C349.665 208.936 348.254 200.931 340.68 199.826C337.881 199.451 335.039 200.087 332.668 201.621C331.764 202.192 330.923 202.857 330.159 203.605C327.517 206.192 320.5 214.032 320.5 214.032C320.5 214.032 332.025 219.661 335.521 220.735C339.151 221.872 343.84 221.315 346.811 218.242ZM332.048 211.97C331.81 210.618 331.978 209.227 332.531 207.971C333.084 206.715 333.997 205.651 335.154 204.913C336.312 204.176 337.662 203.799 339.034 203.829C340.406 203.859 341.738 204.296 342.862 205.083C343.986 205.87 344.851 206.973 345.349 208.252C345.846 209.531 345.952 210.929 345.655 212.269C345.358 213.609 344.67 214.83 343.678 215.779C342.687 216.728 341.436 217.361 340.084 217.599C339.186 217.763 338.264 217.748 337.371 217.552C336.479 217.357 335.635 216.986 334.887 216.462C334.139 215.937 333.503 215.269 333.016 214.497C332.529 213.724 332.2 212.863 332.048 211.962V211.97Z" fill="#F7F7F7"/>
<path d="M345.744 209.54C345.495 208.129 344.815 206.829 343.797 205.819C342.78 204.81 341.474 204.141 340.06 203.903C341.318 204.226 342.435 204.952 343.241 205.97C344.048 206.988 344.498 208.242 344.524 209.54C344.55 210.838 344.15 212.109 343.386 213.159C342.621 214.208 341.534 214.978 340.29 215.351C339.047 215.725 337.715 215.68 336.499 215.225C335.283 214.77 334.249 213.928 333.557 212.83C332.864 211.732 332.55 210.437 332.662 209.144C332.775 207.85 333.308 206.629 334.18 205.667C333.301 206.487 332.649 207.522 332.29 208.669C331.93 209.817 331.875 211.038 332.13 212.213C332.385 213.389 332.941 214.477 333.743 215.373C334.546 216.269 335.567 216.94 336.708 217.322C337.848 217.704 339.068 217.783 340.248 217.551C341.428 217.32 342.527 216.785 343.439 216.001C344.35 215.216 345.041 214.208 345.446 213.075C345.85 211.943 345.953 210.725 345.744 209.54Z" fill="#F7F7F7"/>
<path opacity="0.4" d="M345.744 209.54C345.495 208.129 344.815 206.829 343.797 205.819C342.78 204.81 341.474 204.141 340.06 203.903C341.318 204.226 342.435 204.952 343.241 205.97C344.048 206.988 344.498 208.242 344.524 209.54C344.55 210.838 344.15 212.109 343.386 213.159C342.621 214.208 341.534 214.978 340.29 215.351C339.047 215.725 337.715 215.68 336.499 215.225C335.283 214.77 334.249 213.928 333.557 212.83C332.864 211.732 332.55 210.437 332.662 209.144C332.775 207.85 333.308 206.629 334.18 205.667C333.301 206.487 332.649 207.522 332.29 208.669C331.93 209.817 331.875 211.038 332.13 212.213C332.385 213.389 332.941 214.477 333.743 215.373C334.546 216.269 335.567 216.94 336.708 217.322C337.848 217.704 339.068 217.783 340.248 217.551C341.428 217.32 342.527 216.785 343.439 216.001C344.35 215.216 345.041 214.208 345.446 213.075C345.85 211.943 345.953 210.725 345.744 209.54Z" fill="#F7F7F7"/>
<path d="M63.4104 337.904C63.1826 339.586 63.3661 341.297 63.945 342.892C64.524 344.487 65.4812 345.918 66.7346 347.062C66.7346 347.062 72.6616 352.612 79.3805 348.943C81.8499 347.559 83.7393 345.333 84.7039 342.671C85.0747 341.67 85.3376 340.632 85.4879 339.574C86.0288 335.929 86.9147 325.462 86.9147 325.462L85.8799 324.49C82.8223 325.094 73.7279 328.097 70.8898 329.124C67.3539 330.433 63.9357 333.694 63.4104 337.904ZM77.9458 333.099C78.9484 334.036 79.6504 335.25 79.9629 336.587C80.2754 337.923 80.1845 339.323 79.7015 340.608C79.2185 341.893 78.3652 343.005 77.2496 343.805C76.134 344.605 74.8062 345.056 73.4342 345.101C72.0622 345.146 70.7077 344.783 69.5421 344.058C68.3765 343.333 67.4521 342.279 66.8859 341.028C66.3198 339.777 66.1373 338.387 66.3615 337.033C66.5858 335.679 67.2067 334.421 68.1458 333.42C69.4066 332.082 71.1467 331.3 72.9841 331.244C74.8215 331.188 76.606 331.863 77.9458 333.122V333.099Z" fill="#FFA448"/>
<path d="M62.4065 336.916C62.1787 338.596 62.3621 340.306 62.9412 341.9C63.5202 343.494 64.4774 344.923 65.7307 346.065C65.7307 346.065 71.6577 351.616 78.3766 347.955C80.8483 346.573 82.7385 344.346 83.7 341.683C84.0736 340.669 84.3364 339.617 84.484 338.547C85.0249 334.901 85.9108 324.435 85.9108 324.435C85.9108 324.435 73.3198 326.849 69.8859 328.096C66.35 329.413 62.9318 332.674 62.4065 336.916ZM77.9768 333.074C78.9794 334.012 79.6814 335.226 79.9939 336.562C80.3064 337.899 80.2154 339.298 79.7324 340.583C79.2494 341.868 78.3962 342.981 77.2806 343.781C76.1649 344.581 74.8371 345.032 73.4652 345.077C72.0932 345.122 70.7387 344.759 69.5731 344.034C68.4074 343.309 67.4831 342.254 66.9169 341.004C66.3508 339.753 66.1683 338.363 66.3925 337.009C66.6168 335.654 67.2377 334.397 68.1768 333.396C68.7961 332.726 69.5422 332.186 70.3718 331.807C71.2014 331.428 72.098 331.218 73.0096 331.188C73.9212 331.158 74.8297 331.309 75.6823 331.633C76.535 331.957 77.3149 332.447 77.9768 333.074Z" fill="#FFA448"/>
<path d="M68.468 343.251C69.5141 344.229 70.8377 344.861 72.2569 345.057C73.6761 345.254 75.1214 345.006 76.3942 344.348C75.1947 344.844 73.8657 344.934 72.6103 344.604C71.3548 344.274 70.2421 343.542 69.4421 342.519C68.642 341.497 68.1987 340.241 68.18 338.943C68.1612 337.645 68.5679 336.377 69.338 335.331C70.1081 334.286 71.1992 333.522 72.4446 333.156C73.6899 332.789 75.021 332.841 76.2344 333.302C77.4477 333.764 78.4766 334.61 79.1638 335.711C79.851 336.812 80.1587 338.108 80.0398 339.401C80.2507 338.217 80.1502 336.999 79.7483 335.865C79.3464 334.732 78.6568 333.723 77.7471 332.936C76.8375 332.15 75.739 331.613 74.5595 331.379C73.38 331.145 72.1599 331.221 71.0188 331.601C69.8778 331.98 68.8549 332.65 68.0507 333.544C67.2464 334.438 66.6883 335.526 66.4311 336.7C66.1739 337.875 66.2264 339.097 66.5835 340.245C66.9405 341.393 67.5899 342.429 68.468 343.251Z" fill="#FFA448"/>
<path d="M302.715 139.711C302.878 138.519 302.749 137.306 302.339 136.175C301.93 135.044 301.251 134.03 300.363 133.219C300.363 133.219 296.153 129.299 291.378 131.879C289.631 132.857 288.29 134.428 287.599 136.308C287.328 137.02 287.134 137.759 287.019 138.511C286.635 141.099 286 148.547 286 148.547L286.737 149.237C288.909 148.805 295.361 146.681 297.384 145.952C299.916 145.034 302.346 142.721 302.715 139.711ZM292.397 143.129C291.686 142.464 291.189 141.603 290.967 140.655C290.745 139.707 290.809 138.715 291.152 137.803C291.494 136.892 292.098 136.102 292.889 135.534C293.68 134.966 294.622 134.646 295.595 134.613C296.568 134.58 297.529 134.836 298.356 135.35C299.183 135.863 299.84 136.61 300.243 137.496C300.646 138.382 300.777 139.368 300.62 140.329C300.462 141.29 300.024 142.182 299.359 142.894C298.467 143.847 297.232 144.407 295.927 144.451C294.622 144.495 293.353 144.02 292.397 143.129Z" fill="#FFA448"/>
<path d="M303.429 140.433C303.592 139.241 303.463 138.028 303.053 136.897C302.644 135.766 301.965 134.752 301.077 133.941C301.077 133.941 296.867 130.021 292.092 132.6C290.34 133.581 288.999 135.158 288.313 137.046C288.042 137.757 287.848 138.496 287.733 139.249C287.349 141.836 286.714 149.284 286.714 149.284C286.714 149.284 295.659 147.567 298.098 146.689C300.536 145.811 303.052 143.443 303.429 140.433ZM292.374 143.161C291.897 142.722 291.513 142.192 291.243 141.602C290.973 141.013 290.823 140.376 290.802 139.728C290.78 139.08 290.888 138.434 291.119 137.828C291.35 137.222 291.7 136.668 292.147 136.199C292.813 135.489 293.674 134.992 294.623 134.771C295.571 134.55 296.563 134.616 297.474 134.959C298.386 135.302 299.175 135.908 299.741 136.699C300.308 137.491 300.628 138.433 300.66 139.406C300.692 140.379 300.434 141.339 299.92 142.166C299.406 142.993 298.658 143.649 297.771 144.051C296.885 144.453 295.899 144.583 294.938 144.424C293.977 144.266 293.085 143.826 292.374 143.161Z" fill="#FFA448"/>
<path d="M299.489 136.095C298.747 135.399 297.807 134.949 296.799 134.809C295.791 134.668 294.764 134.844 293.86 135.311C294.711 134.959 295.654 134.895 296.545 135.129C297.436 135.363 298.226 135.883 298.794 136.608C299.362 137.334 299.677 138.225 299.69 139.147C299.704 140.068 299.415 140.968 298.869 141.71C298.322 142.452 297.548 142.994 296.664 143.254C295.78 143.515 294.836 143.478 293.974 143.151C293.113 142.824 292.383 142.224 291.895 141.442C291.407 140.661 291.188 139.741 291.272 138.823C291.123 139.663 291.194 140.527 291.48 141.331C291.765 142.135 292.254 142.851 292.899 143.409C293.544 143.967 294.323 144.348 295.16 144.515C295.996 144.681 296.862 144.627 297.671 144.358C298.481 144.089 299.207 143.615 299.778 142.981C300.349 142.347 300.745 141.576 300.928 140.743C301.112 139.91 301.075 139.044 300.823 138.229C300.571 137.414 300.111 136.679 299.489 136.095Z" fill="#FFA448"/>
<path d="M154.739 292.503H183.818C183.818 292.503 181.246 287.799 173.759 288.505C166.609 289.155 166.248 286.2 162.611 285.839C158.973 285.478 155.954 288.262 154.739 292.503Z" fill="white"/>
<path d="M174.73 267.274H217.764C217.764 267.274 213.962 260.351 202.868 261.355C192.284 262.319 191.751 257.952 186.404 257.435C181.057 256.917 176.526 261.002 174.73 267.274Z" fill="white"/>
<path d="M118.918 202.947H147.071C147.071 202.947 144.578 198.423 137.334 199.082C130.411 199.709 130.059 196.847 126.546 196.502C123.034 196.157 120.094 198.847 118.918 202.947Z" fill="white"/>
</svg>
