<svg width="81" height="80" viewBox="0 0 81 80" fill="none" xmlns="http://www.w3.org/2000/svg">
<circle cx="40.5" cy="40" r="40" fill="#37CD58"/>
<path d="M35.4439 46.1589L52.982 28.6208C53.3959 28.2069 53.8788 28 54.4306 28C54.9824 28 55.4653 28.2069 55.8792 28.6208C56.2931 29.0347 56.5 29.5265 56.5 30.0963C56.5 30.6661 56.2931 31.1572 55.8792 31.5697L36.8925 50.6081C36.4786 51.022 35.9958 51.229 35.4439 51.229C34.8921 51.229 34.4092 51.022 33.9953 50.6081L25.0969 41.7097C24.6831 41.2959 24.4844 40.8047 24.501 40.2363C24.5175 39.6679 24.7334 39.1761 25.1487 38.7608C25.5639 38.3456 26.0558 38.1387 26.6242 38.14C27.1925 38.1414 27.6837 38.3484 28.0976 38.7608L35.4439 46.1589Z" fill="white"/>
</svg>
