<svg width="32" height="32" viewBox="0 0 32 32" fill="none" xmlns="http://www.w3.org/2000/svg">
<rect width="32" height="32" rx="16" fill="url(#paint0_linear_1291_31236)"/>
<path d="M21.4773 11.23C21.0199 11.23 20.7913 10.9967 20.7913 10.53C20.7913 10.0727 21.0199 9.844 21.4773 9.844C21.9253 9.844 22.1493 10.0727 22.1493 10.53C22.1493 10.9967 21.9253 11.23 21.4773 11.23ZM16.3113 17.824C16.6939 16.4053 17.3099 15.2293 18.1593 14.296C19.1206 13.26 20.2406 12.742 21.5193 12.742C22.5833 12.742 23.4326 13.1107 24.0673 13.848C24.5993 14.4733 24.8653 15.2433 24.8653 16.158V16.522C24.8653 17.334 24.6179 17.964 24.1233 18.412C23.6939 18.804 23.1293 19 22.4293 19H16.6333C16.1479 19 15.7279 18.902 15.3733 18.706C15.2613 19.658 14.8459 20.4 14.1273 20.932C13.4833 21.4173 12.6853 21.66 11.7333 21.66C10.5199 21.66 9.57727 21.2307 8.90527 20.372C8.39194 19.7093 8.13527 18.9253 8.13527 18.02C8.13527 17.236 8.33127 16.564 8.72327 16.004L9.88527 15.752C9.46527 16.4147 9.25527 17.1287 9.25527 17.894C9.25527 18.678 9.49794 19.322 9.98327 19.826C10.4406 20.2927 11.0239 20.526 11.7333 20.526C12.5546 20.526 13.1893 20.288 13.6373 19.812C14.0106 19.4107 14.1973 18.888 14.1973 18.244V14.506L15.4013 13.862V16.466C15.4013 17.25 15.7046 17.7027 16.3113 17.824ZM23.6613 16.41V16.158C23.6613 15.43 23.4373 14.8513 22.9893 14.422C22.5973 14.0487 22.1119 13.862 21.5333 13.862C20.5346 13.862 19.6386 14.3147 18.8453 15.22C18.2386 15.9293 17.7766 16.8113 17.4593 17.866H22.3593C23.2273 17.866 23.6613 17.3807 23.6613 16.41Z" fill="white"/>
<defs>
<linearGradient id="paint0_linear_1291_31236" x1="-0.0956248" y1="0.496448" x2="69" y2="72.5" gradientUnits="userSpaceOnUse">
<stop stop-color="#00923C"/>
<stop offset="1" stop-color="#002C12"/>
</linearGradient>
</defs>
</svg>
