<svg width="18" height="19" viewBox="0 0 18 19" fill="none" xmlns="http://www.w3.org/2000/svg">
<path fill-rule="evenodd" clip-rule="evenodd" d="M5.6985 4.09377C5.89875 3.11127 6.77325 2.41602 7.7745 2.41602H10.2255C11.2267 2.41602 12.1005 3.11127 12.3015 4.09377C12.3237 4.20195 12.3816 4.29954 12.4659 4.37083C12.5503 4.44211 12.6561 4.48295 12.7665 4.48677H12.7913C13.8435 4.53327 14.652 4.66227 15.327 5.10552C15.7523 5.38452 16.1183 5.74302 16.4033 6.16227C16.758 6.68277 16.914 7.28127 16.989 8.00427C17.0625 8.71152 17.0625 9.59727 17.0625 10.7193V10.783C17.0625 11.905 17.0625 12.7915 16.989 13.498C16.914 14.221 16.758 14.8195 16.4033 15.3408C16.1167 15.7597 15.7511 16.1187 15.327 16.3975C14.7998 16.7433 14.1945 16.8963 13.461 16.969C12.7425 17.041 11.8417 17.041 10.6972 17.041H7.30275C6.15825 17.041 5.2575 17.041 4.539 16.969C3.8055 16.8963 3.20025 16.744 2.673 16.3975C2.24883 16.1184 1.88324 15.7592 1.59675 15.34C1.242 14.8195 1.086 14.221 1.011 13.498C0.9375 12.7915 0.9375 11.905 0.9375 10.783V10.7193C0.9375 9.59727 0.9375 8.71152 1.011 8.00427C1.086 7.28127 1.242 6.68277 1.59675 6.16227C1.88324 5.74307 2.24883 5.38385 2.673 5.10477C3.348 4.66227 4.1565 4.53327 5.20875 4.48752L5.2215 4.48677H5.2335C5.34387 4.48295 5.44974 4.44211 5.53409 4.37083C5.61843 4.29954 5.67634 4.20195 5.6985 4.09377ZM7.7745 3.54102C7.2945 3.54102 6.89175 3.87327 6.801 4.31802C6.65475 5.03802 6.01575 5.60502 5.247 5.61177C4.236 5.65677 3.6945 5.78052 3.2895 6.04602C2.98909 6.24396 2.73003 6.49843 2.52675 6.79527C2.31975 7.09902 2.19525 7.48827 2.12925 8.12052C2.06325 8.76252 2.0625 9.59052 2.0625 10.7515C2.0625 11.9125 2.0625 12.7398 2.13 13.3818C2.19525 14.014 2.31975 14.4033 2.5275 14.7078C2.7285 15.0033 2.98725 15.2583 3.29025 15.457C3.603 15.6618 4.0035 15.7855 4.65075 15.85C5.30625 15.9153 6.15075 15.916 7.3335 15.916H10.6665C11.8485 15.916 12.693 15.916 13.3492 15.85C13.9965 15.7855 14.397 15.6625 14.7098 15.457C15.0128 15.2583 15.2723 15.0033 15.4733 14.707C15.6803 14.4033 15.8047 14.014 15.8707 13.3818C15.9367 12.7398 15.9375 11.9118 15.9375 10.7515C15.9375 9.59127 15.9375 8.76252 15.87 8.12052C15.8047 7.48827 15.6802 7.09902 15.4725 6.79527C15.2693 6.49816 15.0102 6.24343 14.7098 6.04527C14.3063 5.78052 13.7648 5.65677 12.7523 5.61177C11.9843 5.60427 11.3453 5.03877 11.199 4.31802C11.151 4.09622 11.0279 3.89778 10.8506 3.75622C10.6732 3.61466 10.4524 3.53864 10.2255 3.54102H7.7745ZM9 8.79102C8.55245 8.79102 8.12323 8.96881 7.80676 9.28527C7.49029 9.60174 7.3125 10.031 7.3125 10.4785C7.3125 10.9261 7.49029 11.3553 7.80676 11.6718C8.12323 11.9882 8.55245 12.166 9 12.166C9.44755 12.166 9.87677 11.9882 10.1932 11.6718C10.5097 11.3553 10.6875 10.9261 10.6875 10.4785C10.6875 10.031 10.5097 9.60174 10.1932 9.28527C9.87677 8.96881 9.44755 8.79102 9 8.79102ZM6.1875 10.4785C6.1875 9.73259 6.48382 9.01722 7.01126 8.48978C7.53871 7.96233 8.25408 7.66602 9 7.66602C9.74592 7.66602 10.4613 7.96233 10.9887 8.48978C11.5162 9.01722 11.8125 9.73259 11.8125 10.4785C11.8125 11.2244 11.5162 11.9398 10.9887 12.4673C10.4613 12.9947 9.74592 13.291 9 13.291C8.25408 13.291 7.53871 12.9947 7.01126 12.4673C6.48382 11.9398 6.1875 11.2244 6.1875 10.4785ZM12.9375 8.22852C12.9375 8.07933 12.9968 7.93626 13.1023 7.83077C13.2077 7.72528 13.3508 7.66602 13.5 7.66602H14.25C14.3992 7.66602 14.5423 7.72528 14.6477 7.83077C14.7532 7.93626 14.8125 8.07933 14.8125 8.22852C14.8125 8.3777 14.7532 8.52077 14.6477 8.62626C14.5423 8.73175 14.3992 8.79102 14.25 8.79102H13.5C13.3508 8.79102 13.2077 8.73175 13.1023 8.62626C12.9968 8.52077 12.9375 8.3777 12.9375 8.22852Z" fill="#282828"/>
</svg>
