<svg width="18" height="18" viewBox="0 0 18 18" fill="none" xmlns="http://www.w3.org/2000/svg">
<path d="M2.09015 1.70955C2.16106 1.68861 2.2354 1.68186 2.30893 1.68968C2.38245 1.6975 2.45371 1.71974 2.51864 1.75513C2.58356 1.79051 2.64087 1.83835 2.68728 1.89591C2.7337 1.95346 2.76831 2.0196 2.78915 2.09055L3.20165 3.48705H14.1929C15.5729 3.48705 16.6266 4.7748 16.2291 6.11955L14.9879 10.3195C14.7239 11.215 13.8846 11.812 12.9516 11.812H6.08465C5.15165 11.812 4.31315 11.215 4.0484 10.3195L1.71065 2.4093C1.6683 2.26628 1.68449 2.1123 1.75566 1.98122C1.82683 1.85014 1.94714 1.75194 2.09015 1.70955ZM4.6874 14.6245C4.6874 14.177 4.86519 13.7478 5.18165 13.4313C5.49812 13.1148 5.92734 12.937 6.3749 12.937C6.82245 12.937 7.25167 13.1148 7.56814 13.4313C7.88461 13.7478 8.0624 14.177 8.0624 14.6245C8.0624 15.0721 7.88461 15.5013 7.56814 15.8178C7.25167 16.1343 6.82245 16.312 6.3749 16.312C5.92734 16.312 5.49812 16.1343 5.18165 15.8178C4.86519 15.5013 4.6874 15.0721 4.6874 14.6245ZM10.6874 14.6245C10.6874 14.4029 10.731 14.1835 10.8158 13.9788C10.9007 13.774 11.025 13.588 11.1817 13.4313C11.3384 13.2746 11.5244 13.1503 11.7291 13.0655C11.9339 12.9807 12.1533 12.937 12.3749 12.937C12.5965 12.937 12.8159 12.9807 13.0207 13.0655C13.2254 13.1503 13.4114 13.2746 13.5681 13.4313C13.7248 13.588 13.8491 13.774 13.9339 13.9788C14.0187 14.1835 14.0624 14.4029 14.0624 14.6245C14.0624 15.0721 13.8846 15.5013 13.5681 15.8178C13.2517 16.1343 12.8224 16.312 12.3749 16.312C11.9273 16.312 11.4981 16.1343 11.1817 15.8178C10.8652 15.5013 10.6874 15.0721 10.6874 14.6245Z" fill="#282828"/>
</svg>
