<svg width="24" height="24" viewBox="0 0 24 24" fill="none" xmlns="http://www.w3.org/2000/svg">
<path d="M12.0006 21.9426C10.0343 21.9426 8.11207 21.3595 6.47712 20.2671C4.84217 19.1746 3.56787 17.6219 2.81539 15.8052C2.0629 13.9886 1.86602 11.9896 2.24963 10.061C2.63325 8.13245 3.58013 6.36096 4.97054 4.97054C6.36096 3.58013 8.13245 2.63325 10.061 2.24963C11.9896 1.86602 13.9886 2.0629 15.8052 2.81539C17.6219 3.56787 19.1746 4.84217 20.2671 6.47712C21.3595 8.11207 21.9426 10.0343 21.9426 12.0006C21.9397 14.6365 20.8913 17.1636 19.0274 19.0274C17.1636 20.8913 14.6365 21.9397 12.0006 21.9426ZM12.0006 3.0586C10.232 3.0586 8.50319 3.58304 7.03269 4.5656C5.56219 5.54816 4.41607 6.94471 3.73927 8.57864C3.06247 10.2126 2.88539 12.0105 3.23042 13.7451C3.57545 15.4797 4.42709 17.073 5.67765 18.3235C6.92821 19.5741 8.52152 20.4258 10.2561 20.7708C11.9907 21.1158 13.7886 20.9387 15.4226 20.2619C17.0565 19.5851 18.453 18.439 19.4356 16.9685C20.4182 15.498 20.9426 13.7692 20.9426 12.0006C20.9405 9.62968 19.9977 7.35648 18.3212 5.67999C16.6447 4.0035 14.3715 3.06072 12.0006 3.0586Z" fill="#282828"/>
<path d="M16.6928 13.7431C16.323 14.6867 15.6773 15.497 14.8401 16.0682C14.0028 16.6393 13.0128 16.9449 11.9993 16.9449C10.9857 16.9449 9.99576 16.6393 9.15849 16.0682C8.32122 15.497 7.67557 14.6867 7.30578 13.7431C7.05678 13.1531 6.19478 13.6621 6.44278 14.2481C6.90199 15.3429 7.6744 16.2778 8.66305 16.9352C9.65169 17.5926 10.8125 17.9433 11.9998 17.9433C13.187 17.9433 14.3479 17.5926 15.3365 16.9352C16.3251 16.2778 17.0976 15.3429 17.5568 14.2481C17.8038 13.6621 16.9428 13.1481 16.6928 13.7431Z" fill="#282828"/>
<path d="M9 10.2617C9.69036 10.2617 10.25 9.70207 10.25 9.01172C10.25 8.32136 9.69036 7.76172 9 7.76172C8.30964 7.76172 7.75 8.32136 7.75 9.01172C7.75 9.70207 8.30964 10.2617 9 10.2617Z" fill="#282828"/>
<path d="M15 10.2617C15.6904 10.2617 16.25 9.70207 16.25 9.01172C16.25 8.32136 15.6904 7.76172 15 7.76172C14.3096 7.76172 13.75 8.32136 13.75 9.01172C13.75 9.70207 14.3096 10.2617 15 10.2617Z" fill="#282828"/>
</svg>
