<svg width="62" height="63" viewBox="0 0 62 63" fill="none" xmlns="http://www.w3.org/2000/svg">
<g filter="url(#filter0_dd_1290_31089)">
<g clip-path="url(#clip0_1290_31089)">
<rect x="8" y="7" width="48" height="48" rx="24" fill="#FFA448"/>
<path d="M32 35.5C34.925 35.5 37.25 33.175 37.25 30.25V24.25C37.25 21.325 34.925 19 32 19C29.075 19 26.75 21.325 26.75 24.25V30.25C26.75 33.175 29.075 35.5 32 35.5ZM28.25 24.25C28.25 22.15 29.9 20.5 32 20.5C34.1 20.5 35.75 22.15 35.75 24.25V30.25C35.75 32.35 34.1 34 32 34C29.9 34 28.25 32.35 28.25 30.25V24.25Z" fill="white"/>
<path d="M41 30.25H39.5C39.5 34.375 36.125 37.75 32 37.75C27.875 37.75 24.5 34.375 24.5 30.25H23C23 34.975 26.6 38.8 31.25 39.175V41.5H29C28.55 41.5 28.25 41.8 28.25 42.25C28.25 42.7 28.55 43 29 43H35C35.45 43 35.75 42.7 35.75 42.25C35.75 41.8 35.45 41.5 35 41.5H32.75V39.175C37.4 38.8 41 34.975 41 30.25Z" fill="white"/>
</g>
</g>
<defs>
<filter id="filter0_dd_1290_31089" x="0" y="0" width="62" height="63" filterUnits="userSpaceOnUse" color-interpolation-filters="sRGB">
<feFlood flood-opacity="0" result="BackgroundImageFix"/>
<feColorMatrix in="SourceAlpha" type="matrix" values="0 0 0 0 0 0 0 0 0 0 0 0 0 0 0 0 0 0 127 0" result="hardAlpha"/>
<feOffset dx="-1" dy="1"/>
<feGaussianBlur stdDeviation="3.5"/>
<feComposite in2="hardAlpha" operator="out"/>
<feColorMatrix type="matrix" values="0 0 0 0 0 0 0 0 0 0 0 0 0 0 0 0 0 0 0.2 0"/>
<feBlend mode="normal" in2="BackgroundImageFix" result="effect1_dropShadow_1290_31089"/>
<feColorMatrix in="SourceAlpha" type="matrix" values="0 0 0 0 0 0 0 0 0 0 0 0 0 0 0 0 0 0 127 0" result="hardAlpha"/>
<feOffset dx="-1"/>
<feGaussianBlur stdDeviation="3.5"/>
<feComposite in2="hardAlpha" operator="out"/>
<feColorMatrix type="matrix" values="0 0 0 0 0 0 0 0 0 0 0 0 0 0 0 0 0 0 0.1 0"/>
<feBlend mode="normal" in2="effect1_dropShadow_1290_31089" result="effect2_dropShadow_1290_31089"/>
<feBlend mode="normal" in="SourceGraphic" in2="effect2_dropShadow_1290_31089" result="shape"/>
</filter>
<clipPath id="clip0_1290_31089">
<rect x="8" y="7" width="48" height="48" rx="24" fill="white"/>
</clipPath>
</defs>
</svg>
