<svg width="12" height="13" viewBox="0 0 12 13" fill="none" xmlns="http://www.w3.org/2000/svg">
<rect y="0.889648" width="12" height="12" rx="6" fill="#37CD58"/>
<path d="M4.85611 8.53308L3.60499 7.28196C3.57227 7.24884 3.53331 7.22255 3.49035 7.20461C3.4474 7.18666 3.40131 7.17742 3.35476 7.17742C3.30821 7.17742 3.26212 7.18666 3.21917 7.20461C3.17622 7.22255 3.13725 7.24884 3.10454 7.28196C3.07142 7.31467 3.04513 7.35364 3.02718 7.39659C3.00924 7.43954 3 7.48563 3 7.53218C3 7.57873 3.00924 7.62482 3.02718 7.66778C3.04513 7.71073 3.07142 7.74969 3.10454 7.78241L4.60231 9.28019C4.74172 9.4196 4.96693 9.4196 5.10634 9.28019L8.89546 5.49464C8.92858 5.46192 8.95487 5.42296 8.97282 5.38C8.99076 5.33705 9 5.29096 9 5.24441C9 5.19786 8.99076 5.15177 8.97282 5.10882C8.95487 5.06587 8.92858 5.0269 8.89546 4.99419C8.86275 4.96107 8.82378 4.93478 8.78083 4.91683C8.73788 4.89889 8.69179 4.88965 8.64524 4.88965C8.59869 4.88965 8.5526 4.89889 8.50965 4.91683C8.46669 4.93478 8.42773 4.96107 8.39501 4.99419L4.85611 8.53308Z" fill="white"/>
</svg>
