<svg width="32" height="32" viewBox="0 0 32 32" fill="none" xmlns="http://www.w3.org/2000/svg">
<rect width="32" height="32" rx="16" fill="#FFA448" fill-opacity="0.4"/>
<path d="M20.5 9C20.8713 9 21.2277 9.14761 21.4902 9.41016C21.7527 9.67269 21.9004 10.0292 21.9004 10.4004V21.5996C21.9004 21.9708 21.7527 22.3273 21.4902 22.5898C21.2277 22.8524 20.8713 23 20.5 23H12.0996C11.7285 22.9999 11.3728 22.8522 11.1104 22.5898C10.8478 22.3273 10.7002 21.9709 10.7002 21.5996V20.9004C10.5146 20.9004 10.3363 20.8265 10.2051 20.6953C10.0738 20.5641 10.0001 20.3858 10 20.2002C10 20.0145 10.0738 19.8364 10.2051 19.7051C10.3364 19.5738 10.5145 19.5 10.7002 19.5V18.0996C10.5145 18.0996 10.3364 18.0258 10.2051 17.8945C10.074 17.7634 10.0001 17.5858 10 17.4004C10 17.2148 10.0739 17.0365 10.2051 16.9053C10.3364 16.774 10.5145 16.7002 10.7002 16.7002V15.2998C10.5145 15.2998 10.3364 15.226 10.2051 15.0947C10.0739 14.9635 10 14.7852 10 14.5996C10.0001 14.4142 10.074 14.2366 10.2051 14.1055C10.3364 13.9742 10.5145 13.9004 10.7002 13.9004V12.5C10.5145 12.5 10.3364 12.4262 10.2051 12.2949C10.0738 12.1636 10 11.9855 10 11.7998C10.0001 11.6142 10.0738 11.4359 10.2051 11.3047C10.3363 11.1735 10.5146 11.0996 10.7002 11.0996V10.4004C10.7002 10.0291 10.8478 9.67271 11.1104 9.41016C11.3728 9.14776 11.7285 9.0001 12.0996 9H20.5ZM13.6025 11.8008C13.3242 11.8008 13.0572 11.9107 12.8604 12.1074C12.6634 12.3043 12.5527 12.5721 12.5527 12.8506V13.5508C12.5529 13.8291 12.6636 14.0962 12.8604 14.293C13.0572 14.4897 13.3242 14.6005 13.6025 14.6006H18.5029C18.7813 14.6005 19.0483 14.4897 19.2451 14.293C19.4419 14.0962 19.5526 13.8291 19.5527 13.5508V12.8506C19.5527 12.5721 19.442 12.3043 19.2451 12.1074C19.0483 11.9107 18.7812 11.8008 18.5029 11.8008H13.6025Z" fill="#FFA448"/>
</svg>
