<svg width="32" height="32" viewBox="0 0 32 32" fill="none" xmlns="http://www.w3.org/2000/svg">
<rect width="32" height="32" rx="16" fill="white"/>
<path d="M10.9734 10.7007V1.86335C8.10939 2.88224 5.6467 4.74745 3.88477 7.15538L10.9734 10.7007ZM10.9734 21.2987V30.1361C8.11077 29.1172 5.64878 27.2533 3.88546 24.844L10.9734 21.2987ZM20.9926 21.2987V30.1479C23.8656 29.1338 26.3359 27.2686 28.1048 24.8565L20.9926 21.2987ZM20.9926 10.7007V1.85156C23.8656 2.86561 26.3373 4.73082 28.1055 7.1436L20.9926 10.7007Z" fill="#012169"/>
<path d="M29.3282 21.0016H25.9935L29.4141 22.715C29.6366 22.2707 29.8376 21.814 30.0165 21.3461L29.3282 21.0016ZM28.6808 7.98743L22.6908 10.9908H26.0254L29.4183 9.29259C29.1944 8.84483 28.9476 8.40885 28.6808 7.98743ZM12.978 18.9985V30.695C13.9539 30.894 14.9645 31 15.9993 31C17.0224 31 18.0226 30.8967 18.9888 30.702V18.9985H30.6985C30.8946 18.0295 30.9993 17.0272 30.9993 15.9993C30.9993 14.9679 30.8946 13.9601 30.6964 12.9863H18.9888V1.29874C18.0047 1.09982 17.0033 0.999746 15.9993 1C14.9645 1 13.9539 1.10674 12.978 1.30498V12.9863H1.3029C1.10119 13.9779 0.999714 14.9873 1 15.9993C1 17.0272 1.10466 18.0295 1.30082 18.9985H12.978ZM2.63024 10.9984H5.96488L2.57618 9.3016C2.35437 9.7459 2.15267 10.2041 1.97454 10.6712L2.63024 10.9984ZM9.27527 21.0092H5.94062L2.5741 22.6942C2.79896 23.144 3.04625 23.5821 3.31505 24.007L9.30576 21.0092H9.27527Z" fill="#C8102E"/>
</svg>
