<svg width="250" height="250" viewBox="0 0 250 250" fill="none" xmlns="http://www.w3.org/2000/svg">
<path d="M6.34766 175.049C9.85327 175.049 12.6953 177.891 12.6953 181.396V209.473C12.6953 224.819 25.1809 237.305 40.5273 237.305H68.6035C72.1091 237.305 74.9512 240.147 74.9512 243.652C74.9512 247.158 72.1091 250 68.6035 250H40.5273C18.1807 250 0 231.819 0 209.473V181.396C1.04702e-07 177.891 2.84204 175.049 6.34766 175.049ZM243.652 175.049C247.158 175.049 250 177.891 250 181.396V209.473C250 231.819 231.819 250 209.473 250H181.396C177.891 250 175.049 247.158 175.049 243.652C175.049 240.147 177.891 237.305 181.396 237.305H209.473C224.819 237.305 237.305 224.819 237.305 209.473V181.396C237.305 177.891 240.147 175.049 243.652 175.049ZM159.859 175.09C162.534 172.62 166.704 172.785 169.175 175.459C171.645 178.133 171.479 182.304 168.805 184.774C156.845 195.821 141.289 201.904 124.999 201.904C108.709 201.904 93.1525 195.821 81.1934 184.774C78.519 182.304 78.354 178.133 80.8242 175.459C83.2947 172.785 87.464 172.62 90.1387 175.09C99.6545 183.88 112.035 188.721 124.999 188.721C137.963 188.721 150.344 183.88 159.859 175.09ZM131.592 87.6465C135.232 87.6465 138.184 90.5977 138.184 94.2383V141.113C138.184 150.402 130.627 157.959 121.338 157.959H115.967C112.326 157.959 109.375 155.008 109.375 151.367C109.375 147.727 112.326 144.775 115.967 144.775H121.338C123.357 144.775 125 143.133 125 141.113V94.2383C125 90.5977 127.951 87.6465 131.592 87.6465ZM74.0967 87.6465C77.5349 87.6465 80.3223 90.4338 80.3223 93.8721V112.671C80.3223 116.109 77.5349 118.896 74.0967 118.896C70.6584 118.896 67.8711 116.109 67.8711 112.671V93.8721C67.8711 90.4338 70.6584 87.6465 74.0967 87.6465ZM177.368 87.6465C180.806 87.6465 183.594 90.4338 183.594 93.8721V112.671C183.594 116.109 180.806 118.896 177.368 118.896C173.93 118.896 171.143 116.109 171.143 112.671V93.8721C171.143 90.4338 173.93 87.6465 177.368 87.6465ZM68.6035 0C72.1091 0 74.9512 2.84204 74.9512 6.34766C74.9512 9.85327 72.1091 12.6953 68.6035 12.6953H40.5273C25.1809 12.6953 12.6953 25.1807 12.6953 40.5273V68.6035C12.6953 72.1091 9.85327 74.9512 6.34766 74.9512C2.84204 74.9512 0 72.1091 0 68.6035V40.5273C6.70901e-07 18.1804 18.1807 6.70813e-07 40.5273 0H68.6035ZM209.473 0C231.819 0 250 18.1804 250 40.5273V68.6035C250 72.1091 247.158 74.9512 243.652 74.9512C240.147 74.9512 237.305 72.1091 237.305 68.6035V40.5273C237.305 25.1807 224.819 12.6953 209.473 12.6953H181.396C177.891 12.6953 175.049 9.85327 175.049 6.34766C175.049 2.84204 177.891 1.04698e-07 181.396 0H209.473Z" fill="#E4E4E4"/>
</svg>
