<svg width="29" height="29" viewBox="0 0 29 29" fill="none" xmlns="http://www.w3.org/2000/svg">
<path d="M8.69204 18.4051C8.69496 18.4707 8.71078 18.5351 8.73859 18.5946C8.7664 18.6541 8.80565 18.7075 8.85411 18.7518C8.90256 18.7962 8.95928 18.8305 9.02101 18.8529C9.08274 18.8753 9.14828 18.8853 9.21388 18.8824C9.34638 18.8765 9.4711 18.8182 9.56061 18.7203C9.60493 18.6719 9.63927 18.6152 9.66167 18.5534C9.68408 18.4917 9.6941 18.4262 9.69118 18.3606L9.31146 10.0174L19.0915 19.7974C19.1852 19.8912 19.3124 19.9439 19.445 19.9439C19.5776 19.9439 19.7048 19.8912 19.7986 19.7974C19.8923 19.7036 19.945 19.5765 19.945 19.4439C19.945 19.3112 19.8923 19.1841 19.7986 19.0903L10.0207 9.31243L18.3596 9.69215C18.4252 9.69517 18.4908 9.68523 18.5525 9.66291C18.6143 9.6406 18.6711 9.60633 18.7196 9.56208C18.7681 9.51782 18.8074 9.46444 18.8353 9.40499C18.8632 9.34553 18.8791 9.28116 18.8822 9.21556C18.8852 9.14995 18.8752 9.0844 18.8529 9.02263C18.8306 8.96086 18.7963 8.9041 18.7521 8.85558C18.7078 8.80705 18.6544 8.76772 18.595 8.73983C18.5355 8.71193 18.4712 8.69602 18.4056 8.69301L9.05054 8.26733C8.93324 8.26204 8.81633 8.28436 8.70924 8.33251C8.60214 8.38065 8.50785 8.45327 8.43394 8.54451C8.31819 8.68715 8.25881 8.8673 8.26706 9.0508L8.69204 18.4051Z" fill="#282828"/>
</svg>
