<svg width="56" height="56" viewBox="0 0 56 56" fill="none" xmlns="http://www.w3.org/2000/svg">
<rect width="56" height="56" rx="8" fill="#F7F7F7"/>
<rect x="9.5" y="16.5" width="36.8198" height="22.2188" rx="3.5" stroke="#282828" stroke-linecap="round"/>
<path d="M20.5522 26.8911C20.3811 26.4859 20.1329 26.1178 19.8213 25.8074C19.5106 25.496 19.1426 25.2478 18.7376 25.0764C18.7339 25.0746 18.7303 25.0737 18.7267 25.0719C19.2917 24.6638 19.6589 23.999 19.6589 23.2491C19.6589 22.0066 18.6523 21 17.4099 21C16.1675 21 15.1608 22.0066 15.1608 23.2491C15.1608 23.999 15.5281 24.6638 16.0931 25.0728C16.0895 25.0746 16.0858 25.0755 16.0822 25.0773C15.6759 25.2487 15.3114 25.4945 14.9985 25.8083C14.6872 26.1189 14.4389 26.4869 14.2676 26.892C14.0992 27.2885 14.0083 27.7137 14 28.1444C13.9998 28.1541 14.0015 28.1637 14.005 28.1727C14.0086 28.1817 14.0139 28.1899 14.0206 28.1969C14.0274 28.2038 14.0355 28.2093 14.0444 28.2131C14.0533 28.2168 14.0629 28.2188 14.0726 28.2188H14.6167C14.6566 28.2188 14.6883 28.187 14.6893 28.148C14.7074 27.4479 14.9885 26.7922 15.4855 26.2953C15.9997 25.7811 16.6826 25.4981 17.4099 25.4981C18.1372 25.4981 18.8201 25.7811 19.3343 26.2953C19.8312 26.7922 20.1124 27.4479 20.1305 28.148C20.1314 28.1879 20.1632 28.2188 20.2031 28.2188H20.7472C20.7569 28.2188 20.7665 28.2168 20.7754 28.2131C20.7843 28.2093 20.7924 28.2038 20.7991 28.1969C20.8059 28.1899 20.8112 28.1817 20.8148 28.1727C20.8183 28.1637 20.82 28.1541 20.8197 28.1444C20.8107 27.7109 20.7209 27.2892 20.5522 26.8911ZM17.4099 24.8089C16.9936 24.8089 16.6019 24.6466 16.3071 24.3518C16.0124 24.0571 15.8501 23.6653 15.8501 23.2491C15.8501 22.8328 16.0124 22.441 16.3071 22.1463C16.6019 21.8516 16.9936 21.6892 17.4099 21.6892C17.8261 21.6892 18.2179 21.8516 18.5126 22.1463C18.8074 22.441 18.9697 22.8328 18.9697 23.2491C18.9697 23.6653 18.8074 24.0571 18.5126 24.3518C18.2179 24.6466 17.8261 24.8089 17.4099 24.8089Z" fill="#282828"/>
<path d="M41.8203 21.6094L25.8203 21.6094" stroke="#282828" stroke-linecap="round"/>
<path d="M41.8203 24.6094L25.8203 24.6094" stroke="#282828" stroke-linecap="round"/>
<path d="M41.8203 27.6094L25.8203 27.6094" stroke="#282828" stroke-linecap="round"/>
<rect x="13.625" y="31.8438" width="28.5698" height="2.75" rx="0.875" stroke="#282828" stroke-width="0.75" stroke-linecap="round"/>
</svg>
