<svg width="40" height="40" viewBox="0 0 40 40" fill="none" xmlns="http://www.w3.org/2000/svg">
<rect width="40" height="40" rx="20" fill="#F7F7F7"/>
<path d="M11.666 23.7503C11.666 23.5293 11.7538 23.3174 11.9101 23.1611C12.0664 23.0048 12.2783 22.917 12.4993 22.917H14.9993V20.0003L19.9993 16.667L24.9993 20.0003V22.917H27.4993C27.7204 22.917 27.9323 23.0048 28.0886 23.1611C28.2449 23.3174 28.3327 23.5293 28.3327 23.7503V27.5003C28.3327 27.7213 28.2449 27.9333 28.0886 28.0896C27.9323 28.2459 27.7204 28.3337 27.4993 28.3337H11.666V23.7503Z" stroke="#282828" stroke-width="1.66667" stroke-linejoin="round"/>
<path d="M20 12.5V16.6667" stroke="#282828" stroke-width="1.66667" stroke-linecap="round"/>
<path d="M21.6667 28.3332V22.9166H18.3333V28.3332M17.5 28.3332H22.5M25 14.9999V12.4999C25 12.4999 24.375 13.7499 22.5 12.4999C20.625 11.2499 20 12.4999 20 12.4999V14.9999C20 14.9999 20.625 13.7499 22.5 14.9999C24.375 16.2499 25 14.9999 25 14.9999Z" stroke="#282828" stroke-width="1.66667" stroke-linecap="round" stroke-linejoin="round"/>
</svg>
