<svg width="56" height="56" viewBox="0 0 56 56" fill="none" xmlns="http://www.w3.org/2000/svg">
<rect width="56" height="56" rx="28" fill="#FFA448" fill-opacity="0.4"/>
<path d="M19.666 21.334C19.4008 21.334 19.1464 21.4393 18.9589 21.6269C18.7714 21.8144 18.666 22.0688 18.666 22.334C18.666 22.5992 18.7714 22.8536 18.9589 23.0411C19.1464 23.2286 19.4008 23.334 19.666 23.334H24.9993C25.2646 23.334 25.5189 23.2286 25.7065 23.0411C25.894 22.8536 25.9993 22.5992 25.9993 22.334C25.9993 22.0688 25.894 21.8144 25.7065 21.6269C25.5189 21.4393 25.2646 21.334 24.9993 21.334H19.666Z" fill="#FFA448"/>
<path fill-rule="evenodd" clip-rule="evenodd" d="M40.25 22.6716C40.1665 22.6671 40.0776 22.6653 39.9834 22.6662H36.286C33.258 22.6662 30.666 24.9809 30.666 27.9996C30.666 31.0182 33.258 33.3329 36.286 33.3329H39.9834C40.0776 33.3338 40.1665 33.332 40.25 33.3276C41.4807 33.2529 42.5687 32.3182 42.6607 31.0116C42.666 30.9262 42.666 30.8342 42.666 30.7489V25.2502C42.666 25.1649 42.666 25.0729 42.6607 24.9876C42.5687 23.6809 41.4807 22.7476 40.25 22.6716ZM35.9607 29.4222C36.7394 29.4222 37.3713 28.7849 37.3713 27.9996C37.3713 27.2129 36.7394 26.5769 35.9607 26.5769C35.182 26.5769 34.5473 27.2142 34.5473 27.9996C34.5473 28.7862 35.1807 29.4222 35.9607 29.4222Z" fill="#FFA448"/>
<path opacity="0.5" d="M40.186 22.6693C40.186 21.0947 40.1273 19.4053 39.122 18.196C39.0234 18.0778 38.9198 17.9639 38.8113 17.8547C37.8127 16.8573 36.5473 16.4147 34.9847 16.204C33.4647 16 31.5247 16 29.074 16H26.258C23.8073 16 21.866 16 20.346 16.204C18.7833 16.4147 17.518 16.8573 16.5193 17.8547C15.522 18.8533 15.0793 20.1187 14.8687 21.6813C14.666 23.2013 14.666 25.1413 14.666 27.592V27.7413C14.666 30.192 14.666 32.1333 14.87 33.652C15.0807 35.2147 15.5233 36.48 16.5207 37.4787C17.5193 38.476 18.7847 38.9187 20.3473 39.1293C21.8673 39.3333 23.8073 39.3333 26.258 39.3333H29.074C31.5247 39.3333 33.466 39.3333 34.9847 39.1293C36.5473 38.9187 37.8127 38.476 38.8113 37.4787C39.0825 37.2049 39.3162 36.9116 39.5127 36.5987C40.1127 35.6387 40.1847 34.4627 40.1847 33.332L39.9847 33.3333H36.286C33.258 33.3333 30.666 31.0187 30.666 28C30.666 24.9813 33.258 22.6667 36.286 22.6667H39.9833C40.0536 22.6667 40.122 22.6676 40.186 22.6693Z" fill="#FFA448"/>
</svg>
