<svg width="40" height="40" viewBox="0 0 40 40" fill="none" xmlns="http://www.w3.org/2000/svg">
<rect width="40" height="40" rx="20" fill="#F7F7F7"/>
<path d="M20 10C25.523 10 30 14.477 30 20C30 25.523 25.523 30 20 30C14.477 30 10 25.523 10 20C10 14.477 14.477 10 20 10ZM20 12C17.8783 12 15.8434 12.8429 14.3431 14.3431C12.8429 15.8434 12 17.8783 12 20C12 22.1217 12.8429 24.1566 14.3431 25.6569C15.8434 27.1571 17.8783 28 20 28C22.1217 28 24.1566 27.1571 25.6569 25.6569C27.1571 24.1566 28 22.1217 28 20C28 17.8783 27.1571 15.8434 25.6569 14.3431C24.1566 12.8429 22.1217 12 20 12ZM20 14C20.2449 14 20.4813 14.09 20.6644 14.2527C20.8474 14.4155 20.9643 14.6397 20.993 14.883L21 15V19.586L23.707 22.293C23.8863 22.473 23.9905 22.7144 23.9982 22.9684C24.006 23.2223 23.9168 23.4697 23.7488 23.6603C23.5807 23.8508 23.3464 23.9703 23.0935 23.9944C22.8406 24.0185 22.588 23.9454 22.387 23.79L22.293 23.707L19.293 20.707C19.1376 20.5514 19.0378 20.349 19.009 20.131L19 20V15C19 14.7348 19.1054 14.4804 19.2929 14.2929C19.4804 14.1054 19.7348 14 20 14Z" fill="#282828"/>
</svg>
