<svg width="24" height="24" viewBox="0 0 24 24" fill="none" xmlns="http://www.w3.org/2000/svg">
<rect width="24" height="24" rx="12" fill="#FF5050"/>
<path d="M10.5801 11.9395L9.71289 11.7168L10.1406 7.46875H14.5176V8.4707H11.0605L10.8027 10.791C10.959 10.7012 11.1562 10.6172 11.3945 10.5391C11.6367 10.4609 11.9141 10.4219 12.2266 10.4219C12.6211 10.4219 12.9746 10.4902 13.2871 10.627C13.5996 10.7598 13.8652 10.9512 14.084 11.2012C14.3066 11.4512 14.4766 11.752 14.5938 12.1035C14.7109 12.4551 14.7695 12.8477 14.7695 13.2812C14.7695 13.6914 14.7129 14.0684 14.5996 14.4121C14.4902 14.7559 14.3242 15.0566 14.1016 15.3145C13.8789 15.5684 13.5977 15.7656 13.2578 15.9062C12.9219 16.0469 12.5254 16.1172 12.0684 16.1172C11.7246 16.1172 11.3984 16.0703 11.0898 15.9766C10.7852 15.8789 10.5117 15.7324 10.2695 15.5371C10.0312 15.3379 9.83594 15.0918 9.68359 14.7988C9.53516 14.502 9.44141 14.1543 9.40234 13.7559H10.4336C10.4805 14.0762 10.5742 14.3457 10.7148 14.5645C10.8555 14.7832 11.0391 14.9492 11.2656 15.0625C11.4961 15.1719 11.7637 15.2266 12.0684 15.2266C12.3262 15.2266 12.5547 15.1816 12.7539 15.0918C12.9531 15.002 13.1211 14.873 13.2578 14.7051C13.3945 14.5371 13.498 14.334 13.5684 14.0957C13.6426 13.8574 13.6797 13.5898 13.6797 13.293C13.6797 13.0234 13.6426 12.7734 13.5684 12.543C13.4941 12.3125 13.3828 12.1113 13.2344 11.9395C13.0898 11.7676 12.9121 11.6348 12.7012 11.541C12.4902 11.4434 12.248 11.3945 11.9746 11.3945C11.6113 11.3945 11.3359 11.4434 11.1484 11.541C10.9648 11.6387 10.7754 11.7715 10.5801 11.9395Z" fill="white"/>
</svg>
