<svg width="32" height="32" viewBox="0 0 32 32" fill="none" xmlns="http://www.w3.org/2000/svg">
<rect width="32" height="32" rx="16" fill="#F7F7F7"/>
<path d="M16.9055 24.0736C16.9055 24.6626 17.4485 25.1136 18.0191 24.9847C19.0499 24.7454 20.0254 24.3405 20.8906 23.7883C21.3783 23.4754 21.452 22.7759 21.0378 22.3618C20.7433 22.0673 20.2739 21.9936 19.9242 22.2145C19.2155 22.6655 18.4333 22.9968 17.5958 23.1809C17.1816 23.2729 16.9055 23.6502 16.9055 24.0736ZM8.63169 16.0022C8.63169 12.5142 11.0706 9.5875 14.3378 8.83283C14.7427 8.7408 15.028 8.36346 15.028 7.94931C15.028 7.36029 14.4758 6.90933 13.9052 7.04738C11.8819 7.51643 10.0772 8.65703 8.78529 10.2832C7.49336 11.9094 6.7904 13.9253 6.79102 16.0022C6.79102 20.3646 9.82812 24.0184 13.9052 24.9663C14.4758 25.1044 15.028 24.6534 15.028 24.0644C15.028 23.641 14.7427 23.2729 14.3378 23.1809C11.0706 22.417 8.63169 19.4903 8.63169 16.0022ZM24.0565 15.0819C24.6455 15.0819 25.0965 14.5389 24.9676 13.9683C24.7284 12.9375 24.3234 11.9712 23.7712 11.0969C23.4583 10.5999 22.7588 10.5355 22.3447 10.9496C22.0502 11.2441 21.9765 11.7135 22.2066 12.0632C22.6576 12.7627 22.9889 13.5449 23.173 14.3917C23.2558 14.8058 23.6332 15.0819 24.0565 15.0819ZM20.8906 8.22541C20.0162 7.67321 19.0499 7.26826 18.0191 7.02897C17.4485 6.90013 16.9055 7.35109 16.9055 7.9309C16.9055 8.34505 17.1816 8.73159 17.5865 8.81442C18.4241 8.99849 19.2155 9.33901 19.915 9.78078C20.2739 10.0017 20.7341 9.93723 21.0286 9.63352C21.1279 9.53978 21.2045 9.42454 21.2524 9.29663C21.3003 9.16872 21.3183 9.03154 21.305 8.8956C21.2916 8.75967 21.2474 8.62859 21.1755 8.51242C21.1037 8.39625 21.0062 8.29807 20.8906 8.22541ZM22.3355 21.0549C22.7496 21.469 23.4491 21.4046 23.762 20.9076C24.3142 20.0425 24.7191 19.067 24.9584 18.0362C25.0873 17.4656 24.6363 16.9226 24.0565 16.9226C23.6424 16.9226 23.2558 17.1987 23.173 17.6036C22.9889 18.4411 22.6484 19.2326 22.2066 19.9321C21.9673 20.291 22.041 20.7604 22.3355 21.0549Z" fill="#282828"/>
<path d="M19.6478 15.1738C19.6478 12.8821 17.8992 11.4004 15.9665 11.4004C14.0338 11.4004 12.2852 12.8821 12.2852 15.1738C12.2852 16.5635 13.2975 18.1925 15.3315 20.0515C15.6904 20.3829 16.2334 20.3829 16.6015 20.0515C18.6355 18.1833 19.6478 16.5635 19.6478 15.1738ZM15.9665 16.0021C15.7127 15.9911 15.4729 15.8825 15.2972 15.6991C15.1215 15.5156 15.0234 15.2714 15.0234 15.0173C15.0234 14.7633 15.1215 14.519 15.2972 14.3355C15.4729 14.1521 15.7127 14.0435 15.9665 14.0325C16.2203 14.0435 16.4601 14.1521 16.6358 14.3355C16.8115 14.519 16.9096 14.7633 16.9096 15.0173C16.9096 15.2714 16.8115 15.5156 16.6358 15.6991C16.4601 15.8825 16.2203 15.9911 15.9665 16.0021Z" fill="#282828"/>
</svg>
