<svg width="54" height="54" viewBox="0 0 54 54" fill="none" xmlns="http://www.w3.org/2000/svg">
<rect x="1.5" y="1.5" width="51" height="51" rx="25.5" fill="#F7F7F7"/>
<rect x="1.5" y="1.5" width="51" height="51" rx="25.5" stroke="#FFA448" stroke-width="3"/>
<path d="M16.998 31.5C16.998 31.2348 17.1034 30.9804 17.2909 30.7929C17.4785 30.6054 17.7328 30.5 17.998 30.5H20.998V27L26.998 23L32.998 27V30.5H35.998C36.2633 30.5 36.5176 30.6054 36.7052 30.7929C36.8927 30.9804 36.998 31.2348 36.998 31.5V36C36.998 36.2652 36.8927 36.5196 36.7052 36.7071C36.5176 36.8946 36.2633 37 35.998 37H16.998V31.5Z" stroke="#282828" stroke-width="2" stroke-linejoin="round"/>
<path d="M26.998 18V23" stroke="#282828" stroke-width="2" stroke-linecap="round"/>
<path d="M28.998 36.9997V30.4997H24.998V36.9997M23.998 36.9997H29.998M32.998 20.9997V17.9997C32.998 17.9997 32.248 19.4997 29.998 17.9997C27.748 16.4997 26.998 17.9997 26.998 17.9997V20.9997C26.998 20.9997 27.748 19.4997 29.998 20.9997C32.248 22.4997 32.998 20.9997 32.998 20.9997Z" stroke="#282828" stroke-width="2" stroke-linecap="round" stroke-linejoin="round"/>
</svg>
