<svg width="56" height="56" viewBox="0 0 56 56" fill="none" xmlns="http://www.w3.org/2000/svg">
<rect width="56" height="56" rx="28" fill="#FFA448" fill-opacity="0.4"/>
<path opacity="0.5" d="M25.3339 39.1673H30.6672C35.6952 39.1673 38.2099 39.1673 39.7712 37.6046C41.3325 36.042 41.3339 33.5287 41.3339 28.5007C41.3339 27.9113 41.3312 26.3567 41.3285 25.834H14.6672C14.6645 26.3567 14.6672 27.9113 14.6672 28.5007C14.6672 33.5287 14.6672 36.0433 16.2285 37.6046C17.7899 39.166 20.3072 39.1673 25.3339 39.1673Z" fill="#FFA448"/>
<path d="M25.326 17.834H30.6727C35.714 17.834 38.2353 17.834 39.8007 19.322C40.9287 20.3927 41.2447 21.9353 41.3327 24.5007V25.834H14.666V24.5007C14.754 21.934 15.07 20.394 16.198 19.322C17.7633 17.834 20.2847 17.834 25.326 17.834ZM28.666 32.834C28.4008 32.834 28.1464 32.9393 27.9589 33.1269C27.7714 33.3144 27.666 33.5688 27.666 33.834C27.666 34.0992 27.7714 34.3536 27.9589 34.5411C28.1464 34.7286 28.4008 34.834 28.666 34.834H30.666C30.9312 34.834 31.1856 34.7286 31.3731 34.5411C31.5607 34.3536 31.666 34.0992 31.666 33.834C31.666 33.5688 31.5607 33.3144 31.3731 33.1269C31.1856 32.9393 30.9312 32.834 30.666 32.834H28.666ZM19.9993 32.834C19.7341 32.834 19.4798 32.9393 19.2922 33.1269C19.1047 33.3144 18.9993 33.5688 18.9993 33.834C18.9993 34.0992 19.1047 34.3536 19.2922 34.5411C19.4798 34.7286 19.7341 34.834 19.9993 34.834H25.3327C25.5979 34.834 25.8523 34.7286 26.0398 34.5411C26.2273 34.3536 26.3327 34.0992 26.3327 33.834C26.3327 33.5688 26.2273 33.3144 26.0398 33.1269C25.8523 32.9393 25.5979 32.834 25.3327 32.834H19.9993Z" fill="#FFA448"/>
</svg>
