<svg width="48" height="48" viewBox="0 0 48 48" fill="none" xmlns="http://www.w3.org/2000/svg">
<rect width="48" height="48" rx="24" fill="#FFA448"/>
<path d="M18.7598 20.748L16.2109 28.1426H14.6699L17.8809 19.6113H18.8652L18.7598 20.748ZM20.8926 28.1426L18.3379 20.748L18.2266 19.6113H19.2168L22.4395 28.1426H20.8926ZM20.7695 24.9785V26.1445H16.1289V24.9785H20.7695ZM23.3125 27.4395C23.3125 27.2207 23.3867 27.0371 23.5352 26.8887C23.6836 26.7363 23.8848 26.6602 24.1387 26.6602C24.3965 26.6602 24.5977 26.7363 24.7422 26.8887C24.8906 27.0371 24.9648 27.2207 24.9648 27.4395C24.9648 27.6582 24.8906 27.8418 24.7422 27.9902C24.5977 28.1387 24.3965 28.2129 24.1387 28.2129C23.8848 28.2129 23.6836 28.1387 23.5352 27.9902C23.3867 27.8418 23.3125 27.6582 23.3125 27.4395ZM33.2852 23.7832V27.041C33.1641 27.2012 32.9746 27.377 32.7168 27.5684C32.4629 27.7559 32.125 27.918 31.7031 28.0547C31.2812 28.1914 30.7559 28.2598 30.127 28.2598C29.5918 28.2598 29.1016 28.1699 28.6562 27.9902C28.2109 27.8066 27.8262 27.5391 27.502 27.1875C27.1816 26.8359 26.9336 26.4082 26.7578 25.9043C26.582 25.3965 26.4941 24.8184 26.4941 24.1699V23.5781C26.4941 22.9336 26.5742 22.3594 26.7344 21.8555C26.8984 21.3477 27.1328 20.918 27.4375 20.5664C27.7422 20.2148 28.1094 19.9492 28.5391 19.7695C28.9727 19.5859 29.4629 19.4941 30.0098 19.4941C30.709 19.4941 31.2871 19.6113 31.7441 19.8457C32.2051 20.0762 32.5605 20.3965 32.8105 20.8066C33.0605 21.2168 33.2187 21.6855 33.2852 22.2129H31.8437C31.7969 21.916 31.7051 21.6504 31.5684 21.416C31.4355 21.1816 31.2441 20.998 30.9941 20.8652C30.748 20.7285 30.4277 20.6602 30.0332 20.6602C29.6934 20.6602 29.3945 20.7246 29.1367 20.8535C28.8789 20.9824 28.6641 21.1719 28.4922 21.4219C28.3242 21.6719 28.1973 21.9766 28.1113 22.3359C28.0254 22.6953 27.9824 23.1055 27.9824 23.5664V24.1699C27.9824 24.6387 28.0312 25.0547 28.1289 25.418C28.2305 25.7813 28.375 26.0879 28.5625 26.3379C28.7539 26.5879 28.9863 26.7773 29.2598 26.9063C29.5332 27.0313 29.8418 27.0938 30.1855 27.0938C30.5215 27.0938 30.7969 27.0664 31.0117 27.0117C31.2266 26.9531 31.3965 26.8848 31.5215 26.8066C31.6504 26.7246 31.75 26.6465 31.8203 26.5723V24.8789H30.0449V23.7832H33.2852Z" fill="white"/>
</svg>
