<svg width="80" height="80" viewBox="0 0 80 80" fill="none" xmlns="http://www.w3.org/2000/svg">
<circle cx="40" cy="40" r="40" fill="#F7F7F7"/>
<path d="M55.2857 45.6632L45.4323 29.2399C44.139 27.0849 42.1607 25.8516 40.0007 25.8516C37.8407 25.8516 35.8623 27.0849 34.569 29.2366L24.7157 45.6632C23.4057 47.8449 23.2623 50.1716 24.324 52.0466C25.384 53.9232 27.454 54.9999 30.0007 54.9999H50.0007C52.5473 54.9999 54.6173 53.9232 55.6773 52.0482C56.7373 50.1732 56.5957 47.8466 55.2857 45.6632ZM40.0007 49.2482C38.5773 49.2482 37.4173 48.0899 37.4173 46.6666C37.4173 45.2416 38.5757 44.0816 40.0007 44.0816C41.4257 44.0816 42.584 45.2416 42.584 46.6666C42.584 48.0899 41.424 49.2482 40.0007 49.2482ZM42.7223 36.8749C42.704 36.9266 40.3873 42.6549 40.3873 42.6549C40.324 42.8116 40.1707 42.9149 40.0023 42.9149C39.834 42.9149 39.6807 42.8116 39.6173 42.6549L37.299 36.9249C37.1599 36.5776 37.087 36.2073 37.084 35.8332C37.084 34.2249 38.3923 32.9166 40.0007 32.9166C40.473 32.9178 40.938 33.0336 41.3558 33.254C41.7736 33.4744 42.1317 33.7929 42.3993 34.1822C42.6669 34.5714 42.8361 35.0197 42.8924 35.4888C42.9487 35.9578 42.8903 36.4334 42.7223 36.8749Z" fill="#282828"/>
</svg>
