<svg width="18" height="19" viewBox="0 0 18 19" fill="none" xmlns="http://www.w3.org/2000/svg">
<path fill-rule="evenodd" clip-rule="evenodd" d="M4 2.932C4 2.777 4 2.699 3.95 2.654C3.898 2.609 3.822 2.619 3.67 2.639C2.55 2.782 1.768 3.075 1.172 3.672C-1.19209e-07 4.843 0 6.729 0 10.5C0 14.271 -1.19209e-07 16.157 1.172 17.328C2.344 18.499 4.229 18.5 8 18.5H10C13.771 18.5 15.657 18.5 16.828 17.328C17.999 16.156 18 14.271 18 10.5C18 6.729 18 4.843 16.828 3.672C16.232 3.075 15.45 2.782 14.329 2.639C14.178 2.619 14.102 2.609 14.051 2.654C14 2.699 14 2.777 14 2.932V5C14 5.39782 13.842 5.77936 13.5607 6.06066C13.2794 6.34196 12.8978 6.5 12.5 6.5C12.1022 6.5 11.7206 6.34196 11.4393 6.06066C11.158 5.77936 11 5.39782 11 5V2.8C11 2.659 11 2.588 10.956 2.545C10.912 2.502 10.842 2.5 10.701 2.5H7.3C7.158 2.5 7.088 2.5 7.044 2.545C7 2.588 7 2.659 7 2.8V5C7 5.39782 6.84196 5.77936 6.56066 6.06066C6.27936 6.34196 5.89782 6.5 5.5 6.5C5.10218 6.5 4.72064 6.34196 4.43934 6.06066C4.15804 5.77936 4 5.39782 4 5V2.932Z" fill="#282828" fill-opacity="0.3"/>
<path d="M5.5 1V5ZM12.5 1V5Z" fill="#F88706" fill-opacity="0.3"/>
<path d="M5.5 1V5M12.5 1V5" stroke="#282828" stroke-linecap="round"/>
<path d="M11.1218 13.6213L6.87913 9.37868ZM11.1218 9.37868L6.87913 13.6213Z" fill="#F88706" fill-opacity="0.3"/>
<path d="M11.1218 13.6213L6.87913 9.37868M11.1218 9.37868L6.87913 13.6213" stroke="#282828" stroke-width="1.2" stroke-linecap="square"/>
</svg>
