<svg width="20" height="20" viewBox="0 0 20 20" fill="none" xmlns="http://www.w3.org/2000/svg">
<path fill-rule="evenodd" clip-rule="evenodd" d="M3.70643 2.29292C3.51783 2.11076 3.26523 2.00997 3.00303 2.01224C2.74083 2.01452 2.49002 2.11969 2.30461 2.3051C2.1192 2.49051 2.01403 2.74132 2.01176 3.00352C2.00948 3.26571 2.11027 3.51832 2.29243 3.70692L16.2924 17.7069C16.481 17.8891 16.7336 17.9899 16.9958 17.9876C17.258 17.9853 17.5088 17.8801 17.6942 17.6947C17.8797 17.5093 17.9848 17.2585 17.9871 16.9963C17.9894 16.7341 17.8886 16.4815 17.7064 16.2929L16.2334 14.8199C17.7916 13.5786 18.9435 11.9002 19.5414 9.99992C18.2674 5.94292 14.4774 2.99992 9.99943 2.99992C8.43187 2.99787 6.88596 3.36584 5.48743 4.07392L3.70643 2.29292ZM7.96743 6.55292L9.48143 8.06792C9.82052 7.97787 10.1773 7.97847 10.5161 8.06965C10.8549 8.16083 11.1638 8.3394 11.4119 8.58748C11.6599 8.83557 11.8385 9.14446 11.9297 9.48325C12.0209 9.82204 12.0215 10.1788 11.9314 10.5179L13.4454 12.0319C13.8964 11.2679 14.0806 10.3757 13.9691 9.49559C13.8575 8.61548 13.4566 7.79741 12.8293 7.1701C12.2019 6.54278 11.3839 6.14181 10.5038 6.03027C9.62364 5.91872 8.73141 6.10193 7.96743 6.55292Z" fill="#282828"/>
<path d="M12.453 16.6969L9.74903 13.9919C8.77672 13.931 7.86006 13.5173 7.17109 12.8285C6.48212 12.1397 6.06821 11.2232 6.00703 10.2509L2.33403 6.57788C1.48968 7.58419 0.851865 8.747 0.457031 9.99988C1.73103 14.0569 5.52203 16.9999 9.99903 16.9999C10.846 16.9999 11.668 16.8949 12.453 16.6969Z" fill="#282828"/>
</svg>
