<svg width="32" height="32" viewBox="0 0 32 32" fill="none" xmlns="http://www.w3.org/2000/svg">
<g opacity="0.75">
<path d="M12.5961 20.5306C12.4909 20.4488 12.3705 20.3888 12.2419 20.3542C12.1132 20.3196 11.9789 20.311 11.8469 20.329C11.7149 20.347 11.5879 20.3911 11.4732 20.4589C11.3585 20.5267 11.2585 20.6167 11.1791 20.7237C11.0996 20.8306 11.0424 20.9524 11.0107 21.0818C10.979 21.2112 10.9734 21.3456 10.9944 21.4772C11.0153 21.6087 11.0624 21.7348 11.1327 21.8479C11.2031 21.961 11.2953 22.059 11.4041 22.136C12.7313 23.1278 14.3432 23.6646 16.0001 23.6666C17.6569 23.6646 19.2689 23.1278 20.5961 22.136C20.7048 22.059 20.797 21.961 20.8674 21.8479C20.9377 21.7348 20.9848 21.6087 21.0057 21.4772C21.0267 21.3456 21.0212 21.2112 20.9895 21.0818C20.9577 20.9524 20.9005 20.8306 20.8211 20.7237C20.7417 20.6167 20.6417 20.5267 20.527 20.4589C20.4123 20.3911 20.2852 20.347 20.1532 20.329C20.0212 20.311 19.8869 20.3196 19.7583 20.3542C19.6296 20.3888 19.5092 20.4488 19.4041 20.5306C18.4215 21.2663 17.2275 21.6648 16.0001 21.6666C14.7726 21.6648 13.5786 21.2663 12.5961 20.5306Z" fill="white"/>
<path fill-rule="evenodd" clip-rule="evenodd" d="M16.0001 1.6665C15.0561 1.6665 14.1987 1.93717 13.2667 2.38917C12.3681 2.8265 11.3281 3.47184 10.0307 4.27717L7.27475 5.98784C6.04808 6.7505 5.06275 7.36117 4.30541 7.94117C3.52008 8.54117 2.91741 9.1545 2.48141 9.9505C2.04675 10.7438 1.85208 11.5892 1.75741 12.5878C1.66675 13.5545 1.66675 14.7385 1.66675 16.2225V18.3732C1.66675 20.9118 1.66675 22.9158 1.87075 24.4825C2.07875 26.0892 2.51875 27.3865 3.51075 28.4118C4.50675 29.4425 5.77341 29.9038 7.34408 30.1212C8.86408 30.3332 10.8081 30.3332 13.2561 30.3332H18.7441C21.1921 30.3332 23.1361 30.3332 24.6561 30.1212C26.2254 29.9038 27.4934 29.4425 28.4907 28.4118C29.4814 27.3865 29.9214 26.0892 30.1307 24.4825C30.3334 22.9158 30.3334 20.9118 30.3334 18.3732V16.2225C30.3334 14.7385 30.3334 13.5558 30.2427 12.5878C30.1494 11.5878 29.9534 10.7438 29.5187 9.9505C29.0827 9.1545 28.4787 8.5425 27.6947 7.94117C26.9374 7.35984 25.9534 6.7505 24.7254 5.98784L21.9694 4.27717C20.6721 3.47184 19.6321 2.8265 18.7321 2.38917C17.8027 1.93584 16.9454 1.6665 16.0001 1.6665ZM11.0401 6.00517C12.3934 5.16517 13.3467 4.57584 14.1427 4.18784C14.9174 3.8105 15.4667 3.6665 16.0001 3.6665C16.5334 3.6665 17.0827 3.8105 17.8574 4.18784C18.6547 4.5745 19.6067 5.16517 20.9601 6.00517L23.6267 7.65984C24.9081 8.45584 25.8081 9.0145 26.4801 9.52917C27.1321 10.0292 27.5067 10.4412 27.7641 10.9105C28.0214 11.3812 28.1721 11.9318 28.2507 12.7745C28.3321 13.6385 28.3334 14.7278 28.3334 16.2718V18.2998C28.3334 20.9265 28.3307 22.8012 28.1467 24.2238C27.9654 25.6212 27.6227 26.4318 27.0534 27.0225C26.4867 27.6078 25.7161 27.9558 24.3814 28.1412C23.0134 28.3305 21.2094 28.3332 18.6667 28.3332H13.3334C10.7894 28.3332 8.98675 28.3305 7.61875 28.1412C6.28408 27.9545 5.51341 27.6078 4.94808 27.0212C4.37741 26.4318 4.03475 25.6212 3.85475 24.2238C3.66808 22.8012 3.66675 20.9278 3.66675 18.2998V16.2718C3.66675 14.7278 3.66675 13.6385 3.74941 12.7745C3.82808 11.9318 3.97875 11.3812 4.23608 10.9105C4.49341 10.4412 4.86808 10.0292 5.52141 9.52917C6.19208 9.0145 7.09208 8.45584 8.37341 7.65984L11.0401 6.00517Z" fill="white"/>
</g>
</svg>
