<svg width="65" height="64" viewBox="0 0 65 64" fill="none" xmlns="http://www.w3.org/2000/svg">
<circle cx="32.25" cy="32" r="32" fill="#37CD58" fill-opacity="0.4"/>
<path d="M32.2507 18.666C29.4401 18.6659 26.743 19.775 24.7456 21.7524C22.7483 23.7298 21.6121 26.4156 21.584 29.226C21.584 36.5327 30.984 44.666 31.384 45.0127C31.6255 45.2193 31.9328 45.3328 32.2507 45.3328C32.5685 45.3328 32.8758 45.2193 33.1173 45.0127C33.584 44.666 42.9173 36.5327 42.9173 29.226C42.8892 26.4156 41.753 23.7298 39.7557 21.7524C37.7583 19.775 35.0612 18.6659 32.2507 18.666ZM32.2507 42.1993C30.024 40.0793 24.2507 34.1993 24.2507 29.226C24.2507 27.1043 25.0935 25.0695 26.5938 23.5692C28.0941 22.0689 30.1289 21.226 32.2507 21.226C34.3724 21.226 36.4072 22.0689 37.9075 23.5692C39.4078 25.0695 40.2507 27.1043 40.2507 29.226C40.2507 34.1593 34.4773 40.0793 32.2507 42.1993Z" fill="#37CD58"/>
<path d="M32.2507 24C31.3277 24 30.4254 24.2737 29.658 24.7865C28.8906 25.2993 28.2924 26.0281 27.9392 26.8808C27.586 27.7335 27.4936 28.6718 27.6737 29.5771C27.8537 30.4823 28.2982 31.3139 28.9508 31.9665C29.6035 32.6191 30.435 33.0636 31.3402 33.2437C32.2455 33.4237 33.1838 33.3313 34.0365 32.9781C34.8892 32.6249 35.6181 32.0268 36.1308 31.2593C36.6436 30.4919 36.9173 29.5896 36.9173 28.6667C36.9173 27.429 36.4257 26.242 35.5505 25.3668C34.6753 24.4917 33.4883 24 32.2507 24ZM32.2507 30.6667C31.8551 30.6667 31.4684 30.5494 31.1395 30.3296C30.8106 30.1098 30.5543 29.7975 30.4029 29.432C30.2515 29.0666 30.2119 28.6644 30.2891 28.2765C30.3663 27.8885 30.5567 27.5322 30.8364 27.2525C31.1161 26.9727 31.4725 26.7823 31.8605 26.7051C32.2484 26.6279 32.6506 26.6675 33.016 26.8189C33.3815 26.9703 33.6938 27.2266 33.9136 27.5555C34.1334 27.8844 34.2507 28.2711 34.2507 28.6667C34.2507 29.1971 34.0399 29.7058 33.6649 30.0809C33.2898 30.456 32.7811 30.6667 32.2507 30.6667Z" fill="#37CD58"/>
</svg>
