<svg width="56" height="56" viewBox="0 0 56 56" fill="none" xmlns="http://www.w3.org/2000/svg">
<circle cx="28" cy="28" r="28" fill="#37CD58" fill-opacity="0.4"/>
<g clip-path="url(#clip0_1291_31565)">
<path d="M34.0773 21.3407H32.1013V24.9835H36.3269L35.1871 22.1034C35.0071 21.6443 34.5684 21.3407 34.0773 21.3407ZM30.3016 24.9835V21.3407H27.2571C26.8934 21.3407 26.5484 21.5076 26.3197 21.796L23.8001 24.9835H30.3016ZM20.6956 25.0215L24.445 20.2782C25.1274 19.413 26.1622 18.9121 27.2571 18.9121H34.0773C35.5508 18.9121 36.8743 19.819 37.418 21.2003L38.9777 25.1505C39.8701 25.5072 40.5 26.3838 40.5 27.4121V31.6621C40.5 32.3338 39.9638 32.8764 39.3002 32.8764H38.0516C37.7667 34.5992 36.2857 35.9121 34.5009 35.9121C32.7162 35.9121 31.2352 34.5992 30.9502 32.8764H26.0498C25.7648 34.5992 24.2838 35.9121 22.4991 35.9121C20.7143 35.9121 19.2333 34.5992 18.9484 32.8764H17.6998C17.0362 32.8764 16.5 32.3338 16.5 31.6621V29.8407C16.5 27.3666 18.3297 25.3251 20.6918 25.0215H20.6956ZM24.2013 31.6621C24.1249 31.4335 24.0044 31.2226 23.8468 31.0415C23.6892 30.8605 23.4976 30.7129 23.2832 30.6074C23.0687 30.5019 22.8357 30.4406 22.5976 30.427C22.3596 30.4135 22.1212 30.4479 21.8965 30.5283C21.6717 30.6088 21.4649 30.7336 21.2882 30.8956C21.1115 31.0576 20.9683 31.2536 20.8671 31.472C20.7658 31.6905 20.7085 31.9271 20.6983 32.1682C20.6882 32.4093 20.7255 32.65 20.8081 32.8764C20.8845 33.105 21.005 33.3159 21.1626 33.497C21.3202 33.6781 21.5118 33.8256 21.7262 33.9311C21.9407 34.0366 22.1737 34.0979 22.4117 34.1115C22.6498 34.125 22.8881 34.0906 23.1129 34.0102C23.3377 33.9297 23.5445 33.8049 23.7212 33.6429C23.8979 33.4809 24.041 33.2849 24.1423 33.0665C24.2436 32.848 24.3009 32.6114 24.311 32.3703C24.3212 32.1292 24.2839 31.8885 24.2013 31.6621ZM34.5009 30.4478C34.0236 30.4478 33.5659 30.6397 33.2283 30.9813C32.8908 31.3229 32.7012 31.7862 32.7012 32.2693C32.7012 32.7523 32.8908 33.2156 33.2283 33.5572C33.5659 33.8988 34.0236 34.0907 34.5009 34.0907C34.9783 34.0907 35.436 33.8988 35.7735 33.5572C36.111 33.2156 36.3007 32.7523 36.3007 32.2693C36.3007 31.7862 36.111 31.3229 35.7735 30.9813C35.436 30.6397 34.9783 30.4478 34.5009 30.4478Z" fill="#37CD58"/>
</g>
<defs>
<clipPath id="clip0_1291_31565">
<rect width="24" height="19.2" fill="white" transform="translate(16.5 17.9121)"/>
</clipPath>
</defs>
</svg>
