<svg width="48" height="48" viewBox="0 0 48 48" fill="none" xmlns="http://www.w3.org/2000/svg">
<circle cx="24" cy="24" r="24" fill="#37CD58" fill-opacity="0.4"/>
<g clip-path="url(#clip0_1290_30409)">
<path d="M18.9238 17.5113H20.9V21.1113H16.6738L17.8138 18.2651C17.9938 17.8113 18.4325 17.5113 18.9238 17.5113ZM22.7 21.1113V17.5113H25.745C26.1088 17.5113 26.4538 17.6763 26.6825 17.9613L29.2025 21.1113H22.7ZM32.3075 21.1488L28.5575 16.4613C27.875 15.6063 26.84 15.1113 25.745 15.1113H18.9238C17.45 15.1113 16.1263 16.0076 15.5825 17.3726L14.0225 21.2763C13.13 21.6288 12.5 22.4951 12.5 23.5113V27.7113C12.5 28.3751 13.0362 28.9113 13.7 28.9113H14.9488C15.2338 30.6138 16.715 31.9113 18.5 31.9113C20.285 31.9113 21.7663 30.6138 22.0513 28.9113H26.9525C27.2375 30.6138 28.7188 31.9113 30.5038 31.9113C32.2888 31.9113 33.77 30.6138 34.055 28.9113H35.3037C35.9675 28.9113 36.5038 28.3751 36.5038 27.7113V25.9113C36.5038 23.4663 34.6738 21.4488 32.3113 21.1488H32.3075ZM28.8013 27.7113C28.8776 27.4854 28.9982 27.277 29.1558 27.098C29.3134 26.9191 29.5051 26.7733 29.7195 26.669C29.934 26.5648 30.1671 26.5042 30.4052 26.4908C30.6432 26.4774 30.8816 26.5114 31.1065 26.5909C31.3313 26.6704 31.5381 26.7938 31.7148 26.9539C31.8915 27.114 32.0347 27.3076 32.136 27.5235C32.2373 27.7394 32.2946 27.9732 32.3048 28.2115C32.3149 28.4497 32.2776 28.6876 32.195 28.9113C32.1186 29.1372 31.9981 29.3457 31.8405 29.5246C31.6828 29.7036 31.4912 29.8494 31.2767 29.9536C31.0622 30.0579 30.8292 30.1185 30.5911 30.1319C30.353 30.1453 30.1146 30.1112 29.8898 30.0317C29.665 29.9523 29.4582 29.8289 29.2814 29.6688C29.1047 29.5087 28.9615 29.3151 28.8603 29.0992C28.759 28.8833 28.7016 28.6494 28.6915 28.4112C28.6814 28.1729 28.7187 27.935 28.8013 27.7113ZM18.5 26.5113C18.9774 26.5113 19.4352 26.701 19.7728 27.0385C20.1104 27.3761 20.3 27.8339 20.3 28.3113C20.3 28.7887 20.1104 29.2466 19.7728 29.5841C19.4352 29.9217 18.9774 30.1113 18.5 30.1113C18.0226 30.1113 17.5648 29.9217 17.2272 29.5841C16.8896 29.2466 16.7 28.7887 16.7 28.3113C16.7 27.8339 16.8896 27.3761 17.2272 27.0385C17.5648 26.701 18.0226 26.5113 18.5 26.5113Z" fill="#37CD58"/>
</g>
<defs>
<clipPath id="clip0_1290_30409">
<rect width="24" height="19.2" fill="white" transform="translate(12.5 13.9111)"/>
</clipPath>
</defs>
</svg>
