<svg width="64" height="64" viewBox="0 0 64 64" fill="none" xmlns="http://www.w3.org/2000/svg">
<circle cx="32" cy="32" r="32" fill="#F7F7F7"/>
<path d="M36.4556 29.1066C37.2074 28.8564 38.0199 28.8564 38.7716 29.1066C39.2623 29.2706 39.6676 29.5573 40.061 29.9013C40.437 30.2319 40.8636 30.6733 41.3743 31.2013C41.9841 31.8351 42.5947 32.4679 43.2063 33.0999C43.8036 33.7159 44.0436 34.3666 44.041 35.2359C44.033 37.4479 43.9863 38.9653 43.3516 40.2093C42.7442 41.4006 41.7753 42.3691 40.5836 42.9759C38.7903 43.8906 36.497 43.6666 34.553 43.6666H30.1983C28.7423 43.6666 27.5876 43.6666 26.6583 43.5906C25.7063 43.5133 24.9023 43.3506 24.1676 42.9773C22.9758 42.3701 22.0069 41.4011 21.3996 40.2093C21.0063 39.4373 20.853 38.5973 20.773 37.5746C20.6556 36.0279 21.9676 34.7759 22.977 33.7586C23.3863 33.3453 23.8183 32.9986 24.3543 32.8013C25.1675 32.5039 26.0598 32.5039 26.873 32.8013C27.409 32.9986 27.841 33.3453 28.2503 33.7586C28.6476 34.1586 29.093 34.6919 29.6316 35.3386C29.6783 35.3959 29.7516 35.4493 29.8196 35.3786L33.853 31.2013C34.365 30.6733 34.7903 30.2319 35.1663 29.9013C35.5596 29.5573 35.9663 29.2706 36.4556 29.1066ZM36.4863 31.4039C36.1796 31.6733 35.8103 32.0546 35.2636 32.6213L31.2583 36.7679C31.0528 36.9809 30.8047 37.1482 30.5303 37.2588C30.2558 37.3695 29.9611 37.4211 29.6654 37.4103C29.3696 37.3995 29.0795 37.3265 28.8139 37.196C28.5482 37.0656 28.313 36.8807 28.1236 36.6533C27.549 35.9653 27.1583 35.4973 26.8303 35.1679C26.5103 34.8439 26.3236 34.7306 26.1863 34.6799C25.8165 34.5446 25.4108 34.5446 25.041 34.6799C24.9036 34.7306 24.7183 34.8439 24.397 35.1679C23.9036 35.6639 23.4676 36.2173 23.021 36.7546C22.8063 37.0119 22.7476 37.1479 22.7716 37.4746C22.8383 38.3493 22.9676 38.8813 23.181 39.3013C23.5964 40.1164 24.2591 40.7792 25.0743 41.1946C25.481 41.4013 25.9943 41.5293 26.821 41.5973C27.661 41.6653 28.733 41.6666 30.2423 41.6666H34.509C36.0983 41.6666 38.1956 41.9493 39.677 41.1946C40.4921 40.7792 41.1549 40.1164 41.5703 39.3013C41.9463 38.5613 42.0316 37.5639 42.041 35.2293C42.0423 34.8639 41.9863 34.7146 41.7236 34.4439L39.9636 32.6213C39.417 32.0546 39.049 31.6746 38.741 31.4039C38.0543 30.8013 37.2023 30.7746 36.4863 31.4039Z" fill="#282828"/>
<path d="M30.1983 20.3335H34.553C36.009 20.3335 37.1637 20.3335 38.093 20.4095C39.045 20.4868 39.849 20.6495 40.585 21.0228C41.7765 21.6306 42.745 22.6001 43.3517 23.7922C43.7263 24.5255 43.889 25.3308 43.9663 26.2828C44.0423 27.2122 44.0423 28.3668 44.0423 29.8228V34.1775C44.0423 35.6335 44.0423 36.7882 43.9663 37.7175C43.889 38.6695 43.7263 39.4735 43.353 40.2095C42.7452 41.401 41.7758 42.3695 40.5837 42.9762C39.8503 43.3508 39.045 43.5135 38.093 43.5908C37.1637 43.6668 36.009 43.6668 34.553 43.6668H30.1983C28.7423 43.6668 27.5877 43.6668 26.6583 43.5908C25.7063 43.5135 24.9023 43.3508 24.1677 42.9775C22.9758 42.3703 22.0069 41.4013 21.3997 40.2095C21.025 39.4735 20.8623 38.6695 20.785 37.7175C20.709 36.7882 20.709 35.6335 20.709 34.1775V29.8228C20.709 28.3668 20.709 27.2122 20.785 26.2828C20.8623 25.3308 21.025 24.5268 21.3983 23.7922C22.0059 22.6001 22.9753 21.6312 24.1677 21.0242C24.901 20.6495 25.7063 20.4868 26.6583 20.4095C27.5877 20.3335 28.7423 20.3335 30.1983 20.3335ZM26.821 22.4028C25.9943 22.4695 25.481 22.5988 25.0743 22.8055C24.2592 23.2209 23.5964 23.8837 23.181 24.6988C22.9743 25.1055 22.8463 25.6188 22.7783 26.4455C22.7103 27.2855 22.709 28.3575 22.709 29.8668V34.1335C22.709 35.6442 22.709 36.7162 22.7783 37.5548C22.845 38.3815 22.9743 38.8948 23.181 39.3015C23.5964 40.1167 24.2592 40.7794 25.0743 41.1948C25.481 41.4015 25.9943 41.5295 26.821 41.5975C27.661 41.6655 28.733 41.6668 30.2423 41.6668H34.509C36.0197 41.6668 37.0917 41.6668 37.9303 41.5975C38.757 41.5308 39.2703 41.4015 39.677 41.1948C40.4921 40.7794 41.1549 40.1167 41.5703 39.3015C41.777 38.8948 41.905 38.3815 41.973 37.5548C42.041 36.7148 42.0423 35.6428 42.0423 34.1335V29.8668C42.0423 28.3575 42.0423 27.2842 41.973 26.4455C41.9063 25.6188 41.777 25.1055 41.5703 24.6988C41.1549 23.8837 40.4921 23.2209 39.677 22.8055C39.2703 22.5988 38.757 22.4708 37.9303 22.4028C37.0903 22.3348 36.0183 22.3335 34.509 22.3335H30.2423C28.733 22.3335 27.6597 22.3335 26.821 22.4028Z" fill="#282828"/>
<path d="M29.7077 26.3335C29.2657 26.3335 28.8417 26.5091 28.5292 26.8217C28.2166 27.1342 28.041 27.5581 28.041 28.0002C28.041 28.4422 28.2166 28.8661 28.5292 29.1787C28.8417 29.4912 29.2657 29.6668 29.7077 29.6668C30.1497 29.6668 30.5736 29.4912 30.8862 29.1787C31.1988 28.8661 31.3743 28.4422 31.3743 28.0002C31.3743 27.5581 31.1988 27.1342 30.8862 26.8217C30.5736 26.5091 30.1497 26.3335 29.7077 26.3335ZM26.041 28.0002C26.041 27.0277 26.4273 26.0951 27.115 25.4074C27.8026 24.7198 28.7352 24.3335 29.7077 24.3335C30.6801 24.3335 31.6128 24.7198 32.3004 25.4074C32.988 26.0951 33.3743 27.0277 33.3743 28.0002C33.3743 28.9726 32.988 29.9053 32.3004 30.5929C31.6128 31.2805 30.6801 31.6668 29.7077 31.6668C28.7352 31.6668 27.8026 31.2805 27.115 30.5929C26.4273 29.9053 26.041 28.9726 26.041 28.0002Z" fill="#282828"/>
</svg>
