<svg width="32" height="32" viewBox="0 0 32 32" fill="none" xmlns="http://www.w3.org/2000/svg">
<circle cx="16" cy="16" r="16" fill="#48A0FF" fill-opacity="0.4"/>
<g clip-path="url(#clip0_1291_31552)">
<path opacity="0.5" d="M14.4768 22.4237H17.5244C20.3975 22.4237 21.8345 22.4237 22.7267 21.5308C23.6189 20.6378 23.6196 19.2016 23.6196 16.3285C23.6196 15.9917 23.6181 15.1034 23.6166 14.8047H8.38154C8.38001 15.1034 8.38154 15.9917 8.38154 16.3285C8.38154 19.2016 8.38154 20.6386 9.27373 21.5308C10.1659 22.423 11.6044 22.4237 14.4768 22.4237Z" fill="#48A0FF"/>
<path d="M14.2809 10.4238H17.3361C20.2169 10.4238 21.6576 10.4238 22.5521 11.2741C23.1967 11.8859 23.3773 12.7674 23.4275 14.2334V14.9953H8.18945V14.2334C8.23974 12.7667 8.42031 11.8867 9.06488 11.2741C9.95936 10.4238 11.4001 10.4238 14.2809 10.4238ZM16.1895 18.9953C16.0379 18.9953 15.8926 19.0555 15.7854 19.1626C15.6782 19.2698 15.618 19.4151 15.618 19.5667C15.618 19.7182 15.6782 19.8636 15.7854 19.9707C15.8926 20.0779 16.0379 20.1381 16.1895 20.1381H17.3323C17.4839 20.1381 17.6292 20.0779 17.7364 19.9707C17.8435 19.8636 17.9037 19.7182 17.9037 19.5667C17.9037 19.4151 17.8435 19.2698 17.7364 19.1626C17.6292 19.0555 17.4839 18.9953 17.3323 18.9953H16.1895ZM11.2371 18.9953C11.0855 18.9953 10.9402 19.0555 10.833 19.1626C10.7258 19.2698 10.6656 19.4151 10.6656 19.5667C10.6656 19.7182 10.7258 19.8636 10.833 19.9707C10.9402 20.0779 11.0855 20.1381 11.2371 20.1381H14.2847C14.4362 20.1381 14.5816 20.0779 14.6888 19.9707C14.7959 19.8636 14.8561 19.7182 14.8561 19.5667C14.8561 19.4151 14.7959 19.2698 14.6888 19.1626C14.5816 19.0555 14.4362 18.9953 14.2847 18.9953H11.2371Z" fill="#48A0FF"/>
<rect x="18.8555" y="19.5684" width="6.09524" height="6.09524" rx="3.04762" fill="white"/>
<path d="M23.2088 22.8333H22.1204V23.9217C22.1204 24.0415 22.0224 24.1394 21.9027 24.1394C21.783 24.1394 21.685 24.0415 21.685 23.9217V22.8333H20.5966C20.4769 22.8333 20.3789 22.7353 20.3789 22.6156C20.3789 22.4959 20.4769 22.3979 20.5966 22.3979H21.685V21.3095C21.685 21.1898 21.783 21.0918 21.9027 21.0918C22.0224 21.0918 22.1204 21.1898 22.1204 21.3095V22.3979H23.2088C23.3286 22.3979 23.4265 22.4959 23.4265 22.6156C23.4265 22.7353 23.3286 22.8333 23.2088 22.8333Z" fill="#48A0FF"/>
</g>
<defs>
<clipPath id="clip0_1291_31552">
<rect width="18.2857" height="18.2857" fill="white" transform="translate(6.66602 7.37695)"/>
</clipPath>
</defs>
</svg>
