<svg width="65" height="64" viewBox="0 0 65 64" fill="none" xmlns="http://www.w3.org/2000/svg">
<circle cx="32.5" cy="32" r="32" fill="#48A0FF" fill-opacity="0.4"/>
<path d="M36.8306 29.1056C37.5824 28.8554 38.3949 28.8554 39.1466 29.1056C39.6373 29.2696 40.0426 29.5563 40.436 29.9003C40.812 30.231 41.2386 30.6723 41.7493 31.2003C42.3591 31.8341 42.9697 32.467 43.5813 33.099C44.1786 33.715 44.4186 34.3656 44.416 35.235C44.408 37.447 44.3613 38.9643 43.7266 40.2083C43.1192 41.3996 42.1503 42.3681 40.9586 42.975C39.1653 43.8896 36.872 43.6656 34.928 43.6656H30.5733C29.1173 43.6656 27.9626 43.6656 27.0333 43.5896C26.0813 43.5123 25.2773 43.3496 24.5426 42.9763C23.3508 42.3691 22.3819 41.4001 21.7746 40.2083C21.3813 39.4363 21.228 38.5963 21.148 37.5736C21.0306 36.027 22.3426 34.775 23.352 33.7576C23.7613 33.3443 24.1933 32.9976 24.7293 32.8003C25.5425 32.5029 26.4348 32.5029 27.248 32.8003C27.784 32.9976 28.216 33.3443 28.6253 33.7576C29.0226 34.1576 29.468 34.691 30.0066 35.3376C30.0533 35.395 30.1266 35.4483 30.1946 35.3776L34.228 31.2003C34.74 30.6723 35.1653 30.231 35.5413 29.9003C35.9346 29.5563 36.3413 29.2696 36.8306 29.1056ZM36.8613 31.403C36.5546 31.6723 36.1853 32.0536 35.6386 32.6203L31.6333 36.767C31.4278 36.9799 31.1797 37.1472 30.9053 37.2579C30.6308 37.3685 30.3361 37.4202 30.0404 37.4093C29.7446 37.3985 29.4545 37.3255 29.1889 37.1951C28.9232 37.0646 28.688 36.8797 28.4986 36.6523C27.924 35.9643 27.5333 35.4963 27.2053 35.167C26.8853 34.843 26.6986 34.7296 26.5613 34.679C26.1915 34.5437 25.7858 34.5437 25.416 34.679C25.2786 34.7296 25.0933 34.843 24.772 35.167C24.2786 35.663 23.8426 36.2163 23.396 36.7536C23.1813 37.011 23.1226 37.147 23.1466 37.4736C23.2133 38.3483 23.3426 38.8803 23.556 39.3003C23.9714 40.1155 24.6341 40.7782 25.4493 41.1936C25.856 41.4003 26.3693 41.5283 27.196 41.5963C28.036 41.6643 29.108 41.6656 30.6173 41.6656H34.884C36.4733 41.6656 38.5706 41.9483 40.052 41.1936C40.8671 40.7782 41.5299 40.1155 41.9453 39.3003C42.3213 38.5603 42.4066 37.563 42.416 35.2283C42.4173 34.863 42.3613 34.7136 42.0986 34.443L40.3386 32.6203C39.792 32.0536 39.424 31.6736 39.116 31.403C38.4293 30.8003 37.5773 30.7736 36.8613 31.403Z" fill="#48A0FF"/>
<path d="M30.5733 20.334H34.928C36.384 20.334 37.5387 20.334 38.468 20.41C39.42 20.4873 40.224 20.65 40.96 21.0233C42.1515 21.6311 43.12 22.6005 43.7267 23.7927C44.1013 24.526 44.264 25.3313 44.3413 26.2833C44.4173 27.2127 44.4173 28.3673 44.4173 29.8233V34.178C44.4173 35.634 44.4173 36.7887 44.3413 37.718C44.264 38.67 44.1013 39.474 43.728 40.21C43.1202 41.4015 42.1508 42.37 40.9587 42.9767C40.2253 43.3513 39.42 43.514 38.468 43.5913C37.5387 43.6673 36.384 43.6673 34.928 43.6673H30.5733C29.1173 43.6673 27.9627 43.6673 27.0333 43.5913C26.0813 43.514 25.2773 43.3513 24.5427 42.978C23.3508 42.3708 22.3819 41.4018 21.7747 40.21C21.4 39.474 21.2373 38.67 21.16 37.718C21.084 36.7887 21.084 35.634 21.084 34.178V29.8233C21.084 28.3673 21.084 27.2127 21.16 26.2833C21.2373 25.3313 21.4 24.5273 21.7733 23.7927C22.3809 22.6006 23.3503 21.6316 24.5427 21.0247C25.276 20.65 26.0813 20.4873 27.0333 20.41C27.9627 20.334 29.1173 20.334 30.5733 20.334ZM27.196 22.4033C26.3693 22.47 25.856 22.5993 25.4493 22.806C24.6342 23.2214 23.9714 23.8842 23.556 24.6993C23.3493 25.106 23.2213 25.6193 23.1533 26.446C23.0853 27.286 23.084 28.358 23.084 29.8673V34.134C23.084 35.6447 23.084 36.7167 23.1533 37.5553C23.22 38.382 23.3493 38.8953 23.556 39.302C23.9714 40.1171 24.6342 40.7799 25.4493 41.1953C25.856 41.402 26.3693 41.53 27.196 41.598C28.036 41.666 29.108 41.6673 30.6173 41.6673H34.884C36.3947 41.6673 37.4667 41.6673 38.3053 41.598C39.132 41.5313 39.6453 41.402 40.052 41.1953C40.8671 40.7799 41.5299 40.1171 41.9453 39.302C42.152 38.8953 42.28 38.382 42.348 37.5553C42.416 36.7153 42.4173 35.6433 42.4173 34.134V29.8673C42.4173 28.358 42.4173 27.2847 42.348 26.446C42.2813 25.6193 42.152 25.106 41.9453 24.6993C41.5299 23.8842 40.8671 23.2214 40.052 22.806C39.6453 22.5993 39.132 22.4713 38.3053 22.4033C37.4653 22.3353 36.3933 22.334 34.884 22.334H30.6173C29.108 22.334 28.0347 22.334 27.196 22.4033Z" fill="#48A0FF"/>
<path d="M30.0827 26.334C29.6407 26.334 29.2167 26.5096 28.9042 26.8221C28.5916 27.1347 28.416 27.5586 28.416 28.0007C28.416 28.4427 28.5916 28.8666 28.9042 29.1792C29.2167 29.4917 29.6407 29.6673 30.0827 29.6673C30.5247 29.6673 30.9486 29.4917 31.2612 29.1792C31.5738 28.8666 31.7493 28.4427 31.7493 28.0007C31.7493 27.5586 31.5738 27.1347 31.2612 26.8221C30.9486 26.5096 30.5247 26.334 30.0827 26.334ZM26.416 28.0007C26.416 27.0282 26.8023 26.0956 27.49 25.4079C28.1776 24.7203 29.1102 24.334 30.0827 24.334C31.0551 24.334 31.9878 24.7203 32.6754 25.4079C33.363 26.0956 33.7493 27.0282 33.7493 28.0007C33.7493 28.9731 33.363 29.9057 32.6754 30.5934C31.9878 31.281 31.0551 31.6673 30.0827 31.6673C29.1102 31.6673 28.1776 31.281 27.49 30.5934C26.8023 29.9057 26.416 28.9731 26.416 28.0007Z" fill="#48A0FF"/>
</svg>
