<svg width="64" height="64" viewBox="0 0 64 64" fill="none" xmlns="http://www.w3.org/2000/svg">
<circle cx="32" cy="32" r="32" fill="#F7F7F7"/>
<path fill-rule="evenodd" clip-rule="evenodd" d="M26.005 21.9827C26.361 20.236 27.9157 19 29.6957 19H34.053C35.833 19 37.3863 20.236 37.7437 21.9827C37.7831 22.175 37.886 22.3485 38.036 22.4752C38.1859 22.602 38.3741 22.6746 38.5703 22.6813H38.6143C40.485 22.764 41.9223 22.9933 43.1223 23.7813C43.8783 24.2773 44.529 24.9147 45.0357 25.66C45.6663 26.5853 45.9437 27.6493 46.077 28.9347C46.2077 30.192 46.2077 31.7667 46.2077 33.7613V33.8747C46.2077 35.8693 46.2077 37.4453 46.077 38.7013C45.9437 39.9867 45.6663 41.0507 45.0357 41.9773C44.5262 42.7221 43.8763 43.3603 43.1223 43.856C42.185 44.4707 41.109 44.7427 39.805 44.872C38.5277 45 36.9263 45 34.8917 45H28.857C26.8223 45 25.221 45 23.9437 44.872C22.6397 44.7427 21.5637 44.472 20.6263 43.856C19.8723 43.3599 19.2223 42.7212 18.713 41.976C18.0823 41.0507 17.805 39.9867 17.6717 38.7013C17.541 37.4453 17.541 35.8693 17.541 33.8747V33.7613C17.541 31.7667 17.541 30.192 17.6717 28.9347C17.805 27.6493 18.0823 26.5853 18.713 25.66C19.2223 24.9148 19.8723 24.2761 20.6263 23.78C21.8263 22.9933 23.2637 22.764 25.1343 22.6827L25.157 22.6813H25.1783C25.3746 22.6746 25.5628 22.602 25.7127 22.4752C25.8627 22.3485 25.9656 22.175 26.005 21.9827ZM29.6957 21C28.8423 21 28.1263 21.5907 27.965 22.3813C27.705 23.6613 26.569 24.6693 25.2023 24.6813C23.405 24.7613 22.4423 24.9813 21.7223 25.4533C21.1883 25.8052 20.7277 26.2576 20.3663 26.7853C19.9983 27.3253 19.777 28.0173 19.6597 29.1413C19.5423 30.2827 19.541 31.7547 19.541 33.8187C19.541 35.8827 19.541 37.3533 19.661 38.4947C19.777 39.6187 19.9983 40.3107 20.3677 40.852C20.725 41.3773 21.185 41.8307 21.7237 42.184C22.2797 42.548 22.9917 42.768 24.1423 42.8827C25.3077 42.9987 26.809 43 28.9117 43H34.837C36.9383 43 38.4397 43 39.6063 42.8827C40.757 42.768 41.469 42.5493 42.025 42.184C42.5637 41.8307 43.025 41.3773 43.3823 40.8507C43.7503 40.3107 43.9717 39.6187 44.089 38.4947C44.2063 37.3533 44.2077 35.8813 44.2077 33.8187C44.2077 31.756 44.2077 30.2827 44.0877 29.1413C43.9717 28.0173 43.7503 27.3253 43.381 26.7853C43.0198 26.2572 42.5592 25.8043 42.025 25.452C41.3077 24.9813 40.345 24.7613 38.545 24.6813C37.1797 24.668 36.0437 23.6627 35.7837 22.3813C35.6984 21.987 35.4796 21.6343 35.1642 21.3826C34.8489 21.1309 34.4564 20.9958 34.053 21H29.6957ZM31.8743 30.3333C31.0787 30.3333 30.3156 30.6494 29.753 31.212C29.1904 31.7746 28.8743 32.5377 28.8743 33.3333C28.8743 34.129 29.1904 34.892 29.753 35.4547C30.3156 36.0173 31.0787 36.3333 31.8743 36.3333C32.67 36.3333 33.4331 36.0173 33.9957 35.4547C34.5583 34.892 34.8743 34.129 34.8743 33.3333C34.8743 32.5377 34.5583 31.7746 33.9957 31.212C33.4331 30.6494 32.67 30.3333 31.8743 30.3333ZM26.8743 33.3333C26.8743 32.0073 27.4011 30.7355 28.3388 29.7978C29.2765 28.8601 30.5483 28.3333 31.8743 28.3333C33.2004 28.3333 34.4722 28.8601 35.4099 29.7978C36.3476 30.7355 36.8743 32.0073 36.8743 33.3333C36.8743 34.6594 36.3476 35.9312 35.4099 36.8689C34.4722 37.8065 33.2004 38.3333 31.8743 38.3333C30.5483 38.3333 29.2765 37.8065 28.3388 36.8689C27.4011 35.9312 26.8743 34.6594 26.8743 33.3333ZM38.8743 29.3333C38.8743 29.0681 38.9797 28.8138 39.1672 28.6262C39.3548 28.4387 39.6091 28.3333 39.8743 28.3333H41.2077C41.4729 28.3333 41.7273 28.4387 41.9148 28.6262C42.1023 28.8138 42.2077 29.0681 42.2077 29.3333C42.2077 29.5986 42.1023 29.8529 41.9148 30.0404C41.7273 30.228 41.4729 30.3333 41.2077 30.3333H39.8743C39.6091 30.3333 39.3548 30.228 39.1672 30.0404C38.9797 29.8529 38.8743 29.5986 38.8743 29.3333Z" fill="#282828"/>
</svg>
