<svg width="25" height="25" viewBox="0 0 25 25" fill="none" xmlns="http://www.w3.org/2000/svg">
<path d="M6.56752 10.3174C4.36602 10.8409 2.72852 12.8204 2.72852 15.1819C2.72852 17.9434 4.96702 20.1819 7.72852 20.1819C8.20202 20.1819 8.66052 20.1159 9.09502 19.9929M18.756 10.3174C20.9575 10.8409 22.5945 12.8204 22.5945 15.1819C22.5945 17.9434 20.356 20.1819 17.5945 20.1819C17.121 20.1819 16.6625 20.1159 16.2285 19.9929M18.7285 10.1819C18.7285 6.86838 16.042 4.18188 12.7285 4.18188C9.41502 4.18188 6.72852 6.86838 6.72852 10.1819M9.26102 14.1224L12.7285 10.6439L16.2945 14.1819M12.7285 19.1819V12.4129" stroke="#282828" stroke-width="2" stroke-linecap="round" stroke-linejoin="round"/>
</svg>
