<svg width="24" height="24" viewBox="0 0 24 24" fill="none" xmlns="http://www.w3.org/2000/svg">
<rect width="24" height="24" rx="12" fill="#FFA448"/>
<path d="M9.71494 14.887L17.4492 7.15269C17.6318 6.97017 17.8447 6.87891 18.0881 6.87891C18.3314 6.87891 18.5444 6.97017 18.7269 7.15269C18.9094 7.33521 19.0007 7.5521 19.0007 7.80337C19.0007 8.05464 18.9094 8.27123 18.7269 8.45315L10.3538 16.8491C10.1712 17.0316 9.9583 17.1229 9.71494 17.1229C9.47158 17.1229 9.25864 17.0316 9.07612 16.8491L5.15192 12.9249C4.9694 12.7424 4.88179 12.5258 4.88909 12.2751C4.89639 12.0245 4.99161 11.8076 5.17474 11.6244C5.35787 11.4413 5.57476 11.3501 5.82542 11.3507C6.07609 11.3513 6.29268 11.4425 6.4752 11.6244L9.71494 14.887Z" fill="white"/>
</svg>
