<svg width="64" height="64" viewBox="0 0 64 64" fill="none" xmlns="http://www.w3.org/2000/svg">
<circle cx="32" cy="32" r="32" fill="#D81159" fill-opacity="0.3"/>
<path d="M27.7956 33.5364H36.453M27.7956 30.5677H36.453M27.7956 27.6064H36.453M44.407 34.481C44.4576 33.6117 44.4603 32.7724 44.4576 31.999C44.445 30.5704 44.4476 28.8944 44.183 27.231C43.9463 25.727 43.4896 24.235 42.6136 22.947C42.4123 22.6679 42.1939 22.4026 41.9583 22.151C41.7106 21.9218 41.4497 21.7072 41.177 21.5084C38.4056 19.7444 34.8456 19.6464 32.125 19.6684C30.6963 19.6764 29.0183 19.6737 27.3556 19.9384C25.8536 20.1784 24.3623 20.6317 23.075 21.5084C22.7976 21.7104 22.5383 21.9217 22.2936 22.151C22.0594 22.3999 21.8403 22.6655 21.6363 22.9477C20.7583 24.235 20.305 25.7264 20.065 27.231C19.801 28.8944 19.803 30.5704 19.793 31.999C19.773 34.7204 19.8736 38.279 21.6323 41.0504C21.839 41.335 22.061 41.605 22.2976 41.8517C22.5416 42.0784 22.8016 42.293 23.0736 42.4897C24.3603 43.3664 25.8523 43.823 27.357 44.0597C29.0196 44.3237 30.695 44.3217 32.1236 44.3317C32.897 44.3364 33.7363 44.3317 34.6056 44.2837M44.407 34.481C42.213 34.607 39.8236 35.013 37.8383 36.275C37.5668 36.4719 37.3081 36.6846 37.0623 36.913C36.8268 37.1646 36.6059 37.4317 36.3996 37.7144C35.1396 39.6997 34.729 42.0884 34.6056 44.2837M44.407 34.481L34.6056 44.2837" stroke="#D81159" stroke-width="1.5" stroke-linecap="round" stroke-linejoin="round"/>
</svg>
