<svg width="24" height="24" viewBox="0 0 24 24" fill="none" xmlns="http://www.w3.org/2000/svg">
<g clip-path="url(#clip0_1291_31459)">
<path d="M22 4.41016H15.243C14.8489 4.41011 14.4586 4.48771 14.0945 4.63854C13.7304 4.78936 13.3996 5.01044 13.121 5.28916L10 8.41016M19 13.4102H22M15.5 7.41016L13.5 9.41016C13.3687 9.54148 13.2645 9.69738 13.1934 9.86896C13.1224 10.0405 13.0858 10.2244 13.0858 10.4102C13.0858 10.5959 13.1224 10.7798 13.1934 10.9514C13.2645 11.1229 13.3687 11.2788 13.5 11.4102C13.6313 11.5415 13.7872 11.6456 13.9588 11.7167C14.1304 11.7878 14.3143 11.8244 14.5 11.8244C14.6857 11.8244 14.8696 11.7878 15.0412 11.7167C15.2128 11.6456 15.3687 11.5415 15.5 11.4102L17 9.91016C17.86 10.7702 19.223 10.8672 20.197 10.1372L20.5 9.91016" stroke="#37CD58" stroke-width="1.5" stroke-linecap="round" stroke-linejoin="round"/>
<path d="M19 10.9102V15.4102C19 17.2962 19 18.2382 18.414 18.8242C17.828 19.4102 16.886 19.4102 15 19.4102H6C4.114 19.4102 3.172 19.4102 2.586 18.8242C2 18.2382 2 17.2962 2 15.4102V12.4102C2 10.5242 2 9.58216 2.586 8.99616C3.172 8.41016 4.114 8.41016 6 8.41016H14.5" stroke="#37CD58" stroke-width="1.5" stroke-linecap="round" stroke-linejoin="round"/>
<path d="M8.75 13.9102C8.75 14.3743 8.93437 14.8194 9.26256 15.1476C9.59075 15.4758 10.0359 15.6602 10.5 15.6602C10.9641 15.6602 11.4092 15.4758 11.7374 15.1476C12.0656 14.8194 12.25 14.3743 12.25 13.9102C12.25 13.446 12.0656 13.0009 11.7374 12.6727C11.4092 12.3445 10.9641 12.1602 10.5 12.1602C10.0359 12.1602 9.59075 12.3445 9.26256 12.6727C8.93437 13.0009 8.75 13.446 8.75 13.9102Z" stroke="#37CD58" stroke-width="1.5" stroke-linecap="round" stroke-linejoin="round"/>
<rect width="6.09524" height="6.09524" rx="3.04762" transform="matrix(-1 0 0 1 7 0)" fill="#37CD58"/>
<path d="M2.64663 3.26493H3.73507V4.35337C3.73507 4.4731 3.83303 4.57106 3.95275 4.57106C4.07248 4.57106 4.17044 4.4731 4.17044 4.35337V3.26493H5.25888C5.3786 3.26493 5.47656 3.16697 5.47656 3.04725C5.47656 2.92752 5.3786 2.82956 5.25888 2.82956H4.17044V1.74112C4.17044 1.6214 4.07248 1.52344 3.95275 1.52344C3.83303 1.52344 3.73507 1.6214 3.73507 1.74112V2.82956H2.64663C2.5269 2.82956 2.42894 2.92752 2.42894 3.04725C2.42894 3.16697 2.5269 3.26493 2.64663 3.26493Z" fill="white"/>
</g>
<defs>
<clipPath id="clip0_1291_31459">
<rect width="24" height="24" fill="white" transform="matrix(-1 0 0 1 24 0)"/>
</clipPath>
</defs>
</svg>
