<svg width="40" height="40" viewBox="0 0 40 40" fill="none" xmlns="http://www.w3.org/2000/svg">
<rect width="40" height="40" rx="20" fill="#F7F7F7"/>
<path d="M20 28.75C19.8011 28.75 19.6103 28.671 19.4697 28.5303C19.329 28.3897 19.25 28.1989 19.25 28C19.25 27.8011 19.329 27.6103 19.4697 27.4697C19.6103 27.329 19.8011 27.25 20 27.25C21.9228 27.25 23.7669 26.4862 25.1265 25.1265C26.4862 23.7669 27.25 21.9228 27.25 20C27.25 18.0772 26.4862 16.2331 25.1265 14.8735C23.7669 13.5138 21.9228 12.75 20 12.75C19.8011 12.75 19.6103 12.671 19.4697 12.5303C19.329 12.3897 19.25 12.1989 19.25 12C19.25 11.8011 19.329 11.6103 19.4697 11.4697C19.6103 11.329 19.8011 11.25 20 11.25C22.3206 11.25 24.5462 12.1719 26.1872 13.8128C27.8281 15.4538 28.75 17.6794 28.75 20C28.75 22.3206 27.8281 24.5462 26.1872 26.1872C24.5462 27.8281 22.3206 28.75 20 28.75Z" fill="#FF5050"/>
<path d="M15.53 22.4692C15.6625 22.6114 15.7346 22.7994 15.7312 22.9937C15.7277 23.188 15.649 23.3734 15.5116 23.5108C15.3742 23.6482 15.1888 23.7269 14.9945 23.7304C14.8002 23.7338 14.6122 23.6617 14.47 23.5292L11.47 20.5292C11.3295 20.3886 11.2507 20.1979 11.2507 19.9992C11.2507 19.8004 11.3295 19.6098 11.47 19.4692L14.47 16.4692C14.5387 16.3955 14.6215 16.3364 14.7135 16.2954C14.8055 16.2544 14.9048 16.2324 15.0055 16.2306C15.1062 16.2288 15.2062 16.2473 15.2996 16.2851C15.393 16.3228 15.4778 16.3789 15.549 16.4501C15.6203 16.5214 15.6764 16.6062 15.7141 16.6996C15.7518 16.793 15.7704 16.893 15.7686 16.9937C15.7668 17.0944 15.7448 17.1937 15.7038 17.2857C15.6628 17.3777 15.6037 17.4605 15.53 17.5292L13.81 19.2492H22C22.1989 19.2492 22.3897 19.3282 22.5303 19.4688C22.671 19.6095 22.75 19.8003 22.75 19.9992C22.75 20.1981 22.671 20.3889 22.5303 20.5295C22.3897 20.6702 22.1989 20.7492 22 20.7492H13.81L15.53 22.4692Z" fill="#FF5050"/>
</svg>
