<svg width="48" height="24" viewBox="0 0 48 24" fill="none" xmlns="http://www.w3.org/2000/svg">
<rect width="48" height="24" rx="12" fill="#FF5050"/>
<path d="M12.4268 12.2627L11.415 12.0029L11.9141 7.04688H17.0205V8.21582H12.9873L12.6865 10.9229C12.8688 10.818 13.099 10.7201 13.377 10.6289C13.6595 10.5378 13.9831 10.4922 14.3477 10.4922C14.8079 10.4922 15.2204 10.5719 15.585 10.7314C15.9495 10.8864 16.2594 11.1097 16.5146 11.4014C16.7744 11.693 16.9727 12.0439 17.1094 12.4541C17.2461 12.8643 17.3145 13.3223 17.3145 13.8281C17.3145 14.3066 17.2484 14.7464 17.1162 15.1475C16.9886 15.5485 16.7949 15.8994 16.5352 16.2002C16.2754 16.4964 15.9473 16.7266 15.5508 16.8906C15.1589 17.0547 14.6963 17.1367 14.1631 17.1367C13.762 17.1367 13.3815 17.082 13.0215 16.9727C12.666 16.8587 12.347 16.6878 12.0645 16.46C11.7865 16.2275 11.5586 15.9404 11.3809 15.5986C11.2077 15.2523 11.0983 14.8467 11.0527 14.3818H12.2559C12.3105 14.7555 12.4199 15.07 12.584 15.3252C12.748 15.5804 12.9622 15.7741 13.2266 15.9062C13.4954 16.0339 13.8076 16.0977 14.1631 16.0977C14.4639 16.0977 14.7305 16.0452 14.9629 15.9404C15.1953 15.8356 15.3913 15.6852 15.5508 15.4893C15.7103 15.2933 15.8311 15.0563 15.9131 14.7783C15.9997 14.5003 16.043 14.1882 16.043 13.8418C16.043 13.5273 15.9997 13.2357 15.9131 12.9668C15.8265 12.6979 15.6966 12.4632 15.5234 12.2627C15.3548 12.0622 15.1475 11.9072 14.9014 11.7979C14.6553 11.6839 14.3727 11.627 14.0537 11.627C13.6299 11.627 13.3086 11.6839 13.0898 11.7979C12.8757 11.9118 12.6546 12.0667 12.4268 12.2627ZM18.7842 16.3301C18.7842 16.1159 18.8503 15.9359 18.9824 15.79C19.1191 15.6396 19.3151 15.5645 19.5703 15.5645C19.8255 15.5645 20.0192 15.6396 20.1514 15.79C20.2881 15.9359 20.3564 16.1159 20.3564 16.3301C20.3564 16.5397 20.2881 16.7174 20.1514 16.8633C20.0192 17.0091 19.8255 17.082 19.5703 17.082C19.3151 17.082 19.1191 17.0091 18.9824 16.8633C18.8503 16.7174 18.7842 16.5397 18.7842 16.3301ZM18.791 10.2939C18.791 10.0798 18.8571 9.89974 18.9893 9.75391C19.126 9.60352 19.3219 9.52832 19.5771 9.52832C19.8324 9.52832 20.026 9.60352 20.1582 9.75391C20.2949 9.89974 20.3633 10.0798 20.3633 10.2939C20.3633 10.5036 20.2949 10.6813 20.1582 10.8271C20.026 10.973 19.8324 11.0459 19.5771 11.0459C19.3219 11.0459 19.126 10.973 18.9893 10.8271C18.8571 10.6813 18.791 10.5036 18.791 10.2939ZM28.3408 11.2305V12.748C28.3408 13.5638 28.2679 14.252 28.1221 14.8125C27.9762 15.373 27.7666 15.8242 27.4932 16.166C27.2197 16.5078 26.8893 16.7562 26.502 16.9111C26.1191 17.0615 25.6862 17.1367 25.2031 17.1367C24.8203 17.1367 24.4671 17.0889 24.1436 16.9932C23.82 16.8975 23.5283 16.7448 23.2686 16.5352C23.0133 16.321 22.7946 16.043 22.6123 15.7012C22.43 15.3594 22.291 14.9447 22.1953 14.457C22.0996 13.9694 22.0518 13.3997 22.0518 12.748V11.2305C22.0518 10.4147 22.1247 9.73112 22.2705 9.17969C22.4209 8.62826 22.6328 8.1862 22.9062 7.85352C23.1797 7.51628 23.5078 7.27474 23.8906 7.12891C24.278 6.98307 24.7109 6.91016 25.1895 6.91016C25.5768 6.91016 25.9323 6.95801 26.2559 7.05371C26.584 7.14486 26.8757 7.29297 27.1309 7.49805C27.3861 7.69857 27.6025 7.96745 27.7803 8.30469C27.9626 8.63737 28.1016 9.04525 28.1973 9.52832C28.293 10.0114 28.3408 10.5788 28.3408 11.2305ZM27.0693 12.9531V11.0186C27.0693 10.5719 27.042 10.18 26.9873 9.84277C26.9372 9.50098 26.862 9.20931 26.7617 8.96777C26.6615 8.72624 26.5339 8.53027 26.3789 8.37988C26.2285 8.22949 26.0531 8.12012 25.8525 8.05176C25.6566 7.97884 25.4355 7.94238 25.1895 7.94238C24.8887 7.94238 24.6221 7.99935 24.3896 8.11328C24.1572 8.22266 23.9613 8.39811 23.8018 8.63965C23.6468 8.88118 23.5283 9.19792 23.4463 9.58984C23.3643 9.98177 23.3232 10.458 23.3232 11.0186V12.9531C23.3232 13.3997 23.3483 13.7939 23.3984 14.1357C23.4531 14.4775 23.5329 14.7738 23.6377 15.0244C23.7425 15.2705 23.8701 15.4733 24.0205 15.6328C24.1709 15.7923 24.3441 15.9108 24.54 15.9883C24.7406 16.0612 24.9616 16.0977 25.2031 16.0977C25.513 16.0977 25.7842 16.0384 26.0166 15.9199C26.249 15.8014 26.4427 15.6169 26.5977 15.3662C26.7572 15.111 26.8757 14.7852 26.9531 14.3887C27.0306 13.9876 27.0693 13.5091 27.0693 12.9531ZM36.6943 13.6504V14.6895H29.5029V13.9443L33.96 7.04688H34.9922L33.8848 9.04297L30.9385 13.6504H36.6943ZM35.3066 7.04688V17H34.042V7.04688H35.3066Z" fill="white"/>
</svg>
