<svg width="48" height="24" viewBox="0 0 48 24" fill="none" xmlns="http://www.w3.org/2000/svg">
<rect width="48" height="24" rx="12" fill="#FF5050"/>
<path d="M17.0752 11.2305V12.748C17.0752 13.5638 17.0023 14.252 16.8564 14.8125C16.7106 15.373 16.501 15.8242 16.2275 16.166C15.9541 16.5078 15.6237 16.7562 15.2363 16.9111C14.8535 17.0615 14.4206 17.1367 13.9375 17.1367C13.5547 17.1367 13.2015 17.0889 12.8779 16.9932C12.5544 16.8975 12.2627 16.7448 12.0029 16.5352C11.7477 16.321 11.529 16.043 11.3467 15.7012C11.1644 15.3594 11.0254 14.9447 10.9297 14.457C10.834 13.9694 10.7861 13.3997 10.7861 12.748V11.2305C10.7861 10.4147 10.859 9.73112 11.0049 9.17969C11.1553 8.62826 11.3672 8.1862 11.6406 7.85352C11.9141 7.51628 12.2422 7.27474 12.625 7.12891C13.0124 6.98307 13.4453 6.91016 13.9238 6.91016C14.3112 6.91016 14.6667 6.95801 14.9902 7.05371C15.3184 7.14486 15.61 7.29297 15.8652 7.49805C16.1204 7.69857 16.3369 7.96745 16.5146 8.30469C16.6969 8.63737 16.8359 9.04525 16.9316 9.52832C17.0273 10.0114 17.0752 10.5788 17.0752 11.2305ZM15.8037 12.9531V11.0186C15.8037 10.5719 15.7764 10.18 15.7217 9.84277C15.6715 9.50098 15.5964 9.20931 15.4961 8.96777C15.3958 8.72624 15.2682 8.53027 15.1133 8.37988C14.9629 8.22949 14.7874 8.12012 14.5869 8.05176C14.391 7.97884 14.1699 7.94238 13.9238 7.94238C13.623 7.94238 13.3564 7.99935 13.124 8.11328C12.8916 8.22266 12.6956 8.39811 12.5361 8.63965C12.3812 8.88118 12.2627 9.19792 12.1807 9.58984C12.0986 9.98177 12.0576 10.458 12.0576 11.0186V12.9531C12.0576 13.3997 12.0827 13.7939 12.1328 14.1357C12.1875 14.4775 12.2673 14.7738 12.3721 15.0244C12.4769 15.2705 12.6045 15.4733 12.7549 15.6328C12.9053 15.7923 13.0785 15.9108 13.2744 15.9883C13.4749 16.0612 13.696 16.0977 13.9375 16.0977C14.2474 16.0977 14.5186 16.0384 14.751 15.9199C14.9834 15.8014 15.1771 15.6169 15.332 15.3662C15.4915 15.111 15.61 14.7852 15.6875 14.3887C15.765 13.9876 15.8037 13.5091 15.8037 12.9531ZM18.7842 16.3301C18.7842 16.1159 18.8503 15.9359 18.9824 15.79C19.1191 15.6396 19.3151 15.5645 19.5703 15.5645C19.8255 15.5645 20.0192 15.6396 20.1514 15.79C20.2881 15.9359 20.3564 16.1159 20.3564 16.3301C20.3564 16.5397 20.2881 16.7174 20.1514 16.8633C20.0192 17.0091 19.8255 17.082 19.5703 17.082C19.3151 17.082 19.1191 17.0091 18.9824 16.8633C18.8503 16.7174 18.7842 16.5397 18.7842 16.3301ZM18.791 10.2939C18.791 10.0798 18.8571 9.89974 18.9893 9.75391C19.126 9.60352 19.3219 9.52832 19.5771 9.52832C19.8324 9.52832 20.026 9.60352 20.1582 9.75391C20.2949 9.89974 20.3633 10.0798 20.3633 10.2939C20.3633 10.5036 20.2949 10.6813 20.1582 10.8271C20.026 10.973 19.8324 11.0459 19.5771 11.0459C19.3219 11.0459 19.126 10.973 18.9893 10.8271C18.8571 10.6813 18.791 10.5036 18.791 10.2939ZM23.6924 12.2627L22.6807 12.0029L23.1797 7.04688H28.2861V8.21582H24.2529L23.9521 10.9229C24.1344 10.818 24.3646 10.7201 24.6426 10.6289C24.9251 10.5378 25.2487 10.4922 25.6133 10.4922C26.0736 10.4922 26.486 10.5719 26.8506 10.7314C27.2152 10.8864 27.5251 11.1097 27.7803 11.4014C28.04 11.693 28.2383 12.0439 28.375 12.4541C28.5117 12.8643 28.5801 13.3223 28.5801 13.8281C28.5801 14.3066 28.514 14.7464 28.3818 15.1475C28.2542 15.5485 28.0605 15.8994 27.8008 16.2002C27.541 16.4964 27.2129 16.7266 26.8164 16.8906C26.4245 17.0547 25.9619 17.1367 25.4287 17.1367C25.0277 17.1367 24.6471 17.082 24.2871 16.9727C23.9316 16.8587 23.6126 16.6878 23.3301 16.46C23.0521 16.2275 22.8242 15.9404 22.6465 15.5986C22.4733 15.2523 22.3639 14.8467 22.3184 14.3818H23.5215C23.5762 14.7555 23.6855 15.07 23.8496 15.3252C24.0137 15.5804 24.2279 15.7741 24.4922 15.9062C24.7611 16.0339 25.0732 16.0977 25.4287 16.0977C25.7295 16.0977 25.9961 16.0452 26.2285 15.9404C26.4609 15.8356 26.6569 15.6852 26.8164 15.4893C26.9759 15.2933 27.0967 15.0563 27.1787 14.7783C27.2653 14.5003 27.3086 14.1882 27.3086 13.8418C27.3086 13.5273 27.2653 13.2357 27.1787 12.9668C27.0921 12.6979 26.9622 12.4632 26.7891 12.2627C26.6204 12.0622 26.4131 11.9072 26.167 11.7979C25.9209 11.6839 25.6383 11.627 25.3193 11.627C24.8955 11.627 24.5742 11.6839 24.3555 11.7979C24.1413 11.9118 23.9202 12.0667 23.6924 12.2627ZM31.5674 12.2627L30.5557 12.0029L31.0547 7.04688H36.1611V8.21582H32.1279L31.8271 10.9229C32.0094 10.818 32.2396 10.7201 32.5176 10.6289C32.8001 10.5378 33.1237 10.4922 33.4883 10.4922C33.9486 10.4922 34.361 10.5719 34.7256 10.7314C35.0902 10.8864 35.4001 11.1097 35.6553 11.4014C35.915 11.693 36.1133 12.0439 36.25 12.4541C36.3867 12.8643 36.4551 13.3223 36.4551 13.8281C36.4551 14.3066 36.389 14.7464 36.2568 15.1475C36.1292 15.5485 35.9355 15.8994 35.6758 16.2002C35.416 16.4964 35.0879 16.7266 34.6914 16.8906C34.2995 17.0547 33.8369 17.1367 33.3037 17.1367C32.9027 17.1367 32.5221 17.082 32.1621 16.9727C31.8066 16.8587 31.4876 16.6878 31.2051 16.46C30.9271 16.2275 30.6992 15.9404 30.5215 15.5986C30.3483 15.2523 30.2389 14.8467 30.1934 14.3818H31.3965C31.4512 14.7555 31.5605 15.07 31.7246 15.3252C31.8887 15.5804 32.1029 15.7741 32.3672 15.9062C32.6361 16.0339 32.9482 16.0977 33.3037 16.0977C33.6045 16.0977 33.8711 16.0452 34.1035 15.9404C34.3359 15.8356 34.5319 15.6852 34.6914 15.4893C34.8509 15.2933 34.9717 15.0563 35.0537 14.7783C35.1403 14.5003 35.1836 14.1882 35.1836 13.8418C35.1836 13.5273 35.1403 13.2357 35.0537 12.9668C34.9671 12.6979 34.8372 12.4632 34.6641 12.2627C34.4954 12.0622 34.2881 11.9072 34.042 11.7979C33.7959 11.6839 33.5133 11.627 33.1943 11.627C32.7705 11.627 32.4492 11.6839 32.2305 11.7979C32.0163 11.9118 31.7952 12.0667 31.5674 12.2627Z" fill="white"/>
</svg>
