<svg width="48" height="24" viewBox="0 0 48 24" fill="none" xmlns="http://www.w3.org/2000/svg">
<rect width="48" height="24" rx="12" fill="#FFA448"/>
<path d="M20.9834 6.99219V17H19.7188V8.57129L17.1689 9.50098V8.35938L20.7852 6.99219H20.9834ZM30.9502 11.2305V12.748C30.9502 13.5638 30.8773 14.252 30.7314 14.8125C30.5856 15.373 30.376 15.8242 30.1025 16.166C29.8291 16.5078 29.4987 16.7562 29.1113 16.9111C28.7285 17.0615 28.2956 17.1367 27.8125 17.1367C27.4297 17.1367 27.0765 17.0889 26.7529 16.9932C26.4294 16.8975 26.1377 16.7448 25.8779 16.5352C25.6227 16.321 25.404 16.043 25.2217 15.7012C25.0394 15.3594 24.9004 14.9447 24.8047 14.457C24.709 13.9694 24.6611 13.3997 24.6611 12.748V11.2305C24.6611 10.4147 24.734 9.73112 24.8799 9.17969C25.0303 8.62826 25.2422 8.1862 25.5156 7.85352C25.7891 7.51628 26.1172 7.27474 26.5 7.12891C26.8874 6.98307 27.3203 6.91016 27.7988 6.91016C28.1862 6.91016 28.5417 6.95801 28.8652 7.05371C29.1934 7.14486 29.485 7.29297 29.7402 7.49805C29.9954 7.69857 30.2119 7.96745 30.3896 8.30469C30.5719 8.63737 30.7109 9.04525 30.8066 9.52832C30.9023 10.0114 30.9502 10.5788 30.9502 11.2305ZM29.6787 12.9531V11.0186C29.6787 10.5719 29.6514 10.18 29.5967 9.84277C29.5465 9.50098 29.4714 9.20931 29.3711 8.96777C29.2708 8.72624 29.1432 8.53027 28.9883 8.37988C28.8379 8.22949 28.6624 8.12012 28.4619 8.05176C28.266 7.97884 28.0449 7.94238 27.7988 7.94238C27.498 7.94238 27.2314 7.99935 26.999 8.11328C26.7666 8.22266 26.5706 8.39811 26.4111 8.63965C26.2562 8.88118 26.1377 9.19792 26.0557 9.58984C25.9736 9.98177 25.9326 10.458 25.9326 11.0186V12.9531C25.9326 13.3997 25.9577 13.7939 26.0078 14.1357C26.0625 14.4775 26.1423 14.7738 26.2471 15.0244C26.3519 15.2705 26.4795 15.4733 26.6299 15.6328C26.7803 15.7923 26.9535 15.9108 27.1494 15.9883C27.3499 16.0612 27.571 16.0977 27.8125 16.0977C28.1224 16.0977 28.3936 16.0384 28.626 15.9199C28.8584 15.8014 29.0521 15.6169 29.207 15.3662C29.3665 15.111 29.485 14.7852 29.5625 14.3887C29.64 13.9876 29.6787 13.5091 29.6787 12.9531Z" fill="white"/>
</svg>
