<svg width="48" height="24" viewBox="0 0 48 24" fill="none" xmlns="http://www.w3.org/2000/svg">
<rect width="48" height="24" rx="12" fill="#FF5050"/>
<path d="M11.4834 6.99219V17H10.2188V8.57129L7.66895 9.50098V8.35938L11.2852 6.99219H11.4834ZM21.4502 11.2305V12.748C21.4502 13.5638 21.3773 14.252 21.2314 14.8125C21.0856 15.373 20.876 15.8242 20.6025 16.166C20.3291 16.5078 19.9987 16.7562 19.6113 16.9111C19.2285 17.0615 18.7956 17.1367 18.3125 17.1367C17.9297 17.1367 17.5765 17.0889 17.2529 16.9932C16.9294 16.8975 16.6377 16.7448 16.3779 16.5352C16.1227 16.321 15.904 16.043 15.7217 15.7012C15.5394 15.3594 15.4004 14.9447 15.3047 14.457C15.209 13.9694 15.1611 13.3997 15.1611 12.748V11.2305C15.1611 10.4147 15.234 9.73112 15.3799 9.17969C15.5303 8.62826 15.7422 8.1862 16.0156 7.85352C16.2891 7.51628 16.6172 7.27474 17 7.12891C17.3874 6.98307 17.8203 6.91016 18.2988 6.91016C18.6862 6.91016 19.0417 6.95801 19.3652 7.05371C19.6934 7.14486 19.985 7.29297 20.2402 7.49805C20.4954 7.69857 20.7119 7.96745 20.8896 8.30469C21.0719 8.63737 21.2109 9.04525 21.3066 9.52832C21.4023 10.0114 21.4502 10.5788 21.4502 11.2305ZM20.1787 12.9531V11.0186C20.1787 10.5719 20.1514 10.18 20.0967 9.84277C20.0465 9.50098 19.9714 9.20931 19.8711 8.96777C19.7708 8.72624 19.6432 8.53027 19.4883 8.37988C19.3379 8.22949 19.1624 8.12012 18.9619 8.05176C18.766 7.97884 18.5449 7.94238 18.2988 7.94238C17.998 7.94238 17.7314 7.99935 17.499 8.11328C17.2666 8.22266 17.0706 8.39811 16.9111 8.63965C16.7562 8.88118 16.6377 9.19792 16.5557 9.58984C16.4736 9.98177 16.4326 10.458 16.4326 11.0186V12.9531C16.4326 13.3997 16.4577 13.7939 16.5078 14.1357C16.5625 14.4775 16.6423 14.7738 16.7471 15.0244C16.8519 15.2705 16.9795 15.4733 17.1299 15.6328C17.2803 15.7923 17.4535 15.9108 17.6494 15.9883C17.8499 16.0612 18.071 16.0977 18.3125 16.0977C18.6224 16.0977 18.8936 16.0384 19.126 15.9199C19.3584 15.8014 19.5521 15.6169 19.707 15.3662C19.8665 15.111 19.985 14.7852 20.0625 14.3887C20.14 13.9876 20.1787 13.5091 20.1787 12.9531ZM23.1592 16.3301C23.1592 16.1159 23.2253 15.9359 23.3574 15.79C23.4941 15.6396 23.6901 15.5645 23.9453 15.5645C24.2005 15.5645 24.3942 15.6396 24.5264 15.79C24.6631 15.9359 24.7314 16.1159 24.7314 16.3301C24.7314 16.5397 24.6631 16.7174 24.5264 16.8633C24.3942 17.0091 24.2005 17.082 23.9453 17.082C23.6901 17.082 23.4941 17.0091 23.3574 16.8633C23.2253 16.7174 23.1592 16.5397 23.1592 16.3301ZM23.166 10.2939C23.166 10.0798 23.2321 9.89974 23.3643 9.75391C23.501 9.60352 23.6969 9.52832 23.9521 9.52832C24.2074 9.52832 24.401 9.60352 24.5332 9.75391C24.6699 9.89974 24.7383 10.0798 24.7383 10.2939C24.7383 10.5036 24.6699 10.6813 24.5332 10.8271C24.401 10.973 24.2074 11.0459 23.9521 11.0459C23.6969 11.0459 23.501 10.973 23.3643 10.8271C23.2321 10.6813 23.166 10.5036 23.166 10.2939ZM30.624 6.99219V17H29.3594V8.57129L26.8096 9.50098V8.35938L30.4258 6.99219H30.624ZM40.5908 11.2305V12.748C40.5908 13.5638 40.5179 14.252 40.3721 14.8125C40.2262 15.373 40.0166 15.8242 39.7432 16.166C39.4697 16.5078 39.1393 16.7562 38.752 16.9111C38.3691 17.0615 37.9362 17.1367 37.4531 17.1367C37.0703 17.1367 36.7171 17.0889 36.3936 16.9932C36.07 16.8975 35.7783 16.7448 35.5186 16.5352C35.2633 16.321 35.0446 16.043 34.8623 15.7012C34.68 15.3594 34.541 14.9447 34.4453 14.457C34.3496 13.9694 34.3018 13.3997 34.3018 12.748V11.2305C34.3018 10.4147 34.3747 9.73112 34.5205 9.17969C34.6709 8.62826 34.8828 8.1862 35.1562 7.85352C35.4297 7.51628 35.7578 7.27474 36.1406 7.12891C36.528 6.98307 36.9609 6.91016 37.4395 6.91016C37.8268 6.91016 38.1823 6.95801 38.5059 7.05371C38.834 7.14486 39.1257 7.29297 39.3809 7.49805C39.6361 7.69857 39.8525 7.96745 40.0303 8.30469C40.2126 8.63737 40.3516 9.04525 40.4473 9.52832C40.543 10.0114 40.5908 10.5788 40.5908 11.2305ZM39.3193 12.9531V11.0186C39.3193 10.5719 39.292 10.18 39.2373 9.84277C39.1872 9.50098 39.112 9.20931 39.0117 8.96777C38.9115 8.72624 38.7839 8.53027 38.6289 8.37988C38.4785 8.22949 38.3031 8.12012 38.1025 8.05176C37.9066 7.97884 37.6855 7.94238 37.4395 7.94238C37.1387 7.94238 36.8721 7.99935 36.6396 8.11328C36.4072 8.22266 36.2113 8.39811 36.0518 8.63965C35.8968 8.88118 35.7783 9.19792 35.6963 9.58984C35.6143 9.98177 35.5732 10.458 35.5732 11.0186V12.9531C35.5732 13.3997 35.5983 13.7939 35.6484 14.1357C35.7031 14.4775 35.7829 14.7738 35.8877 15.0244C35.9925 15.2705 36.1201 15.4733 36.2705 15.6328C36.4209 15.7923 36.5941 15.9108 36.79 15.9883C36.9906 16.0612 37.2116 16.0977 37.4531 16.0977C37.763 16.0977 38.0342 16.0384 38.2666 15.9199C38.499 15.8014 38.6927 15.6169 38.8477 15.3662C39.0072 15.111 39.1257 14.7852 39.2031 14.3887C39.2806 13.9876 39.3193 13.5091 39.3193 12.9531Z" fill="white"/>
</svg>
