<svg width="48" height="24" viewBox="0 0 48 24" fill="none" xmlns="http://www.w3.org/2000/svg">
<rect width="48" height="24" rx="12" fill="#FF5050"/>
<path d="M13.8486 15.9609V17H7.33398V16.0908L10.5947 12.4609C10.9958 12.0143 11.3057 11.6361 11.5244 11.3262C11.7477 11.0117 11.9027 10.7314 11.9893 10.4854C12.0804 10.2347 12.126 9.97949 12.126 9.71973C12.126 9.3916 12.0576 9.09538 11.9209 8.83105C11.7887 8.56217 11.5928 8.34798 11.333 8.18848C11.0732 8.02897 10.7588 7.94922 10.3896 7.94922C9.94759 7.94922 9.57845 8.03581 9.28223 8.20898C8.99056 8.3776 8.77181 8.61458 8.62598 8.91992C8.48014 9.22526 8.40723 9.57617 8.40723 9.97266H7.14258C7.14258 9.41211 7.26562 8.89941 7.51172 8.43457C7.75781 7.96973 8.1224 7.60059 8.60547 7.32715C9.08854 7.04915 9.68327 6.91016 10.3896 6.91016C11.0186 6.91016 11.5563 7.02181 12.0029 7.24512C12.4495 7.46387 12.7913 7.77376 13.0283 8.1748C13.2699 8.57129 13.3906 9.03613 13.3906 9.56934C13.3906 9.861 13.3405 10.1572 13.2402 10.458C13.1445 10.7542 13.0101 11.0505 12.8369 11.3467C12.6683 11.6429 12.4701 11.9346 12.2422 12.2217C12.0189 12.5088 11.7796 12.7913 11.5244 13.0693L8.8584 15.9609H13.8486ZM21.7236 15.9609V17H15.209V16.0908L18.4697 12.4609C18.8708 12.0143 19.1807 11.6361 19.3994 11.3262C19.6227 11.0117 19.7777 10.7314 19.8643 10.4854C19.9554 10.2347 20.001 9.97949 20.001 9.71973C20.001 9.3916 19.9326 9.09538 19.7959 8.83105C19.6637 8.56217 19.4678 8.34798 19.208 8.18848C18.9482 8.02897 18.6338 7.94922 18.2646 7.94922C17.8226 7.94922 17.4535 8.03581 17.1572 8.20898C16.8656 8.3776 16.6468 8.61458 16.501 8.91992C16.3551 9.22526 16.2822 9.57617 16.2822 9.97266H15.0176C15.0176 9.41211 15.1406 8.89941 15.3867 8.43457C15.6328 7.96973 15.9974 7.60059 16.4805 7.32715C16.9635 7.04915 17.5583 6.91016 18.2646 6.91016C18.8936 6.91016 19.4313 7.02181 19.8779 7.24512C20.3245 7.46387 20.6663 7.77376 20.9033 8.1748C21.1449 8.57129 21.2656 9.03613 21.2656 9.56934C21.2656 9.861 21.2155 10.1572 21.1152 10.458C21.0195 10.7542 20.8851 11.0505 20.7119 11.3467C20.5433 11.6429 20.3451 11.9346 20.1172 12.2217C19.8939 12.5088 19.6546 12.7913 19.3994 13.0693L16.7334 15.9609H21.7236ZM23.1592 16.3301C23.1592 16.1159 23.2253 15.9359 23.3574 15.79C23.4941 15.6396 23.6901 15.5645 23.9453 15.5645C24.2005 15.5645 24.3942 15.6396 24.5264 15.79C24.6631 15.9359 24.7314 16.1159 24.7314 16.3301C24.7314 16.5397 24.6631 16.7174 24.5264 16.8633C24.3942 17.0091 24.2005 17.082 23.9453 17.082C23.6901 17.082 23.4941 17.0091 23.3574 16.8633C23.2253 16.7174 23.1592 16.5397 23.1592 16.3301ZM23.166 10.2939C23.166 10.0798 23.2321 9.89974 23.3643 9.75391C23.501 9.60352 23.6969 9.52832 23.9521 9.52832C24.2074 9.52832 24.401 9.60352 24.5332 9.75391C24.6699 9.89974 24.7383 10.0798 24.7383 10.2939C24.7383 10.5036 24.6699 10.6813 24.5332 10.8271C24.401 10.973 24.2074 11.0459 23.9521 11.0459C23.6969 11.0459 23.501 10.973 23.3643 10.8271C23.2321 10.6813 23.166 10.5036 23.166 10.2939ZM30.624 6.99219V17H29.3594V8.57129L26.8096 9.50098V8.35938L30.4258 6.99219H30.624ZM40.7754 7.04688V7.75781L36.6533 17H35.3203L39.4355 8.08594H34.0488V7.04688H40.7754Z" fill="white"/>
</svg>
