<svg width="48" height="24" viewBox="0 0 48 24" fill="none" xmlns="http://www.w3.org/2000/svg">
<rect width="48" height="24" rx="12" fill="#FF5050"/>
<path d="M9.17285 11.4014H10.0752C10.5173 11.4014 10.8818 11.3285 11.1689 11.1826C11.4606 11.0322 11.6771 10.8294 11.8184 10.5742C11.9642 10.3145 12.0371 10.0228 12.0371 9.69922C12.0371 9.31641 11.9733 8.99512 11.8457 8.73535C11.7181 8.47559 11.5267 8.27962 11.2715 8.14746C11.0163 8.0153 10.6927 7.94922 10.3008 7.94922C9.94531 7.94922 9.63086 8.01986 9.35742 8.16113C9.08854 8.29785 8.87663 8.49382 8.72168 8.74902C8.57129 9.00423 8.49609 9.30501 8.49609 9.65137H7.23145C7.23145 9.14551 7.35905 8.68522 7.61426 8.27051C7.86947 7.85579 8.22721 7.52539 8.6875 7.2793C9.15234 7.0332 9.6901 6.91016 10.3008 6.91016C10.9023 6.91016 11.4287 7.01725 11.8799 7.23145C12.3311 7.44108 12.682 7.75553 12.9326 8.1748C13.1833 8.58952 13.3086 9.10677 13.3086 9.72656C13.3086 9.97721 13.2493 10.2461 13.1309 10.5332C13.0169 10.8158 12.8369 11.0801 12.5908 11.3262C12.3493 11.5723 12.0348 11.7751 11.6475 11.9346C11.2601 12.0895 10.7952 12.167 10.2529 12.167H9.17285V11.4014ZM9.17285 12.4404V11.6816H10.2529C10.8864 11.6816 11.4105 11.7568 11.8252 11.9072C12.2399 12.0576 12.5658 12.2581 12.8027 12.5088C13.0443 12.7594 13.2129 13.0352 13.3086 13.3359C13.4089 13.6322 13.459 13.9284 13.459 14.2246C13.459 14.6895 13.3792 15.1019 13.2197 15.4619C13.0648 15.8219 12.8438 16.1273 12.5566 16.3779C12.2741 16.6286 11.9414 16.8177 11.5586 16.9453C11.1758 17.0729 10.7588 17.1367 10.3076 17.1367C9.87467 17.1367 9.4668 17.0752 9.08398 16.9521C8.70573 16.8291 8.37077 16.6514 8.0791 16.4189C7.78743 16.182 7.55957 15.8926 7.39551 15.5508C7.23145 15.2044 7.14941 14.8102 7.14941 14.3682H8.41406C8.41406 14.7145 8.48926 15.0176 8.63965 15.2773C8.7946 15.5371 9.01335 15.7399 9.2959 15.8857C9.58301 16.027 9.92025 16.0977 10.3076 16.0977C10.695 16.0977 11.0277 16.0316 11.3057 15.8994C11.5882 15.7627 11.8047 15.5576 11.9551 15.2842C12.11 15.0107 12.1875 14.6667 12.1875 14.252C12.1875 13.8372 12.1009 13.4977 11.9277 13.2334C11.7546 12.9645 11.5085 12.7663 11.1895 12.6387C10.875 12.5065 10.5036 12.4404 10.0752 12.4404H9.17285ZM21.4502 11.2305V12.748C21.4502 13.5638 21.3773 14.252 21.2314 14.8125C21.0856 15.373 20.876 15.8242 20.6025 16.166C20.3291 16.5078 19.9987 16.7562 19.6113 16.9111C19.2285 17.0615 18.7956 17.1367 18.3125 17.1367C17.9297 17.1367 17.5765 17.0889 17.2529 16.9932C16.9294 16.8975 16.6377 16.7448 16.3779 16.5352C16.1227 16.321 15.904 16.043 15.7217 15.7012C15.5394 15.3594 15.4004 14.9447 15.3047 14.457C15.209 13.9694 15.1611 13.3997 15.1611 12.748V11.2305C15.1611 10.4147 15.234 9.73112 15.3799 9.17969C15.5303 8.62826 15.7422 8.1862 16.0156 7.85352C16.2891 7.51628 16.6172 7.27474 17 7.12891C17.3874 6.98307 17.8203 6.91016 18.2988 6.91016C18.6862 6.91016 19.0417 6.95801 19.3652 7.05371C19.6934 7.14486 19.985 7.29297 20.2402 7.49805C20.4954 7.69857 20.7119 7.96745 20.8896 8.30469C21.0719 8.63737 21.2109 9.04525 21.3066 9.52832C21.4023 10.0114 21.4502 10.5788 21.4502 11.2305ZM20.1787 12.9531V11.0186C20.1787 10.5719 20.1514 10.18 20.0967 9.84277C20.0465 9.50098 19.9714 9.20931 19.8711 8.96777C19.7708 8.72624 19.6432 8.53027 19.4883 8.37988C19.3379 8.22949 19.1624 8.12012 18.9619 8.05176C18.766 7.97884 18.5449 7.94238 18.2988 7.94238C17.998 7.94238 17.7314 7.99935 17.499 8.11328C17.2666 8.22266 17.0706 8.39811 16.9111 8.63965C16.7562 8.88118 16.6377 9.19792 16.5557 9.58984C16.4736 9.98177 16.4326 10.458 16.4326 11.0186V12.9531C16.4326 13.3997 16.4577 13.7939 16.5078 14.1357C16.5625 14.4775 16.6423 14.7738 16.7471 15.0244C16.8519 15.2705 16.9795 15.4733 17.1299 15.6328C17.2803 15.7923 17.4535 15.9108 17.6494 15.9883C17.8499 16.0612 18.071 16.0977 18.3125 16.0977C18.6224 16.0977 18.8936 16.0384 19.126 15.9199C19.3584 15.8014 19.5521 15.6169 19.707 15.3662C19.8665 15.111 19.985 14.7852 20.0625 14.3887C20.14 13.9876 20.1787 13.5091 20.1787 12.9531ZM23.1592 16.3301C23.1592 16.1159 23.2253 15.9359 23.3574 15.79C23.4941 15.6396 23.6901 15.5645 23.9453 15.5645C24.2005 15.5645 24.3942 15.6396 24.5264 15.79C24.6631 15.9359 24.7314 16.1159 24.7314 16.3301C24.7314 16.5397 24.6631 16.7174 24.5264 16.8633C24.3942 17.0091 24.2005 17.082 23.9453 17.082C23.6901 17.082 23.4941 17.0091 23.3574 16.8633C23.2253 16.7174 23.1592 16.5397 23.1592 16.3301ZM23.166 10.2939C23.166 10.0798 23.2321 9.89974 23.3643 9.75391C23.501 9.60352 23.6969 9.52832 23.9521 9.52832C24.2074 9.52832 24.401 9.60352 24.5332 9.75391C24.6699 9.89974 24.7383 10.0798 24.7383 10.2939C24.7383 10.5036 24.6699 10.6813 24.5332 10.8271C24.401 10.973 24.2074 11.0459 23.9521 11.0459C23.6969 11.0459 23.501 10.973 23.3643 10.8271C23.2321 10.6813 23.166 10.5036 23.166 10.2939ZM32.7158 11.2305V12.748C32.7158 13.5638 32.6429 14.252 32.4971 14.8125C32.3512 15.373 32.1416 15.8242 31.8682 16.166C31.5947 16.5078 31.2643 16.7562 30.877 16.9111C30.4941 17.0615 30.0612 17.1367 29.5781 17.1367C29.1953 17.1367 28.8421 17.0889 28.5186 16.9932C28.195 16.8975 27.9033 16.7448 27.6436 16.5352C27.3883 16.321 27.1696 16.043 26.9873 15.7012C26.805 15.3594 26.666 14.9447 26.5703 14.457C26.4746 13.9694 26.4268 13.3997 26.4268 12.748V11.2305C26.4268 10.4147 26.4997 9.73112 26.6455 9.17969C26.7959 8.62826 27.0078 8.1862 27.2812 7.85352C27.5547 7.51628 27.8828 7.27474 28.2656 7.12891C28.653 6.98307 29.0859 6.91016 29.5645 6.91016C29.9518 6.91016 30.3073 6.95801 30.6309 7.05371C30.959 7.14486 31.2507 7.29297 31.5059 7.49805C31.7611 7.69857 31.9775 7.96745 32.1553 8.30469C32.3376 8.63737 32.4766 9.04525 32.5723 9.52832C32.668 10.0114 32.7158 10.5788 32.7158 11.2305ZM31.4443 12.9531V11.0186C31.4443 10.5719 31.417 10.18 31.3623 9.84277C31.3122 9.50098 31.237 9.20931 31.1367 8.96777C31.0365 8.72624 30.9089 8.53027 30.7539 8.37988C30.6035 8.22949 30.4281 8.12012 30.2275 8.05176C30.0316 7.97884 29.8105 7.94238 29.5645 7.94238C29.2637 7.94238 28.9971 7.99935 28.7646 8.11328C28.5322 8.22266 28.3363 8.39811 28.1768 8.63965C28.0218 8.88118 27.9033 9.19792 27.8213 9.58984C27.7393 9.98177 27.6982 10.458 27.6982 11.0186V12.9531C27.6982 13.3997 27.7233 13.7939 27.7734 14.1357C27.8281 14.4775 27.9079 14.7738 28.0127 15.0244C28.1175 15.2705 28.2451 15.4733 28.3955 15.6328C28.5459 15.7923 28.7191 15.9108 28.915 15.9883C29.1156 16.0612 29.3366 16.0977 29.5781 16.0977C29.888 16.0977 30.1592 16.0384 30.3916 15.9199C30.624 15.8014 30.8177 15.6169 30.9727 15.3662C31.1322 15.111 31.2507 14.7852 31.3281 14.3887C31.4056 13.9876 31.4443 13.5091 31.4443 12.9531ZM40.7754 7.04688V7.75781L36.6533 17H35.3203L39.4355 8.08594H34.0488V7.04688H40.7754Z" fill="white"/>
</svg>
