<svg width="40" height="40" viewBox="0 0 40 40" fill="none" xmlns="http://www.w3.org/2000/svg">
<rect width="40" height="40" rx="20" fill="#F7F7F7"/>
<path d="M20 20C21.1934 20 22.338 19.5259 23.1819 18.682C24.0259 17.8381 24.5 16.6935 24.5 15.5C24.5 14.3065 24.0259 13.1619 23.1819 12.318C22.338 11.4741 21.1934 11 20 11C18.8065 11 17.6619 11.4741 16.818 12.318C15.9741 13.1619 15.5 14.3065 15.5 15.5C15.5 16.6935 15.9741 17.8381 16.818 18.682C17.6619 19.5259 18.8065 20 20 20ZM27.1025 29C28.0295 29 28.742 28.1585 28.4105 27.2915C27.7602 25.5876 26.6077 24.1214 25.1057 23.0869C23.6037 22.0525 21.823 21.4986 19.9992 21.4986C18.1754 21.4986 16.3947 22.0525 14.8927 23.0869C13.3907 24.1214 12.2382 25.5876 11.588 27.2915C11.258 28.1585 11.969 29 12.896 29H27.1025Z" fill="#282828"/>
</svg>
