<svg width="392" height="22" viewBox="0 0 392 22" fill="none" xmlns="http://www.w3.org/2000/svg">
<rect y="5" width="358" height="12" rx="6" fill="#48A0FF" fill-opacity="0.4"/>
<rect y="5" width="268.5" height="12" rx="6" fill="#48A0FF"/>
<path d="M372.687 10.2783H373.671C374.054 10.2783 374.37 10.2122 374.621 10.0801C374.876 9.94792 375.065 9.76562 375.188 9.5332C375.312 9.30078 375.373 9.03418 375.373 8.7334C375.373 8.41895 375.316 8.15007 375.202 7.92676C375.093 7.69889 374.924 7.52344 374.696 7.40039C374.473 7.27734 374.188 7.21582 373.842 7.21582C373.55 7.21582 373.286 7.27507 373.049 7.39355C372.816 7.50749 372.632 7.67155 372.495 7.88574C372.358 8.09538 372.29 8.34603 372.29 8.6377H370.636C370.636 8.10905 370.775 7.63965 371.053 7.22949C371.331 6.81934 371.709 6.49805 372.188 6.26562C372.671 6.02865 373.213 5.91016 373.814 5.91016C374.457 5.91016 375.018 6.01725 375.496 6.23145C375.979 6.44108 376.355 6.75553 376.624 7.1748C376.893 7.59408 377.027 8.11361 377.027 8.7334C377.027 9.01595 376.961 9.30306 376.829 9.59473C376.697 9.88639 376.501 10.153 376.241 10.3945C375.981 10.6315 375.658 10.8252 375.271 10.9756C374.883 11.1214 374.434 11.1943 373.924 11.1943H372.687V10.2783ZM372.687 11.5635V10.6611H373.924C374.507 10.6611 375.004 10.7295 375.414 10.8662C375.829 11.0029 376.166 11.1921 376.426 11.4336C376.686 11.6706 376.875 11.9417 376.993 12.2471C377.116 12.5524 377.178 12.876 377.178 13.2178C377.178 13.6826 377.093 14.0973 376.925 14.4619C376.761 14.8219 376.526 15.1273 376.221 15.3779C375.915 15.6286 375.558 15.8177 375.147 15.9453C374.742 16.0729 374.3 16.1367 373.821 16.1367C373.393 16.1367 372.983 16.0775 372.591 15.959C372.199 15.8405 371.848 15.665 371.538 15.4326C371.228 15.1956 370.982 14.9017 370.8 14.5508C370.622 14.1953 370.533 13.7852 370.533 13.3203H372.181C372.181 13.6165 372.249 13.8786 372.386 14.1064C372.527 14.3298 372.723 14.5052 372.974 14.6328C373.229 14.7604 373.521 14.8242 373.849 14.8242C374.195 14.8242 374.493 14.7627 374.744 14.6396C374.995 14.5166 375.186 14.3343 375.318 14.0928C375.455 13.8512 375.523 13.5596 375.523 13.2178C375.523 12.8304 375.448 12.516 375.298 12.2744C375.147 12.0329 374.933 11.8551 374.655 11.7412C374.377 11.6227 374.049 11.5635 373.671 11.5635H372.687ZM383.132 6.04688L379.256 16.8545H377.964L381.847 6.04688H383.132ZM391.034 12.4521V13.7646H383.856L383.802 12.7734L388.095 6.04688H389.414L387.985 8.49414L385.518 12.4521H391.034ZM389.79 6.04688V16H388.143V6.04688H389.79Z" fill="#282828"/>
</svg>
