<svg width="40" height="40" viewBox="0 0 40 40" fill="none" xmlns="http://www.w3.org/2000/svg">
<rect width="40" height="40" rx="20" fill="#F7F7F7"/>
<path d="M20.63 10C26.16 10 30.64 14.5 30.64 20C30.64 25.5 26.16 30 20.63 30C17.12 30 14.05 28.18 12.26 25.43L13.84 24.18C15.25 26.47 17.76 28 20.64 28C22.7617 28 24.7966 27.1571 26.2969 25.6569C27.7971 24.1566 28.64 22.1217 28.64 20C28.64 17.8783 27.7971 15.8434 26.2969 14.3431C24.7966 12.8429 22.7617 12 20.64 12C16.56 12 13.2 15.06 12.71 19H15.47L11.73 22.73L8 19H10.69C11.19 13.95 15.45 10 20.63 10ZM23.59 18.24C24.09 18.25 24.5 18.65 24.5 19.16V23.77C24.5 24.27 24.09 24.69 23.58 24.69H18.05C17.54 24.69 17.13 24.27 17.13 23.77V19.16C17.13 18.65 17.54 18.25 18.04 18.24V17.23C18.04 15.7 19.29 14.46 20.81 14.46C22.34 14.46 23.59 15.7 23.59 17.23V18.24ZM20.81 15.86C20.06 15.86 19.44 16.47 19.44 17.23V18.24H22.19V17.23C22.19 16.47 21.57 15.86 20.81 15.86Z" fill="#282828"/>
</svg>
