<svg width="18" height="18" viewBox="0 0 18 18" fill="none" xmlns="http://www.w3.org/2000/svg">
<path d="M16.9998 17L13.1394 13.1396M13.1394 13.1396C13.7997 12.4793 14.3235 11.6953 14.6809 10.8326C15.0382 9.96978 15.2222 9.04507 15.2222 8.11121C15.2222 7.17735 15.0382 6.25264 14.6809 5.38987C14.3235 4.5271 13.7997 3.74316 13.1394 3.08283C12.479 2.42249 11.6951 1.89868 10.8323 1.54131C9.96954 1.18394 9.04483 1 8.11097 1C7.17711 1 6.2524 1.18394 5.38963 1.54131C4.52685 1.89868 3.74292 2.42249 3.08258 3.08283C1.74897 4.41644 0.999756 6.2252 0.999756 8.11121C0.999756 9.99722 1.74897 11.806 3.08258 13.1396C4.41619 14.4732 6.22496 15.2224 8.11097 15.2224C9.99698 15.2224 11.8057 14.4732 13.1394 13.1396Z" stroke="#282828" stroke-width="1.33332" stroke-linecap="round" stroke-linejoin="round"/>
</svg>
