<svg width="32" height="32" viewBox="0 0 32 32" fill="none" xmlns="http://www.w3.org/2000/svg">
<rect width="32" height="32" rx="16" fill="#37CD58" fill-opacity="0.4"/>
<path d="M11.8171 11.7997H13.299V14.4993H10.1298L10.9847 12.3649C11.1197 12.0247 11.4487 11.7997 11.8171 11.7997ZM14.6488 14.4993V11.7997H16.9322C17.205 11.7997 17.4637 11.9234 17.6352 12.1372L19.5249 14.4993H14.6488ZM21.8533 14.5274L19.0412 11.0123C18.5294 10.3712 17.7533 10 16.9322 10H11.8171C10.7119 10 9.71926 10.6721 9.31151 11.6957L8.1417 14.623C7.47243 14.8874 7 15.5369 7 16.299V19.4485C7 19.9463 7.40212 20.3484 7.89986 20.3484H8.83628C9.04999 21.6251 10.1608 22.598 11.4993 22.598C12.8378 22.598 13.9486 21.6251 14.1623 20.3484H17.8377C18.0514 21.6251 19.1622 22.598 20.5007 22.598C21.8392 22.598 22.95 21.6251 23.1637 20.3484H24.1001C24.5979 20.3484 25 19.9463 25 19.4485V18.0987C25 16.2653 23.6277 14.7524 21.8561 14.5274H21.8533ZM19.224 19.4485C19.2813 19.2791 19.3717 19.1228 19.4899 18.9886C19.6081 18.8544 19.7518 18.7451 19.9126 18.6669C20.0735 18.5888 20.2482 18.5433 20.4268 18.5333C20.6053 18.5232 20.7841 18.5487 20.9527 18.6083C21.1213 18.668 21.2763 18.7605 21.4089 18.8805C21.5414 19.0006 21.6487 19.1458 21.7247 19.3077C21.8006 19.4695 21.8437 19.6449 21.8513 19.8236C21.8589 20.0022 21.8309 20.1806 21.7689 20.3484C21.7117 20.5178 21.6213 20.6741 21.5031 20.8083C21.3849 20.9425 21.2412 21.0518 21.0803 21.13C20.9195 21.2082 20.7447 21.2536 20.5662 21.2636C20.3877 21.2737 20.2089 21.2482 20.0403 21.1886C19.8717 21.129 19.7167 21.0364 19.5841 20.9164C19.4516 20.7963 19.3442 20.6511 19.2683 20.4893C19.1923 20.3274 19.1493 20.152 19.1417 19.9733C19.1341 19.7947 19.1621 19.6163 19.224 19.4485ZM11.4993 18.5487C11.8573 18.5487 12.2006 18.6909 12.4537 18.944C12.7069 19.1971 12.8491 19.5405 12.8491 19.8985C12.8491 20.2564 12.7069 20.5998 12.4537 20.8529C12.2006 21.106 11.8573 21.2482 11.4993 21.2482C11.1413 21.2482 10.798 21.106 10.5449 20.8529C10.2917 20.5998 10.1495 20.2564 10.1495 19.8985C10.1495 19.5405 10.2917 19.1971 10.5449 18.944C10.798 18.6909 11.1413 18.5487 11.4993 18.5487Z" fill="#37CD58"/>
</svg>
