<svg width="32" height="32" viewBox="0 0 32 32" fill="none" xmlns="http://www.w3.org/2000/svg">
<rect width="32" height="32" rx="16" fill="#37CD58" fill-opacity="0.4"/>
<path opacity="0.3" d="M26 14V21C26 21.7956 25.6839 22.5587 25.1213 23.1213C24.5587 23.6839 23.7956 24 23 24H9C8.20435 24 7.44129 23.6839 6.87868 23.1213C6.31607 22.5587 6 21.7956 6 21V14H26Z" fill="#37CD58"/>
<path d="M23 8C23.7956 8 24.5587 8.31607 25.1213 8.87868C25.6839 9.44129 26 10.2044 26 11V12H6V11C6 10.2044 6.31607 9.44129 6.87868 8.87868C7.44129 8.31607 8.20435 8 9 8H23ZM22 18H19C18.7348 18 18.4804 18.1054 18.2929 18.2929C18.1054 18.4804 18 18.7348 18 19C18 19.2652 18.1054 19.5196 18.2929 19.7071C18.4804 19.8946 18.7348 20 19 20H22C22.2652 20 22.5196 19.8946 22.7071 19.7071C22.8946 19.5196 23 19.2652 23 19C23 18.7348 22.8946 18.4804 22.7071 18.2929C22.5196 18.1054 22.2652 18 22 18Z" fill="#37CD58"/>
</svg>
