<svg width="32" height="32" viewBox="0 0 32 32" fill="none" xmlns="http://www.w3.org/2000/svg">
<rect width="32" height="32" rx="16" fill="#48A0FF" fill-opacity="0.4"/>
<path d="M16 16.5625C18.9565 16.5625 21.9902 18.4847 22.1867 22.3465C22.1943 22.4954 22.1424 22.6411 22.0426 22.7518C21.9428 22.8625 21.8031 22.929 21.6542 22.9368C20.0942 23.0163 12.8695 23.065 10.3465 22.9368C10.1975 22.9292 10.0576 22.8627 9.95761 22.7521C9.85761 22.6414 9.80567 22.4955 9.81322 22.3465C10.0097 18.4855 13.0435 16.5625 16 16.5625ZM16 9.8125C15.2541 9.8125 14.5387 10.1088 14.0112 10.6363C13.4838 11.1637 13.1875 11.8791 13.1875 12.625C13.1875 13.3709 13.4838 14.0863 14.0112 14.6137C14.5387 15.1412 15.2541 15.4375 16 15.4375C16.7459 15.4375 17.4613 15.1412 17.9887 14.6137C18.5162 14.0863 18.8125 13.3709 18.8125 12.625C18.8125 11.8791 18.5162 11.1637 17.9887 10.6363C17.4613 10.1088 16.7459 9.8125 16 9.8125Z" fill="#48A0FF"/>
</svg>
