<svg width="56" height="56" viewBox="0 0 56 56" fill="none" xmlns="http://www.w3.org/2000/svg">
<rect width="56" height="56" rx="28" fill="#F7F7F7"/>
<path d="M39.76 32.8307C40.3725 31.3432 40.705 29.7507 40.705 28.0007C40.705 26.7407 40.5125 25.5332 40.18 24.4132C39.0425 24.6757 37.8525 24.8157 36.61 24.8157C34.0654 24.8184 31.5575 24.2094 29.2977 23.0398C27.0378 21.8703 25.0923 20.1746 23.625 18.0957C22.0569 21.8945 19.0955 24.9498 15.3475 26.6357C15.2775 27.0732 15.2775 27.5457 15.2775 28.0007C15.2775 29.6714 15.6066 31.3258 16.2459 32.8694C16.8853 34.413 17.8224 35.8155 19.0038 36.9969C21.3898 39.3828 24.6258 40.7232 28 40.7232C29.8375 40.7232 31.605 40.3207 33.1975 39.6032C34.195 41.5107 34.65 42.4557 34.615 42.4557C31.745 43.4182 29.5225 43.8907 28 43.8907C23.765 43.8907 19.7225 42.2282 16.7475 39.2357C14.9363 37.4331 13.591 35.2168 12.8275 32.7782H10.5V24.8157H12.4075C12.9854 22.0026 14.3141 19.3984 16.2526 17.2795C18.1911 15.1606 20.667 13.6059 23.4177 12.7805C26.1684 11.9551 29.0912 11.8898 31.876 12.5914C34.6608 13.2931 37.2038 14.7355 39.235 16.7657C41.4396 18.963 42.9438 21.7642 43.5575 24.8157H45.5V32.7782H45.395L39.165 38.5007L29.89 37.4507V34.5282H38.3425L39.76 32.8307ZM23.2225 27.5982C23.7475 27.5982 24.255 27.8082 24.6225 28.1932C24.9918 28.5655 25.1991 29.0688 25.1991 29.5932C25.1991 30.1176 24.9918 30.6209 24.6225 30.9932C24.255 31.3607 23.7475 31.5707 23.2225 31.5707C22.12 31.5707 21.2275 30.6957 21.2275 29.5932C21.2275 28.4907 22.12 27.5982 23.2225 27.5982ZM32.76 27.5982C33.8625 27.5982 34.7375 28.4907 34.7375 29.5932C34.7375 30.6957 33.8625 31.5707 32.76 31.5707C31.6575 31.5707 30.765 30.6957 30.765 29.5932C30.765 29.0641 30.9752 28.5567 31.3493 28.1825C31.7235 27.8084 32.2309 27.5982 32.76 27.5982Z" fill="#FFA448"/>
</svg>
