<svg width="32" height="32" viewBox="0 0 32 32" fill="none" xmlns="http://www.w3.org/2000/svg">
<rect width="32" height="32" rx="16" fill="#FFA448" fill-opacity="0.4"/>
<g clip-path="url(#clip0_1291_31439)">
<path d="M16.7508 16.4508V13.7508C16.7508 13.5383 16.6788 13.3603 16.5348 13.2168C16.3908 13.0733 16.2128 13.0013 16.0008 13.0008C15.7888 13.0003 15.6108 13.0723 15.4668 13.2168C15.3228 13.3613 15.2508 13.5393 15.2508 13.7508V16.732C15.2508 16.832 15.2695 16.929 15.307 17.023C15.3445 17.117 15.4008 17.2013 15.4758 17.2758L17.5758 19.3758C17.7133 19.5133 17.8883 19.582 18.1008 19.582C18.3133 19.582 18.4883 19.5133 18.6258 19.3758C18.7633 19.2383 18.832 19.0633 18.832 18.8508C18.832 18.6383 18.7633 18.4633 18.6258 18.3258L16.7508 16.4508ZM16.0008 23.5008C15.0633 23.5008 14.1853 23.3228 13.3668 22.9668C12.5483 22.6108 11.8358 22.1295 11.2293 21.523C10.6228 20.9165 10.1415 20.204 9.78553 19.3855C9.42953 18.567 9.25128 17.6888 9.25078 16.7508C9.25028 15.8128 9.42853 14.9348 9.78553 14.1168C10.1425 13.2988 10.6235 12.5863 11.2285 11.9793C11.8335 11.3723 12.546 10.891 13.366 10.5355C14.186 10.18 15.0643 10.0018 16.0008 10.0008C16.9373 9.99978 17.8155 10.178 18.6355 10.5355C19.4555 10.893 20.168 11.3743 20.773 11.9793C21.378 12.5843 21.8593 13.2968 22.2168 14.1168C22.5743 14.9368 22.7523 15.8148 22.7508 16.7508C22.7493 17.6868 22.5713 18.565 22.2168 19.3855C21.8623 20.206 21.381 20.9185 20.773 21.523C20.165 22.1275 19.4525 22.6088 18.6355 22.9668C17.8185 23.3248 16.9403 23.5028 16.0008 23.5008ZM8.53828 12.4758C8.40078 12.3383 8.33203 12.1633 8.33203 11.9508C8.33203 11.7383 8.40078 11.5633 8.53828 11.4258L10.6758 9.28828C10.8133 9.15078 10.9883 9.08203 11.2008 9.08203C11.4133 9.08203 11.5883 9.15078 11.7258 9.28828C11.8633 9.42578 11.932 9.60078 11.932 9.81328C11.932 10.0258 11.8633 10.2008 11.7258 10.3383L9.58828 12.4758C9.45078 12.6133 9.27578 12.682 9.06328 12.682C8.85078 12.682 8.67578 12.6133 8.53828 12.4758ZM23.4633 12.4758C23.3258 12.6133 23.1508 12.682 22.9383 12.682C22.7258 12.682 22.5508 12.6133 22.4133 12.4758L20.2758 10.3383C20.1383 10.2008 20.0695 10.0258 20.0695 9.81328C20.0695 9.60078 20.1383 9.42578 20.2758 9.28828C20.4133 9.15078 20.5883 9.08203 20.8008 9.08203C21.0133 9.08203 21.1883 9.15078 21.3258 9.28828L23.4633 11.4258C23.6008 11.5633 23.6695 11.7383 23.6695 11.9508C23.6695 12.1633 23.6008 12.3383 23.4633 12.4758Z" fill="#FFA448"/>
</g>
<defs>
<clipPath id="clip0_1291_31439">
<rect width="18" height="18" fill="white" transform="translate(7 7)"/>
</clipPath>
</defs>
</svg>
