<svg width="16" height="16" viewBox="0 0 16 16" fill="none" xmlns="http://www.w3.org/2000/svg">
<rect width="16" height="16" rx="8" fill="#37CD58" fill-opacity="0.4"/>
<path opacity="0.5" d="M7.93692 9.62353C5.63292 9.62353 5.22492 7.32753 5.15292 5.50593C5.13292 4.99953 5.12252 4.74593 5.31292 4.51193C5.50332 4.27753 5.73092 4.23913 6.18652 4.16233C6.76513 4.06755 7.35062 4.02112 7.93692 4.02353C8.65012 4.02353 9.23813 4.08633 9.68773 4.16233C10.1429 4.23913 10.3709 4.27753 10.5609 4.51193C10.7513 4.74633 10.7413 4.99953 10.7209 5.50593C10.6489 7.32713 10.2409 9.62353 7.93692 9.62353Z" fill="url(#paint0_linear_948_45109)"/>
<path d="M10.256 8.19146L11.3828 7.56546C11.6836 7.39826 11.834 7.31466 11.9172 7.17386C12 7.03306 12 6.86106 12 6.51666V6.48746C12 6.07026 12 5.86146 11.8868 5.70426C11.7736 5.54706 11.5756 5.48106 11.1796 5.34906L10.8 5.22266L10.7932 5.25666C10.7911 5.33212 10.7881 5.41492 10.7844 5.50506C10.7492 6.39506 10.6336 7.39826 10.2564 8.19146M5.216 5.50506C5.2508 6.39506 5.3664 7.39826 5.744 8.19146L4.6172 7.56546C4.3164 7.39826 4.1656 7.31466 4.0828 7.17386C4 7.03306 4 6.86106 4 6.51666V6.48746C4 6.07026 4 5.86146 4.1132 5.70426C4.2264 5.54706 4.4244 5.48106 4.8204 5.34906L5.2 5.22266L5.2068 5.25746C5.20893 5.33239 5.21187 5.41506 5.2156 5.50546" fill="url(#paint1_linear_948_45109)"/>
<path fill-rule="evenodd" clip-rule="evenodd" d="M5.14258 12.0227C5.14258 11.9431 5.17419 11.8668 5.23045 11.8105C5.28671 11.7543 5.36301 11.7227 5.44258 11.7227H10.2426C10.3221 11.7227 10.3984 11.7543 10.4547 11.8105C10.511 11.8668 10.5426 11.9431 10.5426 12.0227C10.5426 12.1022 10.511 12.1785 10.4547 12.2348C10.3984 12.291 10.3221 12.3227 10.2426 12.3227H5.44258C5.36301 12.3227 5.28671 12.291 5.23045 12.2348C5.17419 12.1785 5.14258 12.1022 5.14258 12.0227Z" fill="url(#paint2_linear_948_45109)"/>
<path opacity="0.5" d="M9.62342 11.7247H6.85742L6.97622 11.0247C6.99434 10.9341 7.04329 10.8525 7.11476 10.7939C7.18622 10.7352 7.27578 10.7032 7.36822 10.7031H9.11222C9.20473 10.7031 9.29439 10.7351 9.36593 10.7938C9.43748 10.8524 9.48649 10.934 9.50462 11.0247L9.62342 11.7247Z" fill="url(#paint3_linear_948_45109)"/>
<path d="M8.05753 9.62266C7.95353 9.62266 7.85353 9.61812 7.75753 9.60906V10.7011H8.35753V9.60906C8.2578 9.61828 8.15769 9.62282 8.05753 9.62266ZM7.71593 5.63186C7.86793 5.35866 7.94393 5.22266 8.05753 5.22266C8.17113 5.22266 8.24713 5.35866 8.39913 5.63186L8.43833 5.70226C8.48153 5.77986 8.50313 5.81826 8.53673 5.84386C8.57073 5.86946 8.61273 5.87906 8.69673 5.89786L8.77273 5.91546C9.06793 5.98226 9.21553 6.01546 9.25073 6.12826C9.28593 6.24106 9.18513 6.35906 8.98393 6.59426L8.93193 6.65506C8.87473 6.72186 8.84593 6.75506 8.83313 6.79666C8.82033 6.83826 8.82473 6.88266 8.83313 6.97186L8.84113 7.05306C8.87153 7.36706 8.88673 7.52426 8.79513 7.59386C8.70313 7.66346 8.56473 7.59986 8.28833 7.47266L8.21713 7.43986C8.13833 7.40386 8.09913 7.38586 8.05753 7.38586C8.01593 7.38586 7.97673 7.40386 7.89793 7.43986L7.82673 7.47266C7.55033 7.60026 7.41193 7.66346 7.31993 7.59386C7.22793 7.52426 7.24353 7.36706 7.27393 7.05306L7.28193 6.97186C7.29033 6.88266 7.29473 6.83826 7.28193 6.79666C7.26913 6.75506 7.24033 6.72186 7.18313 6.65506L7.13113 6.59426C6.92993 6.35906 6.82913 6.24146 6.86433 6.12826C6.89953 6.01546 7.04713 5.98226 7.34233 5.91546L7.41833 5.89786C7.50233 5.87906 7.54433 5.86986 7.57833 5.84386C7.61193 5.81826 7.63353 5.77986 7.67673 5.70226L7.71593 5.63186Z" fill="url(#paint4_linear_948_45109)"/>
<defs>
<linearGradient id="paint0_linear_948_45109" x1="7.93701" y1="4.02344" x2="8.91644" y2="9.41632" gradientUnits="userSpaceOnUse">
<stop stop-color="#FFF374"/>
<stop offset="1" stop-color="#D0C220"/>
</linearGradient>
<linearGradient id="paint1_linear_948_45109" x1="8" y1="5.22266" x2="8.19775" y2="8.16261" gradientUnits="userSpaceOnUse">
<stop stop-color="#FFF374"/>
<stop offset="1" stop-color="#D0C220"/>
</linearGradient>
<linearGradient id="paint2_linear_948_45109" x1="7.84258" y1="11.7227" x2="7.85459" y2="12.3193" gradientUnits="userSpaceOnUse">
<stop stop-color="#FFF374"/>
<stop offset="1" stop-color="#D0C220"/>
</linearGradient>
<linearGradient id="paint3_linear_948_45109" x1="8.24042" y1="10.7031" x2="8.30815" y2="11.7148" gradientUnits="userSpaceOnUse">
<stop stop-color="#FFF374"/>
<stop offset="1" stop-color="#D0C220"/>
</linearGradient>
<linearGradient id="paint4_linear_948_45109" x1="8.05753" y1="5.22266" x2="9.98259" y2="9.87598" gradientUnits="userSpaceOnUse">
<stop stop-color="#FFF374"/>
<stop offset="1" stop-color="#D0C220"/>
</linearGradient>
</defs>
</svg>
