<svg width="32" height="32" viewBox="0 0 32 32" fill="none" xmlns="http://www.w3.org/2000/svg">
<rect width="32" height="32" rx="16" fill="#FFA448" fill-opacity="0.4"/>
<path fill-rule="evenodd" clip-rule="evenodd" d="M11 9.182C11 9.027 11 8.949 10.95 8.904C10.898 8.859 10.822 8.869 10.67 8.889C9.55 9.032 8.768 9.325 8.172 9.922C7 11.093 7 12.979 7 16.75C7 20.521 7 22.407 8.172 23.578C9.344 24.749 11.229 24.75 15 24.75H17C20.771 24.75 22.657 24.75 23.828 23.578C24.999 22.406 25 20.521 25 16.75C25 12.979 25 11.093 23.828 9.922C23.232 9.325 22.45 9.032 21.329 8.889C21.178 8.869 21.102 8.859 21.051 8.904C21 8.949 21 9.027 21 9.182V11.25C21 11.6478 20.842 12.0294 20.5607 12.3107C20.2794 12.592 19.8978 12.75 19.5 12.75C19.1022 12.75 18.7206 12.592 18.4393 12.3107C18.158 12.0294 18 11.6478 18 11.25V9.05C18 8.909 18 8.838 17.956 8.795C17.912 8.752 17.842 8.75 17.701 8.75H14.3C14.158 8.75 14.088 8.75 14.044 8.795C14 8.838 14 8.909 14 9.05V11.25C14 11.6478 13.842 12.0294 13.5607 12.3107C13.2794 12.592 12.8978 12.75 12.5 12.75C12.1022 12.75 11.7206 12.592 11.4393 12.3107C11.158 12.0294 11 11.6478 11 11.25V9.182Z" fill="#FFA448" fill-opacity="0.4"/>
<path d="M12.5 7.25V11.25ZM19.5 7.25V11.25Z" fill="#F88706" fill-opacity="0.3"/>
<path d="M12.5 7.25V11.25M19.5 7.25V11.25" stroke="#FFA448" stroke-linecap="round"/>
<path d="M18.1218 19.8713L13.8791 15.6287ZM18.1218 15.6287L13.8791 19.8713Z" fill="#FFA448" fill-opacity="0.4"/>
<path d="M18.1218 19.8713L13.8791 15.6287M18.1218 15.6287L13.8791 19.8713" stroke="#FFA448" stroke-width="1.2" stroke-linecap="round"/>
</svg>
