<svg width="32" height="32" viewBox="0 0 32 32" fill="none" xmlns="http://www.w3.org/2000/svg">
<rect width="32" height="32" rx="16" fill="#F7F7F7"/>
<path opacity="0.5" d="M22.7507 12.9993V13.7033C22.7507 14.5484 22.9907 15.3744 23.4427 16.0774L24.5508 17.8005C25.5618 19.3746 24.7898 21.5137 23.0307 22.0107C18.4342 23.3124 13.5666 23.3124 8.97014 22.0107C7.21107 21.5137 6.43904 19.3746 7.45008 17.8005L8.55813 16.0774C9.01136 15.3686 9.25187 14.5447 9.25115 13.7033V12.9993C9.25115 9.13315 12.2733 5.99902 16.0004 5.99902C19.7276 5.99902 22.7507 9.13315 22.7507 12.9993Z" fill="#FFA448"/>
<path d="M11.2422 22.5449C11.5689 23.5491 12.2051 24.4241 13.0596 25.0446C13.914 25.6651 14.9429 25.9993 15.9989 25.9993C17.0549 25.9993 18.0838 25.6651 18.9382 25.0446C19.7927 24.4241 20.4288 23.5491 20.7556 22.5449C17.6104 23.1349 14.3883 23.1349 11.2422 22.5449Z" fill="#282828"/>
</svg>
