<svg width="32" height="32" viewBox="0 0 32 32" fill="none" xmlns="http://www.w3.org/2000/svg">
<path fill-rule="evenodd" clip-rule="evenodd" d="M4.62644 16.7071C4.43917 16.5196 4.33398 16.2654 4.33398 16.0004C4.33398 15.7354 4.43917 15.4813 4.62644 15.2938L12.6264 7.29378C12.718 7.19553 12.8284 7.11673 12.9511 7.06207C13.0737 7.00742 13.2061 6.97803 13.3404 6.97566C13.4747 6.97329 13.6081 6.99799 13.7326 7.04828C13.8571 7.09858 13.9702 7.17344 14.0652 7.2684C14.1601 7.36336 14.235 7.47647 14.2853 7.60098C14.3356 7.7255 14.3603 7.85887 14.3579 7.99314C14.3555 8.12741 14.3261 8.25983 14.2715 8.3825C14.2168 8.50517 14.138 8.61557 14.0398 8.70711L7.74644 15.0004L26.6664 15.0004C26.9317 15.0004 27.186 15.1058 27.3735 15.2933C27.5611 15.4809 27.6664 15.7352 27.6664 16.0004C27.6664 16.2657 27.5611 16.52 27.3735 16.7076C27.186 16.8951 26.9317 17.0004 26.6664 17.0004H7.74644L14.0398 23.2938C14.138 23.3853 14.2168 23.4957 14.2715 23.6184C14.3261 23.7411 14.3555 23.8735 14.3579 24.0077C14.3603 24.142 14.3356 24.2754 14.2853 24.3999C14.235 24.5244 14.1601 24.6375 14.0652 24.7325C13.9702 24.8275 13.8571 24.9023 13.7326 24.9526C13.6081 25.0029 13.4747 25.0276 13.3404 25.0252C13.2061 25.0229 13.0737 24.9935 12.9511 24.9388C12.8284 24.8842 12.718 24.8054 12.6264 24.7071L4.62644 16.7071Z" fill="#282828"/>
</svg>
