<svg width="32" height="32" viewBox="0 0 32 32" fill="none" xmlns="http://www.w3.org/2000/svg">
<rect width="32" height="32" rx="16" fill="#FFA448" fill-opacity="0.4"/>
<path d="M16 26C21.523 26 26 21.523 26 16C26 10.477 21.523 6 16 6C10.477 6 6 10.477 6 16C6 17.6 6.376 19.112 7.043 20.453C7.221 20.809 7.28 21.216 7.177 21.601L6.582 23.827C6.52307 24.0473 6.52312 24.2792 6.58216 24.4995C6.64119 24.7197 6.75712 24.9206 6.91831 25.0819C7.07951 25.2432 7.2803 25.3593 7.50053 25.4184C7.72075 25.4776 7.95267 25.4778 8.173 25.419L10.399 24.823C10.7854 24.7254 11.1941 24.7727 11.548 24.956C12.9309 25.6446 14.4551 26.002 16 26Z" fill="#FFA448"/>
</svg>
