<svg width="32" height="32" viewBox="0 0 32 32" fill="none" xmlns="http://www.w3.org/2000/svg">
<rect width="32" height="32" rx="16" fill="#48A0FF" fill-opacity="0.4"/>
<g clip-path="url(#clip0_1291_31422)">
<path d="M11.4531 12.1188C12.55 10.8281 14.1719 10 16 10C19.3156 10 22 12.6844 22 16H24C24 11.5813 20.4187 8 16 8C13.6188 8 11.4906 9.04375 10.0281 10.6937L8 8.66562V14H13.3344L11.4531 12.1188ZM20.5469 19.8813C19.4469 21.1719 17.8281 22 16 22C12.6844 22 10 19.3156 10 16H8C8 20.4187 11.5813 24 16 24C18.3812 24 20.5094 22.9562 21.9719 21.3062L24 23.3344V18H18.6656L20.5469 19.8813Z" fill="#48A0FF"/>
</g>
<defs>
<clipPath id="clip0_1291_31422">
<rect width="16" height="16" fill="white" transform="translate(8 8)"/>
</clipPath>
</defs>
</svg>
