<svg width="26" height="26" viewBox="0 0 26 26" fill="none" xmlns="http://www.w3.org/2000/svg">
<g clip-path="url(#clip0_1290_31002)">
<path d="M19.1666 12.802C18.8732 12.5087 18.4009 12.5087 18.1076 12.802L12.8051 18.1045C11.3409 19.5687 8.96682 19.5712 7.50013 18.1045C6.03343 16.6378 6.03592 14.2637 7.50013 12.7995L13.8641 6.43556C14.7416 5.55803 16.1661 5.55554 17.0461 6.43556C17.9261 7.31558 17.9236 8.74001 17.0461 9.61754L11.7411 14.9225C11.4478 15.2158 10.973 15.2133 10.6821 14.9225C10.3913 14.6316 10.3888 14.1568 10.6821 13.8635L14.9256 9.62002C15.2189 9.32669 15.2164 8.85187 14.9256 8.56102C14.6322 8.26768 14.1599 8.26768 13.8666 8.56102L9.6231 12.8045C8.74309 13.6845 8.74309 15.1065 9.6231 15.9865C10.5031 16.8665 11.9251 16.8665 12.8051 15.9865L18.1076 10.684C19.5693 9.21731 19.5693 6.84076 18.1051 5.37656C16.6409 3.91235 14.2668 3.91483 12.8026 5.37904L6.43864 11.743C4.38775 13.7939 4.39024 17.1176 6.43864 19.166C8.48704 21.2144 11.8132 21.2144 13.8616 19.166L19.1666 13.861C19.4599 13.5677 19.4599 13.0953 19.1666 12.802Z" fill="#282828"/>
</g>
<defs>
<clipPath id="clip0_1290_31002">
<rect width="18" height="18" fill="white" transform="translate(12.7285) rotate(45)"/>
</clipPath>
</defs>
</svg>
