<svg width="100" height="100" viewBox="0 0 100 100" fill="none" xmlns="http://www.w3.org/2000/svg">
<g style="mix-blend-mode:screen">
<rect x="10" y="10" width="80" height="80" rx="40" fill="#414141"/>
<path d="M48.3333 52.9167H50V46.25M56.6667 45.8333V43.3333M45 59.5C47.5 57.5 51.5 57.5 55 59.5M43.3333 45.8333V43.3333M45.6667 65C41.9333 65 40.0667 65 38.64 64.2733C37.3856 63.6342 36.3658 62.6144 35.7267 61.36C35 59.9333 35 58.0667 35 54.3333M65 54.3333C65 58.0667 65 59.9333 64.2733 61.36C63.6342 62.6144 62.6144 63.6342 61.36 64.2733C59.9333 65 58.0667 65 54.3333 65M54.3333 35C58.0667 35 59.9333 35 61.36 35.7267C62.6144 36.3658 63.6342 37.3856 64.2733 38.64C65 40.0667 65 41.9333 65 45.6667M45.6667 35C41.9333 35 40.0667 35 38.64 35.7267C37.3856 36.3658 36.3658 37.3856 35.7267 38.64C35 40.0667 35 41.9333 35 45.6667" stroke="white" stroke-width="1.875" stroke-linecap="round" stroke-linejoin="round"/>
<circle cx="50" cy="50" r="47" stroke="#414141" stroke-width="6"/>
</g>
</svg>
