<svg width="100" height="100" viewBox="0 0 100 100" fill="none" xmlns="http://www.w3.org/2000/svg">
<circle cx="49.5" cy="50" r="40" fill="#37CD58"/>
<path d="M44.4439 56.1589L61.982 38.6208C62.3959 38.2069 62.8788 38 63.4306 38C63.9824 38 64.4653 38.2069 64.8792 38.6208C65.2931 39.0347 65.5 39.5265 65.5 40.0963C65.5 40.6661 65.2931 41.1572 64.8792 41.5697L45.8925 60.6081C45.4786 61.022 44.9958 61.229 44.4439 61.229C43.8921 61.229 43.4092 61.022 42.9953 60.6081L34.0969 51.7097C33.6831 51.2959 33.4844 50.8047 33.501 50.2363C33.5175 49.6679 33.7334 49.1761 34.1487 48.7609C34.5639 48.3456 35.0558 48.1387 35.6242 48.14C36.1925 48.1414 36.6837 48.3484 37.0976 48.7609L44.4439 56.1589Z" fill="white"/>
<circle cx="50" cy="50" r="47" stroke="#F7F7F7" stroke-width="6"/>
<circle cx="50" cy="50" r="47" stroke="#37CD58" stroke-width="6"/>
</svg>
